<svg width="1432" height="316" viewBox="0 0 1432 316" fill="none" xmlns="http://www.w3.org/2000/svg">
<path d="M0.710938 313V3.625H85.7891C108.055 3.625 124.812 9.83594 136.062 22.2578C147.312 34.5625 152.938 52.6094 152.938 76.3984V221.242C152.938 250.539 147.781 273.156 137.469 289.094C127.273 305.031 109.344 313 83.6797 313H0.710938ZM62.9375 258.332H73.6602C85.0273 258.332 90.7109 252.824 90.7109 241.809V82.1992C90.7109 71.8867 89.3047 65.2656 86.4922 62.3359C83.7969 59.2891 78.2305 57.7656 69.793 57.7656H62.9375V258.332ZM178.25 313V3.625H302V63.3906H241.18V123.684H299.539V181.867H241.18V252.707H306.043V313H178.25ZM355.086 313L316.941 3.44922H375.828L398.504 214.035L418.719 3.44922H477.605L439.461 313H355.086ZM495.711 313V3.625H619.461V63.3906H558.641V123.684H617V181.867H558.641V252.707H623.504V313H495.711ZM644.07 313V3.625H705.945V260.266H769.578V313H644.07ZM860.984 315.812C836.258 315.812 817.332 308.371 804.207 293.488C791.199 278.488 784.695 256.867 784.695 228.625V81.6719C784.695 55.1875 791.141 35.0898 804.031 21.3789C817.039 7.66797 836.023 0.8125 860.984 0.8125C885.945 0.8125 904.871 7.66797 917.762 21.3789C930.77 35.0898 937.273 55.1875 937.273 81.6719V228.625C937.273 256.867 930.711 278.488 917.586 293.488C904.578 308.371 885.711 315.812 860.984 315.812ZM861.512 258.859C870.887 258.859 875.574 249.777 875.574 231.613V80.6172C875.574 65.3828 871.004 57.7656 861.863 57.7656C851.551 57.7656 846.395 65.5586 846.395 81.1445V231.965C846.395 241.574 847.566 248.488 849.91 252.707C852.254 256.809 856.121 258.859 861.512 258.859ZM962.234 313V3.625H1043.97C1061.08 3.625 1074.62 7.43359 1084.58 15.0508C1094.66 22.668 1101.86 33.5078 1106.2 47.5703C1110.54 61.6328 1112.7 78.3906 1112.7 97.8438C1112.7 116.594 1110.89 132.941 1107.25 146.887C1103.62 160.715 1097.12 171.438 1087.74 179.055C1078.48 186.672 1065.3 190.48 1048.19 190.48H1023.05V313H962.234ZM1023.05 134.934H1026.57C1038.05 134.934 1045.09 131.711 1047.66 125.266C1050.24 118.82 1051.53 109.328 1051.53 96.7891C1051.53 85.0703 1050.24 76.0469 1047.66 69.7188C1045.2 63.2734 1039.29 60.0508 1029.91 60.0508H1023.05V134.934ZM1132.39 313V3.625H1256.14V63.3906H1195.32V123.684H1253.68V181.867H1195.32V252.707H1260.18V313H1132.39ZM1280.75 313V3.625H1375.67C1391.49 3.625 1403.45 7.25781 1411.53 14.5234C1419.62 21.6719 1425.01 31.75 1427.7 44.7578C1430.52 57.6484 1431.92 72.8242 1431.92 90.2852C1431.92 107.16 1429.75 120.637 1425.42 130.715C1421.2 140.793 1413.17 147.766 1401.34 151.633C1411.06 153.625 1417.86 158.488 1421.73 166.223C1425.71 173.84 1427.7 183.742 1427.7 195.93V313H1366.71V191.887C1366.71 182.863 1364.83 177.297 1361.08 175.188C1357.45 172.961 1351.53 171.848 1343.33 171.848V313H1280.75ZM1343.68 118.234H1358.62C1367.18 118.234 1371.45 108.918 1371.45 90.2852C1371.45 78.2148 1370.52 70.3047 1368.64 66.5547C1366.77 62.8047 1363.25 60.9297 1358.09 60.9297H1343.68V118.234Z" fill="black"/>
</svg>
