<svg width="872" height="455" viewBox="0 0 872 455" fill="none" xmlns="http://www.w3.org/2000/svg">
<g id="Group 6">
<rect id="Rectangle 16" x="313" y="75" width="559" height="380" fill="white"/>
<g id="secondary">
<rect id="Rectangle 12" x="182" y="114" width="259" height="59" fill="black"/>
<rect id="Rectangle 13" x="180" y="233" width="253" height="59" fill="black"/>
<rect id="Rectangle 14" x="182" y="363" width="259" height="60" fill="black"/>
<path id="B" d="M462.711 423V113.625H546.559C569.059 113.625 585.406 119.133 595.602 130.148C605.914 141.047 611.07 159.094 611.07 184.289V197.824C611.07 212.355 608.434 224.133 603.16 233.156C598.004 242.18 590.094 248.098 579.43 250.91C593.375 254.426 602.691 262.688 607.379 275.695C612.184 288.586 614.586 304.348 614.586 322.98C614.586 343.02 612.711 360.539 608.961 375.539C605.211 390.539 598.414 402.199 588.57 410.52C578.727 418.84 564.723 423 546.559 423H462.711ZM523.18 230.168H535.836C541.578 230.168 545.27 227.941 546.91 223.488C548.551 219.035 549.371 213.703 549.371 207.492V176.379C549.371 166.418 544.977 161.438 536.188 161.438H523.18V230.168ZM529.332 368.508C545.387 368.508 553.414 360.891 553.414 345.656V306.984C553.414 298.195 552.066 291.281 549.371 286.242C546.793 281.086 541.871 278.508 534.605 278.508H523.18V368.156C525.758 368.391 527.809 368.508 529.332 368.508Z" fill="black"/>
</g>
<rect id="Rectangle 15" y="75" width="313" height="380" fill="white"/>
<path id="WE" d="M74.9688 423L41.7461 113.625H102.215L119.266 308.918L136.668 113.625H194.324L210.848 308.918L227.371 113.625H288.543L254.793 423H180.613L165.145 274.113L150.379 423H74.9688ZM307 423V113.625H430.75V173.391H369.93V233.684H428.289V291.867H369.93V362.707H434.793V423H307Z" fill="black"/>
</g>
</svg>
