<svg width="252" height="252" viewBox="0 0 252 252" fill="none" xmlns="http://www.w3.org/2000/svg">
<path d="M126 235.439C189.882 235.439 241.668 212.792 241.668 184.857C241.668 156.922 189.882 134.276 126 134.276C62.1184 134.276 10.332 156.922 10.332 184.857C10.332 212.792 62.1184 235.439 126 235.439Z" fill="#FAFAFA"/>
<path d="M201.595 196.666C215.279 196.666 226.372 191.379 226.372 184.857C226.372 178.335 215.279 173.048 201.595 173.048C187.911 173.048 176.818 178.335 176.818 184.857C176.818 191.379 187.911 196.666 201.595 196.666Z" fill="#EBEBEB"/>
<path d="M47.7034 171.894C47.7034 171.894 48.2074 162.233 43.3942 155.413C38.581 148.594 32.538 148.453 30.1138 149.426C27.6895 150.399 25.8398 153.629 29.6098 156.401C33.3797 159.173 41.3983 164.773 42.4114 169.208L47.7034 171.894Z" fill="#121212"/>
<path opacity="0.15" d="M47.7034 171.894C47.7034 171.894 48.2074 162.233 43.3942 155.413C38.581 148.594 32.538 148.453 30.1138 149.426C27.6895 150.399 25.8398 153.629 29.6098 156.401C33.3797 159.173 41.3983 164.773 42.4114 169.208L47.7034 171.894Z" fill="black"/>
<path d="M45.9443 169.974C45.8862 169.974 45.8299 169.954 45.7849 169.917C45.7399 169.881 45.709 169.829 45.6974 169.773C43.0262 156.593 35.2192 152.904 31.9886 151.926C31.9244 151.907 31.8703 151.864 31.8382 151.805C31.806 151.747 31.7985 151.678 31.8172 151.613C31.8381 151.55 31.8829 151.497 31.9422 151.466C32.0015 151.435 32.0706 151.428 32.1347 151.447C35.451 152.455 43.4647 156.225 46.1913 169.672C46.1986 169.704 46.1993 169.738 46.1933 169.771C46.1873 169.803 46.1748 169.835 46.1564 169.862C46.1381 169.89 46.1143 169.914 46.0865 169.932C46.0587 169.951 46.0275 169.963 45.9947 169.969L45.9443 169.974Z" fill="white"/>
<path d="M43.2078 166.32C42.1444 163.13 40.7433 161.613 36.303 161.95C31.8628 162.288 32.5129 162.233 27.2613 160.373C22.0096 158.513 18.0885 160.373 17.5089 162.419C16.8789 164.627 21.178 166.013 24.3179 167.772C27.4578 169.531 29.5343 171.592 28.486 174.465C27.5889 176.929 27.8157 179.102 31.6209 180.372C35.0077 181.501 38.8785 179.837 40.0024 183.275C40.6425 185.235 43.6866 187.584 46.8215 186.097C52.431 181.395 51.5541 174.959 48.6309 170.508C47.3457 168.553 43.8479 168.24 43.2078 166.32Z" fill="#121212"/>
<path d="M46.3275 180.573C46.2749 180.574 46.2236 180.557 46.181 180.526C46.1384 180.495 46.1067 180.452 46.0906 180.402C42.7844 170.987 27.2158 162.817 21.5256 161.895C21.46 161.883 21.4016 161.845 21.3631 161.791C21.3245 161.736 21.3087 161.669 21.319 161.603C21.3239 161.57 21.3352 161.539 21.3524 161.511C21.3696 161.482 21.3923 161.458 21.419 161.439C21.4458 161.419 21.4762 161.406 21.5083 161.398C21.5405 161.391 21.5738 161.39 21.6063 161.396C27.3821 162.338 43.1976 170.649 46.5644 180.235C46.5871 180.298 46.5839 180.368 46.5555 180.428C46.5272 180.489 46.476 180.535 46.4132 180.558L46.3275 180.573Z" fill="white"/>
<path d="M32.3666 175.453C32.3281 175.452 32.2902 175.443 32.2554 175.427C32.2206 175.41 32.1898 175.386 32.165 175.357C32.1257 175.303 32.1084 175.237 32.1168 175.171C32.1253 175.106 32.1588 175.046 32.2104 175.004C34.7305 173.255 37.7112 172.289 40.7784 172.227C40.8452 172.227 40.9093 172.253 40.9566 172.301C41.0039 172.348 41.0304 172.412 41.0304 172.479C41.0304 172.546 41.0039 172.61 40.9566 172.657C40.9093 172.704 40.8452 172.731 40.7784 172.731C37.8282 172.807 34.9623 173.731 32.5229 175.392C32.4792 175.429 32.4241 175.451 32.3666 175.453Z" fill="white"/>
<path d="M143.509 35.8898V127.638L50.3042 181.445L52.4059 185.749L143.509 133.157L147.581 133.535V36.2829L143.509 35.8898Z" fill="#F0F0F0"/>
<path d="M124.775 86.3957L125.536 85.3323L120.723 82.5502H120.688C120.333 82.3461 119.915 82.2847 119.517 82.3783C119.119 82.4719 118.772 82.7136 118.546 83.0542L105.27 103.491L91.5161 91.5819L92.0856 90.7251L87.3178 87.9732C86.9611 87.7588 86.5351 87.6914 86.1297 87.7855C85.7243 87.8796 85.3713 88.1276 85.1456 88.4772L50.3091 140.747V178.179L55.087 180.936L141.12 128.52V102.115L124.775 86.3957Z" fill="#F0F0F0"/>
<path d="M55.0869 180.936V143.509L89.9184 91.224C90.0446 91.0333 90.21 90.8717 90.4036 90.75C90.5972 90.6283 90.8146 90.5493 91.0412 90.5183C91.2678 90.4873 91.4984 90.505 91.7176 90.5702C91.9368 90.6354 92.1396 90.7466 92.3124 90.8964L110.048 106.253L123.323 85.8161C123.453 85.6171 123.625 85.4492 123.827 85.3243C124.029 85.1995 124.256 85.1208 124.492 85.0938C124.728 85.0668 124.967 85.0923 125.192 85.1684C125.417 85.2444 125.622 85.3692 125.793 85.5339L145.893 104.877V126.932C145.892 127.413 145.766 127.885 145.527 128.302C145.287 128.718 144.942 129.065 144.527 129.306L55.0869 180.936Z" fill="#FAFAFA"/>
<path d="M110.048 106.253L117.22 112.463L110.945 104.877L110.048 106.253Z" fill="#F0F0F0"/>
<path d="M150.661 34.3929C150.656 34.3399 150.646 34.2876 150.63 34.2367C150.56 33.863 150.415 33.5075 150.203 33.1913C149.992 32.8752 149.719 32.6051 149.401 32.3971L147.168 31.1068C146.773 30.9055 146.336 30.8005 145.893 30.8005C145.45 30.8005 145.013 30.9055 144.618 31.1068L46.8064 87.58C46.4302 87.8181 46.1186 88.1453 45.8992 88.5326C45.6727 88.9132 45.5461 89.3449 45.5312 89.7876V186.183C45.5553 186.625 45.6833 187.055 45.9048 187.439C46.1264 187.822 46.4353 188.148 46.8064 188.39L49.0341 189.68C49.3807 189.855 49.7595 189.956 50.1469 189.979C50.5344 190.002 50.9224 189.945 51.2869 189.811L51.3777 189.776C51.4497 189.752 51.519 189.72 51.5843 189.68L79.8839 173.341L149.401 133.207C149.771 132.964 150.079 132.638 150.301 132.255C150.522 131.872 150.65 131.442 150.676 131V34.5996C150.696 34.529 150.666 34.4584 150.661 34.3929ZM147.581 129.306C147.557 129.749 147.428 130.18 147.206 130.564C146.983 130.947 146.673 131.273 146.301 131.514L79.1279 170.1L53.9733 184.832C53.2727 185.235 52.6981 184.907 52.6981 184.096V93.9254C52.7131 93.4837 52.8416 93.0532 53.0711 92.6755C53.28 92.2821 53.5918 91.9529 53.9733 91.7229L146.301 38.4048C147.012 37.9915 147.581 38.3191 147.581 39.1356V129.306Z" fill="white"/>
<path d="M51.5843 189.68C51.519 189.72 51.4497 189.752 51.3777 189.776L51.2869 189.811C50.9224 189.945 50.5344 190.002 50.1469 189.979C49.7595 189.956 49.3807 189.855 49.0341 189.68L46.8064 188.39C46.4353 188.148 46.1264 187.822 45.9048 187.439C45.6833 187.055 45.5553 186.625 45.5312 186.183V89.7875C45.5461 89.3449 45.6727 88.9132 45.8992 88.5326L50.6771 91.2895C51.4533 91.738 52.2546 92.1967 53.0711 92.6755C52.8416 93.0532 52.7131 93.4837 52.6981 93.9254V184.096C52.6981 184.907 53.2727 185.235 53.9733 184.832L51.5843 189.68Z" fill="#F0F0F0"/>
<path d="M150.661 34.393C150.656 34.34 150.646 34.2876 150.63 34.2367C150.479 33.7025 149.985 33.5261 149.401 33.8638L51.5844 90.347C51.2101 90.5847 50.8985 90.9089 50.6757 91.2922C50.453 91.6755 50.3255 92.1067 50.3042 92.5495V188.945C50.3042 189.635 50.7225 189.978 51.282 189.811L51.3727 189.776C51.4448 189.752 51.514 189.72 51.5793 189.68L149.396 133.232C149.766 132.99 150.074 132.664 150.296 132.28C150.517 131.897 150.646 131.467 150.671 131.025V34.5996C150.696 34.529 150.666 34.4585 150.661 34.393ZM147.581 129.306C147.557 129.749 147.428 130.18 147.206 130.564C146.983 130.947 146.673 131.273 146.301 131.514L53.9733 184.832C53.2728 185.235 52.6982 184.908 52.6982 184.096V93.9254C52.7132 93.4837 52.8416 93.0533 53.0712 92.6755C53.2801 92.2822 53.5919 91.9529 53.9733 91.723L146.301 38.4048C147.012 37.9915 147.581 38.3191 147.581 39.1356V129.306Z" fill="#FAFAFA"/>
<path d="M133.595 63.1008L136.009 58.9982L131.877 56.5891C130.662 55.8936 128.989 55.9944 127.144 57.0629C123.445 59.1998 120.441 64.3961 120.441 68.6549C120.441 70.7616 121.177 72.2484 122.356 72.959H122.391L126.373 75.2724L128.681 71.3613C131.144 69.1906 132.863 66.3011 133.595 63.1008Z" fill="#F0F0F0"/>
<path d="M135.929 69.8896C138.545 65.3577 138.546 60.4597 135.931 58.9496C133.315 57.4396 129.074 59.8893 126.457 64.4212C123.841 68.9531 123.84 73.8511 126.456 75.3612C129.071 76.8712 133.312 74.4215 135.929 69.8896Z" fill="#FAFAFA"/>
<path d="M155.101 42.4418V134.19L61.896 187.997L63.9977 192.301L155.101 139.709L159.173 140.087V42.8349L155.101 42.4418Z" fill="#EBEBEB"/>
<path d="M136.367 92.9477L137.128 91.8843L132.315 89.1022H132.279C131.925 88.8981 131.507 88.8367 131.109 88.9303C130.711 89.0239 130.363 89.2656 130.137 89.6062L116.862 110.043L103.108 98.1339L103.677 97.2771L98.9096 94.5252C98.5529 94.3108 98.1269 94.2434 97.7215 94.3375C97.3161 94.4316 96.9631 94.6796 96.7374 95.0292L61.9009 147.299V184.731L66.6788 187.488L152.712 135.072V108.667L136.367 92.9477Z" fill="#EBEBEB"/>
<path d="M66.6787 187.488V150.061L101.51 97.776C101.636 97.5853 101.802 97.4237 101.995 97.302C102.189 97.1803 102.406 97.1013 102.633 97.0703C102.86 97.0393 103.09 97.057 103.309 97.1222C103.529 97.1874 103.731 97.2986 103.904 97.4484L121.64 112.805L134.915 92.3681C135.045 92.1691 135.217 92.0012 135.419 91.8763C135.621 91.7515 135.848 91.6728 136.084 91.6458C136.32 91.6188 136.559 91.6443 136.783 91.7204C137.008 91.7964 137.214 91.9212 137.385 92.0859L157.484 111.429V133.484C157.484 133.965 157.358 134.437 157.118 134.854C156.879 135.27 156.534 135.617 156.119 135.858L66.6787 187.488Z" fill="#F5F5F5"/>
<path d="M121.64 112.805L128.812 119.015L122.537 111.429L121.64 112.805Z" fill="#EBEBEB"/>
<path d="M162.252 40.9449C162.248 40.8919 162.238 40.8396 162.222 40.7887C162.152 40.415 162.006 40.0595 161.795 39.7433C161.584 39.4272 161.311 39.1571 160.992 38.9491L158.76 37.6588C158.365 37.4575 157.928 37.3525 157.485 37.3525C157.041 37.3525 156.604 37.4575 156.209 37.6588L58.3982 94.132C58.022 94.3701 57.7104 94.6973 57.491 95.0846C57.2645 95.4652 57.1379 95.8969 57.123 96.3396V192.735C57.1471 193.177 57.2751 193.607 57.4966 193.991C57.7182 194.374 58.0271 194.7 58.3982 194.942L60.6258 196.232C60.9725 196.407 61.3513 196.508 61.7387 196.531C62.1262 196.554 62.5142 196.497 62.8787 196.363L62.9695 196.328C63.0415 196.304 63.1108 196.272 63.1761 196.232L91.4757 179.893L160.992 139.759C161.363 139.516 161.671 139.19 161.892 138.807C162.114 138.424 162.242 137.994 162.268 137.552V41.1516C162.288 41.081 162.257 41.0104 162.252 40.9449ZM159.173 135.858C159.149 136.301 159.02 136.732 158.798 137.116C158.575 137.499 158.265 137.825 157.893 138.066L90.7197 176.652L65.565 191.384C64.8645 191.787 64.2899 191.459 64.2899 190.648V100.477C64.3049 100.036 64.4334 99.6052 64.6629 99.2275C64.8718 98.8341 65.1836 98.5049 65.565 98.2749L157.893 44.9568C158.603 44.5435 159.173 44.8711 159.173 45.6876V135.858Z" fill="#FAFAFA"/>
<path d="M63.1761 196.232C63.1108 196.272 63.0415 196.304 62.9695 196.328L62.8787 196.363C62.5142 196.497 62.1262 196.554 61.7387 196.531C61.3513 196.508 60.9725 196.407 60.6258 196.232L58.3982 194.942C58.0271 194.7 57.7182 194.374 57.4966 193.991C57.2751 193.607 57.1471 193.177 57.123 192.735V96.3395C57.1379 95.8969 57.2645 95.4652 57.491 95.0846L62.2689 97.8415C63.0451 98.29 63.8464 98.7487 64.6629 99.2275C64.4334 99.6052 64.3049 100.036 64.2899 100.477V190.648C64.2899 191.459 64.8645 191.787 65.565 191.384L63.1761 196.232Z" fill="#F0F0F0"/>
<path d="M162.252 40.945C162.248 40.892 162.238 40.8396 162.222 40.7887C162.071 40.2545 161.577 40.0781 160.992 40.4158L63.1762 96.899C62.8019 97.1367 62.4903 97.4609 62.2675 97.8442C62.0447 98.2275 61.9173 98.6587 61.896 99.1015V195.497C61.896 196.187 62.3143 196.53 62.8738 196.363L62.9645 196.328C63.0366 196.304 63.1058 196.272 63.1711 196.232L160.987 139.784C161.358 139.542 161.666 139.216 161.887 138.832C162.109 138.449 162.237 138.019 162.263 137.577V41.1516C162.288 41.081 162.258 41.0105 162.252 40.945ZM159.173 135.858C159.149 136.301 159.02 136.732 158.798 137.116C158.575 137.499 158.265 137.825 157.893 138.066L65.5651 191.384C64.8646 191.787 64.29 191.46 64.29 190.648V100.477C64.305 100.036 64.4334 99.6053 64.663 99.2275C64.8719 98.8342 65.1837 98.5049 65.5651 98.275L157.893 44.9568C158.604 44.5435 159.173 44.8711 159.173 45.6876V135.858Z" fill="#F5F5F5"/>
<path d="M145.187 69.6528L147.601 65.5502L143.468 63.1411C142.254 62.4456 140.581 62.5464 138.736 63.6149C135.037 65.7518 132.033 70.9481 132.033 75.2069C132.033 77.3136 132.769 78.8004 133.948 79.511H133.983H134.008L137.99 81.8244L140.298 77.9133C142.752 75.7391 144.462 72.8499 145.187 69.6528Z" fill="#EBEBEB"/>
<path d="M147.525 76.4423C150.142 71.9104 150.142 67.0124 147.527 65.5024C144.911 63.9923 140.67 66.442 138.054 70.9739C135.437 75.5058 135.436 80.4038 138.052 81.9139C140.667 83.4239 144.909 80.9742 147.525 76.4423Z" fill="#F5F5F5"/>
<path d="M166.693 48.9938V140.742L73.4883 194.549L75.595 198.853L166.693 146.261L170.765 146.639V49.3869L166.693 48.9938Z" fill="#E0E0E0"/>
<path d="M147.959 99.4997L148.72 98.4363L143.907 95.6542H143.872C143.518 95.4501 143.099 95.3887 142.701 95.4823C142.303 95.5759 141.956 95.8176 141.73 96.1582L128.454 116.595L114.7 104.686L115.27 103.829L110.502 101.077C110.145 100.863 109.719 100.795 109.314 100.89C108.908 100.984 108.555 101.232 108.33 101.581L73.4932 153.851V191.283L78.2711 194.04L164.304 141.624V115.219L147.959 99.4997Z" fill="#E6E6E6"/>
<path d="M78.271 194.04V156.613L113.102 104.328C113.229 104.137 113.394 103.976 113.588 103.854C113.781 103.732 113.999 103.653 114.225 103.622C114.452 103.591 114.682 103.609 114.902 103.674C115.121 103.739 115.324 103.851 115.496 104L133.232 119.357L146.508 98.9201C146.637 98.7211 146.809 98.5532 147.011 98.4283C147.213 98.3035 147.44 98.2248 147.676 98.1978C147.912 98.1708 148.151 98.1963 148.376 98.2724C148.601 98.3484 148.806 98.4732 148.977 98.6379L169.077 117.981V140.036C169.077 140.517 168.95 140.989 168.711 141.406C168.471 141.822 168.126 142.169 167.711 142.41L78.271 194.04Z" fill="#EBEBEB"/>
<path d="M133.232 119.357L140.404 125.567L134.13 117.981L133.232 119.357Z" fill="#E6E6E6"/>
<path d="M173.845 47.4969C173.84 47.4439 173.83 47.3916 173.814 47.3407C173.744 46.967 173.599 46.6115 173.387 46.2953C173.176 45.9792 172.903 45.7091 172.585 45.5011L170.352 44.2108C169.957 44.0095 169.52 43.9045 169.077 43.9045C168.634 43.9045 168.197 44.0095 167.802 44.2108L69.9905 100.684C69.6143 100.922 69.3027 101.249 69.0833 101.637C68.8567 102.017 68.7302 102.449 68.7153 102.892V199.287C68.7394 199.729 68.8674 200.159 69.0889 200.543C69.3105 200.926 69.6193 201.252 69.9905 201.494L72.2181 202.784C72.5648 202.959 72.9436 203.06 73.331 203.083C73.7185 203.106 74.1064 203.049 74.471 202.915L74.5617 202.88C74.6338 202.856 74.7031 202.824 74.7684 202.784L103.068 186.445L172.585 146.311C172.955 146.068 173.263 145.742 173.485 145.359C173.706 144.976 173.835 144.546 173.86 144.104V47.7036C173.88 47.633 173.85 47.5624 173.845 47.4969ZM170.765 142.41C170.741 142.853 170.612 143.284 170.39 143.668C170.167 144.051 169.857 144.377 169.485 144.618L102.312 183.204L77.1573 197.936C76.4568 198.339 75.8822 198.011 75.8822 197.2V107.029C75.8972 106.588 76.0257 106.157 76.2552 105.779C76.4641 105.386 76.7759 105.057 77.1573 104.827L169.485 51.5088C170.196 51.0955 170.765 51.4231 170.765 52.2396V142.41Z" fill="#F0F0F0"/>
<path d="M74.7684 202.784C74.7031 202.824 74.6338 202.856 74.5617 202.88L74.471 202.915C74.1064 203.049 73.7185 203.106 73.331 203.083C72.9436 203.06 72.5648 202.959 72.2181 202.784L69.9905 201.494C69.6193 201.252 69.3105 200.926 69.0889 200.543C68.8674 200.159 68.7394 199.729 68.7153 199.287V102.892C68.7302 102.449 68.8567 102.017 69.0833 101.637L73.8612 104.393C74.6373 104.842 75.4387 105.301 76.2552 105.779C76.0257 106.157 75.8972 106.588 75.8822 107.029V197.2C75.8822 198.011 76.4568 198.339 77.1573 197.936L74.7684 202.784Z" fill="#E0E0E0"/>
<path d="M173.845 47.497C173.84 47.444 173.83 47.3916 173.815 47.3407C173.663 46.8065 173.169 46.6301 172.585 46.9678L74.7684 103.451C74.3942 103.689 74.0826 104.013 73.8598 104.396C73.637 104.779 73.5096 105.211 73.4883 105.654V202.049C73.4883 202.739 73.9066 203.082 74.466 202.915L74.5568 202.88C74.6289 202.856 74.6981 202.824 74.7634 202.784L172.58 146.336C172.95 146.094 173.258 145.768 173.48 145.384C173.701 145.001 173.83 144.571 173.855 144.129V47.7036C173.88 47.633 173.85 47.5625 173.845 47.497ZM170.765 142.41C170.741 142.853 170.613 143.284 170.39 143.668C170.168 144.051 169.857 144.377 169.485 144.618L77.1574 197.936C76.4568 198.339 75.8823 198.012 75.8823 197.2V107.029C75.8973 106.588 76.0257 106.157 76.2552 105.78C76.4642 105.386 76.776 105.057 77.1574 104.827L169.485 51.5088C170.196 51.0955 170.765 51.4231 170.765 52.2396V142.41Z" fill="#EBEBEB"/>
<path d="M156.779 76.2048L159.194 72.1022L155.061 69.6931C153.846 68.9976 152.173 69.0984 150.328 70.1669C146.629 72.3038 143.625 77.5001 143.625 81.7589C143.625 83.8656 144.361 85.3524 145.54 86.063H145.575H145.601L149.582 88.3764L151.891 84.4654C154.344 82.2911 156.054 79.4019 156.779 76.2048Z" fill="#E6E6E6"/>
<path d="M159.116 82.9951C161.733 78.4631 161.734 73.5652 159.118 72.0551C156.503 70.545 152.261 72.9947 149.645 77.5267C147.028 82.0586 147.028 86.9566 149.643 88.4666C152.258 89.9767 156.5 87.527 159.116 82.9951Z" fill="#EBEBEB"/>
<path d="M178.789 56.0498V147.798L85.5845 201.605L87.6912 205.909L178.789 153.317L182.862 153.695V56.4429L178.789 56.0498Z" fill="#0C0C0C"/>
<path d="M160.055 106.556L160.816 105.492L156.003 102.71H155.968C155.614 102.506 155.195 102.445 154.797 102.538C154.399 102.632 154.052 102.874 153.826 103.214L140.551 123.651L126.796 111.742L127.366 110.885L122.598 108.133C122.241 107.919 121.815 107.851 121.41 107.946C121.005 108.04 120.652 108.288 120.426 108.637L85.5894 160.907V198.339L90.3673 201.096L176.4 148.68V122.275L160.055 106.556Z" fill="#2A2A2A"/>
<path opacity="0.15" d="M160.055 106.556L160.816 105.492L156.003 102.71H155.968C155.614 102.506 155.195 102.445 154.797 102.538C154.399 102.632 154.052 102.874 153.826 103.214L140.551 123.651L126.796 111.742L127.366 110.885L122.598 108.133C122.241 107.919 121.815 107.851 121.41 107.946C121.005 108.04 120.652 108.288 120.426 108.637L85.5894 160.907V198.339L90.3673 201.096L176.4 148.68V122.275L160.055 106.556Z" fill="#242424"/>
<path d="M90.3672 201.096V163.669L125.199 111.384C125.325 111.193 125.49 111.032 125.684 110.91C125.878 110.788 126.095 110.709 126.321 110.678C126.548 110.647 126.779 110.665 126.998 110.73C127.217 110.795 127.42 110.907 127.593 111.056L145.328 126.413L158.604 105.976C158.733 105.777 158.905 105.609 159.107 105.484C159.309 105.36 159.536 105.281 159.772 105.254C160.008 105.227 160.247 105.252 160.472 105.328C160.697 105.404 160.902 105.529 161.073 105.694L181.173 125.037V147.092C181.173 147.573 181.047 148.045 180.807 148.462C180.567 148.878 180.222 149.225 179.807 149.466L90.3672 201.096Z" fill="#2A2A2A"/>
<path opacity="0.15" d="M145.329 126.413L152.501 132.623L146.226 125.037L145.329 126.413Z" fill="#242424"/>
<path d="M185.941 54.553C185.936 54.5 185.926 54.4476 185.911 54.3967C185.84 54.0231 185.695 53.6675 185.484 53.3514C185.272 53.0353 184.999 52.7651 184.681 52.5571L182.448 51.2669C182.053 51.0655 181.616 50.9606 181.173 50.9606C180.73 50.9606 180.293 51.0655 179.898 51.2669L82.0866 107.74C81.7105 107.978 81.3989 108.305 81.1794 108.693C80.9529 109.073 80.8264 109.505 80.8115 109.948V206.343C80.8356 206.785 80.9636 207.215 81.1851 207.599C81.4067 207.982 81.7155 208.308 82.0866 208.55L84.3143 209.84C84.661 210.015 85.0397 210.117 85.4272 210.139C85.8147 210.162 86.2026 210.105 86.5672 209.971L86.6579 209.936C86.73 209.912 86.7993 209.88 86.8646 209.84L115.164 193.501L184.681 153.367C185.051 153.124 185.359 152.798 185.581 152.415C185.802 152.032 185.931 151.602 185.956 151.16V54.7596C185.976 54.689 185.946 54.6185 185.941 54.553ZM182.861 149.466C182.837 149.909 182.709 150.34 182.486 150.724C182.264 151.107 181.954 151.433 181.581 151.674L114.408 190.26L89.2535 204.992C88.553 205.395 87.9784 205.068 87.9784 204.256V114.085C87.9934 113.644 88.1219 113.213 88.3514 112.836C88.5603 112.442 88.8721 112.113 89.2535 111.883L181.581 58.5648C182.292 58.1515 182.861 58.4791 182.861 59.2956V149.466Z" fill="#BDBDBD"/>
<path d="M86.8646 209.84C86.7993 209.88 86.73 209.912 86.6579 209.936L86.5672 209.971C86.2026 210.105 85.8147 210.162 85.4272 210.139C85.0397 210.117 84.661 210.015 84.3143 209.84L82.0866 208.55C81.7155 208.308 81.4067 207.982 81.1851 207.599C80.9636 207.215 80.8356 206.785 80.8115 206.343V109.948C80.8264 109.505 80.9529 109.073 81.1794 108.693L85.9574 111.45C86.7335 111.898 87.5349 112.357 88.3514 112.836C88.1219 113.213 87.9934 113.644 87.9784 114.085V204.256C87.9784 205.068 88.553 205.395 89.2535 204.992L86.8646 209.84Z" fill="#0C0C0C"/>
<path d="M185.941 54.553C185.936 54.5 185.926 54.4477 185.911 54.3968C185.76 53.8625 185.266 53.6861 184.681 54.0238L86.8646 110.507C86.4904 110.745 86.1788 111.069 85.956 111.452C85.7332 111.836 85.6058 112.267 85.5845 112.71V209.105C85.5845 209.795 86.0028 210.138 86.5622 209.971L86.653 209.936C86.725 209.912 86.7943 209.88 86.8596 209.84L184.676 153.392C185.046 153.15 185.354 152.824 185.576 152.44C185.797 152.057 185.926 151.627 185.951 151.185V54.7596C185.976 54.6891 185.946 54.6185 185.941 54.553ZM182.862 149.466C182.837 149.909 182.709 150.34 182.486 150.724C182.264 151.107 181.954 151.433 181.581 151.674L89.2536 204.992C88.553 205.395 87.9785 205.068 87.9785 204.256V114.085C87.9935 113.644 88.1219 113.213 88.3514 112.836C88.5604 112.442 88.8722 112.113 89.2536 111.883L181.581 58.5648C182.292 58.1516 182.862 58.4792 182.862 59.2956V149.466Z" fill="#5A5A5A"/>
<path d="M168.876 83.2608L171.29 79.1583L167.157 76.7491C165.942 76.0536 164.269 76.1544 162.424 77.2229C158.725 79.3599 155.721 84.5561 155.721 88.8149C155.721 90.9216 156.457 92.4084 157.636 93.1191H157.672H157.697L161.678 95.4324L163.987 91.5214C166.44 89.3471 168.15 86.458 168.876 83.2608Z" fill="#2A2A2A"/>
<path opacity="0.15" d="M168.876 83.2608L171.29 79.1583L167.157 76.7491C165.942 76.0536 164.269 76.1544 162.424 77.2229C158.725 79.3599 155.721 84.5561 155.721 88.8149C155.721 90.9216 156.457 92.4084 157.636 93.1191H157.672H157.697L161.678 95.4324L163.987 91.5214C166.44 89.3471 168.15 86.458 168.876 83.2608Z" fill="#242424"/>
<path d="M171.21 90.0488C173.826 85.5169 173.827 80.6189 171.211 79.1088C168.596 77.5988 164.355 80.0485 161.738 84.5804C159.122 89.1123 159.121 94.0103 161.736 95.5203C164.352 97.0304 168.593 94.5807 171.21 90.0488Z" fill="#2A2A2A"/>
<path d="M190.396 97.9322L189.948 99.3485L185.976 90.6141V102.07C185.976 102.07 188.829 107.79 190.23 107.79C190.547 107.79 191.878 108.501 194.857 100.387L190.396 97.9322Z" fill="#D8D8D8"/>
<path d="M195.673 100.145C193.637 100.226 191.629 99.6481 189.948 98.4968C190.663 95.4186 191.572 92.3885 192.669 89.4248C194.479 84.7829 196.525 84.0723 199.725 84.1278L195.673 100.145Z" fill="#2A2A2A"/>
<path opacity="0.1" d="M195.865 100.12C192.715 100.372 189.948 98.4968 189.948 98.4968C190.663 95.4186 191.572 92.3885 192.669 89.4248C194.479 84.7829 196.525 84.0723 199.725 84.1278L195.865 100.12Z" fill="#242424"/>
<path d="M214.125 176.531H209.705V184.101H214.125V176.531Z" fill="#D8D8D8"/>
<path d="M198.798 176.128L194.378 176.279L194.156 168.27L198.798 168.119V176.128Z" fill="#D8D8D8"/>
<path d="M214.115 117.689C214.115 121.913 213.369 146.478 213.369 146.478C213.475 147.692 214.644 149.854 214.735 154.229C214.866 160.579 214.316 180.321 214.316 180.321C213.552 180.695 212.715 180.897 211.865 180.914C211.014 180.93 210.17 180.761 209.392 180.417C209.392 180.417 205.491 154.481 204.7 148.196C204.009 142.713 202.835 127.814 202.835 127.814L200.436 145.717C200.949 148.023 201.134 150.39 200.985 152.747C200.779 155.65 199.075 173.648 199.075 173.648C198.304 174.082 197.448 174.342 196.566 174.409C195.684 174.476 194.797 174.349 193.97 174.036C193.97 174.036 191.732 148.383 191.682 145.717C191.626 142.693 193.153 111.646 193.153 111.646L214.115 117.689Z" fill="#5A5A5A"/>
<path d="M212.295 87.1063C212.295 87.1063 213.988 88.6485 213.988 92.6503V101.314L214.114 117.674C207.769 121.02 199.7 121.247 192.946 116.298C192.946 116.298 193.324 95.2409 193.324 91.7935C193.324 91.6524 193.324 91.5062 193.324 91.3601C193.551 86.4209 198.395 83.0189 203.177 84.2486L207.209 85.2818L211.241 86.6073L212.295 87.1063Z" fill="#2A2A2A"/>
<path d="M199.857 76.5829C203.213 76.5829 205.935 73.8615 205.935 70.5046C205.935 67.1477 203.213 64.4264 199.857 64.4264C196.5 64.4264 193.778 67.1477 193.778 70.5046C193.778 73.8615 196.5 76.5829 199.857 76.5829Z" fill="#0C0C0C"/>
<path d="M210.36 74.8289C210.36 74.8289 209.377 79.4556 208.984 80.2166C208.717 80.6837 208.283 81.0315 207.769 81.1893L207.84 77.9335L210.36 74.8289Z" fill="#0C0C0C"/>
<path d="M209.125 68.1963C209.47 68.1562 209.819 68.1953 210.147 68.3106C210.474 68.4258 210.771 68.6143 211.015 68.8616C211.821 69.6932 211.373 72.2838 210.36 74.829L208.505 75.0406L209.125 68.1963Z" fill="#0C0C0C"/>
<path d="M207.951 75.0406C208.324 75.2623 208.853 74.5366 209.311 74.0678C209.77 73.5991 211.267 72.9338 212.013 74.5063C212.759 76.0788 211.358 78.2309 210.178 78.6038C208.162 79.2389 207.84 77.9335 207.84 77.9335L207.689 85.4935C205.169 88.7342 198.153 88.4621 201.076 85.0752V82.8475C200.17 82.991 199.251 83.0383 198.334 82.9886C196.822 82.7568 195.9 81.5774 195.446 79.9646C194.721 77.364 194.438 75.2674 195.058 70.1568C195.739 64.5574 202.25 64.5019 205.768 66.7145C209.286 68.927 207.951 75.0406 207.951 75.0406Z" fill="#D8D8D8"/>
<path d="M207.951 75.6656C208.137 75.6656 208.848 74.4912 209.312 74.0679C209.952 73.4832 209.125 68.1963 209.125 68.1963C209.291 67.7387 209.32 67.243 209.21 66.769C209.1 66.295 208.855 65.8629 208.505 65.5251C207.628 64.5574 206.157 64.4515 203.652 64.0534C202.336 63.8467 200.34 63.4788 199.025 63.2369C197.458 62.9446 196.157 62.6372 195.048 63.5998C194.614 63.9755 194.306 64.4771 194.169 65.0351C194.032 65.5931 194.071 66.18 194.282 66.7145C194.391 66.9598 194.541 67.1848 194.726 67.3798C195.025 67.7357 195.415 68.0039 195.855 68.1559C195.855 68.1559 196.54 68.7658 198.919 69.0531C201.117 69.218 203.326 69.1775 205.516 68.9321C206.202 68.8364 206.353 69.5067 206.726 71.3312C207.049 72.9339 207.321 75.6555 207.951 75.6656Z" fill="#0C0C0C"/>
<path d="M209.12 68.6096L211.373 67.4C211.3 67.2487 211.198 67.1137 211.073 67.003C210.947 66.8923 210.8 66.8083 210.641 66.756C210.481 66.7037 210.313 66.6842 210.146 66.6988C209.979 66.7133 209.817 66.7615 209.669 66.8405C209.368 67.0081 209.142 67.2854 209.04 67.6149C208.937 67.9444 208.966 68.3007 209.12 68.6096Z" fill="#0C0C0C"/>
<path d="M201.096 82.8425C201.096 82.8425 204.428 82.1672 205.597 81.5472C206.282 81.1899 206.844 80.6351 207.21 79.9546C207.032 80.6358 206.72 81.2749 206.292 81.8345C205.441 82.9231 201.096 83.7296 201.096 83.7296V82.8425Z" fill="#606060"/>
<path d="M201.883 74.209C201.888 74.3406 201.931 74.4678 202.008 74.5748C202.085 74.6817 202.191 74.7637 202.315 74.8104C202.438 74.8572 202.572 74.8666 202.7 74.8376C202.829 74.8085 202.946 74.7423 203.037 74.6471C203.128 74.5519 203.189 74.432 203.212 74.3024C203.236 74.1728 203.22 74.0392 203.168 73.9183C203.116 73.7973 203.029 73.6945 202.919 73.6225C202.809 73.5505 202.68 73.5125 202.548 73.5134C202.458 73.5147 202.37 73.5338 202.288 73.5696C202.206 73.6054 202.132 73.6572 202.07 73.7219C202.008 73.7866 201.959 73.863 201.927 73.9466C201.895 74.0303 201.88 74.1194 201.883 74.209Z" fill="#0C0C0C"/>
<path d="M202.608 71.684L204.04 72.4753C204.142 72.2792 204.165 72.0511 204.103 71.8388C204.041 71.6265 203.899 71.4464 203.707 71.3362C203.613 71.2843 203.509 71.2522 203.401 71.2416C203.294 71.2311 203.186 71.2424 203.083 71.2749C202.981 71.3074 202.886 71.3604 202.804 71.4308C202.722 71.5011 202.656 71.5872 202.608 71.684Z" fill="#0C0C0C"/>
<path d="M201.384 78.8257L199.872 79.4002C199.939 79.6 200.083 79.765 200.272 79.8594C200.461 79.9537 200.679 79.9699 200.88 79.9042C201.087 79.8248 201.255 79.668 201.349 79.4668C201.444 79.2656 201.456 79.0357 201.384 78.8257Z" fill="#606060"/>
<path d="M195.92 72.2384L197.226 71.2304C197.164 71.1425 197.085 71.068 196.994 71.0115C196.903 70.9549 196.801 70.9175 196.695 70.9015C196.589 70.8854 196.481 70.8911 196.377 70.9182C196.273 70.9453 196.176 70.9932 196.092 71.0591C195.915 71.195 195.799 71.394 195.767 71.6141C195.735 71.8341 195.79 72.058 195.92 72.2384Z" fill="#0C0C0C"/>
<path d="M196.323 74.0175C196.321 74.1066 196.337 74.1953 196.369 74.2783C196.402 74.3613 196.45 74.4371 196.512 74.5013C196.574 74.5655 196.648 74.6168 196.73 74.6523C196.812 74.6878 196.9 74.7067 196.989 74.708C197.128 74.714 197.265 74.6783 197.384 74.6054C197.502 74.5326 197.596 74.4259 197.653 74.2991C197.71 74.1724 197.728 74.0314 197.704 73.8944C197.68 73.7574 197.616 73.6307 197.52 73.5306C197.423 73.4304 197.299 73.3615 197.163 73.3327C197.027 73.3039 196.885 73.3165 196.757 73.3689C196.628 73.4214 196.518 73.5112 196.441 73.6268C196.363 73.7424 196.323 73.8785 196.323 74.0175Z" fill="#0C0C0C"/>
<path d="M199.725 73.3824L199.508 77.4044L197.407 76.6887L199.725 73.3824Z" fill="#606060"/>
<path d="M209.705 181.944V181.289C209.281 181.475 208.299 185.225 206.545 186.833C205.149 188.108 203.248 189.575 202.765 190.996C202.281 192.417 205.416 193.284 206.716 193.052C208.228 192.785 210.854 191.722 211.514 190.734C212.174 189.746 212.482 188.284 213.026 187.559C213.57 186.833 214.795 186.047 215.087 185.19C215.244 184.726 215.057 183.718 214.835 182.866C214.614 182.015 214.407 181.223 214.14 181.299V181.803C213.508 182.295 212.728 182.559 211.927 182.549C211.272 182.544 209.7 182.413 209.705 181.944Z" fill="#0C0C0C"/>
<path d="M194.327 174.918C194.1 174.918 193.914 175.251 193.405 175.8C192.648 176.564 191.769 177.196 190.804 177.67C189.146 178.497 185.931 179.772 184.469 180.432C183.562 180.84 183.602 181.944 184.545 182.564C185.487 183.184 187.755 183.643 190.487 183.033C191.974 182.7 193.904 181.329 195.129 181.4C196.353 181.47 198.657 181.46 199.549 180.835C200.441 180.21 200.093 178.88 199.836 177.741C199.559 176.491 199.211 174.545 198.798 174.631V175.059C198.263 175.866 195.522 176.193 194.352 175.599L194.327 174.918Z" fill="#0C0C0C"/>
<path d="M202.835 127.814C200.549 127.103 198.447 125.899 196.676 124.286C196.676 124.286 197.866 126.509 201.399 128.58L200.643 144.204L202.835 127.814Z" fill="#0C0C0C"/>
<path d="M206.217 114.156C208.233 113.113 208.933 112.745 209.846 110.124C216.398 91.2543 214.235 88.7847 210.97 87.6104L208.505 92.6151L204.12 108.269C201.212 110.749 195.169 113.637 191.853 114.363C191.077 114.443 190.292 114.361 189.55 114.121C188.113 113.617 187.382 113.707 185.941 113.324V115.003C184.638 114.953 183.341 114.805 182.06 114.559C179.076 114.005 178.028 114.998 180.457 117.991C181.843 119.69 184.56 120.345 188.521 119.922C190.566 119.594 192.574 119.071 194.519 118.359C199.63 116.636 203.561 115.527 206.217 114.156Z" fill="#D8D8D8"/>
<path d="M211.211 86.6225C213.474 87.2374 215.012 89.208 214.739 92.8217C214.508 96.0675 213.187 100.694 212.476 103.985C212.476 103.985 208.283 104.041 205.511 101.848C206.202 98.9352 206.872 95.8911 207.386 93.2804C208.379 89.7624 209.881 86.5167 211.211 86.6225Z" fill="#2A2A2A"/>
<g opacity="0.05">
<path d="M211.211 86.6225C213.474 87.2374 215.012 89.208 214.739 92.8217C214.508 96.0675 213.187 100.694 212.476 103.985C212.476 103.985 208.283 104.041 205.511 101.848C206.202 98.9352 206.872 95.8911 207.386 93.2804C208.379 89.7624 209.881 86.5167 211.211 86.6225Z" fill="#242424"/>
</g>
<path d="M80.4789 38.2133L74.4309 41.6959C74.4625 41.4299 74.4793 41.1624 74.4813 40.8946V39.1507C74.4813 36.0461 72.299 34.7861 69.6077 36.3384C68.451 37.0502 67.4609 38.0024 66.7046 39.1306C66.2661 35.2246 63.1766 33.768 59.4773 35.9201C55.4453 38.2435 52.1894 43.8934 52.1894 48.5201V51.1358C52.1633 52.1773 52.3735 53.2112 52.8043 54.1598L47.7996 57.0478C47.0131 57.5611 46.3587 58.2525 45.8894 59.066C45.42 59.8795 45.1489 60.7921 45.0981 61.7299C45.0981 63.4536 46.3077 64.1542 47.7996 63.2923L80.4537 44.4377C81.2417 43.9255 81.8975 43.2344 82.3678 42.4208C82.8382 41.6072 83.1097 40.6939 83.1602 39.7555C83.1854 38.052 81.9758 37.3514 80.4789 38.2133Z" fill="#F5F5F5"/>
</svg>
