<svg width="252" height="252" viewBox="0 0 252 252" fill="none" xmlns="http://www.w3.org/2000/svg">
<g clip-path="url(#clip0_43_3286)">
<path d="M216.238 158.238L209.571 157.026C206.068 156.424 206.065 151.394 209.568 150.789C214.843 149.878 218.616 147.075 220.893 143.456C220.957 143.187 221.038 142.937 221.132 142.699C222.051 138.558 222.677 134.405 223.032 130.264C223.028 130.243 223.026 130.222 223.027 130.204C221.639 124.242 217.135 118.999 209.514 117.708L54.0677 91.4758C50.6416 94.0058 47.3949 97.1094 44.1061 101.985C41.2198 106.264 39.1132 110.705 37.583 115.043L167.053 137.085C169.232 137.456 169.244 140.582 167.067 140.97C147.243 144.502 147.352 172.978 167.202 176.36L201.695 182.396C207.581 175.296 212.531 167.219 216.238 158.238Z" fill="white"/>
<path d="M201.695 182.631C201.681 182.631 201.668 182.629 201.654 182.627L167.161 176.591C156.744 174.816 152.051 166.338 152.022 158.722C151.993 151.107 156.621 142.593 167.026 140.739C168.019 140.562 168.461 139.749 168.458 139.022C168.456 138.295 168.008 137.486 167.013 137.316L37.5433 115.274C37.475 115.263 37.4155 115.222 37.3805 115.162C37.3454 115.102 37.3386 115.03 37.3614 114.965C39.03 110.235 41.2337 105.824 43.9115 101.854C46.8578 97.486 49.947 94.227 53.9282 91.2871C53.9795 91.2494 54.0447 91.2335 54.1064 91.2445L209.553 117.477C216.562 118.664 221.684 123.402 223.255 130.151C223.261 130.175 223.263 130.2 223.261 130.225C223.265 130.246 223.267 130.263 223.265 130.284C222.906 134.481 222.265 138.676 221.36 142.75C221.358 142.762 221.354 142.774 221.35 142.785C221.254 143.03 221.179 143.267 221.121 143.51C221.116 143.536 221.106 143.56 221.092 143.581C219.335 146.374 215.916 149.931 209.608 151.02C207.928 151.31 207.176 152.68 207.177 153.909C207.177 155.137 207.93 156.506 209.61 156.795L216.279 158.007C216.349 158.02 216.409 158.063 216.443 158.125C216.477 158.188 216.481 158.262 216.454 158.327C212.837 167.093 207.932 175.241 201.875 182.546C201.83 182.6 201.764 182.631 201.695 182.631ZM37.8971 114.859L167.092 136.854C168.355 137.069 168.924 138.097 168.928 139.021C168.931 139.944 168.37 140.976 167.108 141.201C156.972 143.007 152.463 151.302 152.491 158.721C152.519 166.14 157.091 174.399 167.241 176.129L201.601 182.142C207.526 174.975 212.338 166.995 215.909 158.417L209.529 157.257C207.581 156.923 206.708 155.334 206.708 153.909C206.707 152.484 207.579 150.895 209.528 150.558C215.641 149.502 218.962 146.071 220.674 143.364C220.734 143.118 220.81 142.878 220.906 142.631C221.802 138.591 222.437 134.433 222.795 130.271C222.794 130.257 222.793 130.243 222.792 130.23C221.258 123.686 216.281 119.092 209.475 117.94L54.1268 91.7237C50.2291 94.615 47.1956 97.824 44.3004 102.116C41.6944 105.98 39.5408 110.266 37.8971 114.859Z" fill="black"/>
<path d="M86.6396 209.379C94.4815 212.913 102.712 215.459 110.974 216.81C139.779 221.519 171 212.074 193.271 191.319L86.6396 209.379Z" fill="white"/>
<path d="M125.73 218.232C122.605 218.232 119.484 218.077 116.377 217.761C116.248 217.748 116.154 217.633 116.168 217.504C116.181 217.375 116.296 217.282 116.425 217.294C143.627 220.058 172.015 210.49 192.533 191.682L86.6791 209.61C86.5513 209.631 86.4304 209.546 86.4086 209.418C86.387 209.29 86.4729 209.169 86.6007 209.148L193.232 191.088C193.335 191.07 193.435 191.123 193.481 191.215C193.527 191.308 193.506 191.42 193.431 191.491C175.099 208.574 150.351 218.232 125.73 218.232Z" fill="black"/>
<path d="M121.151 153.71L119.01 152.666C118.665 152.497 118.443 152.148 118.45 151.766C118.457 151.363 118.448 150.962 118.421 150.564C118.396 150.185 118.599 149.826 118.934 149.64L121.015 148.487C121.425 148.26 121.621 147.782 121.488 147.336L120.946 145.521C120.813 145.075 120.385 144.78 119.917 144.81L117.533 144.967C117.147 144.992 116.781 144.797 116.592 144.462C116.398 144.116 116.189 143.779 115.966 143.45C115.751 143.132 115.742 142.719 115.94 142.39L117.164 140.355C117.404 139.956 117.333 139.445 116.993 139.125L115.607 137.821C115.267 137.501 114.748 137.457 114.358 137.716L112.376 139.03C112.055 139.243 111.639 139.255 111.307 139.06C110.965 138.858 110.613 138.669 110.251 138.494C109.903 138.326 109.686 137.972 109.691 137.589L109.725 135.223C109.731 134.758 109.412 134.351 108.956 134.242L107.098 133.8C106.641 133.692 106.17 133.911 105.962 134.328L104.908 136.45C104.738 136.792 104.385 137.012 104 137.006C103.593 136.999 103.188 137.008 102.787 137.035C102.404 137.06 102.041 136.859 101.854 136.527L100.692 134.465C100.463 134.059 99.9803 133.865 99.5302 133.997L97.6982 134.535C97.248 134.667 96.9503 135.09 96.9812 135.555L97.1383 137.917C97.1636 138.297 96.9695 138.661 96.6338 138.847C96.2812 139.042 95.9367 139.251 95.6015 139.474C95.2822 139.686 94.8666 139.692 94.5366 139.497L92.4846 138.285C92.0815 138.047 91.5656 138.117 91.2424 138.455L89.9267 139.828C89.6035 140.166 89.5592 140.68 89.8202 141.067L91.1454 143.03C91.36 143.348 91.3723 143.76 91.1747 144.089C90.9708 144.428 90.7804 144.778 90.6035 145.136C90.4334 145.481 90.0766 145.696 89.6895 145.691L87.3028 145.659C86.8335 145.652 86.4222 145.969 86.3124 146.421L85.8658 148.262C85.7561 148.715 85.9772 149.182 86.3982 149.387L88.539 150.432C88.8845 150.6 89.106 150.95 89.0993 151.331C89.0921 151.734 89.1017 152.135 89.1281 152.533C89.1533 152.913 88.9506 153.272 88.6154 153.458L86.5345 154.611C86.1247 154.838 85.9282 155.316 86.0614 155.762L86.6035 157.577C86.7367 158.023 87.164 158.318 87.6323 158.287L90.0162 158.131C90.3997 158.105 90.7672 158.298 90.9543 158.63C91.1508 158.98 91.3617 159.321 91.5865 159.653C91.8005 159.969 91.8061 160.381 91.6094 160.708L90.3859 162.742C90.1455 163.142 90.2164 163.653 90.5568 163.973L91.9423 165.276C92.2827 165.597 92.8016 165.64 93.1918 165.381L95.1737 164.067C95.4946 163.855 95.9104 163.842 96.242 164.038C96.5844 164.24 96.9369 164.429 97.2986 164.604C97.6465 164.772 97.8637 165.125 97.8583 165.509L97.8246 167.874C97.818 168.339 98.1375 168.747 98.5938 168.856L100.451 169.297C100.908 169.406 101.379 169.187 101.587 168.769L102.642 166.647C102.812 166.305 103.165 166.085 103.55 166.092C103.956 166.099 104.361 166.089 104.762 166.063C105.146 166.038 105.508 166.239 105.695 166.571L106.858 168.632C107.087 169.038 107.569 169.233 108.019 169.101L109.851 168.563C110.301 168.431 110.599 168.007 110.568 167.543L110.411 165.18C110.386 164.798 110.583 164.435 110.921 164.248C111.27 164.055 111.611 163.848 111.943 163.627C112.264 163.414 112.68 163.405 113.012 163.601L115.065 164.812C115.468 165.051 115.984 164.98 116.307 164.643L117.623 163.269C117.946 162.932 117.99 162.417 117.729 162.031L116.404 160.067C116.189 159.749 116.177 159.337 116.374 159.009C116.578 158.669 116.769 158.32 116.946 157.961C117.116 157.616 117.473 157.401 117.86 157.406L120.246 157.439C120.716 157.445 121.127 157.128 121.237 156.676L121.683 154.835C121.793 154.383 121.572 153.916 121.151 153.71ZM103.949 159.677C99.4196 159.774 95.6691 156.214 95.5725 151.725C95.4761 147.236 99.0701 143.518 103.6 143.421C108.13 143.324 111.88 146.884 111.977 151.373C112.073 155.862 108.479 159.58 103.949 159.677Z" fill="black"/>
<path d="M100.69 169.56C100.593 169.56 100.495 169.549 100.397 169.526L98.5396 169.084C97.9723 168.949 97.5818 168.45 97.59 167.871L97.6237 165.506C97.6278 165.214 97.4602 164.943 97.1963 164.815C96.8292 164.637 96.468 164.444 96.1228 164.24C95.8702 164.091 95.5488 164.1 95.3031 164.263L93.3212 165.577C92.8368 165.898 92.2043 165.845 91.7814 165.447L90.3957 164.144C89.9721 163.745 89.8852 163.119 90.1847 162.621L91.4083 160.587C91.559 160.337 91.5525 160.022 91.392 159.784C91.1639 159.447 90.9479 159.098 90.7496 158.745C90.6088 158.495 90.3248 158.347 90.0313 158.365L87.6476 158.521C87.0654 158.559 86.5442 158.199 86.3787 157.644L85.8366 155.829C85.6708 155.273 85.9111 154.688 86.4209 154.406L88.5016 153.253C88.7588 153.11 88.913 152.834 88.8939 152.549C88.8671 152.146 88.8573 151.735 88.8646 151.327C88.8696 151.041 88.7013 150.772 88.4361 150.642L86.2953 149.598C85.7715 149.343 85.501 148.771 85.6378 148.207L86.0844 146.366C86.2212 145.803 86.7259 145.415 87.3058 145.424L89.6925 145.457C89.9972 145.464 90.264 145.294 90.3932 145.032C90.5721 144.67 90.7675 144.311 90.9736 143.968C91.123 143.72 91.114 143.403 90.9509 143.161L89.6255 141.198C89.3005 140.716 89.3548 140.086 89.7575 139.666L91.073 138.293C91.4741 137.874 92.1037 137.788 92.6038 138.083L94.6557 139.295C94.9105 139.445 95.2306 139.438 95.4715 139.278C95.8105 139.053 96.1632 138.839 96.5202 138.642C96.7726 138.502 96.9235 138.224 96.9041 137.932L96.7469 135.57C96.7084 134.992 97.0724 134.474 97.6322 134.31L99.4642 133.772C100.023 133.608 100.611 133.846 100.896 134.35L102.058 136.412C102.202 136.667 102.483 136.822 102.771 136.801C103.178 136.774 103.591 136.763 104.004 136.771C104.284 136.781 104.567 136.609 104.698 136.346L105.752 134.224C106.01 133.705 106.586 133.437 107.152 133.572L109.01 134.014C109.577 134.149 109.967 134.647 109.959 135.226L109.926 137.592C109.921 137.884 110.089 138.155 110.353 138.283C110.721 138.461 111.082 138.655 111.426 138.858C111.679 139.007 112 138.997 112.246 138.835L114.228 137.521C114.712 137.2 115.345 137.253 115.768 137.65L117.153 138.954C117.577 139.352 117.664 139.979 117.364 140.476L116.141 142.511C115.99 142.761 115.998 143.078 116.161 143.318C116.385 143.65 116.599 143.997 116.796 144.347C116.939 144.601 117.217 144.752 117.517 144.733L119.902 144.576C120.482 144.539 121.005 144.899 121.17 145.453L121.713 147.269C121.878 147.824 121.638 148.41 121.128 148.692L119.048 149.845C118.79 149.988 118.636 150.264 118.655 150.549C118.682 150.949 118.692 151.36 118.685 151.77C118.679 152.057 118.848 152.326 119.113 152.455L121.254 153.5C121.778 153.755 122.048 154.327 121.911 154.891L121.465 156.732C121.329 157.294 120.829 157.685 120.243 157.674L117.857 157.641C117.555 157.637 117.285 157.804 117.156 158.065C116.977 158.428 116.782 158.786 116.576 159.13C116.426 159.378 116.435 159.695 116.598 159.936L117.924 161.9C118.248 162.382 118.194 163.011 117.792 163.432L116.476 164.805C116.075 165.224 115.446 165.31 114.945 165.015L112.893 163.803C112.639 163.653 112.317 163.661 112.072 163.823C111.737 164.045 111.388 164.258 111.034 164.453C110.778 164.595 110.626 164.874 110.645 165.165L110.802 167.528C110.841 168.105 110.477 168.624 109.917 168.788L108.085 169.326C107.527 169.49 106.938 169.252 106.653 168.748L105.491 166.686C105.347 166.431 105.065 166.276 104.778 166.297C104.372 166.324 103.958 166.334 103.546 166.327C103.264 166.325 102.983 166.488 102.852 166.752L101.797 168.874C101.584 169.303 101.153 169.56 100.69 169.56ZM95.7326 163.666C95.9506 163.666 96.1684 163.722 96.3611 163.836C96.6954 164.033 97.0452 164.22 97.4006 164.393C97.8278 164.599 98.0997 165.039 98.0927 165.512L98.059 167.878C98.054 168.235 98.2961 168.544 98.6481 168.627L100.506 169.069C100.857 169.153 101.217 168.987 101.377 168.665L102.432 166.543C102.643 166.119 103.074 165.853 103.554 165.857C103.952 165.864 104.355 165.855 104.747 165.829C105.216 165.798 105.667 166.044 105.899 166.455L107.062 168.517C107.239 168.83 107.604 168.978 107.953 168.876L109.785 168.338C110.132 168.236 110.358 167.915 110.334 167.559L110.177 165.196C110.145 164.725 110.393 164.272 110.807 164.043C111.15 163.853 111.488 163.648 111.813 163.432C112.206 163.171 112.723 163.158 113.132 163.399L115.184 164.611C115.495 164.795 115.888 164.741 116.137 164.48L117.453 163.107C117.701 162.848 117.735 162.459 117.535 162.162L116.209 160.199C115.944 159.806 115.931 159.292 116.173 158.888C116.373 158.556 116.562 158.209 116.735 157.858C116.942 157.44 117.376 157.172 117.846 157.172C117.852 157.172 117.857 157.172 117.863 157.172L120.25 157.205C120.253 157.205 120.257 157.205 120.261 157.205C120.618 157.205 120.925 156.966 121.009 156.621L121.456 154.78C121.54 154.433 121.372 154.079 121.048 153.921L118.907 152.877C118.479 152.668 118.207 152.23 118.215 151.762C118.222 151.365 118.213 150.967 118.187 150.58C118.156 150.114 118.405 149.665 118.82 149.435L120.901 148.282C121.216 148.107 121.365 147.746 121.263 147.403L120.721 145.588C120.618 145.244 120.294 145.022 119.932 145.045L117.548 145.201C117.071 145.232 116.618 144.988 116.388 144.578C116.196 144.238 115.989 143.903 115.772 143.581C115.507 143.19 115.494 142.675 115.738 142.269L116.962 140.235C117.147 139.928 117.093 139.542 116.832 139.296L115.446 137.992C115.183 137.745 114.788 137.712 114.487 137.912L112.505 139.226C112.111 139.487 111.594 139.501 111.188 139.262C110.854 139.065 110.505 138.878 110.148 138.705C109.721 138.498 109.449 138.059 109.456 137.585L109.49 135.22C109.495 134.862 109.253 134.554 108.901 134.47L107.043 134.028C106.69 133.944 106.332 134.111 106.172 134.433L105.118 136.555C104.91 136.973 104.479 137.24 104.016 137.24C104.009 137.24 104.002 137.24 103.996 137.24C103.597 137.233 103.196 137.243 102.802 137.269C102.332 137.299 101.882 137.053 101.65 136.642L100.487 134.581C100.311 134.267 99.9441 134.12 99.5964 134.222L97.7642 134.76C97.4172 134.862 97.1914 135.182 97.2152 135.539L97.3724 137.901C97.4035 138.373 97.1582 138.825 96.7471 139.052C96.4013 139.243 96.0596 139.451 95.7314 139.669C95.3416 139.928 94.8253 139.94 94.4174 139.699L92.3653 138.487C92.0533 138.303 91.6615 138.356 91.4118 138.617L90.0959 139.991C89.8475 140.25 89.814 140.638 90.0144 140.935L91.3398 142.899C91.6043 143.291 91.6185 143.805 91.3758 144.21C91.1761 144.542 90.9871 144.889 90.8137 145.24C90.6051 145.663 90.1532 145.929 89.6862 145.926L87.2994 145.893C86.9424 145.878 86.6247 146.128 86.5402 146.477L86.0936 148.318C86.0093 148.665 86.1767 149.019 86.501 149.177L88.6418 150.221C89.0703 150.43 89.3418 150.868 89.3337 151.336C89.3263 151.731 89.336 152.128 89.3621 152.518C89.3931 152.983 89.1443 153.433 88.7288 153.663L86.648 154.816C86.3326 154.991 86.1837 155.352 86.2859 155.695L86.828 157.51C86.9306 157.854 87.2545 158.077 87.6168 158.053L90.0006 157.897C90.4733 157.867 90.9296 158.108 91.1586 158.515C91.3505 158.857 91.5597 159.195 91.7804 159.522C92.0431 159.91 92.0548 160.423 91.8099 160.829L90.5864 162.863C90.4019 163.17 90.4554 163.556 90.7172 163.802L92.1029 165.106C92.3656 165.353 92.76 165.386 93.0618 165.186L95.0436 163.872C95.251 163.735 95.4919 163.666 95.7326 163.666ZM103.767 159.914C101.583 159.914 99.5191 159.093 97.937 157.591C96.309 156.046 95.3862 153.964 95.3381 151.73C95.2901 149.496 96.1228 147.377 97.6828 145.763C99.2422 144.15 101.342 143.235 103.595 143.186C105.838 143.142 107.985 143.962 109.612 145.507C111.24 147.052 112.163 149.133 112.211 151.368C112.259 153.602 111.427 155.721 109.867 157.335C108.307 158.948 106.208 159.863 103.954 159.912C103.892 159.913 103.829 159.914 103.767 159.914ZM103.782 143.653C103.723 143.653 103.664 143.654 103.605 143.655C101.476 143.701 99.4928 144.566 98.0198 146.089C96.5476 147.612 95.7618 149.612 95.8072 151.72C95.8523 153.828 96.7235 155.792 98.2598 157.251C99.7966 158.71 101.808 159.492 103.944 159.442C106.073 159.397 108.056 158.532 109.529 157.009C111.002 155.485 111.788 153.486 111.742 151.378C111.697 149.27 110.826 147.305 109.289 145.847C107.795 144.429 105.846 143.653 103.782 143.653Z" fill="white"/>
<path d="M144.281 168.009L142.624 167.488C142.356 167.404 142.158 167.176 142.122 166.9C142.083 166.608 142.033 166.32 141.971 166.036C141.911 165.765 142.019 165.484 142.24 165.313L143.617 164.256C143.888 164.048 143.978 163.682 143.833 163.375L143.245 162.124C143.101 161.816 142.761 161.65 142.426 161.723L140.723 162.094C140.448 162.154 140.162 162.053 139.99 161.832C139.812 161.604 139.625 161.383 139.429 161.169C139.239 160.963 139.188 160.667 139.295 160.408L139.957 158.808C140.087 158.493 139.981 158.132 139.701 157.938L138.56 157.148C138.28 156.954 137.9 156.979 137.647 157.208L136.36 158.37C136.151 158.559 135.853 158.613 135.592 158.508C135.323 158.399 135.049 158.301 134.769 158.214C134.5 158.13 134.304 157.899 134.267 157.621L134.035 155.911C133.989 155.575 133.715 155.316 133.374 155.287L131.986 155.17C131.645 155.141 131.328 155.35 131.224 155.674L130.693 157.318C130.607 157.584 130.376 157.781 130.098 157.818C129.804 157.857 129.513 157.908 129.226 157.97C128.953 158.03 128.669 157.924 128.498 157.705L127.436 156.344C127.227 156.076 126.858 155.987 126.548 156.132L125.284 156.718C124.974 156.862 124.805 157.2 124.878 157.531L125.247 159.219C125.306 159.49 125.206 159.774 124.984 159.944C124.751 160.123 124.525 160.311 124.307 160.508C124.1 160.696 123.801 160.745 123.541 160.64L121.93 159.988C121.613 159.86 121.249 159.967 121.052 160.246L120.252 161.379C120.055 161.658 120.079 162.033 120.309 162.284L121.478 163.557C121.667 163.763 121.721 164.059 121.614 164.317C121.504 164.584 121.404 164.857 121.315 165.135C121.23 165.402 120.996 165.596 120.716 165.634L118.991 165.869C118.651 165.916 118.389 166.189 118.359 166.527L118.236 167.903C118.206 168.242 118.416 168.555 118.742 168.657L120.4 169.179C120.667 169.263 120.865 169.491 120.902 169.767C120.94 170.058 120.99 170.347 121.053 170.631C121.112 170.902 121.004 171.183 120.783 171.353L119.407 172.41C119.136 172.619 119.046 172.985 119.19 173.292L119.778 174.543C119.922 174.85 120.262 175.017 120.597 174.944L122.3 174.572C122.574 174.513 122.86 174.611 123.031 174.831C123.21 175.062 123.399 175.285 123.597 175.501C123.786 175.706 123.835 176.002 123.728 176.259L123.066 177.859C122.936 178.173 123.043 178.535 123.323 178.729L124.463 179.519C124.744 179.713 125.123 179.688 125.376 179.459L126.663 178.296C126.872 178.108 127.171 178.054 127.431 178.159C127.7 178.268 127.975 178.366 128.255 178.453C128.524 178.537 128.719 178.768 128.756 179.046L128.989 180.755C129.034 181.092 129.309 181.351 129.65 181.38L131.038 181.497C131.379 181.526 131.695 181.317 131.799 180.993L132.33 179.348C132.416 179.083 132.647 178.886 132.925 178.849C133.219 178.81 133.51 178.759 133.797 178.697C134.071 178.637 134.354 178.743 134.525 178.962L135.587 180.323C135.796 180.591 136.165 180.679 136.475 180.535L137.739 179.949C138.049 179.805 138.218 179.467 138.145 179.135L137.776 177.448C137.716 177.175 137.82 176.891 138.043 176.72C138.274 176.543 138.497 176.357 138.713 176.162C138.921 175.973 139.221 175.921 139.481 176.027L141.093 176.678C141.41 176.806 141.775 176.7 141.971 176.421L142.771 175.288C142.968 175.009 142.944 174.634 142.714 174.383L141.545 173.11C141.356 172.904 141.302 172.608 141.409 172.35C141.52 172.083 141.619 171.81 141.708 171.532C141.793 171.265 142.027 171.071 142.307 171.033L144.032 170.798C144.372 170.751 144.634 170.478 144.664 170.14L144.787 168.764C144.817 168.425 144.607 168.112 144.281 168.009ZM132.519 174.178C129.261 174.739 126.17 172.577 125.614 169.349C125.058 166.122 127.247 163.05 130.505 162.489C133.762 161.928 136.853 164.089 137.409 167.317C137.966 170.545 135.776 173.617 132.519 174.178Z" fill="black"/>
<path d="M131.102 181.734C131.074 181.734 131.046 181.733 131.018 181.731L129.63 181.613C129.176 181.575 128.817 181.235 128.756 180.787L128.524 179.077C128.499 178.89 128.365 178.733 128.185 178.677C127.899 178.588 127.616 178.487 127.343 178.377C127.168 178.305 126.962 178.342 126.821 178.47L125.533 179.633C125.196 179.937 124.702 179.969 124.33 179.711L123.189 178.922C122.815 178.663 122.676 178.189 122.849 177.769L123.512 176.17C123.584 175.995 123.55 175.795 123.425 175.659C123.225 175.442 123.03 175.212 122.845 174.975C122.732 174.829 122.537 174.761 122.349 174.802L120.647 175.173C120.203 175.27 119.758 175.052 119.565 174.643L118.978 173.392C118.785 172.982 118.903 172.502 119.264 172.225L120.64 171.167C120.791 171.051 120.863 170.861 120.823 170.681C120.76 170.392 120.708 170.095 120.669 169.798C120.644 169.615 120.511 169.46 120.329 169.402L118.672 168.881C118.238 168.744 117.962 168.334 118.002 167.883L118.125 166.506C118.165 166.056 118.508 165.698 118.959 165.637L120.684 165.402C120.874 165.376 121.034 165.243 121.092 165.063C121.182 164.781 121.285 164.499 121.397 164.228C121.468 164.055 121.432 163.854 121.305 163.715L120.136 162.442C119.829 162.108 119.798 161.615 120.06 161.244L120.86 160.11C121.121 159.74 121.597 159.601 122.018 159.771L123.629 160.423C123.807 160.494 124.011 160.46 124.15 160.334C124.371 160.134 124.603 159.94 124.841 159.758C124.989 159.645 125.058 159.453 125.018 159.269L124.649 157.581C124.552 157.14 124.772 156.697 125.186 156.505L126.449 155.919C126.861 155.728 127.343 155.843 127.621 156.199L128.683 157.56C128.8 157.71 128.994 157.781 129.176 157.741C129.468 157.677 129.768 157.625 130.067 157.585C130.253 157.56 130.411 157.427 130.469 157.246L131.001 155.601C131.139 155.171 131.556 154.898 132.005 154.936L133.393 155.053C133.847 155.092 134.206 155.432 134.267 155.88L134.499 157.59C134.525 157.776 134.658 157.934 134.839 157.99C135.123 158.078 135.406 158.179 135.68 158.29C135.856 158.361 136.061 158.324 136.203 158.196L137.49 157.033C137.826 156.729 138.321 156.697 138.693 156.955L139.834 157.745C140.208 158.004 140.348 158.478 140.174 158.897L139.512 160.497C139.44 160.671 139.475 160.873 139.602 161.011C139.801 161.227 139.994 161.455 140.175 161.688C140.291 161.836 140.487 161.906 140.673 161.865L142.377 161.494C142.821 161.397 143.266 161.615 143.458 162.024L144.046 163.275C144.238 163.685 144.121 164.165 143.76 164.442L142.384 165.499C142.233 165.615 142.161 165.806 142.2 165.986C142.263 166.274 142.315 166.572 142.355 166.869C142.379 167.052 142.512 167.207 142.694 167.264L144.352 167.786C144.786 167.922 145.061 168.333 145.021 168.784L144.898 170.161C144.858 170.611 144.515 170.968 144.064 171.03L142.339 171.265C142.149 171.291 141.989 171.424 141.932 171.603C141.841 171.886 141.739 172.167 141.626 172.439C141.555 172.612 141.591 172.813 141.718 172.951L142.887 174.224C143.194 174.558 143.225 175.051 142.963 175.423L142.163 176.556C141.902 176.926 141.426 177.066 141.006 176.896L139.394 176.244C139.217 176.172 139.012 176.208 138.871 176.335C138.651 176.534 138.42 176.726 138.186 176.906C138.036 177.021 137.965 177.214 138.005 177.398L138.375 179.085C138.472 179.527 138.251 179.969 137.838 180.161L136.574 180.748C136.163 180.939 135.68 180.824 135.402 180.467L134.34 179.106C134.224 178.957 134.03 178.887 133.847 178.926C133.555 178.99 133.256 179.042 132.956 179.082C132.77 179.106 132.612 179.239 132.554 179.42L132.023 181.065C131.892 181.469 131.521 181.734 131.102 181.734ZM127.16 177.872C127.281 177.872 127.403 177.895 127.519 177.942C127.78 178.047 128.051 178.144 128.324 178.229C128.678 178.339 128.939 178.647 128.989 179.014L129.221 180.724C129.252 180.953 129.436 181.126 129.669 181.146L131.057 181.263C131.292 181.284 131.505 181.142 131.576 180.921L132.107 179.276C132.221 178.924 132.53 178.665 132.894 178.616C133.181 178.578 133.468 178.528 133.747 178.467C134.105 178.389 134.483 178.527 134.71 178.817L135.772 180.179C135.913 180.359 136.167 180.42 136.377 180.322L137.64 179.736C137.852 179.637 137.966 179.411 137.917 179.185L137.547 177.498C137.468 177.138 137.607 176.759 137.9 176.534C138.125 176.362 138.345 176.178 138.556 175.988C138.829 175.74 139.227 175.67 139.569 175.809L141.181 176.461C141.396 176.547 141.647 176.474 141.779 176.286L142.58 175.152C142.713 174.963 142.698 174.712 142.541 174.542L141.373 173.269C141.123 172.996 141.052 172.6 141.192 172.26C141.3 172 141.398 171.731 141.484 171.461C141.597 171.11 141.907 170.85 142.275 170.8L144.001 170.565C144.233 170.533 144.41 170.35 144.431 170.119L144.553 168.742C144.574 168.512 144.433 168.303 144.211 168.233L142.553 167.712C142.198 167.6 141.937 167.293 141.889 166.93C141.852 166.646 141.802 166.362 141.742 166.086C141.663 165.73 141.803 165.353 142.098 165.127L143.474 164.07C143.658 163.928 143.719 163.683 143.621 163.474L143.033 162.223C142.934 162.014 142.706 161.902 142.476 161.952L140.773 162.323C140.41 162.403 140.031 162.266 139.805 161.976C139.631 161.753 139.447 161.535 139.256 161.328C139.006 161.056 138.936 160.66 139.078 160.318L139.741 158.718C139.829 158.504 139.757 158.263 139.567 158.131L138.426 157.341C138.234 157.208 137.978 157.224 137.804 157.381L136.517 158.544C136.243 158.792 135.845 158.863 135.504 158.725C135.242 158.619 134.971 158.523 134.699 158.438C134.345 158.328 134.084 158.019 134.034 157.653L133.802 155.943C133.771 155.714 133.587 155.54 133.354 155.521L131.966 155.403C131.733 155.383 131.518 155.524 131.447 155.745L130.916 157.39C130.802 157.743 130.493 158.002 130.129 158.05C129.842 158.088 129.555 158.138 129.276 158.199C128.918 158.277 128.54 158.14 128.314 157.849L127.251 156.488C127.108 156.304 126.859 156.245 126.646 156.344L125.383 156.931C125.171 157.029 125.057 157.256 125.107 157.481L125.476 159.168C125.555 159.529 125.418 159.907 125.127 160.13C124.899 160.304 124.676 160.49 124.464 160.682C124.193 160.927 123.796 160.996 123.454 160.857L121.842 160.206C121.627 160.119 121.376 160.193 121.244 160.381L120.443 161.514C120.31 161.704 120.325 161.955 120.482 162.125L121.651 163.398C121.901 163.67 121.971 164.066 121.831 164.407C121.723 164.667 121.625 164.936 121.539 165.206C121.426 165.557 121.116 165.816 120.748 165.866L119.022 166.102C118.79 166.133 118.613 166.317 118.593 166.548L118.47 167.924C118.449 168.154 118.59 168.364 118.813 168.433L120.47 168.955C120.826 169.067 121.086 169.373 121.134 169.736C121.172 170.021 121.221 170.305 121.282 170.581C121.36 170.937 121.22 171.313 120.926 171.539L119.55 172.596C119.365 172.738 119.305 172.983 119.403 173.193L119.99 174.443C120.089 174.653 120.317 174.765 120.547 174.715L122.25 174.343C122.613 174.265 122.992 174.399 123.216 174.687C123.392 174.914 123.579 175.134 123.77 175.342C124.018 175.611 124.087 176.007 123.945 176.349L123.283 177.949C123.194 178.163 123.266 178.404 123.457 178.536L124.597 179.326C124.789 179.459 125.045 179.442 125.219 179.285L126.507 178.122C126.687 177.959 126.922 177.872 127.16 177.872ZM131.48 174.502C130.211 174.502 128.976 174.116 127.919 173.377C126.563 172.429 125.662 171.012 125.383 169.389C125.103 167.766 125.478 166.13 126.438 164.783C127.398 163.436 128.828 162.54 130.465 162.258C133.843 161.674 137.063 163.927 137.64 167.277C137.92 168.901 137.545 170.537 136.585 171.884C135.625 173.23 134.195 174.127 132.558 174.409C132.198 174.471 131.838 174.502 131.48 174.502ZM131.532 162.635C131.207 162.635 130.877 162.663 130.544 162.72C129.03 162.981 127.708 163.81 126.82 165.055C125.933 166.3 125.587 167.811 125.845 169.31C126.103 170.809 126.935 172.116 128.188 172.992C129.441 173.869 130.966 174.207 132.479 173.947C133.993 173.686 135.316 172.857 136.203 171.611C137.09 170.367 137.436 168.856 137.178 167.357C136.702 164.591 134.274 162.635 131.532 162.635Z" fill="white"/>
<path d="M97.1597 104.697L103.272 85.4696L154.528 94.1744L97.1597 104.697Z" fill="white"/>
<path d="M109.085 51.114L158.388 59.6768L207.648 51.1032L157.829 42.4369L109.085 51.114Z" fill="white"/>
<path d="M128.223 47.5844L177.526 56.1473L188.579 54.3815L138.76 45.7152L128.223 47.5844Z" fill="black"/>
<path d="M158.379 132.247V59.6055L108.883 51.0836V123.526L158.379 132.247Z" fill="white"/>
<path d="M158.379 132.481C158.365 132.481 158.351 132.48 158.338 132.478L108.842 123.757C108.73 123.737 108.648 123.639 108.648 123.526V106.386C108.648 106.256 108.753 106.151 108.883 106.151C109.013 106.151 109.118 106.256 109.118 106.386V123.329L158.144 131.967V59.8031L109.118 51.362V83.2498C109.118 83.3793 109.013 83.4843 108.883 83.4843C108.753 83.4843 108.648 83.3793 108.648 83.2498V51.0836C108.648 51.0144 108.679 50.9488 108.732 50.9043C108.785 50.8596 108.854 50.8405 108.923 50.8526L158.419 59.3744C158.531 59.3937 158.613 59.4913 158.613 59.6055V132.247C158.613 132.316 158.583 132.382 158.529 132.426C158.487 132.462 158.433 132.481 158.379 132.481Z" fill="black"/>
<path d="M149.468 113.255C149.454 113.255 149.44 113.253 149.427 113.251L117.435 107.558C117.323 107.538 117.241 107.441 117.241 107.327V87.9631C117.241 87.8335 117.346 87.7285 117.476 87.7285C117.605 87.7285 117.71 87.8335 117.71 87.9631V107.13L149.233 112.74V93.3149C149.233 93.1854 149.338 93.0804 149.468 93.0804C149.597 93.0804 149.702 93.1854 149.702 93.3149V113.02C149.702 113.089 149.672 113.155 149.618 113.2C149.576 113.235 149.522 113.255 149.468 113.255Z" fill="black"/>
<path d="M120.804 104.359C120.675 104.359 120.57 104.254 120.57 104.125V88.4471C120.57 88.3176 120.675 88.2125 120.804 88.2125C120.934 88.2125 121.039 88.3176 121.039 88.4471V104.125C121.039 104.255 120.934 104.359 120.804 104.359Z" fill="black"/>
<path d="M123.904 104.462C123.774 104.462 123.669 104.357 123.669 104.227V88.9734C123.669 88.8439 123.774 88.7389 123.904 88.7389C124.034 88.7389 124.139 88.8439 124.139 88.9734V104.227C124.139 104.357 124.034 104.462 123.904 104.462Z" fill="black"/>
<path d="M127.179 105.388C127.049 105.388 126.944 105.283 126.944 105.153V89.4566C126.944 89.3271 127.049 89.222 127.179 89.222C127.309 89.222 127.413 89.3271 127.413 89.4566V105.153C127.413 105.283 127.309 105.388 127.179 105.388Z" fill="black"/>
<path d="M129.303 105.73C129.174 105.73 129.069 105.625 129.069 105.496V89.7993C129.069 89.6697 129.174 89.5647 129.303 89.5647C129.433 89.5647 129.538 89.6697 129.538 89.7993V105.496C129.538 105.625 129.433 105.73 129.303 105.73Z" fill="black"/>
<path d="M133.553 106.124C133.423 106.124 133.318 106.019 133.318 105.89V90.567C133.318 90.4374 133.423 90.3324 133.553 90.3324C133.683 90.3324 133.787 90.4374 133.787 90.567V105.89C133.787 106.019 133.683 106.124 133.553 106.124Z" fill="black"/>
<path d="M137.802 107.101C137.673 107.101 137.568 106.996 137.568 106.867V91.3339C137.568 91.2044 137.673 91.0994 137.802 91.0994C137.932 91.0994 138.037 91.2044 138.037 91.3339V106.867C138.037 106.996 137.932 107.101 137.802 107.101Z" fill="black"/>
<path d="M142.052 107.203C141.923 107.203 141.818 107.098 141.818 106.969V92.012C141.818 91.8825 141.923 91.7775 142.052 91.7775C142.182 91.7775 142.287 91.8825 142.287 92.012V106.969C142.287 107.098 142.182 107.203 142.052 107.203Z" fill="black"/>
<path d="M146.301 108.472C146.172 108.472 146.067 108.367 146.067 108.237V92.7755C146.067 92.6459 146.172 92.5409 146.301 92.5409C146.431 92.5409 146.536 92.6459 146.536 92.7755V108.238C146.536 108.367 146.431 108.472 146.301 108.472Z" fill="black"/>
<path d="M149.468 93.3972C149.338 93.3972 149.233 93.2922 149.233 93.1626V78.4896L117.71 73.0082V87.7173C117.71 87.8469 117.605 87.9519 117.476 87.9519C117.346 87.9519 117.241 87.8469 117.241 87.7173V72.7294C117.241 72.6601 117.272 72.5945 117.325 72.55C117.378 72.5055 117.448 72.4864 117.516 72.4983L149.508 78.0613C149.62 78.0808 149.702 78.1783 149.702 78.2924V93.1628C149.702 93.2923 149.597 93.3972 149.468 93.3972Z" fill="black"/>
<path d="M120.804 88.6631C120.675 88.6631 120.57 88.5581 120.57 88.4285V77.4655C120.57 77.336 120.675 77.231 120.804 77.231C120.934 77.231 121.039 77.336 121.039 77.4655V88.4285C121.039 88.5581 120.934 88.6631 120.804 88.6631Z" fill="black"/>
<path d="M123.083 88.7653V78.4425C123.083 77.9891 123.451 77.6217 123.904 77.6217C124.358 77.6217 124.725 77.9892 124.725 78.4425V89.0096L123.083 88.7653Z" fill="black"/>
<path d="M127.179 89.6913C127.049 89.6913 126.944 89.5862 126.944 89.4567V78.4937C126.944 78.3642 127.049 78.2592 127.179 78.2592C127.309 78.2592 127.413 78.3642 127.413 78.4937V89.4567C127.413 89.5862 127.309 89.6913 127.179 89.6913Z" fill="black"/>
<path d="M129.303 90.0338C129.174 90.0338 129.069 89.9288 129.069 89.7993V78.8364C129.069 78.7068 129.174 78.6018 129.303 78.6018C129.433 78.6018 129.538 78.7068 129.538 78.8364V89.7993C129.538 89.9288 129.433 90.0338 129.303 90.0338Z" fill="black"/>
<path d="M132.732 90.4277V80.105C132.732 79.6516 133.1 79.2842 133.553 79.2842C134.006 79.2842 134.374 79.6517 134.374 80.105V90.7066L132.732 90.4277Z" fill="black"/>
<path d="M137.802 91.4048C137.673 91.4048 137.568 91.2998 137.568 91.1702V80.2072C137.568 80.0777 137.673 79.9727 137.802 79.9727C137.932 79.9727 138.037 80.0777 138.037 80.2072V91.1702C138.037 91.2998 137.932 91.4048 137.802 91.4048Z" fill="black"/>
<path d="M141.231 91.9293V81.1842C141.231 80.7308 141.599 80.3634 142.052 80.3634C142.505 80.3634 142.873 80.7309 142.873 81.1842V92.0949L141.231 91.9293Z" fill="black"/>
<path d="M146.301 93.01C146.172 93.01 146.067 92.905 146.067 92.7754V81.5781C146.067 81.4485 146.172 81.3435 146.301 81.3435C146.431 81.3435 146.536 81.4485 146.536 81.5781V92.7754C146.536 92.905 146.431 93.01 146.301 93.01Z" fill="black"/>
<path d="M158.378 132.247V59.6056L207.445 51.0729V123.568L158.378 132.247Z" fill="white"/>
<path d="M158.379 132.481C158.324 132.481 158.271 132.462 158.228 132.426C158.175 132.382 158.144 132.316 158.144 132.247V59.6054C158.144 59.4914 158.226 59.394 158.338 59.3743L207.405 50.8417C207.473 50.8299 207.543 50.8488 207.596 50.8933C207.649 50.9379 207.68 51.0035 207.68 51.0727V123.568C207.68 123.681 207.598 123.779 207.486 123.799L158.419 132.478C158.406 132.48 158.392 132.481 158.379 132.481ZM158.613 59.8028V131.967L207.211 123.371V51.3516L158.613 59.8028Z" fill="black"/>
<path d="M188.647 54.7797V62.1666L178.439 63.8943V56.5568L188.647 54.7797Z" fill="black"/>
<path d="M158.388 59.9113C158.375 59.9113 158.361 59.9102 158.348 59.9079L109.046 51.3451C108.933 51.3256 108.851 51.2283 108.851 51.1144C108.851 51.0006 108.932 50.9031 109.045 50.8831L157.788 42.2061C157.815 42.2014 157.842 42.2013 157.869 42.2059L207.688 50.8722C207.801 50.8918 207.883 50.9892 207.883 51.1033C207.883 51.2172 207.801 51.3148 207.689 51.3345L158.428 59.9081C158.415 59.9101 158.402 59.9113 158.388 59.9113ZM110.44 51.1111L158.388 59.4387L206.28 51.1032L157.83 42.675L110.44 51.1111Z" fill="black"/>
<path d="M97.1599 104.932C97.0932 104.932 97.0288 104.903 96.984 104.852C96.9294 104.79 96.9114 104.704 96.9363 104.626L103.049 85.3987C103.084 85.2871 103.198 85.2183 103.311 85.2385L154.567 93.9433C154.68 93.9623 154.762 94.0592 154.763 94.173C154.764 94.2867 154.682 94.3846 154.571 94.4052L97.2021 104.928C97.1881 104.93 97.1739 104.932 97.1599 104.932ZM103.434 85.735L97.5016 104.396L153.18 94.1834L103.434 85.735Z" fill="black"/>
<path d="M34.2151 199.21L32.9087 206.635L36.7684 207.088L38.3429 200.117L34.2151 199.21Z" fill="white"/>
<path d="M36.7688 207.323C36.7596 207.323 36.7504 207.322 36.7412 207.321L32.8816 206.868C32.8175 206.86 32.7593 206.827 32.7208 206.775C32.6821 206.723 32.6668 206.658 32.6778 206.594L33.9842 199.169C33.9953 199.106 34.0315 199.051 34.0847 199.015C34.1378 198.98 34.2026 198.967 34.2656 198.981L38.3934 199.888C38.4543 199.901 38.5076 199.938 38.5409 199.991C38.5744 200.044 38.5856 200.107 38.5719 200.168L36.9973 207.14C36.9728 207.248 36.8771 207.323 36.7688 207.323ZM33.1828 206.431L36.5862 206.83L38.0623 200.295L34.4038 199.492L33.1828 206.431Z" fill="black"/>
<path d="M37.188 205.48C35.9268 205.987 34.4831 205.662 33.562 204.662L33.0773 204.135C32.9094 203.953 32.6155 203.975 32.4764 204.18L29.7558 208.19C29.268 208.846 29.338 209.843 29.9278 210.415C30.696 211.161 31.8658 212.167 33.2826 212.973C35.9547 214.493 38.2621 217.732 40.9969 216.948C43.7317 216.165 43.8607 215.968 44.1699 215.104C44.479 214.24 42.8982 212.533 40.7213 210.548C39.3904 209.335 38.0974 206.712 37.6876 205.692C37.6087 205.495 37.3849 205.401 37.188 205.48Z" fill="white"/>
<path d="M40.1542 217.302C38.5254 217.302 37.0322 216.098 35.5809 214.927C34.8004 214.298 33.9933 213.647 33.1666 213.177C31.7102 212.349 30.5126 211.309 29.7645 210.584C29.0981 209.937 29.0097 208.8 29.5676 208.05L32.2823 204.048C32.3889 203.891 32.559 203.793 32.7486 203.779C32.936 203.765 33.1208 203.837 33.2498 203.977L33.7344 204.503C34.5842 205.425 35.9368 205.73 37.1006 205.262C37.2543 205.2 37.423 205.202 37.5753 205.267C37.7267 205.332 37.844 205.451 37.9054 205.604C38.3309 206.664 39.6176 209.224 40.8796 210.375C43.6816 212.93 44.6987 214.323 44.3908 215.183C44.0344 216.179 43.7793 216.396 41.0616 217.174C40.7543 217.262 40.452 217.302 40.1542 217.302ZM32.7947 204.246C32.7906 204.246 32.7869 204.246 32.7835 204.247C32.7565 204.249 32.7059 204.26 32.6703 204.312L29.9498 208.322C29.5215 208.898 29.5874 209.758 30.0911 210.247C30.8197 210.954 31.985 211.965 33.3984 212.769C34.2582 213.258 35.0801 213.921 35.8753 214.562C37.5734 215.932 39.1761 217.226 40.9324 216.723C43.6167 215.954 43.6739 215.794 43.9492 215.025C44.2774 214.109 41.482 211.559 40.5634 210.722C39.1354 209.42 37.8188 206.648 37.4701 205.779C37.4554 205.742 37.4273 205.714 37.3911 205.698C37.3535 205.682 37.313 205.682 37.2755 205.697C35.9315 206.238 34.3704 205.885 33.3894 204.821L32.9048 204.294C32.8675 204.254 32.8233 204.246 32.7947 204.246Z" fill="black"/>
<path d="M44.1913 215.365C44.1913 215.365 41.9658 216.999 38.943 215.313C36.9289 214.19 29.505 207.934 29.505 207.934L28.8592 208.812C28.5321 209.257 28.4849 210.103 28.9022 210.469C30.7865 212.118 36.3164 216.469 39.2294 217.332C43.7089 218.658 44.1913 215.365 44.1913 215.365Z" fill="white"/>
<path d="M41.1653 217.882C40.5642 217.882 39.8959 217.774 39.1626 217.557C35.999 216.62 30.1428 211.867 28.7476 210.645C28.224 210.187 28.2762 209.209 28.6702 208.673L29.3158 207.795C29.3543 207.743 29.4127 207.709 29.4771 207.701C29.543 207.694 29.6062 207.713 29.656 207.755C29.73 207.817 37.0855 214.009 39.0571 215.108C41.9159 216.702 44.0312 215.192 44.0523 215.176C44.1286 215.12 44.231 215.116 44.3121 215.164C44.3931 215.213 44.4369 215.306 44.4232 215.399C44.4158 215.45 44.2282 216.651 43.1046 217.369C42.5694 217.711 41.9205 217.882 41.1653 217.882ZM29.5456 208.275L29.0482 208.951C28.7875 209.305 28.745 210.019 29.0568 210.292C31.1017 212.083 36.5187 216.284 39.296 217.107C40.8097 217.555 42.0045 217.512 42.846 216.977C43.3524 216.656 43.6352 216.208 43.7891 215.861C42.9236 216.265 41.0962 216.782 38.8286 215.518C36.9755 214.485 30.7473 209.284 29.5456 208.275Z" fill="black"/>
<path d="M55.116 200.725L53.2241 210.98L57.474 213.099L59.8841 201.943L55.116 200.725Z" fill="white"/>
<path d="M57.4742 213.334C57.4382 213.334 57.4025 213.326 57.3696 213.309L53.1197 211.189C53.026 211.143 52.9747 211.04 52.9937 210.937L54.8857 200.683C54.8974 200.619 54.9352 200.563 54.9899 200.528C55.0446 200.493 55.112 200.482 55.1743 200.498L59.9423 201.716C60.0646 201.747 60.1402 201.87 60.1137 201.993L57.7035 213.149C57.6882 213.22 57.641 213.279 57.5757 213.311C57.5436 213.326 57.509 213.334 57.4742 213.334ZM53.487 210.848L57.3086 212.755L59.6073 202.115L55.3013 201.015L53.487 210.848Z" fill="black"/>
<path d="M52.5857 210.272C52.4357 211.253 51.2903 213.158 51.252 214.792C51.2279 215.819 51.9838 216.694 52.9946 216.837C55.8524 217.241 63.2402 217.639 68.7764 217.201C69.1554 217.171 69.8284 216.902 70.0263 215.954C70.691 212.769 65.1784 211.92 59.1522 209.531C58.9161 209.437 58.6472 209.487 58.4628 209.663L57.8023 210.291C57.1414 210.919 56.1704 211.088 55.3382 210.719L53.3629 209.843C53.0265 209.694 52.6417 209.907 52.5857 210.272Z" fill="white"/>
<path d="M63.2708 217.627C59.1273 217.627 55.0187 217.36 52.9619 217.069C51.8268 216.908 50.9911 215.927 51.0177 214.787C51.0422 213.74 51.5018 212.589 51.8713 211.663C52.1015 211.086 52.3003 210.588 52.3541 210.237C52.3919 209.989 52.5394 209.778 52.7583 209.658C52.9762 209.539 53.2308 209.528 53.458 209.628L55.4333 210.504C56.1809 210.835 57.0469 210.685 57.6408 210.121L58.3011 209.493C58.5499 209.256 58.9172 209.185 59.2388 209.312C60.6455 209.87 61.9979 210.335 63.3061 210.784C67.497 212.223 70.8072 213.36 70.2559 216.002C70.0496 216.991 69.34 217.392 68.7951 217.435C67.0764 217.571 65.1694 217.627 63.2708 217.627ZM52.8177 210.307C52.7559 210.712 52.5478 211.234 52.3069 211.837C51.933 212.774 51.5092 213.836 51.4867 214.798C51.4655 215.701 52.128 216.477 53.0275 216.605C56.0063 217.026 63.322 217.398 68.7581 216.968C68.8969 216.957 69.5991 216.854 69.797 215.906C70.2636 213.67 67.2814 212.646 63.1539 211.228C61.8406 210.777 60.4827 210.31 59.0662 209.749C58.9141 209.689 58.7412 209.722 58.6244 209.833L57.964 210.461C57.232 211.156 56.1646 211.342 55.2433 210.933L53.268 210.057C53.1759 210.017 53.0726 210.021 52.9837 210.069C52.894 210.118 52.8335 210.205 52.8177 210.307Z" fill="black"/>
<path d="M51.1289 214.364C51.1289 214.364 51.1236 214.53 51.1217 214.61C51.0976 215.636 51.8535 216.512 52.8642 216.654C55.7221 217.058 63.2256 218.007 68.762 217.569C69.141 217.539 69.8282 216.902 70.0262 215.954C70.0869 215.663 70.0581 215.137 70.0581 215.137L69.6656 215.152C64.0741 215.361 58.4748 215.159 52.9128 214.545L51.1289 214.364Z" fill="white"/>
<path d="M65.6343 217.916C60.7249 217.916 55.2619 217.23 52.8316 216.887C51.6965 216.726 50.8607 215.745 50.8873 214.604C50.8892 214.524 50.8949 214.357 50.8949 214.357C50.8969 214.292 50.926 214.23 50.9748 214.188C51.0238 214.145 51.0879 214.124 51.1527 214.131L52.9364 214.312C58.47 214.922 64.0949 215.126 69.6569 214.917L70.0492 214.903C70.0524 214.903 70.0554 214.903 70.0584 214.903C70.1823 214.903 70.2856 214.999 70.2922 215.124C70.2937 215.147 70.322 215.685 70.2559 216.002C70.0454 217.011 69.3094 217.761 68.7806 217.803C67.7856 217.882 66.723 217.916 65.6343 217.916ZM51.3562 214.623C51.339 215.523 52.0002 216.295 52.8971 216.422C55.8511 216.84 63.3087 217.766 68.7437 217.336C68.9732 217.317 69.6085 216.809 69.797 215.906C69.8254 215.769 69.8318 215.554 69.8305 215.38L69.6747 215.386C64.0886 215.596 58.4416 215.391 52.8873 214.779L51.3562 214.623Z" fill="black"/>
<path d="M49.4302 141.655C49.5523 142.221 47.6334 146.127 47.9466 149.964C48.4375 155.978 48.8242 159.1 45.5975 165.076C42.4853 170.84 36.8667 176.345 32.8529 200.334C32.6517 201.536 33.573 202.634 34.7917 202.649L37.8746 202.686C38.6322 202.696 39.3287 202.274 39.6723 201.598C41.6995 197.615 47.9586 185.833 50.4072 181.415C53.2832 176.225 61.4781 163.239 61.9553 157.015C62.4053 151.148 61.9928 142.76 61.944 141.818C61.9414 141.768 61.9014 141.73 61.8513 141.727L49.4302 141.655Z" fill="black"/>
<path d="M66.7462 140.258C66.7462 140.258 74.0437 155.445 69.6723 173.733C66.5106 186.961 62.024 201.704 60.5826 205.906C60.3004 206.729 59.5246 207.279 58.6549 207.275L55.2873 207.26C54.0715 207.255 53.1334 206.19 53.2832 204.983C54.1499 197.999 56.8175 175.392 56.6232 169.925C56.3027 160.916 53.6542 157.762 53.1935 151.423C52.6917 144.516 54.6112 140.387 54.6112 140.387L66.7462 140.258Z" fill="black"/>
<path d="M56.1451 172.547C56.138 172.547 56.1306 172.547 56.1233 172.546C55.9944 172.534 55.8993 172.42 55.9112 172.291C56.5365 165.524 55.1986 161.729 54.0183 158.381C53.161 155.949 52.3511 153.652 52.4696 150.62C52.4746 150.49 52.5898 150.389 52.713 150.395C52.8424 150.4 52.9432 150.509 52.9382 150.638C52.8235 153.581 53.582 155.733 54.4606 158.225C55.6571 161.619 57.0131 165.465 56.3785 172.334C56.3672 172.456 56.2648 172.547 56.1451 172.547Z" fill="white"/>
<path d="M103.253 102.678C104.558 103.751 103.878 104.743 103.424 105.116L99.5985 108.264C97.8571 109.604 97.7053 110.152 97.0614 111.323L92.6884 119.277C91.8342 120.832 90.8669 122.321 89.7945 123.733L88.6488 125.242C88.3016 125.699 87.6782 125.845 87.1647 125.588C86.6507 125.331 86.3929 124.744 86.5512 124.192L86.8715 123.074C87.2833 121.638 87.7838 120.228 88.3699 118.853L92.4157 109.36L92.5794 108.431C93.0227 104.825 95.5066 102.741 95.5066 102.741C99.2324 99.4152 103.253 102.678 103.253 102.678Z" fill="black"/>
<path d="M103.253 102.678C103.253 102.678 101.47 101.234 99.1787 101.249C98.3728 101.333 97.5734 101.641 96.895 102.332C96.8293 102.399 95.4415 104.347 95.2223 105.005C94.7929 106.295 95.8295 106.883 96.929 106.553C100.063 105.612 102.681 103.773 103.631 103.051C103.53 102.929 103.406 102.804 103.253 102.678Z" fill="white"/>
<path d="M96.3385 106.878C95.8944 106.878 95.4983 106.733 95.2316 106.458C94.8762 106.092 94.7938 105.55 94.9996 104.931C95.232 104.233 96.6246 102.273 96.7276 102.168C97.3797 101.504 98.196 101.116 99.154 101.015C99.1677 101.015 99.1815 101.015 99.195 101.015C101.546 101.015 103.325 102.435 103.4 102.496C103.4 102.496 103.401 102.497 103.401 102.497C103.558 102.626 103.692 102.758 103.812 102.902C103.852 102.951 103.871 103.015 103.864 103.078C103.857 103.142 103.824 103.2 103.773 103.238C102.788 103.987 100.155 105.83 96.9959 106.778C96.7722 106.845 96.5497 106.878 96.3385 106.878ZM99.2136 101.483C99.2025 101.483 99.1915 101.483 99.1802 101.483C98.3563 101.571 97.636 101.912 97.0623 102.497C96.9319 102.652 95.6414 104.489 95.4448 105.079C95.2946 105.53 95.3374 105.894 95.5683 106.132C95.8353 106.407 96.3425 106.484 96.8614 106.328C99.7474 105.462 102.19 103.827 103.283 103.019C103.228 102.965 103.168 102.912 103.105 102.86C103.068 102.83 101.361 101.483 99.2136 101.483Z" fill="black"/>
<path d="M98.6125 104.349C99.408 103.75 99.8668 103.017 99.6372 102.712C99.4077 102.407 98.5767 102.645 97.7812 103.244C96.9857 103.843 96.5269 104.575 96.7565 104.88C96.9861 105.185 97.817 104.947 98.6125 104.349Z" fill="black"/>
<path d="M87.6973 125.949C87.4816 125.949 87.2636 125.9 87.0599 125.798C86.4453 125.491 86.1365 124.788 86.3259 124.128L86.6462 123.01C87.0593 121.569 87.5669 120.14 88.1543 118.761L92.1895 109.294L92.3486 108.391C92.7962 104.747 95.2516 102.649 95.3561 102.562C99.1807 99.1475 103.359 102.463 103.401 102.496C103.401 102.497 103.402 102.497 103.402 102.497C103.962 102.958 104.246 103.458 104.246 103.984C104.246 104.69 103.731 105.168 103.573 105.298L99.7478 108.446C98.2502 109.598 97.9616 110.139 97.4834 111.035C97.416 111.162 97.3451 111.295 97.267 111.437L92.894 119.391C92.037 120.95 91.057 122.459 89.9816 123.876L88.8357 125.385C88.5582 125.75 88.1325 125.949 87.6973 125.949ZM99.2323 101.472C98.1197 101.472 96.8782 101.832 95.6629 102.917C95.6334 102.941 93.2384 104.994 92.8122 108.461L92.6466 109.402C92.6436 109.419 92.6385 109.436 92.6315 109.453L88.5859 118.945C88.0059 120.306 87.5051 121.717 87.0969 123.14L86.7767 124.257C86.6496 124.7 86.857 125.172 87.2698 125.379C87.6819 125.585 88.1832 125.468 88.462 125.101L89.6078 123.592C90.6696 122.194 91.6368 120.704 92.4831 119.165L96.856 111.211C96.9329 111.07 97.0031 110.939 97.0695 110.815C97.5599 109.895 97.8839 109.288 99.4557 108.079L103.275 104.936C103.517 104.736 103.777 104.381 103.777 103.984C103.777 103.605 103.551 103.227 103.105 102.86C102.995 102.772 101.347 101.472 99.2323 101.472Z" fill="black"/>
<path d="M97.4565 112.697C96.9951 111.963 96.362 112.338 96.362 112.338C96.362 112.338 94.2281 113.585 93.2957 113.483C91.683 113.305 91.6768 111.568 91.7151 110.924C91.7342 110.603 91.4596 110.335 91.1415 110.376C90.7477 110.428 90.0495 111.31 89.5662 111.972C88.6245 113.262 89.058 115.173 88.4907 116.13C87.8091 117.28 84.9945 119.915 82.3467 121.529C79.1278 123.49 76.9541 121.728 74.6285 119.827C73.0677 118.551 71.6983 116.09 68.9311 114.308C67.0005 113.064 60.5681 117.733 62.3695 119.568C64.3951 121.631 72.5672 131.219 77.9596 129.987C82.2659 129.003 89.0115 121.35 90.78 119.551C91.8747 118.723 93.2357 118.799 94.1388 118.432C95.142 118.024 96.0144 117.842 96.2378 115.252C96.2786 114.779 98.0706 113.674 97.4565 112.697Z" fill="white"/>
<path d="M76.962 130.331C72.1221 130.331 65.8482 123.621 63.0588 120.637C62.7093 120.264 62.42 119.954 62.202 119.732C61.5684 119.087 61.7214 118.115 62.6328 116.996C64.1141 115.177 67.5831 113.16 69.0579 114.111C70.8031 115.235 71.9833 116.603 73.0243 117.811C73.6553 118.543 74.2001 119.174 74.7769 119.646C77.1162 121.558 79.1368 123.21 82.2246 121.328C84.7503 119.789 87.6073 117.161 88.2889 116.011C88.5076 115.641 88.5642 115.066 88.624 114.458C88.7087 113.595 88.8047 112.618 89.3768 111.834C90.4232 110.4 90.8531 110.178 91.1111 110.144C91.3296 110.116 91.5463 110.186 91.7084 110.337C91.875 110.492 91.9626 110.711 91.9491 110.938C91.891 111.917 92.082 113.113 93.3212 113.249C94.0275 113.329 95.6691 112.472 96.2437 112.135C96.5293 111.966 97.194 111.838 97.655 112.572C98.1571 113.371 97.3953 114.197 96.8912 114.744C96.7205 114.929 96.4867 115.183 96.4711 115.274C96.2495 117.847 95.3553 118.201 94.4087 118.576L94.2273 118.649C93.8829 118.789 93.4887 118.866 93.0712 118.948C92.3435 119.09 91.5914 119.237 90.935 119.728C90.7154 119.952 90.421 120.263 90.0658 120.639C87.3982 123.463 81.8479 129.339 78.0118 130.216C77.6711 130.294 77.3201 130.33 76.962 130.331ZM68.097 114.33C66.6596 114.33 64.2177 115.792 62.9965 117.292C62.5678 117.819 61.9377 118.793 62.5368 119.404C62.7567 119.628 63.0487 119.94 63.4014 120.317C66.3419 123.462 73.2239 130.828 77.9071 129.759C81.6043 128.914 87.2947 122.89 89.7245 120.318C90.0891 119.932 90.3901 119.613 90.6124 119.387C90.6205 119.379 90.629 119.371 90.6381 119.364C91.3844 118.8 92.2327 118.634 92.9809 118.488C93.3756 118.411 93.7479 118.338 94.0503 118.215L94.2358 118.141C95.1135 117.793 95.8068 117.518 96.0039 115.232C96.0248 114.992 96.2435 114.755 96.546 114.427C97.1058 113.82 97.5456 113.28 97.2577 112.822C96.9279 112.296 96.5266 112.514 96.4815 112.54C96.255 112.672 94.2541 113.823 93.2698 113.716C92.0351 113.58 91.383 112.557 91.4808 110.91C91.4859 110.823 91.4522 110.74 91.3885 110.68C91.3537 110.648 91.2801 110.595 91.1718 110.609C91.0886 110.62 90.7408 110.761 89.7554 112.11C89.2587 112.791 89.1732 113.662 89.0906 114.504C89.0255 115.166 88.9642 115.791 88.6923 116.25C87.9688 117.471 85.0926 120.13 82.4686 121.729C79.0967 123.784 76.7496 121.865 74.4799 120.009C73.8716 119.512 73.2873 118.834 72.6689 118.117C71.6486 116.934 70.4922 115.593 68.804 114.505C68.617 114.385 68.3758 114.33 68.097 114.33Z" fill="black"/>
<path d="M75.1032 118.312C72.5192 116.402 70.2365 113.087 68.6558 111.559C66.9896 109.949 64.3645 108.914 62.066 108.619C57.0975 107.982 50.8313 108.609 47.6901 110.683C43.7333 113.294 44.3168 117.496 45.1496 119.395C45.5772 120.371 47.1984 124.445 47.6217 125.631C50.2519 132.997 49.0649 138.769 48.4223 143.67C48.3335 144.347 48.7738 144.95 49.4244 145.157C52.858 146.25 56.9362 146.987 67.9946 144.297C68.6812 144.13 69.071 143.404 68.8409 142.736C65.9761 134.423 67.7244 131.709 68.6827 127.197L69.9439 127.885C72.1223 128.688 74.1469 125.265 75.0459 123.471C76.2369 121.095 76.4217 119.287 75.1032 118.312Z" fill="white"/>
<path d="M55.7005 146.388C52.9155 146.388 51.0649 145.925 49.3531 145.381C48.5666 145.131 48.0882 144.415 48.1896 143.64C48.2505 143.175 48.3165 142.702 48.3835 142.22C49.0297 137.581 49.7621 132.324 47.4007 125.71C46.9733 124.514 45.3541 120.447 44.9346 119.49C44.0164 117.396 43.5364 113.143 47.5609 110.487C50.8631 108.308 57.3731 107.781 62.0958 108.387C64.6662 108.716 67.2423 109.867 68.8188 111.391C69.3845 111.937 70.0175 112.685 70.7508 113.55C72.0823 115.122 73.5914 116.903 75.2425 118.123C76.5906 119.12 76.5949 120.904 75.2553 123.577C74.2262 125.631 72.1562 128.951 69.8627 128.106C69.8519 128.102 69.8416 128.097 69.8316 128.091L68.8449 127.553C68.6963 128.218 68.5326 128.847 68.3736 129.458C67.4822 132.883 66.7124 135.841 69.0626 142.66C69.1945 143.043 69.1589 143.467 68.9648 143.822C68.7722 144.174 68.4389 144.43 68.05 144.525C62.3858 145.902 58.5532 146.387 55.7005 146.388ZM58.2277 108.62C54.3517 108.62 50.2076 109.302 47.8193 110.878C44.0551 113.363 44.505 117.342 45.3643 119.301C45.7859 120.263 47.4129 124.35 47.8424 125.552C50.2427 132.275 49.5018 137.593 48.8481 142.285C48.7813 142.765 48.7155 143.237 48.6546 143.701C48.5831 144.247 48.929 144.754 49.4954 144.934C52.8948 146.016 56.8631 146.763 67.9391 144.069C68.2039 144.005 68.422 143.837 68.5532 143.597C68.6843 143.357 68.7082 143.071 68.6191 142.813C66.2228 135.859 67.0471 132.693 67.9197 129.34C68.1015 128.641 68.2898 127.918 68.4531 127.149C68.4686 127.076 68.5172 127.016 68.5846 126.985C68.6519 126.954 68.73 126.956 68.7948 126.992L70.0405 127.671C70.2261 127.737 70.4116 127.768 70.5959 127.768C72.4179 127.769 74.1365 124.762 74.8363 123.366C76.0568 120.931 76.0985 119.339 74.9636 118.501C73.2687 117.248 71.7409 115.445 70.3928 113.853C69.668 112.998 69.0418 112.258 68.4927 111.728C66.9855 110.271 64.5114 109.169 62.0363 108.852C60.8526 108.7 59.5558 108.62 58.2277 108.62Z" fill="black"/>
<path d="M64.8285 94.4659C64.9747 94.015 64.91 93.5248 64.6566 93.1242C63.9124 91.9475 62.0717 89.6923 58.9983 89.9226C54.6659 90.2473 53.1644 92.26 52.4846 95.7142C52.0072 98.1398 52.9842 101.732 54.7175 102.638C57.2179 103.945 59.3432 102.301 59.3432 102.301L64.5901 95.2017L64.8285 94.4659Z" fill="black"/>
<path d="M54.0436 94.6347L55.1312 91.9033C55.1312 91.9033 52.6589 89.8061 49.7879 90.1347C46.8641 90.4691 43.5445 93.2744 43.9572 98.3681C44.1716 101.015 41.9435 102.337 39.8323 104.31C39.3794 104.734 38.9024 105.13 38.4215 105.522C34.9513 108.347 35.5513 111.396 35.5513 111.396C35.7204 110.781 36.1378 110.249 36.6358 109.805C35.9505 114.364 39.3602 119.203 43.791 120.193C47.9841 121.129 53.1612 118.41 54.303 115.217C55.4112 112.117 54.6557 107.626 53.1611 104.21C51.6664 100.793 50.7287 96.2054 54.0436 94.6347Z" fill="black"/>
<path d="M64.6119 94.127C64.6119 94.127 65.0492 95.6261 64.7331 96.7227C64.4974 97.5406 65.1151 98.6278 65.5273 99.0758C65.6429 99.2013 65.6068 99.4022 65.4558 99.4814L64.9263 99.7435C64.7306 99.8463 64.6018 100.043 64.5867 100.263C64.5343 101.029 64.3654 102.801 64.0242 103.237C63.4652 103.953 61.121 103.16 60.6169 103.007C60.5649 102.992 60.6198 108.457 60.6198 108.457C60.6033 109.441 60.3559 110.114 59.7665 110.624C58.4524 111.761 54.2752 112.173 53.9605 110.281C53.917 110.019 53.6714 109.843 53.8291 109.63C54.4294 108.819 54.9924 107.848 55.1892 106.481C55.4441 104.709 55.216 102.721 55.216 102.721C55.216 102.721 56.2896 102.747 57.3948 101.668C58.3513 100.734 58.9264 99.4645 58.6913 99.0518C58.1533 98.1075 57.8034 97.1976 58.5793 96.4906C59.3212 95.8145 60.0446 96.3595 60.3855 96.7677C60.8549 97.3295 62.9171 96.9873 63.8044 95.4387C64.6916 93.89 64.6119 94.127 64.6119 94.127Z" fill="white"/>
<path d="M56.448 111.82C55.8896 111.82 55.3605 111.748 54.9308 111.593C54.2419 111.344 53.8262 110.903 53.7291 110.319C53.719 110.259 53.6862 110.195 53.6517 110.127C53.5777 109.983 53.454 109.742 53.6405 109.49C54.1799 108.761 54.758 107.83 54.9567 106.447C55.2045 104.725 54.9849 102.767 54.9828 102.747C54.9751 102.68 54.9968 102.613 55.0426 102.562C55.0882 102.512 55.1431 102.484 55.2214 102.486C55.2214 102.486 55.2219 102.486 55.2223 102.486C55.2562 102.486 56.2312 102.476 57.2307 101.5C58.1906 100.563 58.6259 99.4112 58.4871 99.1679C57.92 98.1726 57.5197 97.1385 58.4209 96.3172C58.7223 96.0428 59.051 95.9158 59.3987 95.9393C59.9731 95.9784 60.4058 96.4265 60.5651 96.6174C60.6471 96.7155 60.895 96.8162 61.3274 96.7784C62.0816 96.712 63.077 96.2359 63.6003 95.3222C64.4753 93.7959 64.4791 93.7974 64.7081 93.9003C64.7807 93.9329 64.8291 94.004 64.8424 94.0814C64.8964 94.2748 65.2727 95.696 64.9583 96.7877C64.7599 97.4753 65.2833 98.4648 65.6995 98.917C65.8041 99.0306 65.8488 99.183 65.8225 99.3352C65.796 99.488 65.702 99.6171 65.5646 99.689L65.0301 99.9536C64.9103 100.017 64.8299 100.139 64.8205 100.279C64.7681 101.044 64.6036 102.876 64.209 103.382C63.6797 104.06 62.1569 103.723 60.8344 103.32C60.8198 104.158 60.8367 106.703 60.8543 108.455C60.836 109.536 60.5479 110.258 59.9199 110.801C59.1888 111.434 57.7402 111.82 56.448 111.82ZM55.4728 102.935C55.525 103.523 55.6281 105.076 55.4213 106.514C55.2062 108.009 54.5581 109.039 54.0176 109.769C54.0109 109.8 54.046 109.868 54.0694 109.914C54.114 110.001 54.1699 110.11 54.192 110.242C54.2607 110.655 54.563 110.961 55.0905 111.152C56.475 111.651 58.7729 111.174 59.6132 110.447C60.1386 109.992 60.3695 109.396 60.3855 108.453C60.3297 102.93 60.3464 102.917 60.4753 102.82C60.5351 102.775 60.6132 102.761 60.6847 102.783L60.807 102.821C63.0769 103.529 63.682 103.295 63.8396 103.093C64.0483 102.826 64.2544 101.682 64.3527 100.247C64.3736 99.9435 64.5473 99.6776 64.8174 99.5359L65.3519 99.2714L65.5273 99.076L65.3549 99.2348C64.8867 98.7261 64.2429 97.5769 64.5079 96.6579C64.6916 96.0204 64.5989 95.2188 64.5031 94.7061C64.3902 94.8945 64.2312 95.1655 64.0077 95.5554C63.3586 96.6888 62.1805 97.1744 61.369 97.2459C60.8427 97.2916 60.4183 97.173 60.2056 96.9182C60.0849 96.7736 59.7615 96.4343 59.3673 96.4075C59.1504 96.3926 58.9432 96.4765 58.7375 96.6641C58.1146 97.2318 58.336 97.9543 58.8953 98.9358C59.2397 99.5402 58.4672 100.949 57.5587 101.836C56.7142 102.66 55.883 102.878 55.4728 102.935Z" fill="black"/>
<path d="M59.6827 99.6831C58.9766 99.6831 58.3793 99.158 58.0106 98.1933C57.9645 98.0723 58.025 97.9368 58.1461 97.8905C58.2666 97.8446 58.4027 97.9048 58.4489 98.0259C58.6464 98.5432 59.1007 99.3808 59.9328 99.1833C60.0572 99.1539 60.1852 99.2308 60.2153 99.357C60.2453 99.483 60.1676 99.6095 60.0414 99.6395C59.9193 99.6686 59.7996 99.6831 59.6827 99.6831Z" fill="black"/>
<path d="M223.275 124.503L192.808 129.829L162.586 124.534C162.543 124.527 162.543 124.465 162.586 124.458L193.154 119.105L223.275 124.503Z" fill="white"/>
<path d="M181.541 121.218L211.167 126.565L204.515 127.728L174.873 122.368L181.541 121.218Z" fill="black"/>
<path d="M192.814 174.97V129.785L223.401 124.484V169.545L192.814 174.97Z" fill="white"/>
<path d="M204.777 132.696V127.674L211.438 126.52V131.515L204.777 132.696Z" fill="black"/>
<path d="M192.814 175.205C192.759 175.205 192.706 175.186 192.663 175.15C192.61 175.105 192.58 175.04 192.58 174.97V129.785C192.58 129.671 192.662 129.573 192.774 129.554L223.361 124.253C223.429 124.241 223.499 124.26 223.552 124.304C223.605 124.349 223.635 124.415 223.635 124.484V169.545C223.635 169.659 223.554 169.756 223.442 169.776L192.855 175.201C192.841 175.204 192.828 175.205 192.814 175.205ZM193.049 129.982V174.691L223.166 169.349V124.763L193.049 129.982Z" fill="black"/>
<path d="M192.815 174.97V129.785L162.493 124.477V169.572L192.815 174.97Z" fill="white"/>
<path d="M192.814 175.205C192.801 175.205 192.787 175.204 192.773 175.201L162.452 169.802C162.34 169.783 162.258 169.685 162.258 169.572V124.477C162.258 124.408 162.289 124.342 162.342 124.298C162.395 124.253 162.465 124.234 162.533 124.247L192.855 129.554C192.967 129.574 193.049 129.671 193.049 129.785V174.97C193.049 175.04 193.018 175.106 192.965 175.15C192.922 175.186 192.869 175.205 192.814 175.205ZM162.727 169.375L192.58 174.69V129.982L162.727 124.756V169.375Z" fill="black"/>
<path d="M185.204 154.61C185.191 154.61 185.177 154.609 185.163 154.607L168.66 151.67C168.548 151.65 168.466 151.553 168.466 151.439V133.591C168.466 133.522 168.497 133.456 168.55 133.412C168.603 133.367 168.673 133.348 168.741 133.36L185.244 136.23C185.357 136.25 185.439 136.347 185.439 136.461V154.376C185.439 154.445 185.408 154.511 185.355 154.556C185.312 154.591 185.259 154.61 185.204 154.61ZM168.935 151.242L184.97 154.096V136.658L168.935 133.87V151.242Z" fill="black"/>
<path d="M170.92 149.611C170.79 149.611 170.685 149.506 170.685 149.376V136.203C170.685 136.074 170.79 135.969 170.92 135.969C171.049 135.969 171.154 136.074 171.154 136.203V149.376C171.154 149.506 171.049 149.611 170.92 149.611Z" fill="black"/>
<path d="M172.941 150.041C172.811 150.041 172.707 149.936 172.707 149.807V136.634C172.707 136.504 172.811 136.399 172.941 136.399C173.071 136.399 173.176 136.504 173.176 136.634V149.807C173.176 149.936 173.071 150.041 172.941 150.041Z" fill="black"/>
<path d="M175.197 150.003C175.068 150.003 174.963 149.898 174.963 149.769V137.534C174.963 137.404 175.068 137.299 175.197 137.299C175.327 137.299 175.432 137.404 175.432 137.534V149.769C175.432 149.898 175.327 150.003 175.197 150.003Z" fill="black"/>
<path d="M177.689 150.903C177.559 150.903 177.454 150.798 177.454 150.669V137.496C177.454 137.366 177.559 137.261 177.689 137.261C177.818 137.261 177.923 137.366 177.923 137.496V150.669C177.923 150.798 177.818 150.903 177.689 150.903Z" fill="black"/>
<path d="M180.287 151.074C180.158 151.074 180.053 150.969 180.053 150.839V138.419C180.053 138.29 180.158 138.185 180.287 138.185C180.417 138.185 180.522 138.29 180.522 138.419V150.839C180.522 150.969 180.417 151.074 180.287 151.074Z" fill="black"/>
<path d="M183.05 151.961C182.921 151.961 182.816 151.856 182.816 151.727V138.319C182.816 138.19 182.921 138.085 183.05 138.085C183.18 138.085 183.285 138.19 183.285 138.319V151.727C183.285 151.856 183.18 151.961 183.05 151.961Z" fill="black"/>
<path d="M192.808 130.064C192.795 130.064 192.781 130.063 192.768 130.06L162.545 124.765C162.414 124.743 162.319 124.629 162.319 124.496C162.319 124.363 162.414 124.25 162.545 124.227L193.113 118.875C193.141 118.87 193.168 118.87 193.195 118.875L223.317 124.272C223.429 124.292 223.51 124.39 223.51 124.503C223.51 124.617 223.428 124.714 223.316 124.734L192.848 130.06C192.835 130.063 192.822 130.064 192.808 130.064ZM163.727 124.496L192.808 129.591L221.93 124.5L193.153 119.344L163.727 124.496Z" fill="black"/>
<path d="M210.845 166.953L180.378 172.279L150.155 166.984C150.113 166.977 150.113 166.915 150.155 166.908L180.724 161.555L210.845 166.953Z" fill="white"/>
<path d="M169.11 163.668L198.736 169.014L192.085 170.177L162.443 164.818L169.11 163.668Z" fill="black"/>
<path d="M180.384 217.42V172.235L210.97 166.934V211.995L180.384 217.42Z" fill="white"/>
<path d="M192.347 175.146V170.124L199.007 168.97V173.965L192.347 175.146Z" fill="black"/>
<path d="M180.384 217.654C180.329 217.654 180.276 217.635 180.233 217.6C180.18 217.555 180.149 217.489 180.149 217.42V172.235C180.149 172.121 180.231 172.023 180.344 172.003L210.931 166.703C210.999 166.691 211.069 166.71 211.122 166.754C211.175 166.799 211.205 166.864 211.205 166.934V211.995C211.205 212.109 211.124 212.206 211.012 212.226L180.425 217.651C180.411 217.653 180.397 217.654 180.384 217.654ZM180.618 172.432V217.14L210.736 211.799V167.212L180.618 172.432Z" fill="black"/>
<path d="M180.384 217.42V172.235L150.063 166.927V212.021L180.384 217.42Z" fill="white"/>
<path d="M180.384 217.655C180.37 217.655 180.357 217.653 180.343 217.651L150.021 212.252C149.91 212.232 149.828 212.135 149.828 212.021V166.927C149.828 166.858 149.859 166.792 149.912 166.748C149.965 166.703 150.035 166.684 150.103 166.696L180.424 172.004C180.537 172.023 180.618 172.121 180.618 172.235V217.42C180.618 217.49 180.588 217.555 180.535 217.6C180.492 217.635 180.439 217.655 180.384 217.655ZM150.297 211.825L180.15 217.14V172.432L150.297 167.206V211.825Z" fill="black"/>
<path d="M172.651 196.193C172.637 196.193 172.623 196.192 172.61 196.189L156.106 193.252C155.994 193.232 155.913 193.135 155.913 193.021V175.174C155.913 175.105 155.943 175.039 155.996 174.995C156.049 174.95 156.119 174.932 156.187 174.943L172.691 177.813C172.803 177.832 172.885 177.93 172.885 178.044V195.958C172.885 196.028 172.854 196.094 172.801 196.138C172.759 196.174 172.705 196.193 172.651 196.193ZM156.382 192.825L172.416 195.678V178.241L156.382 175.453V192.825Z" fill="black"/>
<path d="M158.366 191.193C158.236 191.193 158.131 191.088 158.131 190.959V177.786C158.131 177.656 158.236 177.551 158.366 177.551C158.496 177.551 158.6 177.656 158.6 177.786V190.959C158.6 191.088 158.496 191.193 158.366 191.193Z" fill="black"/>
<path d="M160.388 191.624C160.258 191.624 160.153 191.519 160.153 191.389V178.216C160.153 178.087 160.258 177.982 160.388 177.982C160.518 177.982 160.622 178.087 160.622 178.216V191.389C160.622 191.519 160.518 191.624 160.388 191.624Z" fill="black"/>
<path d="M162.409 192.055C162.28 192.055 162.175 191.95 162.175 191.82V178.647C162.175 178.518 162.28 178.413 162.409 178.413C162.539 178.413 162.644 178.518 162.644 178.647V191.82C162.644 191.95 162.539 192.055 162.409 192.055Z" fill="black"/>
<path d="M164.431 192.486C164.302 192.486 164.197 192.381 164.197 192.251V179.078C164.197 178.949 164.302 178.844 164.431 178.844C164.561 178.844 164.666 178.949 164.666 179.078V192.251C164.666 192.381 164.561 192.486 164.431 192.486Z" fill="black"/>
<path d="M167.265 192.422C167.135 192.422 167.03 192.317 167.03 192.187V179.767C167.03 179.638 167.135 179.533 167.265 179.533C167.394 179.533 167.499 179.638 167.499 179.767V192.187C167.499 192.317 167.394 192.422 167.265 192.422Z" fill="black"/>
<path d="M170.497 193.778C170.367 193.778 170.262 193.673 170.262 193.544V180.371C170.262 180.241 170.367 180.136 170.497 180.136C170.626 180.136 170.731 180.241 170.731 180.371V193.544C170.731 193.673 170.626 193.778 170.497 193.778Z" fill="black"/>
<path d="M180.378 172.514C180.365 172.514 180.351 172.512 180.338 172.51L150.115 167.215C149.985 167.192 149.889 167.079 149.889 166.946C149.889 166.813 149.984 166.699 150.115 166.677L180.684 161.324C180.711 161.319 180.738 161.32 180.766 161.324L210.887 166.722C210.999 166.742 211.08 166.839 211.08 166.953C211.08 167.067 210.998 167.164 210.886 167.184L180.419 172.51C180.406 172.512 180.392 172.514 180.378 172.514ZM151.297 166.946L180.378 172.041L209.5 166.95L180.724 161.793L151.297 166.946Z" fill="black"/>
<path d="M86.9812 78.7029V44.9483C86.9812 43.8139 86.1643 42.8444 85.0464 42.6519L35.4586 34.0916C34.6417 33.951 33.8047 33.9788 32.999 34.1733L30.3023 35.1561L29.0514 70.0366C28.9937 71.6461 30.1317 73.0519 31.7181 73.3304L79.4519 81.7123C80.6078 81.9153 81.077 82.0994 82.9282 81.5625L85.0451 80.9996C86.2228 80.6796 86.9812 79.8378 86.9812 78.7029Z" fill="black"/>
<path d="M80.9638 82.1502C80.5369 82.1502 80.1771 82.0837 79.7369 82.0022C79.6338 81.9832 79.5259 81.9633 79.4114 81.9432L31.6776 73.5612C29.9852 73.2642 28.7556 71.7452 28.8172 70.0281L30.0679 35.1477C30.0713 35.0521 30.1322 34.9683 30.2218 34.9357L32.9184 33.9529C32.9267 33.9499 32.9351 33.9472 32.9438 33.9452C33.7855 33.7419 34.6448 33.7133 35.4982 33.8603L85.086 42.4208C86.3198 42.6331 87.2153 43.696 87.2153 44.9481V78.7028C87.2153 79.9238 86.427 80.867 85.1064 81.2257L82.9883 81.7889C82.0614 82.0579 81.4664 82.1502 80.9638 82.1502ZM30.5311 35.3224L29.2858 70.0448C29.2327 71.5294 30.2956 72.8424 31.7586 73.0994L79.4924 81.4813C79.6086 81.5017 79.7176 81.5218 79.8221 81.5411C80.7424 81.7112 81.2494 81.8049 82.8629 81.3372L84.9848 80.7729C86.0874 80.4733 86.7463 79.6994 86.7463 78.7029V44.9482C86.7463 43.9251 86.0146 43.0565 85.0064 42.8831L35.4186 34.3226C34.6332 34.1876 33.8423 34.2127 33.0666 34.3982L30.5311 35.3224Z" fill="black"/>
<path d="M83.174 79.4137V45.7762C83.174 44.6895 82.3914 43.7606 81.3204 43.5761L31.5619 35.009C30.1977 34.7742 28.9507 35.8247 28.9507 37.2091V70.9708C28.9507 72.0543 29.7287 72.9814 30.7957 73.1694L80.2345 81.8805C81.7682 82.1508 83.174 80.9709 83.174 79.4137Z" fill="white"/>
<path d="M80.6718 82.1533C80.513 82.1533 80.3531 82.1396 80.194 82.1115L30.7552 73.4005C29.5738 73.1923 28.7163 72.1704 28.7163 70.9709V37.2092C28.7163 36.4801 29.036 35.7924 29.5938 35.3226C30.1515 34.8528 30.883 34.6541 31.6019 34.778L81.3604 43.3451C82.5472 43.5496 83.4087 44.5721 83.4087 45.7763V79.4138C83.4087 80.2254 83.052 80.9903 82.4302 81.5121C81.9324 81.93 81.3103 82.1533 80.6718 82.1533ZM31.182 35.2111C30.7146 35.2111 30.2597 35.375 29.896 35.6813C29.4446 36.0617 29.1855 36.6186 29.1855 37.2092V70.971C29.1855 71.9425 29.8799 72.7701 30.8368 72.9386L80.2756 81.6496C80.9382 81.7666 81.6138 81.5853 82.1287 81.1529C82.6443 80.7205 82.9398 80.0866 82.9398 79.4139V45.7763C82.9398 44.801 82.2421 43.9729 81.2809 43.8073L31.5224 35.2402C31.4089 35.2208 31.2951 35.2111 31.182 35.2111Z" fill="black"/>
<path d="M76.654 77.6647C76.5097 77.6647 76.3645 77.6521 76.22 77.6267L35.0409 70.3709C33.8497 70.1611 32.9849 69.1305 32.9849 67.9206V42.2849C32.9849 41.5495 33.3073 40.856 33.8696 40.3822C34.432 39.9085 35.1703 39.7078 35.895 39.833L77.0741 46.9229C78.271 47.129 79.14 48.1602 79.14 49.3748V75.1764C79.14 75.9136 78.8161 76.6083 78.2513 77.0822C77.799 77.4618 77.234 77.6647 76.654 77.6647ZM35.4713 40.2658C34.999 40.2658 34.5394 40.4314 34.172 40.741C33.7158 41.1255 33.454 41.6883 33.454 42.285V67.9208C33.454 68.9026 34.1558 69.7388 35.1225 69.9092L76.3016 77.1649C76.8907 77.269 77.4917 77.1078 77.9497 76.7231C78.4081 76.3385 78.6709 75.7748 78.6709 75.1766V49.3749C78.6709 48.3893 77.966 47.5525 76.9944 47.3852L35.8153 40.2952C35.7007 40.2755 35.5855 40.2658 35.4713 40.2658Z" fill="black"/>
<path d="M46.6042 58.9798C46.5025 58.9798 46.4004 58.9711 46.2982 58.953L38.5567 57.5889C37.7164 57.4408 37.1064 56.714 37.1064 55.8608V47.3593C37.1064 46.8406 37.3338 46.3514 37.7306 46.0172C38.1272 45.683 38.6488 45.5418 39.159 45.6299L46.9006 46.9628C47.7448 47.1081 48.3576 47.8355 48.3576 48.6922V57.2248C48.3576 57.7448 48.1293 58.2348 47.731 58.569C47.412 58.8367 47.0136 58.9798 46.6042 58.9798ZM38.8602 46.0732C38.5597 46.0732 38.2668 46.1787 38.0329 46.3759C37.7423 46.6208 37.5755 46.9792 37.5755 47.3592V55.8607C37.5755 56.486 38.0223 57.0185 38.6382 57.1268L46.3797 58.491C46.7547 58.5573 47.1377 58.4546 47.4294 58.2096C47.7212 57.9647 47.8886 57.6056 47.8886 57.2247V48.6921C47.8886 48.0643 47.4395 47.5315 46.8208 47.4248L39.0793 46.092C39.0063 46.0795 38.933 46.0732 38.8602 46.0732Z" fill="black"/>
<path d="M45.5918 54.2694V50.8373C45.5918 50.1829 45.1206 49.6236 44.4757 49.5126L41.4448 48.9908C40.6233 48.8494 39.8726 49.482 39.8726 50.3155V53.7353C39.8726 54.3877 40.341 54.946 40.9835 55.0591L44.0143 55.5932C44.8374 55.7382 45.5918 55.1051 45.5918 54.2694Z" fill="black"/>
<path d="M71.8923 55.7879C71.7578 55.7879 71.6229 55.7762 71.4883 55.7525L55.3135 52.9026C54.2048 52.7073 53.3999 51.7482 53.3999 50.6222C53.3999 49.9378 53.7002 49.2923 54.2235 48.8513C54.7469 48.4102 55.4342 48.2238 56.1083 48.3402L72.2831 51.1251C73.3971 51.3168 74.2058 52.2765 74.2058 53.4071V53.4722C74.2058 54.1584 73.9044 54.8049 73.3788 55.246C72.9577 55.5991 72.4318 55.7879 71.8923 55.7879ZM55.7141 48.7753C55.2821 48.7753 54.8618 48.9269 54.5258 49.2098C54.1083 49.5615 53.8689 50.0764 53.8689 50.6221C53.8689 51.52 54.5107 52.2848 55.3949 52.4405L71.5697 55.2905C72.1082 55.3854 72.658 55.2381 73.077 54.8865C73.4961 54.5348 73.7366 54.0192 73.7366 53.472V53.4069C73.7366 52.5055 73.0917 51.7401 72.2032 51.5872L56.0285 48.8023C55.9238 48.7843 55.8185 48.7753 55.7141 48.7753Z" fill="black"/>
<path d="M71.8918 63.4606C71.7603 63.4606 71.628 63.4494 71.496 63.4266L62.2096 61.823C61.0961 61.6307 60.2881 60.6711 60.2881 59.5412C60.2881 58.8519 60.5866 58.2077 61.1069 57.7669C61.6272 57.3262 62.3111 57.138 62.984 57.2496L72.2706 58.7967C73.3919 58.9835 74.2056 59.944 74.2056 61.0807V61.1448C74.2056 61.8294 73.9054 62.4749 73.3818 62.9159C72.9605 63.2707 72.4332 63.4606 71.8918 63.4606ZM62.6025 57.6871C62.1687 57.6871 61.7466 57.8399 61.4101 58.1249C60.9951 58.4764 60.7571 58.9899 60.7571 59.5338C60.7571 60.4423 61.4016 61.2075 62.2894 61.3609L71.5758 62.9644C72.115 63.0575 72.6623 62.9088 73.0796 62.5572C73.4971 62.2055 73.7367 61.6907 73.7367 61.1448V61.0807C73.7367 60.1743 73.0879 59.4084 72.1938 59.2594L62.9072 57.7123C62.8056 57.6955 62.7037 57.6871 62.6025 57.6871Z" fill="black"/>
<path d="M71.8914 71.3024C71.7623 71.3024 71.6324 71.2915 71.5028 71.2695L55.0378 68.4769C53.9203 68.2874 53.1094 67.3271 53.1094 66.1939C53.1094 65.5078 53.4075 64.8641 53.9273 64.4233C54.447 63.9825 55.1306 63.7932 55.8033 63.905L72.2682 66.6323C73.3909 66.8182 74.2056 67.7789 74.2056 68.9167V68.9865C74.2056 69.6698 73.9062 70.3146 73.3843 70.7555C72.9626 71.1117 72.4342 71.3024 71.8914 71.3024ZM55.4237 64.3428C54.9897 64.3428 54.5671 64.4957 54.2307 64.781C53.8162 65.1325 53.5784 65.6459 53.5784 66.1893C53.5784 67.0975 54.2252 67.8632 55.1161 68.0144L71.5811 70.8071C72.1179 70.898 72.6651 70.7487 73.0815 70.3971C73.4979 70.0455 73.7365 69.5313 73.7365 68.9865V68.9167C73.7365 68.0094 73.0867 67.2433 72.1916 67.0949L55.7266 64.3676C55.6257 64.3509 55.5245 64.3428 55.4237 64.3428Z" fill="black"/>
<path d="M91.4089 178.438C89.6753 178.438 88.2651 177.028 88.2651 175.295C88.2651 173.561 89.6753 172.151 91.4089 172.151C93.1422 172.151 94.5523 173.561 94.5523 175.295C94.5523 177.028 93.1422 178.438 91.4089 178.438ZM91.4089 172.62C89.9342 172.62 88.7343 173.82 88.7343 175.295C88.7343 176.77 89.9342 177.969 91.4089 177.969C92.8836 177.969 94.0833 176.77 94.0833 175.295C94.0833 173.82 92.8837 172.62 91.4089 172.62Z" fill="black"/>
</g>
<defs>
<clipPath id="clip0_43_3286">
<rect width="252" height="252" fill="white"/>
</clipPath>
</defs>
</svg>
