<svg width="378" height="252" viewBox="0 0 378 252" fill="none" xmlns="http://www.w3.org/2000/svg">
<path d="M62.0977 127.184C62.0977 123.913 63.7861 121.882 66.1901 121.882C68.5942 121.882 70.2877 123.898 70.2877 127.184C70.2877 130.47 68.5993 132.492 66.1901 132.492C63.781 132.492 62.0977 130.46 62.0977 127.184ZM69.5216 127.184C69.5216 124.271 68.1658 122.583 66.1901 122.583C64.2145 122.583 62.8587 124.271 62.8587 127.184C62.8587 130.098 64.2195 131.786 66.1901 131.786C68.1608 131.786 69.5216 130.098 69.5216 127.184Z" fill="#BABABA"/>
<path d="M91.6923 121.968V132.431H90.9313V122.643H88.376V121.968H91.6923Z" fill="#BABABA"/>
<path d="M111.475 127.184C111.475 123.913 113.163 121.882 115.567 121.882C117.971 121.882 119.665 123.898 119.665 127.184C119.665 130.47 117.971 132.492 115.567 132.492C113.163 132.492 111.475 130.46 111.475 127.184ZM118.899 127.184C118.899 124.271 117.543 122.583 115.567 122.583C113.591 122.583 112.236 124.271 112.236 127.184C112.236 130.098 113.596 131.786 115.567 131.786C117.538 131.786 118.899 130.098 118.899 127.184Z" fill="#EBEBEB"/>
<path d="M136.161 127.184C136.161 123.913 137.849 121.882 140.258 121.882C142.667 121.882 144.351 123.898 144.351 127.184C144.351 130.47 142.662 132.492 140.258 132.492C137.854 132.492 136.161 130.46 136.161 127.184ZM143.59 127.184C143.59 124.271 142.229 122.583 140.258 122.583C138.288 122.583 136.927 124.271 136.927 127.184C136.927 130.098 138.282 131.786 140.258 131.786C142.234 131.786 143.59 130.098 143.59 127.184Z" fill="#BABABA"/>
<path d="M165.241 121.968V132.431H164.48V122.643H161.925V121.968H165.241Z" fill="#BABABA"/>
<path d="M185.537 127.184C185.537 123.913 187.226 121.882 189.635 121.882C192.044 121.882 193.727 123.898 193.727 127.184C193.727 130.47 192.039 132.492 189.635 132.492C187.231 132.492 185.537 130.46 185.537 127.184ZM192.966 127.184C192.966 124.271 191.605 122.583 189.635 122.583C187.664 122.583 186.303 124.271 186.303 127.184C186.303 130.098 187.659 131.786 189.635 131.786C191.61 131.786 192.966 130.098 192.966 127.184Z" fill="#EBEBEB"/>
<path d="M210.229 127.184C210.229 123.913 211.917 121.882 214.321 121.882C216.725 121.882 218.419 123.898 218.419 127.184C218.419 130.47 216.73 132.492 214.321 132.492C211.912 132.492 210.229 130.46 210.229 127.184ZM217.652 127.184C217.652 124.271 216.297 122.583 214.321 122.583C212.345 122.583 210.99 124.271 210.99 127.184C210.99 130.098 212.35 131.786 214.321 131.786C216.292 131.786 217.652 130.098 217.652 127.184Z" fill="#BABABA"/>
<path d="M62.0977 78.9718C62.0977 75.7008 63.7861 73.6697 66.1901 73.6697C68.5942 73.6697 70.2877 75.6857 70.2877 78.9718C70.2877 82.2578 68.5993 84.2789 66.1901 84.2789C63.781 84.2789 62.0977 82.2478 62.0977 78.9718ZM69.5216 78.9718C69.5216 76.0586 68.1658 74.3702 66.1901 74.3702C64.2145 74.3702 62.8587 76.0586 62.8587 78.9718C62.8587 81.8849 64.2195 83.5783 66.1901 83.5783C68.1608 83.5783 69.5216 81.8899 69.5216 78.9718Z" fill="#BABABA"/>
<path d="M91.6923 73.7452V84.2032H90.9313V74.4307H88.376V73.7452H91.6923Z" fill="#BABABA"/>
<path d="M111.475 78.9718C111.475 75.7008 113.163 73.6697 115.567 73.6697C117.971 73.6697 119.665 75.6857 119.665 78.9718C119.665 82.2578 117.976 84.2789 115.567 84.2789C113.158 84.2789 111.475 82.2478 111.475 78.9718ZM118.899 78.9718C118.899 76.0586 117.543 74.3702 115.567 74.3702C113.591 74.3702 112.236 76.0586 112.236 78.9718C112.236 81.8849 113.596 83.5783 115.567 83.5783C117.538 83.5783 118.899 81.8899 118.899 78.9718Z" fill="#EBEBEB"/>
<path d="M136.161 78.9718C136.161 75.7008 137.849 73.6697 140.258 73.6697C142.667 73.6697 144.351 75.6857 144.351 78.9718C144.351 82.2578 142.662 84.2789 140.258 84.2789C137.854 84.2789 136.161 82.2478 136.161 78.9718ZM143.59 78.9718C143.59 76.0586 142.229 74.3702 140.258 74.3702C138.288 74.3702 136.927 76.0586 136.927 78.9718C136.927 81.8849 138.282 83.5783 140.258 83.5783C142.234 83.5783 143.59 81.8899 143.59 78.9718Z" fill="#BABABA"/>
<path d="M165.246 73.7452V84.2032H164.48V74.4307H161.925V73.7452H165.246Z" fill="#BABABA"/>
<path d="M185.537 78.9718C185.537 75.7008 187.226 73.6697 189.635 73.6697C192.044 73.6697 193.727 75.6857 193.727 78.9718C193.727 82.2578 192.039 84.2789 189.635 84.2789C187.231 84.2789 185.537 82.2478 185.537 78.9718ZM192.966 78.9718C192.966 76.0586 191.605 74.3702 189.635 74.3702C187.664 74.3702 186.303 76.0586 186.303 78.9718C186.303 81.8849 187.659 83.5783 189.635 83.5783C191.61 83.5783 192.966 81.8899 192.966 78.9718Z" fill="#EBEBEB"/>
<path d="M210.229 78.9718C210.229 75.7008 211.917 73.6697 214.321 73.6697C216.725 73.6697 218.419 75.6857 218.419 78.9718C218.419 82.2578 216.73 84.2789 214.321 84.2789C211.912 84.2789 210.229 82.2478 210.229 78.9718ZM217.652 78.9718C217.652 76.0586 216.297 74.3702 214.321 74.3702C212.345 74.3702 210.99 76.0586 210.99 78.9718C210.99 81.8849 212.35 83.5783 214.321 83.5783C216.292 83.5783 217.652 81.8899 217.652 78.9718Z" fill="#BABABA"/>
<path d="M62.0977 102.438C62.0977 99.162 63.7861 97.1309 66.1901 97.1309C68.5942 97.1309 70.2877 99.1469 70.2877 102.438C70.2877 105.729 68.5993 107.74 66.1901 107.74C63.781 107.74 62.0977 105.709 62.0977 102.438ZM69.5216 102.438C69.5216 99.5249 68.1658 97.8365 66.1901 97.8365C64.2145 97.8365 62.8587 99.5249 62.8587 102.438C62.8587 105.351 64.2195 107.04 66.1901 107.04C68.1608 107.04 69.5216 105.336 69.5216 102.438Z" fill="#BABABA"/>
<path d="M86.7837 102.438C86.7837 99.162 88.4721 97.1309 90.8812 97.1309C93.2903 97.1309 94.9737 99.1469 94.9737 102.438C94.9737 105.729 93.2853 107.74 90.8812 107.74C88.4771 107.74 86.7837 105.709 86.7837 102.438ZM94.2126 102.438C94.2126 99.5249 92.8519 97.8365 90.8812 97.8365C88.9106 97.8365 87.5498 99.5249 87.5498 102.438C87.5498 105.351 88.9055 107.04 90.8812 107.04C92.8569 107.04 94.2126 105.336 94.2126 102.438Z" fill="#EBEBEB"/>
<path d="M111.475 102.438C111.475 99.162 113.163 97.1309 115.567 97.1309C117.971 97.1309 119.665 99.1469 119.665 102.438C119.665 105.729 117.976 107.74 115.567 107.74C113.158 107.74 111.475 105.709 111.475 102.438ZM118.899 102.438C118.899 99.5249 117.543 97.8365 115.567 97.8365C113.591 97.8365 112.236 99.5249 112.236 102.438C112.236 105.351 113.596 107.04 115.567 107.04C117.538 107.04 118.899 105.336 118.899 102.438Z" fill="#BABABA"/>
<path d="M141.069 97.2064V107.664H140.308V97.8919H137.753V97.2064H141.069Z" fill="#BABABA"/>
<path d="M160.337 103.078C160.337 99.8071 162.026 97.776 164.43 97.776C166.834 97.776 168.522 99.792 168.522 103.078C168.522 106.364 166.834 108.385 164.43 108.385C162.026 108.385 160.337 106.344 160.337 103.078ZM167.761 103.078C167.761 100.165 166.401 98.4766 164.43 98.4766C162.459 98.4766 161.098 100.165 161.098 103.078C161.098 105.991 162.459 107.68 164.43 107.68C166.401 107.68 167.761 105.991 167.761 103.078Z" fill="#EBEBEB"/>
<path d="M185.537 102.438C185.537 99.162 187.226 97.1309 189.635 97.1309C192.044 97.1309 193.727 99.1469 193.727 102.438C193.727 105.729 192.039 107.74 189.635 107.74C187.231 107.74 185.537 105.709 185.537 102.438ZM192.966 102.438C192.966 99.5249 191.605 97.8365 189.635 97.8365C187.664 97.8365 186.303 99.5249 186.303 102.438C186.303 105.351 187.659 107.04 189.635 107.04C191.61 107.04 192.966 105.336 192.966 102.438Z" fill="#BABABA"/>
<path d="M215.137 97.2064V107.664H214.376V97.8919H211.816V97.2064H215.137Z" fill="#BABABA"/>
<path d="M62.0977 32.9364C62.0977 29.6654 63.7861 27.6293 66.1901 27.6293C68.5942 27.6293 70.2877 29.6453 70.2877 32.9364C70.2877 36.2275 68.5993 38.2385 66.1901 38.2385C63.781 38.2385 62.0977 36.2074 62.0977 32.9364ZM69.5216 32.9364C69.5216 30.0233 68.1658 28.3349 66.1901 28.3349C64.2145 28.3349 62.8587 30.0233 62.8587 32.9364C62.8587 35.8495 64.2195 37.5379 66.1901 37.5379C68.1608 37.5379 69.5216 35.8495 69.5216 32.9364Z" fill="#BABABA"/>
<path d="M91.6923 27.72V38.1679H90.9313V28.3953H88.376V27.72H91.6923Z" fill="#BABABA"/>
<path d="M111.475 32.9364C111.475 29.6654 113.163 27.6293 115.567 27.6293C117.971 27.6293 119.665 29.6453 119.665 32.9364C119.665 36.2275 117.976 38.2385 115.567 38.2385C113.158 38.2385 111.475 36.2074 111.475 32.9364ZM118.899 32.9364C118.899 30.0233 117.543 28.3349 115.567 28.3349C113.591 28.3349 112.236 30.0233 112.236 32.9364C112.236 35.8495 113.596 37.5379 115.567 37.5379C117.538 37.5379 118.899 35.8495 118.899 32.9364Z" fill="#EBEBEB"/>
<path d="M136.161 32.9364C136.161 29.6654 137.849 27.6293 140.258 27.6293C142.667 27.6293 144.351 29.6453 144.351 32.9364C144.351 36.2275 142.662 38.2385 140.258 38.2385C137.854 38.2385 136.161 36.2074 136.161 32.9364ZM143.59 32.9364C143.59 30.0233 142.229 28.3349 140.258 28.3349C138.288 28.3349 136.927 30.0233 136.927 32.9364C136.927 35.8495 138.282 37.5379 140.258 37.5379C142.234 37.5379 143.59 35.8495 143.59 32.9364Z" fill="#BABABA"/>
<path d="M165.246 27.72V38.1679H164.48V28.3953H161.925V27.72H165.246Z" fill="#BABABA"/>
<path d="M185.537 32.9364C185.537 29.6654 187.226 27.6293 189.635 27.6293C192.044 27.6293 193.727 29.6453 193.727 32.9364C193.727 36.2275 192.024 38.2385 189.635 38.2385C187.246 38.2385 185.537 36.2074 185.537 32.9364ZM192.966 32.9364C192.966 30.0233 191.605 28.3349 189.635 28.3349C187.664 28.3349 186.303 30.0233 186.303 32.9364C186.303 35.8495 187.659 37.5379 189.635 37.5379C191.61 37.5379 192.966 35.8495 192.966 32.9364Z" fill="#EBEBEB"/>
<path d="M210.229 32.9364C210.229 29.6654 211.917 27.6293 214.321 27.6293C216.725 27.6293 218.419 29.6453 218.419 32.9364C218.419 36.2275 216.72 38.2385 214.321 38.2385C211.922 38.2385 210.229 36.2074 210.229 32.9364ZM217.652 32.9364C217.652 30.0233 216.297 28.3349 214.321 28.3349C212.345 28.3349 210.99 30.0233 210.99 32.9364C210.99 35.8495 212.35 37.5379 214.321 37.5379C216.292 37.5379 217.652 35.8495 217.652 32.9364Z" fill="#BABABA"/>
<path d="M62.0977 56.3975C62.0977 53.1266 63.7861 51.0955 66.1901 51.0955C68.5942 51.0955 70.2877 53.1115 70.2877 56.3975C70.2877 59.6836 68.5993 61.7047 66.1901 61.7047C63.781 61.7047 62.0977 59.6685 62.0977 56.3975ZM69.5216 56.3975C69.5216 53.4844 68.1658 51.796 66.1901 51.796C64.2145 51.796 62.8587 53.4844 62.8587 56.3975C62.8587 59.3107 64.2195 60.9991 66.1901 60.9991C68.1608 60.9991 69.5216 59.3107 69.5216 56.3975Z" fill="#BABABA"/>
<path d="M86.7837 56.3975C86.7837 53.1266 88.4721 51.0955 90.8812 51.0955C93.2903 51.0955 94.9737 53.1115 94.9737 56.3975C94.9737 59.6836 93.2853 61.7047 90.8812 61.7047C88.4771 61.7047 86.7837 59.6685 86.7837 56.3975ZM94.2126 56.3975C94.2126 53.4844 92.8519 51.796 90.8812 51.796C88.9106 51.796 87.5498 53.4844 87.5498 56.3975C87.5498 59.3107 88.9055 60.9991 90.8812 60.9991C92.8569 60.9991 94.2126 59.3107 94.2126 56.3975Z" fill="#EBEBEB"/>
<path d="M111.475 56.3975C111.475 53.1266 113.163 51.0955 115.567 51.0955C117.971 51.0955 119.665 53.1115 119.665 56.3975C119.665 59.6836 117.976 61.7047 115.567 61.7047C113.158 61.7047 111.475 59.6685 111.475 56.3975ZM118.899 56.3975C118.899 53.4844 117.543 51.796 115.567 51.796C113.591 51.796 112.236 53.4844 112.236 56.3975C112.236 59.3107 113.596 60.9991 115.567 60.9991C117.538 60.9991 118.899 59.3107 118.899 56.3975Z" fill="#BABABA"/>
<path d="M141.069 51.166V61.6291H140.308V51.8565H137.753V51.166H141.069Z" fill="#BABABA"/>
<path d="M160.337 57.0427C160.337 53.7667 162.026 51.7356 164.43 51.7356C166.834 51.7356 168.522 53.7516 168.522 57.0427C168.522 60.3338 166.824 62.3448 164.43 62.3448C162.036 62.3448 160.337 60.3137 160.337 57.0427ZM167.761 57.0427C167.761 54.1246 166.401 52.4412 164.43 52.4412C162.459 52.4412 161.098 54.1246 161.098 57.0427C161.098 59.9609 162.459 61.6442 164.43 61.6442C166.401 61.6442 167.761 59.976 167.761 57.0427Z" fill="#EBEBEB"/>
<path d="M185.537 56.3975C185.537 53.1266 187.226 51.0955 189.635 51.0955C192.044 51.0955 193.727 53.1115 193.727 56.3975C193.727 59.6836 192.039 61.7047 189.635 61.7047C187.231 61.7047 185.537 59.6685 185.537 56.3975ZM192.966 56.3975C192.966 53.4844 191.605 51.796 189.635 51.796C187.664 51.796 186.303 53.4844 186.303 56.3975C186.303 59.3107 187.659 60.9991 189.635 60.9991C191.61 60.9991 192.966 59.3107 192.966 56.3975Z" fill="#BABABA"/>
<path d="M215.137 51.166V61.6291H214.376V51.8565H211.816V51.166H215.137Z" fill="#BABABA"/>
<path d="M235.106 127.184C235.106 123.913 236.794 121.882 239.198 121.882C241.603 121.882 243.296 123.898 243.296 127.184C243.296 130.47 241.608 132.492 239.198 132.492C236.789 132.492 235.106 130.46 235.106 127.184ZM242.53 127.184C242.53 124.271 241.174 122.583 239.198 122.583C237.223 122.583 235.867 124.271 235.867 127.184C235.867 130.098 237.228 131.786 239.198 131.786C241.169 131.786 242.53 130.098 242.53 127.184Z" fill="#EBEBEB"/>
<path d="M259.797 127.184C259.797 123.913 261.48 121.882 263.889 121.882C266.299 121.882 267.982 123.898 267.982 127.184C267.982 130.47 266.293 132.492 263.889 132.492C261.485 132.492 259.797 130.46 259.797 127.184ZM267.221 127.184C267.221 124.271 265.86 122.583 263.889 122.583C261.919 122.583 260.558 124.271 260.558 127.184C260.558 130.098 261.919 131.786 263.889 131.786C265.86 131.786 267.221 130.098 267.221 127.184Z" fill="#BABABA"/>
<path d="M288.877 121.968V132.431H288.111V122.643H285.556V121.968H288.877Z" fill="#BABABA"/>
<path d="M309.173 127.184C309.173 123.913 310.857 121.882 313.266 121.882C315.675 121.882 317.358 123.898 317.358 127.184C317.358 130.47 315.67 132.492 313.266 132.492C310.862 132.492 309.173 130.46 309.173 127.184ZM316.597 127.184C316.597 124.271 315.236 122.583 313.266 122.583C311.295 122.583 309.934 124.271 309.934 127.184C309.934 130.098 311.295 131.786 313.266 131.786C315.236 131.786 316.597 130.098 316.597 127.184Z" fill="#EBEBEB"/>
<path d="M235.106 78.9718C235.106 75.7008 236.794 73.6697 239.198 73.6697C241.603 73.6697 243.296 75.6857 243.296 78.9718C243.296 82.2578 241.608 84.2789 239.198 84.2789C236.789 84.2789 235.106 82.2478 235.106 78.9718ZM242.53 78.9718C242.53 76.0586 241.174 74.3702 239.198 74.3702C237.223 74.3702 235.867 76.0586 235.867 78.9718C235.867 81.8849 237.228 83.5783 239.198 83.5783C241.169 83.5783 242.53 81.8899 242.53 78.9718Z" fill="#EBEBEB"/>
<path d="M259.797 78.9718C259.797 75.7008 261.48 73.6697 263.889 73.6697C266.299 73.6697 267.982 75.6857 267.982 78.9718C267.982 82.2578 266.293 84.2789 263.889 84.2789C261.485 84.2789 259.797 82.2478 259.797 78.9718ZM267.221 78.9718C267.221 76.0586 265.86 74.3702 263.889 74.3702C261.919 74.3702 260.558 76.0586 260.558 78.9718C260.558 81.8849 261.919 83.5783 263.889 83.5783C265.86 83.5783 267.221 81.8899 267.221 78.9718Z" fill="#BABABA"/>
<path d="M288.877 73.7452V84.2032H288.111V74.4307H285.556V73.7452H288.877Z" fill="#BABABA"/>
<path d="M309.173 78.9718C309.173 75.7008 310.862 73.6697 313.266 73.6697C315.67 73.6697 317.358 75.6857 317.358 78.9718C317.358 82.2578 315.67 84.2789 313.266 84.2789C310.862 84.2789 309.173 82.2478 309.173 78.9718ZM316.597 78.9718C316.597 76.0586 315.236 74.3702 313.266 74.3702C311.295 74.3702 309.934 76.0586 309.934 78.9718C309.934 81.8849 311.295 83.5783 313.266 83.5783C315.236 83.5783 316.597 81.8899 316.597 78.9718Z" fill="#EBEBEB"/>
<path d="M235.106 102.438C235.106 99.162 236.794 97.1309 239.198 97.1309C241.603 97.1309 243.296 99.1469 243.296 102.438C243.296 105.729 241.608 107.74 239.198 107.74C236.789 107.74 235.106 105.709 235.106 102.438ZM242.535 102.438C242.535 99.5249 241.174 97.8365 239.198 97.8365C237.223 97.8365 235.867 99.5249 235.867 102.438C235.867 105.351 237.228 107.04 239.198 107.04C241.169 107.04 242.535 105.336 242.535 102.438Z" fill="#BABABA"/>
<path d="M264.701 97.2064V107.664H263.94V97.8919H261.384V97.2064H264.701Z" fill="#BABABA"/>
<path d="M283.969 103.078C283.969 99.8071 285.657 97.776 288.061 97.776C290.465 97.776 292.159 99.792 292.159 103.078C292.159 106.364 290.465 108.385 288.061 108.385C285.657 108.385 283.969 106.344 283.969 103.078ZM291.393 103.078C291.393 100.165 290.037 98.4766 288.061 98.4766C286.086 98.4766 284.73 100.165 284.73 103.078C284.73 105.991 286.091 107.68 288.061 107.68C290.032 107.68 291.393 105.991 291.393 103.078Z" fill="#EBEBEB"/>
<path d="M309.173 102.438C309.173 99.162 310.862 97.1309 313.266 97.1309C315.67 97.1309 317.358 99.1469 317.358 102.438C317.358 105.729 315.67 107.74 313.266 107.74C310.862 107.74 309.173 105.709 309.173 102.438ZM316.597 102.438C316.597 99.5249 315.236 97.8365 313.266 97.8365C311.295 97.8365 309.934 99.5249 309.934 102.438C309.934 105.351 311.295 107.04 313.266 107.04C315.236 107.04 316.597 105.336 316.597 102.438Z" fill="#BABABA"/>
<path d="M235.106 32.9364C235.106 29.6654 236.794 27.6293 239.198 27.6293C241.603 27.6293 243.296 29.6453 243.296 32.9364C243.296 36.2275 241.608 38.2385 239.198 38.2385C236.789 38.2385 235.106 36.2074 235.106 32.9364ZM242.53 32.9364C242.53 30.0233 241.174 28.3349 239.198 28.3349C237.223 28.3349 235.872 30.0233 235.872 32.9364C235.872 35.8495 237.233 37.5379 239.203 37.5379C241.174 37.5379 242.53 35.8495 242.53 32.9364Z" fill="#EBEBEB"/>
<path d="M259.797 32.9364C259.797 29.6654 261.48 27.6293 263.889 27.6293C266.299 27.6293 267.982 29.6453 267.982 32.9364C267.982 36.2275 266.293 38.2385 263.889 38.2385C261.485 38.2385 259.797 36.2074 259.797 32.9364ZM267.221 32.9364C267.221 30.0233 265.86 28.3349 263.889 28.3349C261.919 28.3349 260.568 30.0233 260.568 32.9364C260.568 35.8495 261.929 37.5379 263.899 37.5379C265.87 37.5379 267.221 35.8495 267.221 32.9364Z" fill="#BABABA"/>
<path d="M288.877 27.72V38.1679H288.111V28.3953H285.556V27.72H288.877Z" fill="#BABABA"/>
<path d="M309.173 32.9364C309.173 29.6654 310.862 27.6293 313.266 27.6293C315.67 27.6293 317.358 29.6453 317.358 32.9364C317.358 36.2275 315.67 38.2385 313.266 38.2385C310.862 38.2385 309.173 36.2074 309.173 32.9364ZM316.597 32.9364C316.597 30.0233 315.236 28.3349 313.266 28.3349C311.295 28.3349 309.96 30.0233 309.96 32.9364C309.96 35.8495 311.32 37.5379 313.291 37.5379C315.262 37.5379 316.597 35.8495 316.597 32.9364Z" fill="#EBEBEB"/>
<path d="M235.106 56.3975C235.106 53.1266 236.794 51.0955 239.198 51.0955C241.603 51.0955 243.296 53.1115 243.296 56.3975C243.296 59.6836 241.608 61.7047 239.198 61.7047C236.789 61.7047 235.106 59.6685 235.106 56.3975ZM242.535 56.3975C242.535 53.4844 241.174 51.796 239.198 51.796C237.223 51.796 235.872 53.4844 235.872 56.3975C235.872 59.3107 237.233 60.9991 239.203 60.9991C241.174 60.9991 242.535 59.3107 242.535 56.3975Z" fill="#BABABA"/>
<path d="M264.701 51.166V61.6291H263.94V51.8565H261.384V51.166H264.701Z" fill="#BABABA"/>
<path d="M283.969 57.0427C283.969 53.7667 285.657 51.7356 288.061 51.7356C290.465 51.7356 292.159 53.7516 292.159 57.0427C292.159 60.3338 290.465 62.3448 288.061 62.3448C285.657 62.3448 283.969 60.3137 283.969 57.0427ZM291.393 57.0427C291.393 54.1246 290.037 52.4412 288.061 52.4412C286.086 52.4412 284.73 54.1246 284.73 57.0427C284.73 59.9609 286.091 61.6442 288.061 61.6442C290.032 61.6442 291.393 59.976 291.393 57.0427Z" fill="#EBEBEB"/>
<path d="M309.173 56.3975C309.173 53.1266 310.862 51.0955 313.266 51.0955C315.67 51.0955 317.358 53.1115 317.358 56.3975C317.358 59.6836 315.67 61.7047 313.266 61.7047C310.862 61.7047 309.173 59.6685 309.173 56.3975ZM316.597 56.3975C316.597 53.4844 315.236 51.796 313.266 51.796C311.295 51.796 309.96 53.4844 309.96 56.3975C309.96 59.3107 311.32 60.9991 313.291 60.9991C315.262 60.9991 316.597 59.3107 316.597 56.3975Z" fill="#BABABA"/>
<path d="M282.991 68.1509H95.0493C90.9937 68.1509 87.7061 71.4386 87.7061 75.4942V194.801C87.7061 198.857 90.9937 202.144 95.0493 202.144H282.991C287.047 202.144 290.334 198.857 290.334 194.801V75.4942C290.334 71.4386 287.047 68.1509 282.991 68.1509Z" fill="#1D1D1D"/>
<path d="M79.234 192.236H298.766V194.993C298.766 197.372 297.821 199.654 296.139 201.336C294.456 203.019 292.174 203.964 289.795 203.964H88.2002C85.8209 203.964 83.539 203.019 81.8566 201.336C80.1742 199.654 79.229 197.372 79.229 194.993V192.236H79.234Z" fill="#1D1D1D"/>
<path d="M284.332 73.4781H93.1494V186.636H284.332V73.4781Z" fill="#BABABA"/>
<path d="M169.047 192.236L171.768 196.57H210.103L212.633 192.236H169.047Z" fill="#8B8B8B"/>
<path d="M279.136 77.3086H98.734C97.8238 77.3086 97.0859 78.0465 97.0859 78.9567V184.625C97.0859 185.536 97.8238 186.273 98.734 186.273H279.136C280.046 186.273 280.784 185.536 280.784 184.625V78.9567C280.784 78.0465 280.046 77.3086 279.136 77.3086Z" fill="#8B8B8B"/>
<path d="M280.784 85.2919H97.0859V186.273H280.784V85.2919Z" fill="#FAFAFA"/>
<path d="M112.15 81.517C112.149 81.8068 112.062 82.0899 111.9 82.3304C111.739 82.5709 111.509 82.7581 111.241 82.8684C110.973 82.9786 110.678 83.0069 110.394 82.9498C110.11 82.8926 109.849 82.7525 109.645 82.5472C109.44 82.3419 109.301 82.0806 109.245 81.7962C109.188 81.5118 109.218 81.2172 109.329 80.9495C109.44 80.6818 109.628 80.453 109.869 80.2921C110.11 80.1312 110.394 80.0453 110.683 80.0453C110.876 80.0453 111.068 80.0834 111.246 80.1574C111.424 80.2314 111.586 80.3399 111.722 80.4766C111.859 80.6134 111.966 80.7756 112.04 80.9542C112.113 81.1327 112.151 81.3239 112.15 81.517Z" fill="#121212"/>
<path d="M103.26 81.517C103.259 81.8068 103.172 82.0899 103.01 82.3304C102.849 82.5709 102.619 82.7581 102.351 82.8684C102.083 82.9786 101.788 83.0069 101.504 82.9498C101.22 82.8926 100.959 82.7525 100.754 82.5472C100.55 82.3419 100.411 82.0806 100.354 81.7962C100.298 81.5118 100.328 81.2172 100.439 80.9495C100.55 80.6818 100.738 80.453 100.979 80.2921C101.22 80.1312 101.503 80.0453 101.793 80.0453C101.986 80.0453 102.177 80.0834 102.356 80.1574C102.534 80.2314 102.696 80.3399 102.832 80.4766C102.968 80.6134 103.076 80.7756 103.15 80.9542C103.223 81.1327 103.261 81.3239 103.26 81.517Z" fill="#121212"/>
<path d="M107.528 81.517C107.527 81.8068 107.441 82.0899 107.279 82.3304C107.117 82.5709 106.888 82.7581 106.62 82.8684C106.352 82.9786 106.057 83.0069 105.773 82.9498C105.488 82.8926 105.228 82.7525 105.023 82.5472C104.818 82.3419 104.679 82.0806 104.623 81.7962C104.567 81.5118 104.596 81.2172 104.707 80.9495C104.818 80.6818 105.006 80.453 105.248 80.2921C105.489 80.1312 105.772 80.0453 106.062 80.0453C106.255 80.0453 106.446 80.0834 106.624 80.1574C106.803 80.2314 106.964 80.3399 107.101 80.4766C107.237 80.6134 107.345 80.7756 107.418 80.9542C107.492 81.1327 107.529 81.3239 107.528 81.517Z" fill="#121212"/>
<path d="M234.486 127.351L235.056 127.305C235.242 127.305 235.474 127.245 235.751 127.199C236.065 127.126 236.373 127.031 236.674 126.917C237.52 126.592 238.284 126.084 238.911 125.43C239.308 125.014 239.647 124.546 239.919 124.039C240.222 123.457 240.431 122.831 240.539 122.185C240.681 121.353 240.65 120.501 240.447 119.681C240.244 118.862 239.875 118.094 239.362 117.424C238.848 116.754 238.202 116.197 237.464 115.788C236.726 115.38 235.911 115.128 235.071 115.048C234.567 115.013 234.063 115.018 233.559 115.018H228.716H221.579L143.388 115.053C141.983 115.06 140.624 115.551 139.539 116.443C138.454 117.336 137.709 118.575 137.431 119.952C137.254 120.852 137.28 121.78 137.507 122.669C137.853 123.982 138.628 125.142 139.71 125.964C140.791 126.786 142.116 127.222 143.474 127.205H146.186H166.945L202.099 127.23L225.787 127.275H232.228H233.907H234.476C234.476 127.275 234.285 127.275 233.907 127.275H232.228L225.787 127.3L202.099 127.341L166.945 127.371H143.474C142.541 127.387 141.616 127.192 140.768 126.801C139.904 126.413 139.138 125.835 138.528 125.111C137.917 124.387 137.477 123.535 137.24 122.618C136.996 121.689 136.969 120.717 137.161 119.776C137.352 118.835 137.757 117.95 138.343 117.19C138.937 116.417 139.7 115.791 140.574 115.36C141.448 114.93 142.409 114.705 143.383 114.705L221.574 114.746H228.711H233.564C234.068 114.746 234.572 114.746 235.076 114.781C236.099 114.885 237.081 115.238 237.935 115.81C238.79 116.382 239.49 117.155 239.976 118.062C240.461 118.968 240.716 119.98 240.719 121.009C240.721 122.037 240.471 123.05 239.99 123.959C239.707 124.47 239.36 124.942 238.957 125.365C238.314 126.018 237.536 126.523 236.679 126.847C236.373 126.958 236.059 127.049 235.741 127.119C235.464 127.159 235.237 127.199 235.046 127.215C234.683 127.351 234.486 127.351 234.486 127.351Z" fill="#1D1D1D"/>
<path d="M234.486 127.351H222.566V114.942H234.486C236.131 114.942 237.71 115.596 238.873 116.759C240.037 117.923 240.69 119.501 240.69 121.146C240.69 122.792 240.037 124.37 238.873 125.534C237.71 126.697 236.131 127.351 234.486 127.351Z" fill="#121212"/>
<path d="M232.405 119.977C232.379 119.977 232.379 119.771 232.279 119.413C232.134 118.917 231.829 118.482 231.412 118.178C231.154 117.985 230.857 117.849 230.542 117.781C230.227 117.713 229.902 117.713 229.587 117.781C229.272 117.85 228.975 117.985 228.718 118.178C228.46 118.372 228.246 118.618 228.092 118.901C227.938 119.184 227.846 119.496 227.823 119.818C227.8 120.139 227.846 120.462 227.959 120.764C228.072 121.065 228.248 121.34 228.476 121.567C228.704 121.795 228.978 121.971 229.28 122.084C229.633 122.213 230.013 122.253 230.386 122.2C230.759 122.148 231.113 122.004 231.417 121.781C231.832 121.474 232.135 121.038 232.279 120.542C232.379 120.189 232.379 119.977 232.405 119.977C232.414 120.029 232.414 120.082 232.405 120.133C232.413 120.279 232.399 120.425 232.364 120.567C232.248 121.106 231.946 121.587 231.512 121.928C231.187 122.182 230.803 122.351 230.395 122.418C229.987 122.485 229.569 122.448 229.179 122.311C228.698 122.139 228.282 121.823 227.987 121.406C227.693 120.988 227.535 120.49 227.535 119.98C227.535 119.469 227.693 118.971 227.987 118.554C228.282 118.136 228.698 117.82 229.179 117.649C229.568 117.509 229.986 117.471 230.394 117.537C230.803 117.603 231.187 117.771 231.512 118.027C231.946 118.368 232.247 118.849 232.364 119.387C232.399 119.531 232.413 119.679 232.405 119.826C232.414 119.876 232.414 119.927 232.405 119.977Z" fill="white"/>
<path d="M235.575 123.924C234.897 123.619 234.254 123.241 233.66 122.795C233.021 122.421 232.427 121.974 231.891 121.464C233.214 122.137 234.452 122.967 235.575 123.939V123.924Z" fill="white"/>
<path d="M144.885 124.634C144.755 123.463 144.711 122.284 144.754 121.106C144.711 119.929 144.754 118.749 144.885 117.578C145.016 118.749 145.06 119.929 145.016 121.106C145.059 122.284 145.016 123.463 144.885 124.634Z" fill="#8B8B8B"/>
<path d="M159.577 148.751H129.795V177.564H159.577V148.751Z" fill="#BABABA"/>
<path d="M132.109 175.1L140.344 160.272L147.083 169.747L151.18 164.717L157.269 175.1H132.109Z" fill="#121212"/>
<path d="M149.955 157.389C149.956 157.814 149.831 158.23 149.595 158.584C149.36 158.938 149.025 159.214 148.632 159.377C148.24 159.54 147.807 159.583 147.391 159.5C146.974 159.417 146.591 159.213 146.29 158.912C145.989 158.612 145.785 158.229 145.702 157.812C145.619 157.395 145.662 156.963 145.826 156.57C145.989 156.178 146.265 155.842 146.618 155.607C146.972 155.371 147.388 155.246 147.813 155.247C148.381 155.247 148.926 155.473 149.328 155.874C149.73 156.276 149.955 156.821 149.955 157.389Z" fill="#121212"/>
<path d="M157.248 175.18C157.248 175.18 157.248 175.135 157.248 175.059C157.248 174.984 157.248 174.863 157.248 174.727C157.248 174.418 157.248 173.984 157.248 173.426C157.248 172.287 157.248 170.634 157.213 168.538C157.213 164.329 157.178 158.332 157.152 151.14L157.273 151.261H132.114C132.078 151.291 132.381 150.993 132.255 151.124V154.375C132.255 155.457 132.255 156.527 132.255 157.586V163.8C132.255 167.832 132.255 171.647 132.255 175.16L132.134 175.034L150.323 175.1L155.459 175.13H156.82H157.173H157.294H157.188H156.845H155.509L150.404 175.165L132.134 175.226H132.008V175.105C132.008 171.577 132.008 167.777 132.008 163.745V157.611C132.008 156.553 132.008 155.482 132.008 154.4V151.15C131.882 151.271 132.184 150.968 132.154 151.003H157.314H157.44V151.124C157.41 158.352 157.389 164.37 157.374 168.598C157.374 170.685 157.349 172.328 157.344 173.462C157.344 174.011 157.344 174.434 157.344 174.737C157.344 174.873 157.344 174.979 157.344 175.059C157.32 175.105 157.287 175.146 157.248 175.18Z" fill="#8B8B8B"/>
<path d="M206.983 148.751H177.202V177.564H206.983V148.751Z" fill="#121212"/>
<path d="M179.51 175.1L187.75 160.272L194.489 169.747L198.581 164.717L204.674 175.1H179.51Z" fill="#BABABA"/>
<path d="M197.357 157.389C197.357 157.813 197.231 158.227 196.996 158.579C196.76 158.931 196.426 159.206 196.034 159.368C195.643 159.53 195.212 159.573 194.797 159.49C194.381 159.407 194 159.203 193.7 158.904C193.401 158.604 193.197 158.222 193.114 157.807C193.031 157.391 193.074 156.961 193.236 156.569C193.398 156.178 193.672 155.843 194.025 155.608C194.377 155.373 194.791 155.247 195.215 155.247C195.783 155.247 196.328 155.473 196.729 155.874C197.131 156.276 197.357 156.821 197.357 157.389Z" fill="#BABABA"/>
<path d="M204.674 175.18C204.674 175.18 204.674 175.135 204.674 175.059C204.674 174.984 204.674 174.863 204.674 174.727C204.674 174.418 204.674 173.984 204.674 173.426C204.674 172.287 204.674 170.634 204.644 168.538C204.644 164.329 204.609 158.332 204.584 151.14L204.705 151.261H179.545L179.681 151.124V157.586C179.681 159.703 179.681 161.772 179.681 163.795C179.681 167.827 179.681 171.642 179.681 175.155L179.555 175.029L197.749 175.095L202.88 175.125H204.241H204.594H204.72H204.609H204.271H202.931L197.83 175.16L179.555 175.221H179.434V175.1C179.434 171.572 179.434 167.772 179.434 163.74C179.434 161.724 179.434 159.654 179.434 157.53V151.15C179.308 151.271 179.605 150.968 179.58 151.003H204.74H204.861V151.124C204.861 158.352 204.816 164.37 204.8 168.598C204.8 170.685 204.775 172.328 204.765 173.462C204.765 174.011 204.765 174.434 204.765 174.737C204.765 174.873 204.765 174.979 204.765 175.059C204.739 175.102 204.708 175.143 204.674 175.18Z" fill="#8B8B8B"/>
<path d="M254.389 148.751H224.608V177.564H254.389V148.751Z" fill="#BABABA"/>
<path d="M226.916 175.1L235.151 160.272L241.89 169.747L245.987 164.717L252.076 175.1H226.916Z" fill="#121212"/>
<path d="M244.763 157.389C244.764 157.814 244.639 158.23 244.403 158.584C244.168 158.938 243.832 159.214 243.44 159.377C243.047 159.54 242.615 159.583 242.198 159.5C241.781 159.417 241.398 159.213 241.098 158.912C240.797 158.612 240.592 158.229 240.51 157.812C240.427 157.395 240.47 156.963 240.633 156.57C240.796 156.178 241.072 155.842 241.426 155.607C241.78 155.371 242.196 155.246 242.621 155.247C243.189 155.247 243.734 155.473 244.135 155.874C244.537 156.276 244.763 156.821 244.763 157.389Z" fill="#121212"/>
<path d="M252.081 175.18C252.077 175.14 252.077 175.1 252.081 175.059C252.081 174.974 252.081 174.863 252.081 174.727C252.081 174.418 252.081 173.984 252.081 173.426C252.081 172.287 252.081 170.634 252.051 168.538C252.051 164.329 252.01 158.332 251.985 151.14L252.111 151.261H226.946C226.916 151.291 227.214 150.993 227.088 151.124V157.586C227.088 159.703 227.088 161.772 227.088 163.795C227.088 167.827 227.088 171.642 227.088 175.155L226.967 175.029L245.161 175.095L250.292 175.125H251.653H252.005H252.131H252.02H251.678H250.342L245.237 175.16L226.967 175.221H226.8V175.1C226.8 171.572 226.8 167.772 226.8 163.74C226.8 161.724 226.8 159.654 226.8 157.53V151.15C226.674 151.271 226.972 150.968 226.941 151.003H252.106H252.227V151.124C252.227 158.352 252.177 164.37 252.162 168.598C252.162 170.685 252.162 172.328 252.131 173.462C252.131 174.011 252.131 174.434 252.131 174.737C252.131 174.873 252.131 174.979 252.131 175.059C252.131 175.14 252.081 175.18 252.081 175.18Z" fill="#8B8B8B"/>
<path d="M207.795 100.356H170.075V103.517H207.795V100.356Z" fill="#8B8B8B"/>
<path d="M288.595 192.236C288.595 192.311 243.618 192.367 188.153 192.367C132.688 192.367 87.7061 192.311 87.7061 192.236C87.7061 192.16 132.673 192.105 188.153 192.105C243.634 192.105 288.595 192.165 288.595 192.236Z" fill="#8B8B8B"/>
<path d="M59.0234 137.058C56.1708 137.521 54.8957 141.029 55.1426 143.907C55.3896 146.785 56.579 149.607 56.2615 152.475C55.8583 156.124 53.1014 159.209 52.7789 162.868C52.4009 167.182 55.4501 171.007 56.3623 175.241C56.8058 177.302 56.7403 179.479 57.5064 181.44C58.1577 183.113 59.3697 184.509 60.9355 185.388C62.5012 186.267 64.3236 186.575 66.0913 186.259C67.859 185.944 69.4624 185.025 70.6276 183.659C71.7928 182.292 72.4477 180.564 72.4802 178.769C72.5407 175.458 70.4995 172.338 70.7465 169.032C70.9279 166.592 72.3593 164.274 72.0569 161.845C71.6889 158.957 69.0329 156.905 68.0652 154.148C67.0975 151.392 68.0299 148.352 67.7023 145.454C67.1177 140.258 64.2348 136.639 59.0234 137.053" fill="#121212"/>
<path d="M44.4475 162.217C43.9435 167.031 46.0906 172.696 48.5652 176.833C51.0714 181.018 54.8459 184.294 59.3407 186.188C59.8447 186.399 60.4747 186.576 60.8981 186.233C61.0481 186.067 61.1609 185.871 61.2287 185.658C61.2965 185.445 61.3178 185.22 61.2912 184.998C61.3259 179.888 59.7033 174.903 56.6666 170.793C53.6299 166.682 49.3427 163.666 44.4475 162.197" fill="#121212"/>
<path opacity="0.2" d="M44.4475 162.217C43.9435 167.031 46.0906 172.696 48.5652 176.833C51.0714 181.018 54.8459 184.294 59.3407 186.188C59.8447 186.399 60.4747 186.576 60.8981 186.233C61.0481 186.067 61.1609 185.871 61.2287 185.658C61.2965 185.445 61.3178 185.22 61.2912 184.998C61.3259 179.888 59.7033 174.903 56.6666 170.793C53.6299 166.682 49.3427 163.666 44.4475 162.197" fill="black"/>
<path d="M65.4192 196.273C65.3627 196.19 65.3169 196.1 65.2831 196.006L64.9353 195.214C64.648 194.529 64.2146 193.541 63.6652 192.326C62.2314 189.163 60.6367 186.074 58.8873 183.073C57.1276 180.082 55.2184 177.182 53.1669 174.384C52.3807 173.306 51.7305 172.444 51.2719 171.864L50.7679 171.179C50.7017 171.102 50.6458 171.017 50.6016 170.927C50.6807 170.99 50.7518 171.063 50.8132 171.143L51.3727 171.799C51.8515 172.368 52.5268 173.215 53.3383 174.278C55.4337 177.054 57.364 179.95 59.1192 182.952C60.8762 185.961 62.4532 189.071 63.8416 192.266C64.3456 193.496 64.7791 194.494 65.0361 195.199C65.1571 195.527 65.2528 195.794 65.3335 196.006C65.3732 196.091 65.402 196.18 65.4192 196.273Z" fill="#1D1D1D"/>
<path d="M62.3195 150.379C62.3477 150.532 62.3646 150.687 62.3699 150.842C62.3699 151.17 62.4253 151.608 62.4656 152.168C62.5412 153.342 62.6471 155.005 62.7831 157.046C63.0402 161.164 63.4081 166.854 63.8466 173.134C64.2851 179.414 64.7235 185.104 65.0461 189.222C65.2023 191.238 65.3283 192.916 65.4191 194.095C65.4543 194.65 65.4846 195.103 65.5098 195.421C65.522 195.575 65.522 195.73 65.5098 195.885C65.4764 195.734 65.4545 195.58 65.4443 195.426C65.409 195.098 65.3636 194.66 65.3032 194.106L64.8445 189.237C64.4715 185.124 64.0079 179.439 63.5643 173.154C63.1208 166.869 62.7882 161.179 62.5563 157.057C62.4606 155.015 62.385 153.352 62.3295 152.173C62.3094 151.612 62.2943 151.168 62.2842 150.842C62.2838 150.687 62.2956 150.532 62.3195 150.379Z" fill="#1D1D1D"/>
<path d="M57.8892 189.408H69.9448V198.259C69.9448 199.018 69.7952 199.771 69.5044 200.473C69.2136 201.175 68.7875 201.813 68.2502 202.35C67.7129 202.887 67.0751 203.313 66.3731 203.604C65.6711 203.895 64.9187 204.044 64.1589 204.044C62.6791 204.044 61.2555 203.477 60.1805 202.46C59.1054 201.444 58.4605 200.054 58.378 198.576L57.8892 189.408Z" fill="#8B8B8B"/>
<path d="M325.271 189.267C327.098 188.411 329.15 188.162 331.128 188.556C332.191 188.733 333.3 189.06 334.021 189.847C334.741 190.633 334.883 192.049 334.051 192.735C333.515 193.096 332.87 193.26 332.227 193.198C330.679 193.198 328.961 192.906 327.726 193.838C327.02 194.342 326.551 195.255 325.71 195.517C325.288 195.61 324.847 195.566 324.452 195.39C324.057 195.214 323.73 194.915 323.517 194.539C323.113 193.762 323.024 192.859 323.27 192.019C323.37 191.437 323.602 190.886 323.949 190.409C324.296 189.932 324.749 189.541 325.271 189.267Z" fill="#121212"/>
<path d="M321.194 181.39C322.282 182.947 324.399 182.433 325.377 181.48C326.355 180.528 326.773 179.157 327.151 177.841C328.018 174.848 328.885 171.703 328.245 168.649C328.094 167.716 327.687 166.844 327.07 166.129C326.762 165.779 326.366 165.517 325.924 165.369C325.481 165.221 325.007 165.193 324.55 165.287C323.482 165.569 322.822 166.612 322.338 167.605C320.928 170.542 320.189 173.757 320.176 177.015C320.176 178.527 320.347 180.12 321.184 181.369" fill="#121212"/>
<path d="M318.2 183.622C318.76 182.892 319.132 182.036 319.286 181.128C319.439 180.221 319.37 179.29 319.082 178.416C318.487 176.668 317.419 175.119 315.998 173.94C314.38 172.503 312.497 171.395 310.454 170.68C309.666 170.36 308.818 170.216 307.969 170.256C307.545 170.282 307.133 170.41 306.769 170.631C306.406 170.851 306.101 171.157 305.883 171.521C305.303 172.63 305.883 173.971 306.462 175.049C307.524 176.99 308.737 178.844 310.091 180.593C311.18 181.999 312.425 183.38 314.083 184.015C315.741 184.65 317.46 184.575 318.342 183.426" fill="#121212"/>
<path d="M321.118 204.856C321.177 204.623 321.211 204.385 321.219 204.145C321.27 203.641 321.33 202.986 321.406 202.22C321.501 201.269 321.646 200.324 321.839 199.387C322.086 198.25 322.423 197.135 322.847 196.051C323.271 194.968 323.844 193.95 324.551 193.027C325.128 192.277 325.865 191.666 326.708 191.238C327.279 190.953 327.891 190.761 328.522 190.668C328.76 190.66 328.997 190.626 329.228 190.567C328.99 190.543 328.75 190.543 328.512 190.567C327.855 190.62 327.213 190.791 326.617 191.071C325.73 191.491 324.952 192.11 324.344 192.881C323.605 193.814 323.009 194.852 322.575 195.96C322.141 197.059 321.804 198.194 321.567 199.352C321.383 200.3 321.257 201.257 321.189 202.22C321.129 203.036 321.103 203.702 321.093 204.16C321.077 204.392 321.086 204.626 321.118 204.856Z" fill="#1D1D1D"/>
<path d="M321.249 203.369C321.265 203.26 321.265 203.15 321.249 203.042V202.104C321.249 201.288 321.249 200.113 321.29 198.657C321.36 195.749 321.612 191.732 322.096 187.322C322.58 182.912 323.23 178.935 323.82 176.083C323.956 175.372 324.097 174.727 324.228 174.167C324.359 173.608 324.46 173.114 324.566 172.721C324.671 172.328 324.727 172.051 324.782 171.809C324.817 171.704 324.837 171.596 324.843 171.486C324.79 171.583 324.751 171.686 324.727 171.794L324.455 172.691C324.334 173.084 324.213 173.568 324.072 174.127C323.931 174.686 323.769 175.327 323.618 176.042C322.811 179.755 322.205 183.508 321.804 187.286C321.3 191.712 321.103 195.739 321.083 198.652C321.083 200.113 321.083 201.293 321.133 202.109C321.133 202.487 321.179 202.8 321.194 203.042C321.2 203.152 321.219 203.262 321.249 203.369Z" fill="#1D1D1D"/>
<path d="M321.27 195.602C321.297 195.277 321.297 194.95 321.27 194.625C321.215 193.735 321.114 192.848 320.967 191.969C320.483 189.065 319.65 186.231 318.488 183.527C317.368 180.794 315.759 178.288 313.74 176.133C313.389 175.763 313.016 175.417 312.621 175.095C312.45 174.949 312.298 174.802 312.147 174.686C311.996 174.571 311.845 174.485 311.714 174.389C311.452 174.193 311.175 174.016 310.887 173.86C311.836 174.608 312.739 175.415 313.589 176.274C315.542 178.448 317.108 180.94 318.22 183.643C318.863 185.117 319.407 186.632 319.848 188.179C320.272 189.6 320.554 190.91 320.766 192.009C320.977 193.108 321.083 194.025 321.154 194.635C321.169 194.96 321.207 195.283 321.27 195.602Z" fill="#1D1D1D"/>
<path d="M334.943 96.0221L306.472 96.6118L307.238 133.736L335.724 133.862L334.943 96.0221Z" fill="#121212"/>
<path d="M333.099 97.3829L308.186 97.897L308.882 131.569L333.809 131.892L333.099 97.3829Z" fill="#FAFAFA"/>
<path d="M328.86 103.592L312.319 103.305L312.803 126.837L329.334 126.494L328.86 103.592Z" fill="#1D1D1D"/>
<path d="M312.803 126.837L329.087 114.403L312.319 103.305L312.803 126.837Z" fill="#8B8B8B"/>
<path d="M325.251 65.2529L305.701 65.6561L306.23 91.1485L325.786 91.2341L325.251 65.2529Z" fill="#8B8B8B"/>
<path d="M323.986 66.1853L306.875 66.5381L307.354 89.6566L324.47 89.8834L323.986 66.1853Z" fill="#FAFAFA"/>
<path d="M321.073 70.4492L309.713 70.2476L310.046 86.4108L321.401 86.174L321.073 70.4492Z" fill="#121212"/>
<path d="M317.333 78.12C317.333 78.12 317.404 77.9386 317.464 77.616C317.554 77.1521 317.487 76.6715 317.273 76.2502C317.105 75.9097 316.845 75.6227 316.524 75.4209C316.202 75.2191 315.831 75.1105 315.451 75.1072C315.072 75.104 314.698 75.2061 314.373 75.4023C314.048 75.5985 313.784 75.8811 313.61 76.2186C313.436 76.5561 313.359 76.9352 313.388 77.3138C313.417 77.6923 313.55 78.0555 313.773 78.3628C313.996 78.6702 314.3 78.9096 314.651 79.0545C315.002 79.1994 315.386 79.244 315.761 79.1834C316.242 79.1111 316.684 78.8784 317.016 78.5232C317.248 78.2762 317.333 78.1049 317.353 78.115C317.308 78.2927 317.218 78.4558 317.091 78.5887C316.773 78.9846 316.325 79.2544 315.826 79.3498C315.453 79.4244 315.068 79.4029 314.705 79.2874C314.343 79.1719 314.016 78.9662 313.755 78.6895C313.431 78.3476 313.22 77.9134 313.153 77.447C313.086 76.9806 313.165 76.5048 313.38 76.0852C313.594 75.6656 313.933 75.3228 314.351 75.1041C314.768 74.8854 315.243 74.8016 315.71 74.8642C316.087 74.9138 316.445 75.0582 316.751 75.2839C317.057 75.5095 317.301 75.809 317.459 76.1544C317.673 76.615 317.717 77.1359 317.585 77.6261C317.542 77.8085 317.455 77.9778 317.333 78.12Z" fill="#1D1D1D"/>
<path d="M318.286 82.656C317.844 82.1351 317.471 81.5591 317.177 80.9424C316.809 80.3692 316.516 79.7509 316.305 79.1028C316.743 79.626 317.113 80.2017 317.409 80.8164C317.775 81.3916 318.07 82.0093 318.286 82.656Z" fill="#1D1D1D"/>
<path d="M335.472 203.959C335.472 204.034 271.706 204.09 193.062 204.09C114.418 204.09 50.6367 204.034 50.6367 203.959C50.6367 203.883 114.393 203.828 193.062 203.828C271.731 203.828 335.472 203.888 335.472 203.959Z" fill="#1D1D1D"/>
<path d="M252.68 141.231C252.68 141.231 253.129 136.448 253.582 136.488C254.036 136.529 254.112 137.375 254.056 137.789C254.001 138.202 254.056 139.805 254.056 139.805L252.68 141.231Z" fill="#CACACA"/>
<path d="M293.721 137.315L291.428 153.443L302.012 199.68L272.78 202.018L285.38 127.557C285.38 127.557 293.696 126.615 293.721 137.315Z" fill="#1D1D1D"/>
<path d="M257.781 218.706L256.092 237.787H263.305L266.485 218.706H257.781Z" fill="#CACACA"/>
<path d="M256.092 237.787C256.092 237.787 251.224 238.417 250.357 239.042L263.113 238.891L263.305 237.787H256.092Z" fill="#CACACA"/>
<path d="M250.357 239.047V239.556L263.491 239.415V238.866L250.357 239.047Z" fill="#121212"/>
<path d="M255.024 239.34C254.953 239.37 254.747 238.977 254.323 238.669C253.9 238.362 253.472 238.266 253.482 238.195C253.492 238.125 253.986 238.105 254.49 238.468C254.994 238.831 255.069 239.324 255.024 239.34Z" fill="#121212"/>
<path d="M263.471 237.409C263.471 237.48 262.594 237.656 261.596 238.13C260.598 238.604 259.893 239.138 259.842 239.103C260.283 238.57 260.849 238.156 261.49 237.898C262.098 237.568 262.78 237.4 263.471 237.409Z" fill="#121212"/>
<path d="M263.174 237.097C260.806 237.149 258.438 237.029 256.087 236.739C257.263 236.674 258.442 236.692 259.615 236.794C260.807 236.808 261.997 236.909 263.174 237.097Z" fill="#121212"/>
<path d="M264.02 234.587C262.738 234.953 261.434 235.234 260.114 235.429C258.811 235.709 257.491 235.908 256.163 236.023C257.446 235.662 258.751 235.38 260.069 235.182C261.373 234.902 262.692 234.703 264.02 234.587Z" fill="#121212"/>
<path d="M263.894 234.678C263.565 234.682 263.239 234.611 262.942 234.471C262.608 234.339 262.29 234.17 261.994 233.967C261.817 233.851 261.648 233.721 261.49 233.579C261.392 233.494 261.316 233.387 261.269 233.266C261.242 233.196 261.232 233.12 261.239 233.045C261.246 232.97 261.27 232.898 261.309 232.833C261.354 232.768 261.415 232.717 261.487 232.685C261.559 232.653 261.639 232.641 261.717 232.651C261.839 232.669 261.958 232.702 262.07 232.752C262.268 232.834 262.456 232.939 262.629 233.065C262.925 233.273 263.179 233.537 263.375 233.841C263.578 234.105 263.696 234.425 263.713 234.758C263.673 234.758 263.577 234.405 263.209 233.942C263.007 233.673 262.759 233.441 262.478 233.256C262.321 233.146 262.152 233.055 261.974 232.984C261.788 232.898 261.576 232.863 261.521 232.984C261.491 233.061 261.489 233.145 261.515 233.223C261.541 233.301 261.593 233.368 261.662 233.413C261.807 233.549 261.96 233.677 262.12 233.796C262.4 233.988 262.695 234.157 263.002 234.3C263.542 234.552 263.899 234.637 263.894 234.678Z" fill="#121212"/>
<path d="M263.829 234.864C263.672 234.577 263.608 234.247 263.648 233.922C263.663 233.575 263.738 233.234 263.869 232.914C263.948 232.719 264.05 232.535 264.172 232.364C264.236 232.271 264.307 232.181 264.383 232.097C264.429 232.041 264.487 231.995 264.552 231.962C264.617 231.93 264.689 231.913 264.761 231.911C264.839 231.915 264.913 231.941 264.977 231.984C265.041 232.028 265.092 232.088 265.124 232.158C265.18 232.274 265.204 232.402 265.195 232.531C265.185 232.742 265.152 232.952 265.094 233.156C264.99 233.499 264.819 233.817 264.59 234.093C264.406 234.364 264.141 234.57 263.834 234.683C263.834 234.647 264.121 234.451 264.444 233.987C264.63 233.716 264.767 233.414 264.847 233.095C264.897 232.909 264.924 232.718 264.928 232.526C264.928 232.334 264.852 232.163 264.736 232.163C264.62 232.163 264.469 232.354 264.353 232.505C264.24 232.663 264.142 232.832 264.061 233.009C263.926 233.312 263.839 233.633 263.804 233.962C263.768 234.486 263.869 234.864 263.829 234.864Z" fill="#121212"/>
<path d="M264.796 237.828C264.464 237.398 264.226 236.903 264.096 236.376C263.887 235.861 263.793 235.308 263.819 234.753C264.034 235.251 264.202 235.767 264.323 236.295C264.524 236.792 264.682 237.304 264.796 237.828Z" fill="#121212"/>
<path d="M265.659 237.152C264.67 236.557 263.936 235.619 263.597 234.516C263.668 234.481 264.015 235.146 264.605 235.867C265.195 236.588 265.704 237.092 265.659 237.152Z" fill="#121212"/>
<path d="M284.7 220.268L299.477 231.981L302.99 226.84L289.78 212.461L284.7 220.268Z" fill="#CACACA"/>
<path d="M298.434 232.268C298.434 232.268 296.161 236.618 296.181 237.692L303.358 227.148L302.566 226.357L298.434 232.268Z" fill="#CACACA"/>
<path d="M296.181 237.691L296.599 237.984L304.003 227.138L303.554 226.82L296.181 237.691Z" fill="#121212"/>
<path d="M299.079 234.053C299.079 234.123 298.625 234.053 298.131 234.244C297.637 234.436 297.315 234.708 297.259 234.662C297.204 234.617 297.481 234.194 298.051 234.002C298.62 233.811 299.109 233.992 299.079 234.053Z" fill="#121212"/>
<path d="M302.345 226.004C302.415 226.034 302.047 226.865 301.866 227.954C301.684 229.043 301.735 229.94 301.659 229.97C301.368 228.616 301.613 227.201 302.345 226.024V226.004Z" fill="#121212"/>
<path d="M301.941 225.727C301.387 226.646 300.762 227.521 300.072 228.342C299.443 229.217 298.749 230.043 297.995 230.812C298.55 229.89 299.177 229.014 299.87 228.191C300.493 227.315 301.186 226.491 301.941 225.727Z" fill="#121212"/>
<path d="M300.354 223.937C299.978 225.054 299.525 226.144 298.998 227.198C298.547 228.285 298.018 229.338 297.416 230.348C297.792 229.233 298.245 228.145 298.771 227.092C299.22 226.003 299.749 224.949 300.354 223.937Z" fill="#121212"/>
<path d="M300.349 224.094C300.374 224.094 300.137 224.411 299.633 224.759C299.34 224.963 299.024 225.133 298.691 225.263C298.495 225.342 298.292 225.407 298.086 225.454C297.96 225.482 297.829 225.482 297.703 225.454C297.63 225.435 297.562 225.4 297.504 225.351C297.447 225.302 297.401 225.241 297.37 225.172C297.343 225.098 297.337 225.018 297.352 224.941C297.367 224.864 297.403 224.792 297.456 224.734C297.538 224.643 297.633 224.565 297.738 224.502C298.229 224.191 298.801 224.035 299.381 224.053C299.714 224.037 300.044 224.125 300.324 224.305C300.324 224.346 299.961 224.215 299.381 224.235C298.843 224.249 298.319 224.413 297.869 224.708C297.693 224.814 297.542 224.971 297.597 225.076C297.643 225.145 297.711 225.195 297.79 225.219C297.869 225.243 297.954 225.239 298.031 225.207C298.225 225.165 298.417 225.111 298.605 225.046C298.927 224.932 299.239 224.79 299.537 224.623C300.047 224.31 300.324 224.063 300.349 224.094Z" fill="#121212"/>
<path d="M300.454 224.245C300.128 224.208 299.822 224.07 299.577 223.852C299.294 223.641 299.051 223.379 298.862 223.081C298.747 222.904 298.654 222.714 298.584 222.516C298.544 222.411 298.512 222.303 298.489 222.193C298.468 222.124 298.463 222.05 298.473 221.978C298.483 221.905 298.509 221.836 298.549 221.775C298.598 221.715 298.662 221.669 298.735 221.642C298.807 221.615 298.886 221.607 298.962 221.619C299.088 221.642 299.206 221.696 299.305 221.775C299.473 221.905 299.625 222.054 299.759 222.219C299.987 222.493 300.159 222.81 300.263 223.151C300.378 223.457 300.396 223.792 300.313 224.109C300.254 223.806 300.18 223.507 300.091 223.212C299.974 222.902 299.803 222.616 299.587 222.365C299.462 222.222 299.321 222.092 299.169 221.977C299.023 221.856 298.826 221.831 298.756 221.926C298.685 222.022 298.756 222.254 298.821 222.43C298.885 222.606 298.966 222.775 299.063 222.934C299.234 223.218 299.448 223.473 299.698 223.69C300.122 224.089 300.469 224.204 300.454 224.245Z" fill="#121212"/>
<path d="M303.453 225.157C302.899 225.191 302.344 225.105 301.825 224.905C301.277 224.783 300.761 224.544 300.313 224.204C301.361 224.498 302.401 224.815 303.433 225.157H303.453Z" fill="#121212"/>
<path d="M303.408 224.063C302.9 224.334 302.331 224.471 301.755 224.461C301.182 224.536 300.6 224.459 300.066 224.24C300.066 224.169 300.827 224.24 301.74 224.209C302.652 224.179 303.368 223.988 303.408 224.063Z" fill="#121212"/>
<path d="M270.456 162.701C270.456 162.701 264.811 200.194 265.633 202.013C266.454 203.833 284.73 222.541 284.73 222.541L291.589 210.793C291.589 210.793 279.493 197.392 279.669 196.681C279.846 195.97 288.389 159.682 288.389 159.682L270.456 162.701Z" fill="#121212"/>
<path d="M271.757 209.1L276.575 198.516L282.119 186.631C278.746 191.509 275.876 196.714 273.551 202.17C272.648 204.39 272.045 206.72 271.757 209.1Z" fill="#121212"/>
<path opacity="0.4" d="M271.757 209.1L276.575 198.516L282.119 186.631C278.746 191.509 275.876 196.714 273.551 202.17C272.648 204.39 272.045 206.72 271.757 209.1Z" fill="black"/>
<path d="M268.451 176.541C268.506 176.143 273.057 165.907 273.057 165.907L270.845 162.792L270.457 162.706L268.451 176.541Z" fill="#121212"/>
<path opacity="0.4" d="M268.451 176.541C268.506 176.143 273.057 165.907 273.057 165.907L270.845 162.792L270.457 162.706L268.451 176.541Z" fill="black"/>
<path d="M291.594 159.173L291.932 160.564C292.942 164.667 292.326 169.001 290.213 172.66L274.912 199.186C273.825 201.07 273.035 203.11 272.568 205.234L268.758 222.37C268.758 222.37 256.727 222.778 256.208 222.37C255.689 221.962 257.76 210.617 259.141 202.023C260.185 195.542 268.854 175.427 273.057 165.927L270.456 162.721L274.992 161.971L291.594 159.173Z" fill="#121212"/>
<path d="M268.758 222.35C268.594 222.397 268.424 222.424 268.254 222.43C267.931 222.466 267.473 222.506 266.898 222.541C265.754 222.617 264.166 222.672 262.417 222.667C260.669 222.662 259.081 222.612 257.937 222.551C257.362 222.526 256.899 222.496 256.581 222.471C256.411 222.475 256.241 222.453 256.077 222.405C256.243 222.376 256.413 222.365 256.581 222.375H257.937L262.412 222.415C264.161 222.415 265.739 222.39 266.883 222.365L268.244 222.33C268.415 222.31 268.588 222.317 268.758 222.35Z" fill="#1D1D1D"/>
<path d="M269.418 219.129C269.418 219.2 266.525 219.245 262.962 219.23C259.398 219.215 256.5 219.149 256.5 219.084C256.5 219.018 259.393 218.968 262.962 218.978C266.53 218.988 269.418 219.059 269.418 219.129Z" fill="#1D1D1D"/>
<path d="M289.488 208.364C289.423 208.532 289.336 208.691 289.231 208.838L288.449 210.077L285.859 214.155L283.278 218.237L282.487 219.472C282.399 219.63 282.29 219.775 282.165 219.905C282.223 219.728 282.302 219.559 282.401 219.401C282.568 219.099 282.815 218.66 283.122 218.126C283.747 217.058 284.634 215.606 285.642 213.998C286.65 212.391 287.603 210.974 288.303 209.966C288.656 209.462 288.943 209.049 289.15 208.767C289.245 208.619 289.359 208.484 289.488 208.364Z" fill="#1D1D1D"/>
<path d="M284.009 221.528C283.738 221.034 283.541 220.502 283.424 219.951C283.227 219.424 283.112 218.87 283.082 218.308C283.352 218.8 283.549 219.33 283.666 219.88C283.862 220.409 283.977 220.965 284.009 221.528Z" fill="#1D1D1D"/>
<path d="M285.077 221.493C284.806 220.632 284.615 219.748 284.508 218.852C284.319 217.97 284.214 217.072 284.195 216.171C284.653 217.914 284.949 219.695 285.077 221.493Z" fill="#1D1D1D"/>
<path d="M286.473 219.502C286.205 218.751 285.995 217.982 285.843 217.199C285.609 216.437 285.441 215.656 285.339 214.865C285.682 215.589 285.933 216.353 286.085 217.138C286.318 217.906 286.449 218.701 286.473 219.502Z" fill="#1D1D1D"/>
<path d="M287.663 216.745C287.39 216.028 287.199 215.283 287.094 214.523C286.902 213.778 286.794 213.013 286.771 212.245C287.038 212.965 287.229 213.712 287.341 214.472C287.529 215.216 287.638 215.978 287.663 216.745Z" fill="#1D1D1D"/>
<path d="M289.2 214.462C288.973 213.742 288.793 213.008 288.661 212.265C288.443 211.54 288.274 210.8 288.157 210.052C288.508 210.73 288.754 211.457 288.888 212.209C289.107 212.94 289.212 213.7 289.2 214.462Z" fill="#1D1D1D"/>
<path d="M290.571 212.527C290.298 211.96 290.104 211.358 289.997 210.738C289.805 210.137 289.693 209.513 289.664 208.883C290.126 210.052 290.431 211.277 290.571 212.527Z" fill="#1D1D1D"/>
<path d="M262.493 219.003C261.527 219.602 260.529 220.148 259.504 220.641C258.524 221.212 257.514 221.731 256.48 222.199C256.728 221.971 257.005 221.776 257.302 221.619C257.806 221.291 258.567 220.863 259.404 220.419C260.24 219.976 261.011 219.608 261.576 219.356C261.865 219.2 262.174 219.081 262.493 219.003Z" fill="#1D1D1D"/>
<path d="M266.203 219.059C265.911 219.3 265.593 219.508 265.255 219.679C264.65 220.026 263.809 220.485 262.856 220.959C261.904 221.432 261.022 221.821 260.376 222.088C260.038 222.255 259.681 222.382 259.313 222.466C259.628 222.249 259.966 222.068 260.321 221.926L262.755 220.732L265.185 219.522C265.506 219.332 265.848 219.176 266.203 219.059Z" fill="#1D1D1D"/>
<path d="M269.025 219.059C268.306 219.785 267.516 220.437 266.666 221.004C265.864 221.636 265.001 222.188 264.091 222.652C264.857 221.981 265.667 221.362 266.515 220.797C267.316 220.167 268.154 219.587 269.025 219.059Z" fill="#1D1D1D"/>
<path d="M269.332 220.833C269.378 220.888 268.909 221.337 268.284 221.8C267.931 222.125 267.523 222.385 267.08 222.566C267.372 222.185 267.728 221.858 268.133 221.599C268.485 221.275 268.891 221.016 269.332 220.833Z" fill="#1D1D1D"/>
<path d="M259.202 218.943C258.734 219.367 258.212 219.728 257.65 220.016C257.128 220.376 256.56 220.664 255.961 220.873C256.951 220.089 258.041 219.44 259.202 218.943Z" fill="#1D1D1D"/>
<path d="M272.724 165.816C272.55 166.389 272.336 166.95 272.084 167.494C271.671 168.502 271.076 169.939 270.481 171.526C269.887 173.114 269.337 174.55 268.969 175.558C268.784 176.127 268.562 176.682 268.304 177.222C268.321 177.062 268.357 176.904 268.41 176.753C268.496 176.455 268.627 176.027 268.798 175.498C269.141 174.445 269.65 172.978 270.26 171.421C270.87 169.863 271.479 168.432 271.938 167.424C272.17 166.92 272.361 166.517 272.503 166.239C272.558 166.09 272.633 165.947 272.724 165.816Z" fill="#1D1D1D"/>
<path d="M271.469 210.299C271.458 210.2 271.458 210.101 271.469 210.002C271.495 209.78 271.535 209.498 271.575 209.155C271.616 208.812 271.686 208.339 271.802 207.819C271.918 207.3 272.009 206.711 272.19 206.071C272.276 205.753 272.366 205.415 272.457 205.063C272.548 204.71 272.679 204.357 272.795 203.984C273.017 203.238 273.324 202.472 273.626 201.635C274.335 199.868 275.14 198.14 276.036 196.459C277.693 193.428 279.522 190.493 281.514 187.669C282.265 186.581 282.89 185.709 283.328 185.109L283.832 184.424C283.889 184.341 283.953 184.263 284.024 184.192C283.986 184.285 283.937 184.373 283.878 184.454C283.752 184.635 283.601 184.872 283.409 185.165L281.66 187.77C280.224 189.973 278.208 193.032 276.277 196.56C275.387 198.232 274.581 199.948 273.863 201.701C273.556 202.517 273.238 203.288 273.012 204.029C272.891 204.402 272.765 204.755 272.664 205.098C272.563 205.441 272.472 205.778 272.387 206.106C272.195 206.741 272.079 207.331 271.958 207.84C271.837 208.349 271.752 208.797 271.691 209.16C271.631 209.523 271.58 209.78 271.54 209.997C271.527 210.1 271.503 210.201 271.469 210.299Z" fill="#1D1D1D"/>
<path d="M286.473 127.598L274.634 128.606C274.634 128.606 271.106 128.686 267.236 137.678L264.454 146.599L269.458 147.667V148.171L270.466 162.701L291.816 159.264C291.861 157.419 290.808 154.728 290.037 152.208C290.838 150.217 294.21 141.528 294.205 137.345C294.205 128.399 286.468 127.628 286.468 127.628" fill="white"/>
<path d="M291.589 210.783C291.539 210.96 291.466 211.129 291.372 211.287C291.216 211.594 290.984 212.033 290.687 212.572C290.092 213.651 289.235 215.122 288.268 216.73L285.768 220.828L285.012 222.078C284.93 222.236 284.829 222.383 284.709 222.516C284.76 222.34 284.833 222.17 284.926 222.012C285.082 221.705 285.314 221.266 285.612 220.727C286.206 219.648 287.063 218.177 288.031 216.569L290.51 212.456L291.266 211.211C291.357 211.056 291.465 210.912 291.589 210.783Z" fill="#1D1D1D"/>
<path d="M288.792 148.962C288.27 149.215 287.703 149.364 287.124 149.401C286.557 149.514 285.973 149.514 285.405 149.401C285.958 149.257 286.524 149.168 287.094 149.134C287.653 149.023 288.222 148.965 288.792 148.962Z" fill="white"/>
<path d="M270.507 148.252L270.265 164.022L276.666 128.107C274.539 127.729 270.572 129.402 269.081 131.524C268.012 132.794 267.427 135.717 264.454 144.517L262.629 150.489L255.231 142.39L250.246 146.896C250.246 146.896 258.844 160.942 262.438 161.719C267.327 162.777 270.502 148.252 270.502 148.252" fill="#8B8B8B"/>
<path d="M271.53 133.661C271.533 133.868 271.511 134.074 271.464 134.276C271.399 134.719 271.313 135.284 271.207 135.934C270.991 137.335 270.703 139.27 270.436 141.417C270.169 143.564 269.983 145.515 269.852 146.926C269.791 147.591 269.741 148.151 269.695 148.594C269.693 148.802 269.664 149.009 269.61 149.209C269.589 149.003 269.589 148.795 269.61 148.589C269.61 148.191 269.645 147.622 269.685 146.911C269.766 145.495 269.932 143.539 270.189 141.367C270.446 139.195 270.774 137.28 271.036 135.884C271.172 135.188 271.288 134.624 271.374 134.235C271.408 134.04 271.46 133.847 271.53 133.661Z" fill="#1D1D1D"/>
<path d="M269.872 132.97C269.847 132.9 270.84 132.466 271.969 131.781C273.098 131.095 273.919 130.39 273.985 130.445C272.884 131.655 271.463 132.528 269.887 132.965L269.872 132.97Z" fill="white"/>
<path d="M267.826 143.368C267.57 142.784 267.363 142.181 267.206 141.564C266.969 140.973 266.78 140.365 266.641 139.744C267.315 140.842 267.721 142.084 267.826 143.368Z" fill="white"/>
<path d="M273.017 137.693C273.087 138.395 273.035 139.104 272.866 139.789C272.779 140.493 272.569 141.175 272.246 141.805C272.328 141.115 272.453 140.43 272.619 139.754C272.708 139.059 272.841 138.371 273.017 137.693Z" fill="white"/>
<path d="M265.814 151.442C265.818 152.062 265.767 152.681 265.663 153.292C265.638 153.914 265.56 154.532 265.431 155.141C265.275 153.895 265.406 152.63 265.814 151.442Z" fill="white"/>
<path d="M256.354 151.316C255.804 150.719 255.352 150.038 255.014 149.3C254.601 148.599 254.299 147.84 254.117 147.047C254.529 147.738 254.902 148.452 255.236 149.184C255.646 149.874 256.02 150.586 256.354 151.316Z" fill="white"/>
<path d="M261.768 151.704C261.371 152.082 260.901 152.376 260.387 152.566C259.905 152.833 259.373 152.996 258.824 153.045C259.284 152.76 259.772 152.524 260.281 152.339C260.754 152.078 261.252 151.865 261.768 151.704Z" fill="white"/>
<path d="M287.401 156.684L291.105 200.718L302.264 199.665L291.67 153.428L292.965 141.014L287.401 156.684Z" fill="#8B8B8B"/>
<path d="M291.105 200.718C291.04 200.718 290.218 190.956 289.276 178.9C288.333 166.844 287.633 157.072 287.698 157.067C287.764 157.062 288.59 166.824 289.528 178.88C290.465 190.935 291.176 200.713 291.105 200.718Z" fill="#1D1D1D"/>
<path d="M290.032 157.702C290.108 157.195 290.266 156.705 290.5 156.25C290.663 155.765 290.901 155.309 291.206 154.899C290.976 155.893 290.579 156.841 290.032 157.702Z" fill="white"/>
<path d="M293.111 164.254C293.051 164.299 292.496 163.654 291.715 162.963C291.216 162.575 290.736 162.161 290.279 161.724C290.884 161.956 291.432 162.315 291.887 162.777C292.394 163.178 292.811 163.681 293.111 164.254Z" fill="white"/>
<path d="M292.431 173.089C292.633 172.571 292.867 172.066 293.131 171.577C293.319 171.048 293.54 170.531 293.791 170.03C293.778 170.605 293.63 171.17 293.358 171.678C293.164 172.214 292.847 172.698 292.431 173.089Z" fill="white"/>
<path d="M294.84 180.18C293.761 179.473 292.781 178.626 291.927 177.66C292.479 177.981 292.987 178.373 293.439 178.824C293.963 179.213 294.434 179.669 294.84 180.18Z" fill="white"/>
<path d="M296.856 185.049C296.698 183.635 296.708 182.207 296.886 180.795C297.002 181.498 297.039 182.211 296.997 182.922C297.033 183.634 296.986 184.348 296.856 185.049Z" fill="white"/>
<path d="M293.277 188.355C293.135 187.802 293.045 187.237 293.01 186.666C292.896 186.107 292.834 185.539 292.824 184.968C293.084 185.487 293.24 186.052 293.282 186.631C293.395 187.2 293.394 187.786 293.277 188.355Z" fill="white"/>
<path d="M296.972 192.568C295.902 192.578 294.838 192.42 293.817 192.1C294.352 192.052 294.891 192.089 295.415 192.211C295.949 192.249 296.474 192.37 296.972 192.568Z" fill="white"/>
<path d="M296.352 198.173C296.883 197.078 297.561 196.06 298.368 195.149C298.144 195.717 297.842 196.252 297.471 196.736C297.163 197.263 296.787 197.746 296.352 198.173Z" fill="white"/>
<path d="M270.96 162.026L252.217 136.493C253.328 135.638 254.368 134.694 255.326 133.671C259.323 129.393 261.747 123.883 262.201 118.046C262.655 112.209 261.111 106.391 257.824 101.546C254.536 96.702 249.7 93.1186 244.108 91.3841C238.516 89.6496 232.501 89.867 227.049 92.0007C221.597 94.1344 217.032 98.0576 214.103 103.127C211.173 108.196 210.054 114.11 210.928 119.899C211.802 125.688 214.618 131.009 218.913 134.987C223.208 138.966 228.728 141.366 234.567 141.795C235.487 141.863 236.411 141.88 237.334 141.846C241.086 141.73 244.767 140.795 248.119 139.104L267.054 164.899C267.437 165.414 268.009 165.757 268.644 165.851C269.279 165.945 269.925 165.784 270.441 165.403C270.956 165.022 271.3 164.454 271.397 163.821C271.494 163.189 271.337 162.543 270.96 162.026ZM237.192 137.007C236.443 137.032 235.693 137.019 234.945 136.967C229.585 136.581 224.578 134.153 220.957 130.183C217.335 126.214 215.375 121.006 215.48 115.634C215.586 110.261 217.749 105.134 221.523 101.31C225.298 97.4856 230.396 95.2555 235.766 95.0796C236.524 95.0543 237.283 95.0694 238.039 95.125C243.39 95.5249 248.385 97.9602 251.995 101.93C255.605 105.9 257.557 111.102 257.448 116.467C257.34 121.832 255.179 126.951 251.412 130.772C247.644 134.593 242.555 136.824 237.192 137.007Z" fill="#1D1D1D"/>
<path d="M263.517 148.141L261.294 155.736C261.294 155.736 272.926 159.965 279.226 159.884C285.128 159.813 286.817 159.143 288.893 154.38C290.969 149.617 293.328 144.144 293.832 140.974C293.832 140.974 297.164 126.464 284.453 127.759L284.1 139.104C284.1 139.104 282.694 143.756 282.588 144.028C281.64 146.548 280.411 150.212 279.221 150.656C278.032 151.099 263.517 148.141 263.517 148.141Z" fill="#8B8B8B"/>
<path d="M281.771 154.224C280.835 153.124 280.101 151.866 279.604 150.51C280.034 151.084 280.414 151.694 280.738 152.334C281.134 152.934 281.48 153.567 281.771 154.224Z" fill="#1D1D1D"/>
<path d="M282.961 153.03C282.353 152.716 281.786 152.331 281.272 151.881C280.713 151.496 280.205 151.042 279.76 150.53C280.366 150.845 280.933 151.231 281.449 151.679C282.007 152.064 282.515 152.518 282.961 153.03Z" fill="#1D1D1D"/>
<path d="M286.912 132.335C286.543 133.548 286.095 134.734 285.571 135.889C285.126 137.074 284.602 138.229 284.004 139.346C284.369 138.133 284.815 136.946 285.34 135.793C285.785 134.606 286.311 133.451 286.912 132.335Z" fill="#1D1D1D"/>
<path d="M293.328 143.136C293.295 143.335 293.239 143.529 293.161 143.716C293.02 144.129 292.844 144.648 292.657 145.258C292.194 146.558 291.544 148.352 290.778 150.298C290.011 152.243 289.266 154.012 288.651 155.257C288.353 155.882 288.101 156.381 287.915 156.719C287.832 156.898 287.729 157.067 287.607 157.223C287.661 157.029 287.736 156.841 287.829 156.663C288.006 156.265 288.222 155.761 288.484 155.151C289.039 153.886 289.77 152.127 290.541 150.172C291.312 148.216 291.972 146.483 292.486 145.132C292.738 144.492 292.95 143.973 293.096 143.62C293.158 143.452 293.236 143.29 293.328 143.136Z" fill="#1D1D1D"/>
<path d="M274.635 150.323C274.635 150.394 272.115 149.99 268.98 149.426C265.845 148.861 263.355 148.347 263.37 148.282C263.385 148.216 265.89 148.614 269.025 149.179C272.16 149.743 274.65 150.258 274.635 150.323Z" fill="#1D1D1D"/>
<path d="M287.824 143.398C287.672 142.035 287.69 140.659 287.88 139.301C287.994 139.978 288.026 140.667 287.976 141.352C288.009 142.038 287.958 142.725 287.824 143.398Z" fill="white"/>
<path d="M283.293 157.349C283.479 156.821 283.703 156.307 283.964 155.812C284.149 155.283 284.371 154.767 284.629 154.269C284.61 154.843 284.461 155.404 284.196 155.912C284.004 156.452 283.696 156.942 283.293 157.349Z" fill="white"/>
<path d="M277.139 156.956C276.448 155.793 275.794 154.608 275.179 153.403C275.661 153.891 276.058 154.456 276.353 155.076C276.72 155.654 276.985 156.289 277.139 156.956Z" fill="white"/>
<path d="M268.632 153.03C268.121 153.368 267.567 153.634 266.984 153.821C266.432 154.083 265.847 154.269 265.245 154.375C265.756 154.037 266.31 153.771 266.893 153.584C267.445 153.321 268.03 153.135 268.632 153.03Z" fill="white"/>
<path d="M292.496 135.223C292.441 135.269 291.881 134.719 291.075 134.145C290.269 133.57 289.533 133.273 289.563 133.202C290.166 133.308 290.734 133.561 291.216 133.938C291.743 134.253 292.184 134.695 292.496 135.223Z" fill="white"/>
<path d="M288.867 147.753C287.577 148.217 286.2 148.389 284.835 148.257C285.499 148.113 286.173 148.02 286.851 147.979C287.517 147.855 288.191 147.779 288.867 147.753Z" fill="white"/>
<path d="M287.673 108.899C288.013 108.281 288.554 107.796 289.207 107.527C289.859 107.258 290.584 107.219 291.262 107.418C291.932 107.638 292.54 108.016 293.034 108.521C293.528 109.025 293.893 109.64 294.099 110.316C294.497 111.675 294.523 113.116 294.175 114.489C293.953 115.497 293.671 116.661 294.326 117.437C294.981 118.213 296.1 118.143 296.821 118.768C296.999 118.924 297.142 119.115 297.243 119.329C297.344 119.543 297.4 119.776 297.408 120.012C297.415 120.249 297.374 120.484 297.286 120.704C297.199 120.924 297.067 121.124 296.9 121.291C296.732 121.458 296.532 121.589 296.311 121.675C296.091 121.762 295.855 121.802 295.619 121.794C295.382 121.786 295.15 121.729 294.936 121.627C294.722 121.525 294.532 121.38 294.376 121.202C294.376 121.902 294.759 122.543 294.976 123.218C295.193 123.893 295.223 124.73 294.689 125.178C294.477 125.332 294.228 125.425 293.967 125.45C293.707 125.475 293.444 125.43 293.207 125.32C292.733 125.095 292.305 124.786 291.942 124.407C292.189 125.131 292.189 125.916 291.942 126.64C291.809 126.997 291.586 127.314 291.294 127.559C291.003 127.805 290.653 127.971 290.279 128.041C289.804 128.076 289.33 127.969 288.917 127.733C288.504 127.497 288.171 127.142 287.96 126.716C287.556 125.853 287.404 124.894 287.522 123.949C287.628 122.477 288.026 121.036 288.187 119.574C288.446 118.109 288.257 116.6 287.643 115.245" fill="#121212"/>
<path d="M296.216 117.493C296.216 117.493 296.156 117.528 296.025 117.493C295.931 117.477 295.842 117.44 295.765 117.384C295.687 117.328 295.625 117.255 295.581 117.17C295.51 117.03 295.492 116.868 295.53 116.716C295.568 116.563 295.659 116.429 295.788 116.338C295.953 116.212 296.159 116.149 296.367 116.161C296.575 116.173 296.772 116.259 296.922 116.404C297.098 116.575 297.223 116.792 297.283 117.031C297.343 117.27 297.334 117.52 297.259 117.755C297.194 118.021 297.052 118.263 296.851 118.45C296.63 118.649 296.347 118.764 296.05 118.778C295.745 118.797 295.441 118.731 295.173 118.586C294.896 118.43 294.665 118.204 294.503 117.931C294.184 117.361 294.07 116.7 294.18 116.056C294.366 114.761 294.991 113.677 294.976 112.589C294.991 111.628 294.728 110.683 294.22 109.867C293.878 109.314 293.433 108.831 292.91 108.446C292.537 108.174 292.3 108.073 292.315 108.048C292.33 108.022 292.376 108.048 292.492 108.113C292.656 108.184 292.815 108.268 292.965 108.365C293.527 108.731 294.006 109.21 294.371 109.771C294.922 110.609 295.213 111.591 295.208 112.594C295.208 113.748 294.598 114.867 294.427 116.091C294.326 116.677 294.427 117.279 294.714 117.8C294.844 118.034 295.036 118.228 295.269 118.36C295.502 118.492 295.767 118.556 296.035 118.546C296.271 118.532 296.497 118.442 296.679 118.289C296.86 118.137 296.988 117.93 297.043 117.699C297.112 117.5 297.124 117.286 297.079 117.081C297.033 116.875 296.932 116.686 296.786 116.535C296.666 116.413 296.507 116.338 296.338 116.322C296.168 116.307 295.998 116.352 295.858 116.449C295.751 116.52 295.671 116.627 295.633 116.75C295.596 116.873 295.602 117.006 295.652 117.125C295.687 117.2 295.738 117.268 295.802 117.323C295.865 117.377 295.939 117.418 296.02 117.442C296.146 117.493 296.211 117.477 296.216 117.493Z" fill="#121212"/>
<path d="M284.553 128.041L285.229 112.659L279.12 108.032L273.576 110.749C273.576 110.749 273.39 117.719 273.576 120.743C273.763 123.767 276.812 124.09 276.812 124.09C276.812 124.09 276.741 125.859 276.671 127.724C276.651 128.258 276.74 128.79 276.931 129.289C277.123 129.788 277.414 130.243 277.787 130.626C278.16 131.009 278.606 131.312 279.1 131.518C279.593 131.723 280.123 131.826 280.657 131.821C281.667 131.808 282.633 131.409 283.357 130.706C284.082 130.003 284.509 129.05 284.553 128.041Z" fill="#CACACA"/>
<path d="M274.176 115.829C274.176 115.906 274.199 115.981 274.241 116.045C274.284 116.109 274.344 116.159 274.415 116.188C274.486 116.217 274.564 116.225 274.64 116.21C274.715 116.195 274.784 116.158 274.838 116.104C274.893 116.05 274.93 115.98 274.944 115.905C274.959 115.83 274.952 115.752 274.922 115.681C274.893 115.61 274.843 115.549 274.779 115.507C274.716 115.464 274.641 115.441 274.564 115.441C274.461 115.443 274.363 115.484 274.291 115.556C274.218 115.629 274.177 115.727 274.176 115.829Z" fill="#1D1D1D"/>
<path d="M273.798 115.416C273.849 115.466 274.131 115.225 274.549 115.204C274.967 115.184 275.28 115.381 275.32 115.325C275.361 115.27 275.29 115.209 275.154 115.114C274.971 114.992 274.753 114.934 274.534 114.948C274.315 114.961 274.106 115.046 273.939 115.189C273.813 115.285 273.773 115.386 273.798 115.416Z" fill="#1D1D1D"/>
<path d="M278.657 115.829C278.657 115.906 278.679 115.981 278.722 116.045C278.765 116.109 278.825 116.159 278.896 116.188C278.967 116.217 279.045 116.225 279.121 116.21C279.196 116.195 279.265 116.158 279.319 116.104C279.373 116.05 279.41 115.98 279.425 115.905C279.44 115.83 279.433 115.752 279.403 115.681C279.374 115.61 279.324 115.549 279.26 115.507C279.197 115.464 279.122 115.441 279.045 115.441C278.942 115.441 278.843 115.482 278.77 115.555C278.698 115.628 278.657 115.726 278.657 115.829Z" fill="#1D1D1D"/>
<path d="M278.414 115.416C278.465 115.466 278.752 115.225 279.165 115.204C279.579 115.184 279.896 115.381 279.941 115.325C279.987 115.27 279.911 115.209 279.77 115.114C279.587 114.992 279.369 114.934 279.15 114.948C278.931 114.961 278.722 115.046 278.555 115.189C278.429 115.285 278.389 115.386 278.414 115.416Z" fill="#1D1D1D"/>
<path d="M278.288 119.322C277.652 119.646 276.974 119.879 276.272 120.012C276.426 120.222 276.645 120.375 276.896 120.446C277.146 120.517 277.412 120.503 277.653 120.406C277.769 120.38 277.877 120.331 277.972 120.262C278.068 120.192 278.148 120.104 278.207 120.002C278.267 119.901 278.305 119.788 278.319 119.671C278.333 119.554 278.322 119.435 278.288 119.322Z" fill="white"/>
<path d="M276.797 124.09C278.234 124.028 279.624 123.558 280.804 122.734C280.804 122.734 279.896 124.957 276.862 124.831L276.797 124.09Z" fill="#878787"/>
<path d="M294.023 121.353C293.641 121.368 293.262 121.281 292.925 121.101C292.426 120.836 292.013 120.436 291.73 119.947C291.382 119.333 291.084 118.693 290.838 118.032C290.273 116.626 289.83 115.32 289.558 114.368L289.432 113.949C289.432 113.788 289.381 113.642 289.356 113.536C287.703 107.231 282.164 106.057 281.065 106.057C279.967 106.057 277.835 105.412 274.836 108.526C274.386 108.995 274.004 109.524 273.702 110.099C273.036 110.926 272.578 111.901 272.366 112.941C272.228 113.434 272.204 113.951 272.296 114.453C272.351 114.453 272.361 113.884 272.593 113.007C272.734 112.492 272.93 111.993 273.178 111.52C272.916 112.685 273.023 113.902 273.485 115.003L274.559 114.705L278.409 113.395C278.057 112.206 278.576 110.724 278.863 110.033L278.893 110.008C279.108 111.265 279.718 112.42 280.633 113.308C281.547 114.196 282.721 114.77 283.984 114.947L284.694 124.851C289.815 123.757 289.694 116.908 289.664 115.517C289.895 116.298 290.198 117.2 290.576 118.143C290.825 118.821 291.139 119.475 291.513 120.093C291.829 120.614 292.289 121.031 292.839 121.293C293.211 121.467 293.626 121.528 294.033 121.469C294.183 121.456 294.326 121.402 294.447 121.313C294.305 121.317 294.163 121.331 294.023 121.353Z" fill="#121212"/>
<path d="M276.912 118.944C276.689 118.892 276.461 118.863 276.232 118.858C276.126 118.858 276.02 118.858 276 118.763C275.985 118.647 276.004 118.53 276.056 118.425L276.343 117.563C276.54 116.948 276.711 116.389 276.847 115.981C276.928 115.765 276.979 115.539 276.998 115.31C276.875 115.502 276.774 115.706 276.696 115.92C276.555 116.318 276.368 116.873 276.192 117.487L275.92 118.354C275.858 118.49 275.843 118.643 275.879 118.788C275.895 118.825 275.919 118.858 275.95 118.884C275.98 118.91 276.017 118.929 276.056 118.939C276.116 118.946 276.177 118.946 276.237 118.939C276.461 118.969 276.688 118.971 276.912 118.944Z" fill="#1D1D1D"/>
<path d="M285.551 118.798C285.5 118.288 285.555 117.773 285.712 117.286C285.792 117.047 285.935 116.833 286.125 116.668C286.316 116.503 286.548 116.393 286.796 116.348C287.089 116.335 287.377 116.431 287.604 116.617C287.831 116.803 287.981 117.066 288.026 117.356C288.059 117.645 288.006 117.937 287.873 118.195C287.74 118.454 287.534 118.667 287.28 118.808C287.021 118.943 286.735 119.017 286.444 119.026C286.152 119.035 285.863 118.977 285.596 118.858" fill="#CACACA"/>
<path d="M286.428 118.359C286.428 118.324 286.595 118.4 286.806 118.334C286.939 118.289 287.055 118.202 287.136 118.087C287.218 117.973 287.261 117.835 287.26 117.694C287.272 117.623 287.269 117.551 287.251 117.481C287.232 117.412 287.199 117.347 287.154 117.291C287.06 117.216 286.941 117.18 286.821 117.19C286.595 117.19 286.438 117.271 286.423 117.236C286.408 117.2 286.524 117.094 286.796 117.014C286.882 116.993 286.972 116.991 287.059 117.008C287.147 117.025 287.229 117.062 287.3 117.115C287.379 117.19 287.439 117.284 287.475 117.387C287.511 117.491 287.522 117.601 287.507 117.709C287.495 117.917 287.416 118.116 287.28 118.274C287.166 118.405 287.008 118.489 286.836 118.511C286.544 118.541 286.408 118.38 286.428 118.359Z" fill="#878787"/>
<path d="M287.336 118.773C287.336 118.773 287.562 118.929 287.562 119.332C287.552 119.567 287.451 119.79 287.28 119.952C287.171 120.051 287.042 120.124 286.902 120.168C286.762 120.211 286.614 120.224 286.469 120.204C286.323 120.176 286.185 120.117 286.064 120.03C285.944 119.943 285.845 119.83 285.773 119.7C285.717 119.595 285.682 119.48 285.67 119.361C285.659 119.243 285.672 119.123 285.708 119.01C285.834 118.622 286.091 118.506 286.101 118.546C286.111 118.586 285.939 118.722 285.879 119.05C285.849 119.205 285.868 119.366 285.933 119.51C285.999 119.654 286.108 119.774 286.245 119.854C286.382 119.933 286.54 119.968 286.698 119.953C286.855 119.938 287.004 119.874 287.124 119.771C287.269 119.652 287.362 119.483 287.386 119.297C287.392 119.121 287.375 118.944 287.336 118.773Z" fill="#1D1D1D"/>
<path d="M285.561 116.691C285.449 116.795 285.317 116.876 285.173 116.928C284.787 117.097 284.37 117.182 283.949 117.18C283.319 117.177 282.7 117.021 282.144 116.726C281.474 116.361 280.899 115.843 280.466 115.214C279.722 114.053 279.263 112.732 279.125 111.359C279.055 110.855 279.02 110.421 278.999 110.134C278.974 109.982 278.974 109.827 278.999 109.676C279.129 110.223 279.23 110.776 279.302 111.334C279.488 112.662 279.955 113.935 280.673 115.068C281.079 115.666 281.615 116.164 282.24 116.525C282.761 116.809 283.34 116.971 283.934 116.999C284.491 117.004 285.044 116.9 285.561 116.691Z" fill="#121212"/>
<path d="M288.953 112.357C288.878 112.357 288.651 111.485 288.061 110.537C287.471 109.59 286.776 108.99 286.826 108.93C287.437 109.277 287.938 109.789 288.273 110.406C288.68 110.979 288.916 111.655 288.953 112.357Z" fill="#1D1D1D"/>
<path d="M261.521 154.96H259.742C258.124 154.804 257.222 154.778 256.768 154.35C256.163 153.77 256.995 153.206 256.995 153.206C256.995 153.206 255.826 152.803 255.936 152.092C256.007 151.588 256.561 151.553 256.561 151.553C256.561 151.553 255.553 151.15 255.327 150.716C255.049 150.132 255.775 149.819 255.775 149.819C254.369 148.952 254.5 148.09 254.823 148.005C255.145 147.919 256.244 148.428 256.244 148.428C257.171 148.69 259.701 149.461 258.764 148.065C257.826 146.669 257.635 145.248 257.847 144.824C257.893 144.713 257.977 144.622 258.084 144.568C258.192 144.513 258.315 144.499 258.432 144.528C258.549 144.557 258.652 144.626 258.722 144.724C258.792 144.822 258.825 144.941 258.814 145.061C258.959 145.611 259.181 146.137 259.474 146.624C259.697 147.016 259.981 147.37 260.316 147.672C260.714 148.025 261.067 148.307 261.37 148.544L262.952 150.056L261.521 154.96Z" fill="#CACACA"/>
<path d="M250.448 137.204C250.579 136.821 250.896 136.549 251.239 136.73C251.307 136.81 251.353 136.907 251.373 137.01C251.392 137.114 251.384 137.22 251.35 137.32L250.251 140.893L251.289 138.373C251.42 137.99 251.768 137.758 252.005 137.965C252.064 138.048 252.102 138.144 252.117 138.244C252.132 138.345 252.123 138.448 252.091 138.545L251.143 141.513L251.914 139.658C252.075 139.235 252.262 139.119 252.479 139.215C252.695 139.311 252.7 139.618 252.65 139.789L252 141.977C252.141 142.4 252.625 143.726 252.156 144.472C252.156 144.507 252.206 144.633 252.201 144.673L252.423 144.925L250.992 146.241C250.992 146.241 249.646 142.839 249.389 141.816C249.231 141.227 249.259 140.603 249.47 140.031L250.448 137.204Z" fill="#CACACA"/>
</svg>
