<svg width="323" height="215" viewBox="0 0 323 215" fill="none" xmlns="http://www.w3.org/2000/svg">
<path d="M53.0623 108.51C53.0623 105.72 54.505 103.987 56.5592 103.987C58.6135 103.987 60.0606 105.707 60.0606 108.51C60.0606 111.314 58.6179 113.039 56.5592 113.039C54.5006 113.039 53.0623 111.305 53.0623 108.51ZM59.406 108.51C59.406 106.025 58.2474 104.585 56.5592 104.585C54.8711 104.585 53.7125 106.025 53.7125 108.51C53.7125 110.996 54.8753 112.437 56.5592 112.437C58.2432 112.437 59.406 110.996 59.406 108.51Z" fill="#BABABA"/>
<path d="M78.3509 104.06V112.987H77.7006V104.636H75.5171V104.06H78.3509Z" fill="#BABABA"/>
<path d="M95.2551 108.51C95.2551 105.72 96.6975 103.987 98.7517 103.987C100.806 103.987 102.253 105.707 102.253 108.51C102.253 111.314 100.806 113.039 98.7517 113.039C96.6975 113.039 95.2551 111.305 95.2551 108.51ZM101.599 108.51C101.599 106.025 100.44 104.585 98.7517 104.585C97.0632 104.585 95.9054 106.025 95.9054 108.51C95.9054 110.996 97.0675 112.437 98.7517 112.437C100.436 112.437 101.599 110.996 101.599 108.51Z" fill="#EBEBEB"/>
<path d="M116.349 108.51C116.349 105.72 117.792 103.987 119.85 103.987C121.908 103.987 123.347 105.707 123.347 108.51C123.347 111.314 121.904 113.039 119.85 113.039C117.796 113.039 116.349 111.305 116.349 108.51ZM122.697 108.51C122.697 106.025 121.534 104.585 119.85 104.585C118.167 104.585 117.004 106.025 117.004 108.51C117.004 110.996 118.162 112.437 119.85 112.437C121.538 112.437 122.697 110.996 122.697 108.51Z" fill="#BABABA"/>
<path d="M141.198 104.06V112.987H140.548V104.636H138.365V104.06H141.198Z" fill="#BABABA"/>
<path d="M158.541 108.51C158.541 105.72 159.984 103.987 162.042 103.987C164.101 103.987 165.539 105.707 165.539 108.51C165.539 111.314 164.097 113.039 162.042 113.039C159.988 113.039 158.541 111.305 158.541 108.51ZM164.889 108.51C164.889 106.025 163.726 104.585 162.042 104.585C160.358 104.585 159.195 106.025 159.195 108.51C159.195 110.996 160.354 112.437 162.042 112.437C163.73 112.437 164.889 110.996 164.889 108.51Z" fill="#EBEBEB"/>
<path d="M179.64 108.51C179.64 105.72 181.083 103.987 183.137 103.987C185.191 103.987 186.638 105.707 186.638 108.51C186.638 111.314 185.195 113.039 183.137 113.039C181.078 113.039 179.64 111.305 179.64 108.51ZM185.983 108.51C185.983 106.025 184.825 104.585 183.137 104.585C181.448 104.585 180.29 106.025 180.29 108.51C180.29 110.996 181.453 112.437 183.137 112.437C184.821 112.437 185.983 110.996 185.983 108.51Z" fill="#BABABA"/>
<path d="M53.0623 67.3766C53.0623 64.5859 54.505 62.853 56.5592 62.853C58.6135 62.853 60.0606 64.573 60.0606 67.3766C60.0606 70.1802 58.6179 71.9045 56.5592 71.9045C54.5006 71.9045 53.0623 70.1716 53.0623 67.3766ZM59.406 67.3766C59.406 64.8912 58.2474 63.4507 56.5592 63.4507C54.8711 63.4507 53.7125 64.8912 53.7125 67.3766C53.7125 69.862 54.8753 71.3068 56.5592 71.3068C58.2432 71.3068 59.406 69.8663 59.406 67.3766Z" fill="#BABABA"/>
<path d="M78.3509 62.9175V71.84H77.7006V63.5023H75.5171V62.9175H78.3509Z" fill="#BABABA"/>
<path d="M95.2551 67.3766C95.2551 64.5859 96.6975 62.853 98.7517 62.853C100.806 62.853 102.253 64.573 102.253 67.3766C102.253 70.1802 100.81 71.9045 98.7517 71.9045C96.6932 71.9045 95.2551 70.1716 95.2551 67.3766ZM101.599 67.3766C101.599 64.8912 100.44 63.4507 98.7517 63.4507C97.0632 63.4507 95.9054 64.8912 95.9054 67.3766C95.9054 69.862 97.0675 71.3068 98.7517 71.3068C100.436 71.3068 101.599 69.8663 101.599 67.3766Z" fill="#EBEBEB"/>
<path d="M116.349 67.3766C116.349 64.5859 117.792 62.853 119.85 62.853C121.908 62.853 123.347 64.573 123.347 67.3766C123.347 70.1802 121.904 71.9045 119.85 71.9045C117.796 71.9045 116.349 70.1716 116.349 67.3766ZM122.697 67.3766C122.697 64.8912 121.534 63.4507 119.85 63.4507C118.167 63.4507 117.004 64.8912 117.004 67.3766C117.004 69.862 118.162 71.3068 119.85 71.3068C121.538 71.3068 122.697 69.8663 122.697 67.3766Z" fill="#BABABA"/>
<path d="M141.202 62.9175V71.84H140.548V63.5023H138.365V62.9175H141.202Z" fill="#BABABA"/>
<path d="M158.541 67.3766C158.541 64.5859 159.984 62.853 162.042 62.853C164.101 62.853 165.539 64.573 165.539 67.3766C165.539 70.1802 164.097 71.9045 162.042 71.9045C159.988 71.9045 158.541 70.1716 158.541 67.3766ZM164.889 67.3766C164.889 64.8912 163.726 63.4507 162.042 63.4507C160.358 63.4507 159.195 64.8912 159.195 67.3766C159.195 69.862 160.354 71.3068 162.042 71.3068C163.73 71.3068 164.889 69.8663 164.889 67.3766Z" fill="#EBEBEB"/>
<path d="M179.64 67.3766C179.64 64.5859 181.083 62.853 183.137 62.853C185.191 62.853 186.638 64.573 186.638 67.3766C186.638 70.1802 185.195 71.9045 183.137 71.9045C181.078 71.9045 179.64 70.1716 179.64 67.3766ZM185.983 67.3766C185.983 64.8912 184.825 63.4507 183.137 63.4507C181.448 63.4507 180.29 64.8912 180.29 67.3766C180.29 69.862 181.453 71.3068 183.137 71.3068C184.821 71.3068 185.983 69.8663 185.983 67.3766Z" fill="#BABABA"/>
<path d="M53.0623 87.3975C53.0623 84.6025 54.505 82.8696 56.5592 82.8696C58.6135 82.8696 60.0606 84.5896 60.0606 87.3975C60.0606 90.2053 58.6179 91.921 56.5592 91.921C54.5006 91.921 53.0623 90.1883 53.0623 87.3975ZM59.406 87.3975C59.406 84.9121 58.2474 83.4716 56.5592 83.4716C54.8711 83.4716 53.7125 84.9121 53.7125 87.3975C53.7125 89.8828 54.8753 91.3238 56.5592 91.3238C58.2432 91.3238 59.406 89.87 59.406 87.3975Z" fill="#BABABA"/>
<path d="M74.1565 87.3975C74.1565 84.6025 75.5992 82.8696 77.6578 82.8696C79.7164 82.8696 81.1548 84.5896 81.1548 87.3975C81.1548 90.2053 79.7121 91.921 77.6578 91.921C75.6035 91.921 74.1565 90.1883 74.1565 87.3975ZM80.5045 87.3975C80.5045 84.9121 79.3418 83.4716 77.6578 83.4716C75.9739 83.4716 74.8111 84.9121 74.8111 87.3975C74.8111 89.8828 75.9696 91.3238 77.6578 91.3238C79.346 91.3238 80.5045 89.87 80.5045 87.3975Z" fill="#EBEBEB"/>
<path d="M95.2551 87.3975C95.2551 84.6025 96.6975 82.8696 98.7517 82.8696C100.806 82.8696 102.253 84.5896 102.253 87.3975C102.253 90.2053 100.81 91.921 98.7517 91.921C96.6932 91.921 95.2551 90.1883 95.2551 87.3975ZM101.599 87.3975C101.599 84.9121 100.44 83.4716 98.7517 83.4716C97.0632 83.4716 95.9054 84.9121 95.9054 87.3975C95.9054 89.8828 97.0675 91.3238 98.7517 91.3238C100.436 91.3238 101.599 89.87 101.599 87.3975Z" fill="#BABABA"/>
<path d="M120.543 82.9341V91.8562H119.893V83.5189H117.709V82.9341H120.543Z" fill="#BABABA"/>
<path d="M137.008 87.9435C137.008 85.1528 138.451 83.4199 140.505 83.4199C142.559 83.4199 144.002 85.1399 144.002 87.9435C144.002 90.747 142.559 92.4713 140.505 92.4713C138.451 92.4713 137.008 90.7299 137.008 87.9435ZM143.351 87.9435C143.351 85.4582 142.189 84.0177 140.505 84.0177C138.821 84.0177 137.658 85.4582 137.658 87.9435C137.658 90.4288 138.821 91.8698 140.505 91.8698C142.189 91.8698 143.351 90.4288 143.351 87.9435Z" fill="#EBEBEB"/>
<path d="M158.541 87.3975C158.541 84.6025 159.984 82.8696 162.042 82.8696C164.101 82.8696 165.539 84.5896 165.539 87.3975C165.539 90.2053 164.097 91.921 162.042 91.921C159.988 91.921 158.541 90.1883 158.541 87.3975ZM164.889 87.3975C164.889 84.9121 163.726 83.4716 162.042 83.4716C160.358 83.4716 159.195 84.9121 159.195 87.3975C159.195 89.8828 160.354 91.3238 162.042 91.3238C163.73 91.3238 164.889 89.87 164.889 87.3975Z" fill="#BABABA"/>
<path d="M183.834 82.9341V91.8562H183.184V83.5189H180.996V82.9341H183.834Z" fill="#BABABA"/>
<path d="M53.0623 28.1006C53.0623 25.3099 54.505 23.5728 56.5592 23.5728C58.6135 23.5728 60.0606 25.2928 60.0606 28.1006C60.0606 30.9085 58.6179 32.6243 56.5592 32.6243C54.5006 32.6243 53.0623 30.8914 53.0623 28.1006ZM59.406 28.1006C59.406 25.6153 58.2474 24.1748 56.5592 24.1748C54.8711 24.1748 53.7125 25.6153 53.7125 28.1006C53.7125 30.586 54.8753 32.0265 56.5592 32.0265C58.2432 32.0265 59.406 30.586 59.406 28.1006Z" fill="#BABABA"/>
<path d="M78.3509 23.6499V32.5638H77.7006V24.2261H75.5171V23.6499H78.3509Z" fill="#BABABA"/>
<path d="M95.2551 28.1006C95.2551 25.3099 96.6975 23.5728 98.7517 23.5728C100.806 23.5728 102.253 25.2928 102.253 28.1006C102.253 30.9085 100.81 32.6243 98.7517 32.6243C96.6932 32.6243 95.2551 30.8914 95.2551 28.1006ZM101.599 28.1006C101.599 25.6153 100.44 24.1748 98.7517 24.1748C97.0632 24.1748 95.9054 25.6153 95.9054 28.1006C95.9054 30.586 97.0675 32.0265 98.7517 32.0265C100.436 32.0265 101.599 30.586 101.599 28.1006Z" fill="#EBEBEB"/>
<path d="M116.349 28.1006C116.349 25.3099 117.792 23.5728 119.85 23.5728C121.908 23.5728 123.347 25.2928 123.347 28.1006C123.347 30.9085 121.904 32.6243 119.85 32.6243C117.796 32.6243 116.349 30.8914 116.349 28.1006ZM122.697 28.1006C122.697 25.6153 121.534 24.1748 119.85 24.1748C118.167 24.1748 117.004 25.6153 117.004 28.1006C117.004 30.586 118.162 32.0265 119.85 32.0265C121.538 32.0265 122.697 30.586 122.697 28.1006Z" fill="#BABABA"/>
<path d="M141.202 23.6499V32.5638H140.548V24.2261H138.365V23.6499H141.202Z" fill="#BABABA"/>
<path d="M158.541 28.1006C158.541 25.3099 159.984 23.5728 162.042 23.5728C164.101 23.5728 165.539 25.2928 165.539 28.1006C165.539 30.9085 164.084 32.6243 162.042 32.6243C160.001 32.6243 158.541 30.8914 158.541 28.1006ZM164.889 28.1006C164.889 25.6153 163.726 24.1748 162.042 24.1748C160.358 24.1748 159.195 25.6153 159.195 28.1006C159.195 30.586 160.354 32.0265 162.042 32.0265C163.73 32.0265 164.889 30.586 164.889 28.1006Z" fill="#EBEBEB"/>
<path d="M179.64 28.1006C179.64 25.3099 181.083 23.5728 183.137 23.5728C185.191 23.5728 186.638 25.2928 186.638 28.1006C186.638 30.9085 185.187 32.6243 183.137 32.6243C181.087 32.6243 179.64 30.8914 179.64 28.1006ZM185.983 28.1006C185.983 25.6153 184.825 24.1748 183.137 24.1748C181.448 24.1748 180.29 25.6153 180.29 28.1006C180.29 30.586 181.453 32.0265 183.137 32.0265C184.821 32.0265 185.983 30.586 185.983 28.1006Z" fill="#BABABA"/>
<path d="M53.0623 48.1168C53.0623 45.3261 54.505 43.5933 56.5592 43.5933C58.6135 43.5933 60.0606 45.3133 60.0606 48.1168C60.0606 50.9204 58.6179 52.6448 56.5592 52.6448C54.5006 52.6448 53.0623 50.9075 53.0623 48.1168ZM59.406 48.1168C59.406 45.6314 58.2474 44.1909 56.5592 44.1909C54.8711 44.1909 53.7125 45.6314 53.7125 48.1168C53.7125 50.6023 54.8753 52.0428 56.5592 52.0428C58.2432 52.0428 59.406 50.6023 59.406 48.1168Z" fill="#BABABA"/>
<path d="M74.1565 48.1168C74.1565 45.3261 75.5992 43.5933 77.6578 43.5933C79.7164 43.5933 81.1548 45.3133 81.1548 48.1168C81.1548 50.9204 79.7121 52.6448 77.6578 52.6448C75.6035 52.6448 74.1565 50.9075 74.1565 48.1168ZM80.5045 48.1168C80.5045 45.6314 79.3418 44.1909 77.6578 44.1909C75.9739 44.1909 74.8111 45.6314 74.8111 48.1168C74.8111 50.6023 75.9696 52.0428 77.6578 52.0428C79.346 52.0428 80.5045 50.6023 80.5045 48.1168Z" fill="#EBEBEB"/>
<path d="M95.2551 48.1168C95.2551 45.3261 96.6975 43.5933 98.7517 43.5933C100.806 43.5933 102.253 45.3133 102.253 48.1168C102.253 50.9204 100.81 52.6448 98.7517 52.6448C96.6932 52.6448 95.2551 50.9075 95.2551 48.1168ZM101.599 48.1168C101.599 45.6314 100.44 44.1909 98.7517 44.1909C97.0632 44.1909 95.9054 45.6314 95.9054 48.1168C95.9054 50.6023 97.0675 52.0428 98.7517 52.0428C100.436 52.0428 101.599 50.6023 101.599 48.1168Z" fill="#BABABA"/>
<path d="M120.543 43.6533V52.5802H119.893V44.2424H117.709V43.6533H120.543Z" fill="#BABABA"/>
<path d="M137.008 48.6675C137.008 45.8725 138.451 44.1396 140.505 44.1396C142.559 44.1396 144.002 45.8597 144.002 48.6675C144.002 51.4754 142.551 53.1911 140.505 53.1911C138.459 53.1911 137.008 51.4583 137.008 48.6675ZM143.351 48.6675C143.351 46.1779 142.189 44.7416 140.505 44.7416C138.821 44.7416 137.658 46.1779 137.658 48.6675C137.658 51.1573 138.821 52.5934 140.505 52.5934C142.189 52.5934 143.351 51.1702 143.351 48.6675Z" fill="#EBEBEB"/>
<path d="M158.541 48.1168C158.541 45.3261 159.984 43.5933 162.042 43.5933C164.101 43.5933 165.539 45.3133 165.539 48.1168C165.539 50.9204 164.097 52.6448 162.042 52.6448C159.988 52.6448 158.541 50.9075 158.541 48.1168ZM164.889 48.1168C164.889 45.6314 163.726 44.1909 162.042 44.1909C160.358 44.1909 159.195 45.6314 159.195 48.1168C159.195 50.6023 160.354 52.0428 162.042 52.0428C163.73 52.0428 164.889 50.6023 164.889 48.1168Z" fill="#BABABA"/>
<path d="M183.834 43.6533V52.5802H183.184V44.2424H180.996V43.6533H183.834Z" fill="#BABABA"/>
<path d="M200.897 108.51C200.897 105.72 202.34 103.987 204.394 103.987C206.449 103.987 207.896 105.707 207.896 108.51C207.896 111.314 206.453 113.039 204.394 113.039C202.336 113.039 200.897 111.305 200.897 108.51ZM207.241 108.51C207.241 106.025 206.083 104.585 204.394 104.585C202.706 104.585 201.548 106.025 201.548 108.51C201.548 110.996 202.711 112.437 204.394 112.437C206.078 112.437 207.241 110.996 207.241 108.51Z" fill="#EBEBEB"/>
<path d="M221.996 108.51C221.996 105.72 223.434 103.987 225.492 103.987C227.552 103.987 228.99 105.707 228.99 108.51C228.99 111.314 227.547 113.039 225.492 113.039C223.438 113.039 221.996 111.305 221.996 108.51ZM228.34 108.51C228.34 106.025 227.177 104.585 225.492 104.585C223.809 104.585 222.646 106.025 222.646 108.51C222.646 110.996 223.809 112.437 225.492 112.437C227.177 112.437 228.34 110.996 228.34 108.51Z" fill="#BABABA"/>
<path d="M246.845 104.06V112.987H246.19V104.636H244.007V104.06H246.845Z" fill="#BABABA"/>
<path d="M264.188 108.51C264.188 105.72 265.626 103.987 267.685 103.987C269.743 103.987 271.182 105.707 271.182 108.51C271.182 111.314 269.739 113.039 267.685 113.039C265.631 113.039 264.188 111.305 264.188 108.51ZM270.531 108.51C270.531 106.025 269.368 104.585 267.685 104.585C266.001 104.585 264.838 106.025 264.838 108.51C264.838 110.996 266.001 112.437 267.685 112.437C269.368 112.437 270.531 110.996 270.531 108.51Z" fill="#EBEBEB"/>
<path d="M200.897 67.3766C200.897 64.5859 202.34 62.853 204.394 62.853C206.449 62.853 207.896 64.573 207.896 67.3766C207.896 70.1802 206.453 71.9045 204.394 71.9045C202.336 71.9045 200.897 70.1716 200.897 67.3766ZM207.241 67.3766C207.241 64.8912 206.083 63.4507 204.394 63.4507C202.706 63.4507 201.548 64.8912 201.548 67.3766C201.548 69.862 202.711 71.3068 204.394 71.3068C206.078 71.3068 207.241 69.8663 207.241 67.3766Z" fill="#EBEBEB"/>
<path d="M221.996 67.3766C221.996 64.5859 223.434 62.853 225.492 62.853C227.552 62.853 228.99 64.573 228.99 67.3766C228.99 70.1802 227.547 71.9045 225.492 71.9045C223.438 71.9045 221.996 70.1716 221.996 67.3766ZM228.34 67.3766C228.34 64.8912 227.177 63.4507 225.492 63.4507C223.809 63.4507 222.646 64.8912 222.646 67.3766C222.646 69.862 223.809 71.3068 225.492 71.3068C227.177 71.3068 228.34 69.8663 228.34 67.3766Z" fill="#BABABA"/>
<path d="M246.845 62.9175V71.84H246.19V63.5023H244.007V62.9175H246.845Z" fill="#BABABA"/>
<path d="M264.188 67.3766C264.188 64.5859 265.631 62.853 267.685 62.853C269.739 62.853 271.182 64.573 271.182 67.3766C271.182 70.1802 269.739 71.9045 267.685 71.9045C265.631 71.9045 264.188 70.1716 264.188 67.3766ZM270.531 67.3766C270.531 64.8912 269.368 63.4507 267.685 63.4507C266.001 63.4507 264.838 64.8912 264.838 67.3766C264.838 69.862 266.001 71.3068 267.685 71.3068C269.368 71.3068 270.531 69.8663 270.531 67.3766Z" fill="#EBEBEB"/>
<path d="M200.897 87.3975C200.897 84.6025 202.34 82.8696 204.394 82.8696C206.449 82.8696 207.896 84.5896 207.896 87.3975C207.896 90.2053 206.453 91.921 204.394 91.921C202.336 91.921 200.897 90.1883 200.897 87.3975ZM207.246 87.3975C207.246 84.9121 206.083 83.4716 204.394 83.4716C202.706 83.4716 201.548 84.9121 201.548 87.3975C201.548 89.8828 202.711 91.3238 204.394 91.3238C206.078 91.3238 207.246 89.87 207.246 87.3975Z" fill="#BABABA"/>
<path d="M226.186 82.9341V91.8562H225.536V83.5189H223.352V82.9341H226.186Z" fill="#BABABA"/>
<path d="M242.651 87.9435C242.651 85.1528 244.093 83.4199 246.147 83.4199C248.202 83.4199 249.649 85.1399 249.649 87.9435C249.649 90.747 248.202 92.4713 246.147 92.4713C244.093 92.4713 242.651 90.7299 242.651 87.9435ZM248.995 87.9435C248.995 85.4582 247.836 84.0177 246.147 84.0177C244.46 84.0177 243.301 85.4582 243.301 87.9435C243.301 90.4288 244.464 91.8698 246.147 91.8698C247.832 91.8698 248.995 90.4288 248.995 87.9435Z" fill="#EBEBEB"/>
<path d="M264.188 87.3975C264.188 84.6025 265.631 82.8696 267.685 82.8696C269.739 82.8696 271.182 84.5896 271.182 87.3975C271.182 90.2053 269.739 91.921 267.685 91.921C265.631 91.921 264.188 90.1883 264.188 87.3975ZM270.531 87.3975C270.531 84.9121 269.368 83.4716 267.685 83.4716C266.001 83.4716 264.838 84.9121 264.838 87.3975C264.838 89.8828 266.001 91.3238 267.685 91.3238C269.368 91.3238 270.531 89.87 270.531 87.3975Z" fill="#BABABA"/>
<path d="M200.897 28.1006C200.897 25.3099 202.34 23.5728 204.394 23.5728C206.449 23.5728 207.896 25.2928 207.896 28.1006C207.896 30.9085 206.453 32.6243 204.394 32.6243C202.336 32.6243 200.897 30.8914 200.897 28.1006ZM207.241 28.1006C207.241 25.6153 206.083 24.1748 204.394 24.1748C202.706 24.1748 201.552 25.6153 201.552 28.1006C201.552 30.586 202.715 32.0265 204.398 32.0265C206.083 32.0265 207.241 30.586 207.241 28.1006Z" fill="#EBEBEB"/>
<path d="M221.996 28.1006C221.996 25.3099 223.434 23.5728 225.492 23.5728C227.552 23.5728 228.99 25.2928 228.99 28.1006C228.99 30.9085 227.547 32.6243 225.492 32.6243C223.438 32.6243 221.996 30.8914 221.996 28.1006ZM228.34 28.1006C228.34 25.6153 227.177 24.1748 225.492 24.1748C223.809 24.1748 222.655 25.6153 222.655 28.1006C222.655 30.586 223.818 32.0265 225.501 32.0265C227.185 32.0265 228.34 30.586 228.34 28.1006Z" fill="#BABABA"/>
<path d="M246.845 23.6499V32.5638H246.19V24.2261H244.007V23.6499H246.845Z" fill="#BABABA"/>
<path d="M264.188 28.1006C264.188 25.3099 265.631 23.5728 267.685 23.5728C269.739 23.5728 271.182 25.2928 271.182 28.1006C271.182 30.9085 269.739 32.6243 267.685 32.6243C265.631 32.6243 264.188 30.8914 264.188 28.1006ZM270.531 28.1006C270.531 25.6153 269.368 24.1748 267.685 24.1748C266.001 24.1748 264.86 25.6153 264.86 28.1006C264.86 30.586 266.022 32.0265 267.706 32.0265C269.391 32.0265 270.531 30.586 270.531 28.1006Z" fill="#EBEBEB"/>
<path d="M200.897 48.1168C200.897 45.3261 202.34 43.5933 204.394 43.5933C206.449 43.5933 207.896 45.3133 207.896 48.1168C207.896 50.9204 206.453 52.6448 204.394 52.6448C202.336 52.6448 200.897 50.9075 200.897 48.1168ZM207.246 48.1168C207.246 45.6314 206.083 44.1909 204.394 44.1909C202.706 44.1909 201.552 45.6314 201.552 48.1168C201.552 50.6023 202.715 52.0428 204.398 52.0428C206.083 52.0428 207.246 50.6023 207.246 48.1168Z" fill="#BABABA"/>
<path d="M226.186 43.6533V52.5802H225.536V44.2424H223.352V43.6533H226.186Z" fill="#BABABA"/>
<path d="M242.651 48.6675C242.651 45.8725 244.093 44.1396 246.147 44.1396C248.202 44.1396 249.649 45.8597 249.649 48.6675C249.649 51.4754 248.202 53.1911 246.147 53.1911C244.093 53.1911 242.651 51.4583 242.651 48.6675ZM248.995 48.6675C248.995 46.1779 247.836 44.7416 246.147 44.7416C244.46 44.7416 243.301 46.1779 243.301 48.6675C243.301 51.1573 244.464 52.5934 246.147 52.5934C247.832 52.5934 248.995 51.1702 248.995 48.6675Z" fill="#EBEBEB"/>
<path d="M264.188 48.1168C264.188 45.3261 265.631 43.5933 267.685 43.5933C269.739 43.5933 271.182 45.3133 271.182 48.1168C271.182 50.9204 269.739 52.6448 267.685 52.6448C265.631 52.6448 264.188 50.9075 264.188 48.1168ZM270.531 48.1168C270.531 45.6314 269.368 44.1909 267.685 44.1909C266.001 44.1909 264.86 45.6314 264.86 48.1168C264.86 50.6023 266.022 52.0428 267.706 52.0428C269.391 52.0428 270.531 50.6023 270.531 48.1168Z" fill="#BABABA"/>
<path d="M241.815 58.1445H81.2193C77.7538 58.1445 74.9446 60.9495 74.9446 64.4096V166.199C74.9446 169.66 77.7538 172.464 81.2193 172.464H241.815C245.281 172.464 248.09 169.66 248.09 166.199V64.4096C248.09 60.9495 245.281 58.1445 241.815 58.1445Z" fill="#1D1D1D"/>
<path d="M67.7052 164.011H255.295V166.363C255.295 168.393 254.487 170.34 253.05 171.775C251.612 173.211 249.662 174.017 247.629 174.017H75.3668C73.3337 174.017 71.3838 173.211 69.9462 171.775C68.5086 170.34 67.7009 168.393 67.7009 166.363V164.011H67.7052Z" fill="#1D1D1D"/>
<path d="M242.961 62.6895H79.5959V159.233H242.961V62.6895Z" fill="#BABABA"/>
<path d="M144.45 164.011L146.775 167.708H179.532L181.694 164.011H144.45Z" fill="#8B8B8B"/>
<path d="M238.521 65.9575H84.368C83.5903 65.9575 82.9597 66.5871 82.9597 67.3636V157.517C82.9597 158.294 83.5903 158.923 84.368 158.923H238.521C239.299 158.923 239.929 158.294 239.929 157.517V67.3636C239.929 66.5871 239.299 65.9575 238.521 65.9575Z" fill="#8B8B8B"/>
<path d="M239.929 72.769H82.9597V158.924H239.929V72.769Z" fill="#FAFAFA"/>
<path d="M95.8319 69.5481C95.831 69.7953 95.7567 70.0369 95.6182 70.2421C95.4807 70.4473 95.2841 70.607 95.0551 70.7011C94.8261 70.7951 94.574 70.8192 94.3314 70.7705C94.0887 70.7217 93.8657 70.6022 93.6913 70.427C93.5162 70.2519 93.3974 70.0289 93.3496 69.7863C93.3008 69.5437 93.3265 69.2923 93.4213 69.0639C93.5162 68.8355 93.6768 68.6403 93.8828 68.503C94.0887 68.3658 94.3314 68.2925 94.5783 68.2925C94.7432 68.2925 94.9073 68.325 95.0594 68.3881C95.2115 68.4513 95.3499 68.5438 95.4661 68.6605C95.5832 68.7772 95.6746 68.9156 95.7379 69.0679C95.8003 69.2202 95.8327 69.3833 95.8319 69.5481Z" fill="#121212"/>
<path d="M88.2355 69.5481C88.2346 69.7953 88.1603 70.0369 88.0218 70.2421C87.8843 70.4473 87.6877 70.607 87.4587 70.7011C87.2297 70.7951 86.9776 70.8192 86.735 70.7705C86.4923 70.7217 86.2692 70.6022 86.0941 70.427C85.9198 70.2519 85.801 70.0289 85.7523 69.7863C85.7044 69.5437 85.7301 69.2923 85.8249 69.0639C85.9198 68.8355 86.0804 68.6403 86.2863 68.503C86.4923 68.3658 86.7341 68.2925 86.9819 68.2925C87.1468 68.2925 87.31 68.325 87.463 68.3881C87.6151 68.4513 87.7535 68.5438 87.8697 68.6605C87.9859 68.7772 88.0782 68.9156 88.1415 69.0679C88.2038 69.2202 88.2363 69.3833 88.2355 69.5481Z" fill="#121212"/>
<path d="M91.8825 69.5481C91.8817 69.7953 91.8082 70.0369 91.6697 70.2421C91.5313 70.4473 91.3356 70.607 91.1066 70.7011C90.8776 70.7951 90.6256 70.8192 90.3829 70.7705C90.1393 70.7217 89.9172 70.6022 89.742 70.427C89.5668 70.2519 89.4481 70.0289 89.4002 69.7863C89.3523 69.5437 89.3771 69.2923 89.472 69.0639C89.5668 68.8355 89.7275 68.6403 89.9343 68.503C90.1402 68.3658 90.382 68.2925 90.6298 68.2925C90.7947 68.2925 90.9579 68.325 91.1101 68.3881C91.263 68.4513 91.4006 68.5438 91.5176 68.6605C91.6339 68.7772 91.7261 68.9156 91.7885 69.0679C91.8518 69.2202 91.8834 69.3833 91.8825 69.5481Z" fill="#121212"/>
<path d="M200.368 108.653L200.855 108.613C201.014 108.613 201.212 108.562 201.449 108.523C201.717 108.461 201.98 108.38 202.237 108.282C202.96 108.005 203.613 107.572 204.149 107.014C204.488 106.659 204.778 106.259 205.01 105.827C205.269 105.33 205.448 104.796 205.54 104.245C205.661 103.535 205.635 102.808 205.461 102.109C205.288 101.41 204.973 100.755 204.534 100.183C204.095 99.6114 203.543 99.1362 202.912 98.7873C202.282 98.4392 201.585 98.2242 200.868 98.1559C200.437 98.1261 200.006 98.1303 199.576 98.1303H195.437H189.339L122.525 98.1602C121.324 98.1662 120.163 98.5851 119.236 99.3461C118.309 100.108 117.672 101.165 117.434 102.34C117.283 103.108 117.305 103.899 117.499 104.658C117.795 105.778 118.457 106.768 119.382 107.469C120.306 108.17 121.438 108.542 122.598 108.528H124.916H142.654L172.693 108.549L192.934 108.588H198.438H199.873H200.359C200.359 108.588 200.196 108.588 199.873 108.588H198.438L192.934 108.609L172.693 108.644L142.654 108.67H122.598C121.801 108.683 121.011 108.517 120.286 108.183C119.548 107.852 118.893 107.359 118.372 106.741C117.85 106.124 117.474 105.397 117.271 104.614C117.063 103.822 117.04 102.993 117.204 102.19C117.367 101.387 117.713 100.632 118.214 99.9834C118.721 99.3239 119.373 98.7898 120.12 98.4221C120.867 98.0552 121.688 97.8633 122.52 97.8633L189.334 97.8983H195.433H199.58C200.011 97.8983 200.441 97.8983 200.872 97.9281C201.746 98.0168 202.585 98.318 203.315 98.806C204.045 99.2941 204.644 99.9536 205.059 100.727C205.473 101.5 205.691 102.364 205.694 103.242C205.695 104.119 205.482 104.983 205.071 105.759C204.829 106.195 204.533 106.597 204.188 106.958C203.639 107.515 202.974 107.946 202.242 108.223C201.98 108.317 201.712 108.395 201.44 108.455C201.203 108.489 201.009 108.523 200.846 108.536C200.536 108.653 200.368 108.653 200.368 108.653Z" fill="#1D1D1D"/>
<path d="M200.368 108.652H190.182V98.0654H200.368C201.773 98.0654 203.123 98.6234 204.116 99.6156C205.111 100.609 205.669 101.955 205.669 103.359C205.669 104.763 205.111 106.109 204.116 107.102C203.123 108.094 201.773 108.652 200.368 108.652Z" fill="#121212"/>
<path d="M198.589 102.362C198.567 102.362 198.567 102.186 198.482 101.88C198.358 101.457 198.097 101.086 197.741 100.827C197.52 100.662 197.267 100.546 196.997 100.488C196.728 100.43 196.451 100.43 196.181 100.488C195.912 100.547 195.658 100.662 195.439 100.827C195.218 100.992 195.036 101.202 194.904 101.444C194.772 101.685 194.694 101.951 194.674 102.226C194.654 102.5 194.694 102.775 194.79 103.033C194.887 103.29 195.037 103.524 195.232 103.718C195.427 103.913 195.661 104.063 195.919 104.159C196.221 104.269 196.545 104.303 196.864 104.258C197.183 104.214 197.485 104.091 197.745 103.901C198.1 103.639 198.359 103.267 198.482 102.844C198.567 102.542 198.567 102.362 198.589 102.362C198.597 102.406 198.597 102.451 198.589 102.495C198.596 102.619 198.584 102.744 198.554 102.865C198.455 103.325 198.197 103.735 197.826 104.026C197.549 104.243 197.22 104.387 196.872 104.444C196.523 104.501 196.166 104.47 195.833 104.353C195.422 104.206 195.066 103.936 194.814 103.581C194.563 103.224 194.428 102.799 194.428 102.364C194.428 101.928 194.563 101.503 194.814 101.147C195.066 100.791 195.422 100.521 195.833 100.375C196.165 100.256 196.522 100.223 196.871 100.28C197.22 100.336 197.549 100.479 197.826 100.698C198.197 100.989 198.454 101.399 198.554 101.858C198.584 101.981 198.596 102.107 198.589 102.233C198.597 102.275 198.597 102.319 198.589 102.362Z" fill="white"/>
<path d="M201.298 105.729C200.719 105.468 200.169 105.146 199.662 104.765C199.116 104.446 198.608 104.065 198.15 103.63C199.281 104.204 200.339 104.912 201.298 105.741V105.729Z" fill="white"/>
<path d="M123.804 106.334C123.693 105.335 123.655 104.329 123.692 103.324C123.655 102.32 123.692 101.314 123.804 100.314C123.916 101.314 123.953 102.32 123.916 103.324C123.953 104.329 123.916 105.335 123.804 106.334Z" fill="#8B8B8B"/>
<path d="M136.358 126.911H110.909V151.493H136.358V126.911Z" fill="#BABABA"/>
<path d="M112.887 149.391L119.924 136.74L125.682 144.824L129.183 140.533L134.386 149.391H112.887Z" fill="#121212"/>
<path d="M128.136 134.28C128.137 134.643 128.03 134.998 127.829 135.3C127.628 135.602 127.341 135.837 127.006 135.976C126.671 136.115 126.301 136.152 125.945 136.081C125.589 136.01 125.262 135.836 125.004 135.58C124.747 135.324 124.573 134.997 124.502 134.641C124.431 134.285 124.468 133.917 124.608 133.581C124.747 133.247 124.983 132.96 125.285 132.76C125.587 132.558 125.943 132.452 126.306 132.453C126.791 132.453 127.257 132.645 127.6 132.988C127.944 133.331 128.136 133.796 128.136 134.28Z" fill="#121212"/>
<path d="M134.368 149.459C134.368 149.459 134.368 149.421 134.368 149.356C134.368 149.292 134.368 149.189 134.368 149.073C134.368 148.809 134.368 148.439 134.368 147.963C134.368 146.991 134.368 145.581 134.338 143.792C134.338 140.201 134.308 135.085 134.286 128.949L134.389 129.052H112.891C112.86 129.078 113.119 128.823 113.012 128.935V131.709C113.012 132.632 113.012 133.545 113.012 134.448V139.75C113.012 143.19 113.012 146.445 113.012 149.442L112.908 149.335L128.451 149.391L132.839 149.417H134.002H134.304H134.407H134.317H134.024H132.882L128.52 149.446L112.908 149.498H112.801V149.395C112.801 146.385 112.801 143.143 112.801 139.703V134.47C112.801 133.567 112.801 132.653 112.801 131.73V128.957C112.693 129.061 112.951 128.802 112.925 128.832H134.424H134.532V128.935C134.507 135.102 134.489 140.236 134.476 143.844C134.476 145.624 134.454 147.026 134.45 147.993C134.45 148.462 134.45 148.823 134.45 149.081C134.45 149.197 134.45 149.288 134.45 149.356C134.43 149.395 134.401 149.43 134.368 149.459Z" fill="#8B8B8B"/>
<path d="M176.866 126.911H151.419V151.493H176.866V126.911Z" fill="#121212"/>
<path d="M153.391 149.391L160.432 136.74L166.19 144.824L169.687 140.533L174.893 149.391H153.391Z" fill="#BABABA"/>
<path d="M168.641 134.28C168.641 134.642 168.533 134.995 168.333 135.295C168.131 135.596 167.846 135.83 167.511 135.969C167.177 136.107 166.808 136.143 166.454 136.073C166.098 136.002 165.773 135.828 165.516 135.573C165.261 135.317 165.086 134.991 165.015 134.637C164.945 134.282 164.981 133.915 165.12 133.581C165.258 133.247 165.492 132.961 165.794 132.761C166.095 132.56 166.448 132.453 166.811 132.453C167.296 132.453 167.762 132.645 168.104 132.988C168.448 133.331 168.641 133.796 168.641 134.28Z" fill="#BABABA"/>
<path d="M174.893 149.459C174.893 149.459 174.893 149.421 174.893 149.356C174.893 149.292 174.893 149.189 174.893 149.073C174.893 148.809 174.893 148.439 174.893 147.963C174.893 146.991 174.893 145.581 174.868 143.792C174.868 140.201 174.838 135.085 174.816 128.949L174.92 129.052H153.421L153.537 128.935V134.448C153.537 136.255 153.537 138.02 153.537 139.746C153.537 143.186 153.537 146.441 153.537 149.438L153.429 149.33L168.976 149.387L173.36 149.412H174.523H174.825H174.933H174.838H174.549H173.404L169.045 149.442L153.429 149.494H153.326V149.391C153.326 146.381 153.326 143.139 153.326 139.699C153.326 137.979 153.326 136.213 153.326 134.401V128.957C153.218 129.061 153.472 128.802 153.451 128.832H174.95H175.053V128.935C175.053 135.102 175.015 140.236 175.001 143.844C175.001 145.624 174.98 147.026 174.971 147.993C174.971 148.462 174.971 148.823 174.971 149.081C174.971 149.197 174.971 149.288 174.971 149.356C174.949 149.393 174.922 149.428 174.893 149.459Z" fill="#8B8B8B"/>
<path d="M217.375 126.911H191.927V151.493H217.375V126.911Z" fill="#BABABA"/>
<path d="M193.899 149.391L200.936 136.74L206.694 144.824L210.195 140.533L215.398 149.391H193.899Z" fill="#121212"/>
<path d="M209.149 134.28C209.15 134.643 209.043 134.998 208.842 135.3C208.641 135.602 208.354 135.837 208.019 135.976C207.683 136.115 207.314 136.152 206.958 136.081C206.601 136.01 206.274 135.836 206.018 135.58C205.76 135.324 205.585 134.997 205.515 134.641C205.444 134.285 205.481 133.917 205.62 133.581C205.76 133.247 205.995 132.96 206.298 132.76C206.6 132.558 206.956 132.452 207.319 132.453C207.804 132.453 208.27 132.645 208.613 132.988C208.956 133.331 209.149 133.796 209.149 134.28Z" fill="#121212"/>
<path d="M215.403 149.459C215.399 149.425 215.399 149.391 215.403 149.356C215.403 149.283 215.403 149.189 215.403 149.073C215.403 148.809 215.403 148.439 215.403 147.963C215.403 146.991 215.403 145.581 215.377 143.792C215.377 140.201 215.342 135.085 215.321 128.949L215.428 129.052H193.925C193.899 129.078 194.154 128.823 194.046 128.935V134.448C194.046 136.255 194.046 138.02 194.046 139.746C194.046 143.186 194.046 146.441 194.046 149.438L193.943 149.33L209.49 149.387L213.874 149.412H215.037H215.338H215.445H215.351H215.058H213.917L209.554 149.442L193.943 149.494H193.8V149.391C193.8 146.381 193.8 143.139 193.8 139.699C193.8 137.979 193.8 136.213 193.8 134.401V128.957C193.692 129.061 193.947 128.802 193.921 128.832H215.424H215.527V128.935C215.527 135.102 215.485 140.236 215.472 143.844C215.472 145.624 215.472 147.026 215.445 147.993C215.445 148.462 215.445 148.823 215.445 149.081C215.445 149.197 215.445 149.288 215.445 149.356C215.445 149.425 215.403 149.459 215.403 149.459Z" fill="#8B8B8B"/>
<path d="M177.56 85.6211H145.329V88.318H177.56V85.6211Z" fill="#8B8B8B"/>
<path d="M246.604 164.011C246.604 164.075 208.171 164.122 160.776 164.122C113.381 164.122 74.9446 164.075 74.9446 164.011C74.9446 163.946 113.369 163.899 160.776 163.899C208.185 163.899 246.604 163.95 246.604 164.011Z" fill="#8B8B8B"/>
<path d="M50.4353 116.935C47.9977 117.33 46.9082 120.323 47.1191 122.778C47.3302 125.233 48.3465 127.641 48.0752 130.088C47.7307 133.201 45.3749 135.833 45.0994 138.955C44.7764 142.636 47.3819 145.899 48.1614 149.511C48.5403 151.27 48.4844 153.127 49.139 154.8C49.6955 156.228 50.7312 157.419 52.0691 158.169C53.407 158.918 54.9643 159.181 56.4748 158.912C57.9853 158.643 59.3554 157.859 60.351 156.693C61.3467 155.527 61.9063 154.053 61.9341 152.521C61.9858 149.696 60.2416 147.035 60.4526 144.214C60.6076 142.132 61.8308 140.155 61.5724 138.082C61.2579 135.618 58.9884 133.868 58.1615 131.515C57.3346 129.164 58.1313 126.57 57.8514 124.098C57.3518 119.665 54.8884 116.577 50.4353 116.93" fill="#121212"/>
<path d="M37.9802 138.399C37.5496 142.507 39.3842 147.34 41.4988 150.869C43.6403 154.44 46.8656 157.235 50.7064 158.851C51.1371 159.031 51.6754 159.182 52.0372 158.889C52.1654 158.748 52.2618 158.58 52.3197 158.399C52.3776 158.217 52.3958 158.025 52.3731 157.836C52.4028 153.476 51.0163 149.223 48.4214 145.716C45.8266 142.209 42.1632 139.636 37.9802 138.382" fill="#121212"/>
<path opacity="0.2" d="M37.9802 138.399C37.5496 142.507 39.3842 147.34 41.4988 150.869C43.6403 154.44 46.8656 157.235 50.7064 158.851C51.1371 159.031 51.6754 159.182 52.0372 158.889C52.1654 158.748 52.2618 158.58 52.3197 158.399C52.3776 158.217 52.3958 158.025 52.3731 157.836C52.4028 153.476 51.0163 149.223 48.4214 145.716C45.8266 142.209 42.1632 139.636 37.9802 138.382" fill="black"/>
<path d="M55.9006 167.455C55.8523 167.384 55.8132 167.308 55.7843 167.227L55.4871 166.552C55.2416 165.967 54.8713 165.124 54.4018 164.088C53.1766 161.389 51.814 158.754 50.3191 156.193C48.8155 153.641 47.1841 151.167 45.4311 148.78C44.7592 147.86 44.2037 147.125 43.8118 146.63L43.3811 146.046C43.3245 145.98 43.2768 145.907 43.239 145.831C43.3066 145.884 43.3674 145.947 43.4198 146.015L43.8979 146.575C44.307 147.06 44.8841 147.783 45.5775 148.69C47.368 151.058 49.0175 153.529 50.5173 156.09C52.0186 158.657 53.3662 161.311 54.5526 164.036C54.9832 165.086 55.3537 165.937 55.5733 166.539C55.6767 166.819 55.7584 167.046 55.8274 167.227C55.8613 167.3 55.8859 167.376 55.9006 167.455Z" fill="#1D1D1D"/>
<path d="M53.2519 128.299C53.2759 128.43 53.2904 128.562 53.2949 128.694C53.2949 128.974 53.3423 129.348 53.3767 129.826C53.4413 130.827 53.5318 132.246 53.648 133.987C53.8677 137.501 54.1821 142.355 54.5568 147.713C54.9315 153.071 55.3061 157.926 55.5817 161.439C55.7152 163.159 55.8229 164.591 55.9005 165.597C55.9305 166.07 55.9564 166.457 55.978 166.728C55.9884 166.859 55.9884 166.992 55.978 167.124C55.9494 166.995 55.9307 166.864 55.922 166.732C55.8918 166.452 55.853 166.079 55.8014 165.606L55.4095 161.452C55.0907 157.943 54.6946 153.093 54.3155 147.73C53.9366 142.368 53.6524 137.514 53.4542 133.997C53.3724 132.255 53.3078 130.836 53.2604 129.83C53.2432 129.351 53.2303 128.972 53.2217 128.694C53.2213 128.562 53.2314 128.43 53.2519 128.299Z" fill="#1D1D1D"/>
<path d="M49.4661 161.598H59.7675V169.15C59.7675 169.797 59.6397 170.44 59.3912 171.039C59.1427 171.637 58.7786 172.182 58.3195 172.64C57.8604 173.098 57.3154 173.462 56.7155 173.71C56.1157 173.958 55.4728 174.085 54.8235 174.085C53.559 174.085 52.3426 173.601 51.424 172.734C50.5053 171.867 49.9542 170.681 49.8837 169.42L49.4661 161.598Z" fill="#8B8B8B"/>
<path d="M277.943 161.478C279.504 160.747 281.258 160.535 282.948 160.871C283.856 161.022 284.804 161.301 285.42 161.973C286.035 162.643 286.157 163.851 285.446 164.437C284.988 164.745 284.437 164.885 283.887 164.832C282.564 164.832 281.096 164.583 280.041 165.378C279.438 165.808 279.037 166.587 278.318 166.81C277.958 166.889 277.581 166.852 277.243 166.702C276.906 166.552 276.626 166.297 276.444 165.976C276.099 165.313 276.023 164.542 276.233 163.826C276.319 163.329 276.517 162.859 276.814 162.452C277.11 162.045 277.497 161.712 277.943 161.478Z" fill="#121212"/>
<path d="M274.459 154.757C275.389 156.086 277.198 155.647 278.034 154.834C278.87 154.022 279.227 152.852 279.55 151.729C280.291 149.176 281.031 146.493 280.485 143.887C280.356 143.091 280.008 142.347 279.481 141.737C279.217 141.438 278.879 141.215 278.501 141.089C278.123 140.962 277.718 140.938 277.327 141.019C276.415 141.259 275.851 142.149 275.437 142.996C274.232 145.502 273.601 148.245 273.59 151.025C273.59 152.315 273.736 153.674 274.451 154.739" fill="#121212"/>
<path d="M271.901 156.662C272.38 156.039 272.697 155.308 272.829 154.534C272.96 153.76 272.901 152.966 272.655 152.22C272.146 150.729 271.234 149.407 270.019 148.401C268.637 147.175 267.028 146.23 265.282 145.62C264.609 145.347 263.884 145.224 263.159 145.258C262.796 145.28 262.444 145.389 262.133 145.578C261.823 145.766 261.562 146.027 261.376 146.337C260.881 147.283 261.376 148.428 261.871 149.347C262.778 151.003 263.815 152.585 264.972 154.077C265.902 155.277 266.966 156.455 268.383 156.997C269.8 157.539 271.269 157.475 272.022 156.494" fill="#121212"/>
<path d="M274.394 174.778C274.445 174.579 274.474 174.376 274.481 174.172C274.524 173.742 274.576 173.183 274.641 172.529C274.722 171.718 274.846 170.912 275.011 170.112C275.222 169.142 275.51 168.191 275.872 167.266C276.234 166.342 276.724 165.473 277.328 164.686C277.821 164.046 278.451 163.525 279.171 163.16C279.659 162.916 280.182 162.753 280.721 162.673C280.925 162.666 281.127 162.637 281.324 162.587C281.121 162.567 280.916 162.567 280.713 162.587C280.151 162.632 279.603 162.778 279.093 163.017C278.335 163.375 277.671 163.904 277.151 164.561C276.52 165.357 276.01 166.243 275.639 167.188C275.269 168.126 274.981 169.094 274.778 170.082C274.621 170.891 274.513 171.708 274.455 172.529C274.404 173.225 274.382 173.794 274.373 174.184C274.359 174.382 274.367 174.582 274.394 174.778Z" fill="#1D1D1D"/>
<path d="M274.506 173.509C274.52 173.416 274.52 173.323 274.506 173.23V172.43C274.506 171.734 274.506 170.731 274.541 169.489C274.601 167.008 274.817 163.581 275.23 159.819C275.644 156.056 276.199 152.663 276.703 150.23C276.819 149.623 276.94 149.073 277.052 148.595C277.164 148.118 277.25 147.697 277.341 147.361C277.43 147.026 277.478 146.79 277.525 146.583C277.555 146.494 277.572 146.401 277.577 146.308C277.532 146.39 277.499 146.478 277.478 146.57L277.246 147.336C277.142 147.671 277.039 148.084 276.919 148.561C276.798 149.038 276.66 149.585 276.531 150.195C275.841 153.363 275.323 156.564 274.981 159.788C274.55 163.564 274.382 167 274.365 169.485C274.365 170.731 274.364 171.738 274.407 172.434C274.407 172.757 274.447 173.024 274.459 173.23C274.464 173.324 274.481 173.418 274.506 173.509Z" fill="#1D1D1D"/>
<path d="M274.524 166.883C274.547 166.605 274.547 166.326 274.524 166.049C274.477 165.29 274.391 164.533 274.265 163.783C273.852 161.306 273.14 158.888 272.147 156.581C271.19 154.249 269.815 152.111 268.09 150.272C267.79 149.957 267.471 149.661 267.134 149.387C266.988 149.262 266.858 149.137 266.729 149.038C266.6 148.94 266.471 148.866 266.359 148.784C266.135 148.617 265.898 148.466 265.652 148.333C266.463 148.971 267.235 149.66 267.961 150.393C269.63 152.247 270.968 154.373 271.918 156.68C272.468 157.937 272.932 159.23 273.309 160.55C273.672 161.762 273.913 162.88 274.094 163.817C274.274 164.755 274.365 165.537 274.425 166.058C274.438 166.335 274.471 166.611 274.524 166.883Z" fill="#1D1D1D"/>
<path d="M286.208 81.9238L261.879 82.4269L262.534 114.1L286.875 114.208L286.208 81.9238Z" fill="#121212"/>
<path d="M284.632 83.0845L263.344 83.5231L263.939 112.251L285.239 112.527L284.632 83.0845Z" fill="#FAFAFA"/>
<path d="M281.01 88.3821L266.876 88.1372L267.289 108.214L281.415 107.921L281.01 88.3821Z" fill="#1D1D1D"/>
<path d="M267.289 108.214L281.204 97.6057L266.876 88.1372L267.289 108.214Z" fill="#8B8B8B"/>
<path d="M277.926 55.6719L261.221 56.0159L261.673 77.7653L278.383 77.8384L277.926 55.6719Z" fill="#8B8B8B"/>
<path d="M276.845 56.4678L262.224 56.7688L262.633 76.4929L277.259 76.6864L276.845 56.4678Z" fill="#FAFAFA"/>
<path d="M274.356 60.1056L264.649 59.9336L264.933 73.7236L274.636 73.5216L274.356 60.1056Z" fill="#121212"/>
<path d="M271.16 66.65C271.16 66.65 271.221 66.4952 271.272 66.22C271.349 65.8242 271.292 65.4141 271.109 65.0547C270.965 64.7642 270.743 64.5193 270.469 64.3472C270.194 64.175 269.877 64.0823 269.552 64.0795C269.228 64.0768 268.909 64.1639 268.631 64.3313C268.353 64.4987 268.128 64.7398 267.979 65.0277C267.83 65.3157 267.764 65.6391 267.789 65.9621C267.814 66.2851 267.928 66.5949 268.118 66.8571C268.309 67.1194 268.569 67.3236 268.868 67.4473C269.168 67.5709 269.496 67.6089 269.817 67.5572C270.228 67.4956 270.606 67.297 270.889 66.994C271.088 66.7832 271.16 66.6371 271.177 66.6457C271.139 66.7973 271.062 66.9365 270.953 67.0499C270.682 67.3876 270.299 67.6178 269.872 67.6992C269.554 67.7629 269.225 67.7445 268.915 67.646C268.605 67.5474 268.326 67.3719 268.103 67.1359C267.826 66.8442 267.646 66.4737 267.588 66.0758C267.531 65.6779 267.599 65.2719 267.782 64.9139C267.965 64.5559 268.255 64.2635 268.612 64.0769C268.968 63.8903 269.374 63.8188 269.773 63.8722C270.095 63.9145 270.401 64.0377 270.663 64.2303C270.924 64.4228 271.133 64.6783 271.268 64.973C271.451 65.3659 271.488 65.8104 271.376 66.2286C271.339 66.3842 271.264 66.5287 271.16 66.65Z" fill="#1D1D1D"/>
<path d="M271.975 70.5198C271.597 70.0754 271.278 69.5839 271.027 69.0578C270.712 68.5687 270.462 68.0412 270.282 67.4883C270.656 67.9347 270.972 68.4258 271.225 68.9503C271.538 69.441 271.79 69.968 271.975 70.5198Z" fill="#1D1D1D"/>
<path d="M286.66 174.013C286.66 174.077 232.172 174.124 164.971 174.124C97.77 174.124 43.269 174.077 43.269 174.013C43.269 173.948 97.7486 173.901 164.971 173.901C232.194 173.901 286.66 173.952 286.66 174.013Z" fill="#1D1D1D"/>
<path d="M215.914 120.495C215.914 120.495 216.298 116.414 216.685 116.448C217.073 116.483 217.138 117.205 217.09 117.558C217.043 117.91 217.09 119.278 217.09 119.278L215.914 120.495Z" fill="#CACACA"/>
<path d="M250.984 117.154L249.025 130.914L258.069 170.362L233.09 172.357L243.857 108.829C243.857 108.829 250.963 108.025 250.984 117.154Z" fill="#1D1D1D"/>
<path d="M220.273 186.594L218.83 202.874H224.993L227.711 186.594H220.273Z" fill="#CACACA"/>
<path d="M218.83 202.874C218.83 202.874 214.67 203.412 213.929 203.945L224.829 203.816L224.993 202.874H218.83Z" fill="#CACACA"/>
<path d="M213.929 203.949V204.383L225.152 204.263V203.794L213.929 203.949Z" fill="#121212"/>
<path d="M217.917 204.199C217.857 204.224 217.681 203.889 217.318 203.626C216.957 203.364 216.591 203.283 216.6 203.222C216.608 203.162 217.03 203.145 217.461 203.455C217.892 203.765 217.956 204.185 217.917 204.199Z" fill="#121212"/>
<path d="M225.135 202.551C225.135 202.612 224.386 202.762 223.533 203.166C222.68 203.571 222.078 204.026 222.034 203.996C222.411 203.542 222.895 203.188 223.443 202.968C223.962 202.687 224.545 202.543 225.135 202.551Z" fill="#121212"/>
<path d="M224.882 202.285C222.858 202.33 220.835 202.227 218.826 201.98C219.831 201.924 220.838 201.94 221.84 202.027C222.859 202.039 223.876 202.125 224.882 202.285Z" fill="#121212"/>
<path d="M225.604 200.144C224.509 200.456 223.395 200.696 222.267 200.862C221.153 201.101 220.025 201.271 218.891 201.369C219.987 201.061 221.102 200.82 222.228 200.651C223.343 200.412 224.47 200.243 225.604 200.144Z" fill="#121212"/>
<path d="M225.497 200.222C225.215 200.225 224.937 200.164 224.683 200.045C224.398 199.932 224.126 199.788 223.873 199.615C223.722 199.516 223.577 199.405 223.442 199.284C223.359 199.211 223.294 199.12 223.254 199.017C223.23 198.957 223.222 198.892 223.228 198.828C223.234 198.764 223.254 198.703 223.288 198.647C223.326 198.592 223.378 198.548 223.44 198.521C223.501 198.494 223.57 198.484 223.636 198.492C223.741 198.508 223.842 198.536 223.938 198.578C224.107 198.648 224.268 198.738 224.416 198.845C224.669 199.023 224.886 199.248 225.053 199.507C225.227 199.733 225.327 200.006 225.342 200.29C225.308 200.29 225.226 199.989 224.911 199.594C224.739 199.364 224.527 199.166 224.287 199.008C224.152 198.915 224.008 198.837 223.856 198.776C223.697 198.703 223.516 198.673 223.469 198.776C223.443 198.842 223.442 198.914 223.464 198.98C223.486 199.047 223.53 199.104 223.589 199.142C223.713 199.258 223.844 199.368 223.981 199.469C224.22 199.633 224.472 199.777 224.734 199.899C225.196 200.114 225.501 200.187 225.497 200.222Z" fill="#121212"/>
<path d="M225.441 200.38C225.307 200.135 225.252 199.853 225.287 199.576C225.299 199.28 225.363 198.989 225.475 198.716C225.543 198.55 225.63 198.393 225.734 198.247C225.789 198.167 225.85 198.091 225.915 198.019C225.954 197.971 226.003 197.932 226.059 197.904C226.115 197.877 226.176 197.862 226.238 197.86C226.304 197.864 226.367 197.886 226.422 197.923C226.477 197.96 226.52 198.011 226.548 198.071C226.596 198.17 226.616 198.279 226.608 198.389C226.6 198.569 226.572 198.749 226.522 198.923C226.433 199.215 226.287 199.487 226.091 199.722C225.934 199.953 225.708 200.129 225.445 200.225C225.445 200.195 225.691 200.027 225.967 199.632C226.126 199.4 226.243 199.143 226.311 198.871C226.354 198.712 226.377 198.549 226.38 198.385C226.38 198.221 226.315 198.075 226.216 198.075C226.117 198.075 225.988 198.238 225.889 198.367C225.792 198.502 225.709 198.646 225.639 198.797C225.524 199.056 225.45 199.33 225.42 199.61C225.389 200.057 225.475 200.38 225.441 200.38Z" fill="#121212"/>
<path d="M226.267 202.909C225.984 202.542 225.78 202.119 225.669 201.67C225.491 201.23 225.41 200.759 225.433 200.285C225.616 200.71 225.76 201.15 225.863 201.601C226.035 202.025 226.17 202.462 226.267 202.909Z" fill="#121212"/>
<path d="M227.005 202.332C226.16 201.824 225.533 201.024 225.243 200.083C225.304 200.053 225.6 200.621 226.104 201.236C226.608 201.851 227.043 202.281 227.005 202.332Z" fill="#121212"/>
<path d="M243.275 187.927L255.902 197.92L258.904 193.534L247.616 181.266L243.275 187.927Z" fill="#CACACA"/>
<path d="M255.011 198.165C255.011 198.165 253.069 201.877 253.086 202.793L259.219 193.797L258.542 193.122L255.011 198.165Z" fill="#CACACA"/>
<path d="M253.086 202.792L253.443 203.042L259.77 193.788L259.386 193.517L253.086 202.792Z" fill="#121212"/>
<path d="M255.562 199.688C255.562 199.748 255.174 199.688 254.752 199.851C254.33 200.015 254.055 200.247 254.007 200.208C253.96 200.169 254.197 199.808 254.684 199.645C255.17 199.482 255.588 199.636 255.562 199.688Z" fill="#121212"/>
<path d="M258.353 192.821C258.413 192.846 258.098 193.555 257.944 194.484C257.788 195.414 257.832 196.179 257.767 196.204C257.518 195.049 257.728 193.842 258.353 192.838V192.821Z" fill="#121212"/>
<path d="M258.008 192.584C257.534 193.369 257 194.115 256.411 194.816C255.873 195.562 255.28 196.267 254.636 196.923C255.11 196.136 255.646 195.389 256.238 194.687C256.771 193.939 257.363 193.236 258.008 192.584Z" fill="#121212"/>
<path d="M256.652 191.057C256.33 192.01 255.943 192.94 255.493 193.839C255.108 194.767 254.656 195.665 254.141 196.527C254.462 195.576 254.85 194.647 255.299 193.749C255.683 192.82 256.135 191.921 256.652 191.057Z" fill="#121212"/>
<path d="M256.647 191.191C256.669 191.191 256.466 191.462 256.036 191.759C255.785 191.933 255.515 192.078 255.231 192.189C255.063 192.256 254.89 192.312 254.714 192.352C254.606 192.376 254.494 192.376 254.386 192.352C254.324 192.335 254.266 192.306 254.216 192.264C254.168 192.222 254.128 192.17 254.102 192.111C254.079 192.048 254.074 191.98 254.086 191.914C254.099 191.848 254.13 191.787 254.175 191.737C254.245 191.66 254.327 191.593 254.416 191.539C254.836 191.274 255.325 191.141 255.82 191.156C256.105 191.143 256.387 191.218 256.626 191.371C256.626 191.406 256.316 191.295 255.82 191.312C255.361 191.324 254.913 191.464 254.528 191.715C254.378 191.806 254.249 191.94 254.296 192.029C254.335 192.088 254.393 192.131 254.461 192.151C254.528 192.172 254.601 192.168 254.667 192.141C254.832 192.105 254.997 192.059 255.157 192.004C255.432 191.906 255.699 191.785 255.954 191.643C256.389 191.376 256.626 191.165 256.647 191.191Z" fill="#121212"/>
<path d="M256.737 191.32C256.458 191.289 256.197 191.171 255.988 190.985C255.746 190.805 255.538 190.581 255.377 190.327C255.278 190.176 255.199 190.014 255.139 189.845C255.105 189.756 255.078 189.663 255.058 189.57C255.04 189.511 255.036 189.448 255.044 189.386C255.053 189.324 255.075 189.265 255.109 189.213C255.151 189.162 255.206 189.122 255.268 189.099C255.33 189.076 255.397 189.07 255.462 189.08C255.57 189.099 255.671 189.146 255.755 189.213C255.899 189.324 256.029 189.451 256.143 189.592C256.338 189.825 256.485 190.096 256.574 190.387C256.672 190.648 256.687 190.934 256.617 191.204C256.566 190.946 256.503 190.691 256.427 190.439C256.327 190.174 256.181 189.93 255.996 189.716C255.889 189.594 255.769 189.483 255.639 189.385C255.514 189.282 255.346 189.261 255.286 189.342C255.225 189.424 255.286 189.622 255.342 189.772C255.396 189.922 255.466 190.066 255.548 190.202C255.695 190.444 255.877 190.662 256.091 190.847C256.453 191.187 256.75 191.285 256.737 191.32Z" fill="#121212"/>
<path d="M259.3 192.098C258.826 192.127 258.352 192.054 257.909 191.883C257.44 191.779 257 191.575 256.617 191.285C257.512 191.536 258.401 191.806 259.283 192.098H259.3Z" fill="#121212"/>
<path d="M259.261 191.165C258.827 191.396 258.341 191.513 257.849 191.504C257.359 191.568 256.862 191.503 256.406 191.316C256.406 191.255 257.056 191.316 257.836 191.289C258.615 191.264 259.227 191.101 259.261 191.165Z" fill="#121212"/>
<path d="M231.104 138.813C231.104 138.813 226.28 170.801 226.983 172.353C227.684 173.905 243.301 189.867 243.301 189.867L249.162 179.843C249.162 179.843 238.826 168.41 238.976 167.803C239.128 167.197 246.428 136.237 246.428 136.237L231.104 138.813Z" fill="#121212"/>
<path d="M232.216 178.399L236.333 169.369L241.07 159.229C238.188 163.391 235.735 167.832 233.749 172.486C232.977 174.381 232.462 176.368 232.216 178.399Z" fill="#121212"/>
<path opacity="0.4" d="M232.216 178.399L236.333 169.369L241.07 159.229C238.188 163.391 235.735 167.832 233.749 172.486C232.977 174.381 232.462 176.368 232.216 178.399Z" fill="black"/>
<path d="M229.391 150.62C229.438 150.281 233.326 141.547 233.326 141.547L231.436 138.89L231.105 138.816L229.391 150.62Z" fill="#121212"/>
<path opacity="0.4" d="M229.391 150.62C229.438 150.281 233.326 141.547 233.326 141.547L231.436 138.89L231.105 138.816L229.391 150.62Z" fill="black"/>
<path d="M249.166 135.802L249.455 136.989C250.318 140.49 249.792 144.187 247.986 147.309L234.912 169.94C233.983 171.548 233.308 173.288 232.909 175.1L229.653 189.72C229.653 189.72 219.373 190.068 218.929 189.72C218.486 189.372 220.255 179.693 221.435 172.361C222.327 166.831 229.735 149.67 233.327 141.565L231.104 138.829L234.98 138.189L249.166 135.802Z" fill="#121212"/>
<path d="M229.653 189.703C229.513 189.743 229.368 189.766 229.222 189.772C228.946 189.802 228.555 189.836 228.064 189.866C227.086 189.931 225.729 189.978 224.235 189.974C222.741 189.97 221.384 189.927 220.407 189.875C219.915 189.853 219.52 189.828 219.248 189.807C219.103 189.81 218.957 189.791 218.817 189.75C218.959 189.726 219.104 189.716 219.248 189.725H220.407L224.23 189.759C225.725 189.759 227.073 189.737 228.051 189.716L229.214 189.686C229.36 189.669 229.508 189.675 229.653 189.703Z" fill="#1D1D1D"/>
<path d="M230.217 186.955C230.217 187.016 227.745 187.054 224.7 187.041C221.655 187.028 219.178 186.972 219.178 186.917C219.178 186.86 221.651 186.818 224.7 186.826C227.749 186.835 230.217 186.895 230.217 186.955Z" fill="#1D1D1D"/>
<path d="M247.367 177.771C247.311 177.914 247.237 178.05 247.147 178.175L246.479 179.232L244.266 182.712L242.06 186.194L241.385 187.248C241.309 187.383 241.216 187.507 241.109 187.617C241.159 187.466 241.226 187.322 241.311 187.187C241.454 186.93 241.665 186.555 241.927 186.1C242.461 185.189 243.219 183.95 244.08 182.578C244.942 181.207 245.756 179.998 246.354 179.138C246.656 178.708 246.901 178.355 247.078 178.115C247.159 177.989 247.257 177.873 247.367 177.771Z" fill="#1D1D1D"/>
<path d="M242.685 189.002C242.453 188.581 242.285 188.127 242.185 187.657C242.017 187.207 241.918 186.734 241.893 186.255C242.124 186.675 242.292 187.127 242.392 187.596C242.559 188.047 242.658 188.522 242.685 189.002Z" fill="#1D1D1D"/>
<path d="M243.598 188.972C243.366 188.238 243.203 187.483 243.111 186.719C242.95 185.967 242.86 185.2 242.844 184.432C243.235 185.919 243.488 187.438 243.598 188.972Z" fill="#1D1D1D"/>
<path d="M244.79 187.274C244.561 186.633 244.382 185.977 244.252 185.309C244.052 184.659 243.908 183.992 243.821 183.317C244.114 183.935 244.329 184.587 244.459 185.257C244.658 185.912 244.77 186.59 244.79 187.274Z" fill="#1D1D1D"/>
<path d="M245.807 184.921C245.574 184.31 245.411 183.674 245.321 183.026C245.157 182.39 245.065 181.737 245.045 181.082C245.273 181.696 245.437 182.334 245.532 182.982C245.693 183.617 245.786 184.267 245.807 184.921Z" fill="#1D1D1D"/>
<path d="M247.121 182.973C246.927 182.359 246.773 181.733 246.66 181.099C246.474 180.48 246.329 179.849 246.229 179.211C246.529 179.789 246.74 180.41 246.854 181.051C247.041 181.675 247.131 182.323 247.121 182.973Z" fill="#1D1D1D"/>
<path d="M248.292 181.323C248.059 180.839 247.893 180.325 247.802 179.797C247.638 179.284 247.542 178.751 247.517 178.214C247.912 179.211 248.173 180.256 248.292 181.323Z" fill="#1D1D1D"/>
<path d="M224.3 186.848C223.474 187.359 222.621 187.825 221.746 188.245C220.908 188.732 220.045 189.175 219.162 189.574C219.374 189.38 219.61 189.214 219.864 189.08C220.295 188.8 220.945 188.435 221.66 188.056C222.375 187.678 223.033 187.364 223.516 187.149C223.763 187.016 224.027 186.914 224.3 186.848Z" fill="#1D1D1D"/>
<path d="M227.47 186.896C227.22 187.101 226.949 187.279 226.66 187.424C226.143 187.721 225.424 188.112 224.61 188.517C223.796 188.92 223.043 189.252 222.491 189.48C222.202 189.622 221.897 189.731 221.582 189.802C221.851 189.617 222.14 189.463 222.444 189.342L224.523 188.323L226.6 187.291C226.874 187.128 227.166 186.995 227.47 186.896Z" fill="#1D1D1D"/>
<path d="M229.881 186.896C229.267 187.515 228.592 188.071 227.865 188.555C227.18 189.094 226.443 189.565 225.665 189.961C226.32 189.388 227.012 188.86 227.736 188.378C228.421 187.841 229.137 187.346 229.881 186.896Z" fill="#1D1D1D"/>
<path d="M230.144 188.409C230.183 188.456 229.782 188.839 229.248 189.234C228.946 189.511 228.598 189.733 228.219 189.888C228.469 189.563 228.773 189.284 229.119 189.063C229.42 188.786 229.767 188.565 230.144 188.409Z" fill="#1D1D1D"/>
<path d="M221.487 186.796C221.088 187.158 220.641 187.466 220.161 187.712C219.715 188.019 219.23 188.265 218.718 188.443C219.564 187.774 220.495 187.22 221.487 186.796Z" fill="#1D1D1D"/>
<path d="M233.042 141.47C232.893 141.959 232.71 142.438 232.495 142.902C232.142 143.762 231.634 144.988 231.125 146.342C230.618 147.697 230.148 148.922 229.833 149.782C229.675 150.267 229.486 150.741 229.265 151.202C229.28 151.065 229.31 150.93 229.356 150.801C229.429 150.547 229.541 150.182 229.687 149.731C229.98 148.832 230.415 147.581 230.937 146.252C231.458 144.923 231.978 143.702 232.37 142.842C232.569 142.412 232.732 142.068 232.853 141.831C232.9 141.704 232.964 141.582 233.042 141.47Z" fill="#1D1D1D"/>
<path d="M231.969 179.422C231.96 179.337 231.96 179.253 231.969 179.168C231.992 178.979 232.026 178.738 232.06 178.446C232.095 178.153 232.155 177.75 232.254 177.306C232.353 176.863 232.431 176.361 232.586 175.815C232.659 175.543 232.736 175.255 232.814 174.955C232.891 174.653 233.003 174.352 233.103 174.034C233.292 173.398 233.555 172.744 233.813 172.03C234.418 170.522 235.106 169.048 235.872 167.614C237.288 165.028 238.851 162.524 240.553 160.114C241.195 159.186 241.729 158.442 242.103 157.93L242.534 157.346C242.582 157.275 242.637 157.209 242.698 157.148C242.665 157.227 242.623 157.302 242.573 157.371C242.465 157.526 242.336 157.728 242.172 157.978L240.678 160.201C239.451 162.08 237.728 164.69 236.078 167.7C235.317 169.127 234.629 170.591 234.015 172.086C233.753 172.782 233.481 173.44 233.288 174.072C233.185 174.391 233.077 174.692 232.991 174.984C232.904 175.277 232.827 175.565 232.754 175.844C232.59 176.386 232.491 176.89 232.387 177.324C232.284 177.758 232.211 178.14 232.159 178.45C232.108 178.76 232.064 178.979 232.03 179.164C232.019 179.252 231.999 179.338 231.969 179.422Z" fill="#1D1D1D"/>
<path d="M244.791 108.863L234.674 109.723C234.674 109.723 231.659 109.792 228.353 117.463L225.975 125.074L230.251 125.986V126.416L231.113 138.812L249.356 135.88C249.395 134.306 248.495 132.01 247.836 129.86C248.52 128.161 251.402 120.748 251.397 117.179C251.397 109.547 244.786 108.889 244.786 108.889" fill="white"/>
<path d="M249.162 179.834C249.119 179.985 249.057 180.13 248.977 180.264C248.843 180.526 248.645 180.901 248.391 181.361C247.883 182.281 247.151 183.536 246.324 184.908L244.188 188.405L243.542 189.471C243.472 189.606 243.386 189.731 243.283 189.845C243.327 189.695 243.389 189.55 243.469 189.415C243.602 189.153 243.8 188.778 244.055 188.318C244.562 187.398 245.295 186.143 246.122 184.771L248.24 181.262L248.886 180.2C248.964 180.067 249.056 179.945 249.162 179.834Z" fill="#1D1D1D"/>
<path d="M246.772 127.091C246.326 127.307 245.842 127.434 245.347 127.465C244.862 127.562 244.363 127.562 243.878 127.465C244.35 127.343 244.834 127.267 245.321 127.238C245.799 127.143 246.285 127.093 246.772 127.091Z" fill="white"/>
<path d="M231.147 126.485L230.941 139.939L236.41 109.298C234.593 108.975 231.203 110.403 229.929 112.213C229.015 113.296 228.516 115.79 225.975 123.298L224.416 128.393L218.094 121.484L213.834 125.328C213.834 125.328 221.181 137.312 224.252 137.975C228.43 138.877 231.143 126.485 231.143 126.485" fill="#8B8B8B"/>
<path d="M232.022 114.036C232.024 114.213 232.006 114.388 231.965 114.561C231.91 114.939 231.836 115.421 231.746 115.975C231.561 117.171 231.315 118.822 231.087 120.653C230.859 122.485 230.7 124.15 230.588 125.353C230.536 125.921 230.493 126.399 230.454 126.777C230.452 126.954 230.427 127.131 230.381 127.301C230.363 127.126 230.363 126.948 230.381 126.772C230.381 126.433 230.411 125.947 230.445 125.341C230.514 124.133 230.656 122.464 230.876 120.611C231.096 118.758 231.376 117.124 231.6 115.933C231.716 115.339 231.815 114.858 231.888 114.526C231.918 114.359 231.962 114.195 232.022 114.036Z" fill="#1D1D1D"/>
<path d="M230.605 113.447C230.584 113.387 231.432 113.017 232.397 112.432C233.361 111.847 234.063 111.246 234.119 111.293C233.179 112.325 231.964 113.07 230.618 113.443L230.605 113.447Z" fill="white"/>
<path d="M228.857 122.318C228.638 121.82 228.461 121.305 228.327 120.779C228.124 120.275 227.963 119.756 227.844 119.226C228.42 120.163 228.767 121.222 228.857 122.318Z" fill="white"/>
<path d="M233.292 117.476C233.352 118.075 233.308 118.68 233.163 119.264C233.089 119.865 232.91 120.447 232.634 120.984C232.704 120.396 232.81 119.811 232.952 119.234C233.028 118.642 233.142 118.055 233.292 117.476Z" fill="white"/>
<path d="M227.137 129.207C227.141 129.736 227.097 130.264 227.008 130.785C226.987 131.316 226.92 131.843 226.81 132.362C226.677 131.299 226.789 130.22 227.137 129.207Z" fill="white"/>
<path d="M219.054 129.099C218.584 128.589 218.198 128.008 217.909 127.379C217.556 126.781 217.298 126.133 217.142 125.457C217.494 126.046 217.813 126.655 218.099 127.28C218.449 127.868 218.768 128.476 219.054 129.099Z" fill="white"/>
<path d="M223.68 129.43C223.341 129.753 222.939 130.004 222.5 130.166C222.088 130.393 221.634 130.532 221.165 130.574C221.558 130.331 221.975 130.13 222.41 129.972C222.814 129.749 223.239 129.568 223.68 129.43Z" fill="white"/>
<path d="M245.583 133.679L248.749 171.248L258.284 170.349L249.231 130.901L250.338 120.31L245.583 133.679Z" fill="#8B8B8B"/>
<path d="M248.748 171.247C248.693 171.247 247.99 162.919 247.185 152.633C246.38 142.347 245.782 134.01 245.837 134.005C245.893 134.001 246.599 142.33 247.401 152.616C248.201 162.901 248.809 171.243 248.748 171.247Z" fill="#1D1D1D"/>
<path d="M247.832 134.547C247.896 134.115 248.031 133.697 248.231 133.308C248.371 132.895 248.574 132.506 248.835 132.156C248.638 133.004 248.299 133.813 247.832 134.547Z" fill="white"/>
<path d="M250.463 140.138C250.411 140.176 249.937 139.626 249.27 139.036C248.843 138.705 248.433 138.352 248.043 137.979C248.56 138.177 249.028 138.483 249.417 138.877C249.85 139.22 250.206 139.649 250.463 140.138Z" fill="white"/>
<path d="M249.882 147.675C250.054 147.233 250.254 146.802 250.48 146.385C250.64 145.934 250.829 145.493 251.044 145.065C251.033 145.556 250.906 146.038 250.674 146.471C250.508 146.929 250.237 147.342 249.882 147.675Z" fill="white"/>
<path d="M251.94 153.725C251.018 153.122 250.181 152.399 249.451 151.575C249.923 151.849 250.357 152.184 250.743 152.568C251.191 152.9 251.593 153.289 251.94 153.725Z" fill="white"/>
<path d="M253.663 157.879C253.528 156.673 253.536 155.454 253.688 154.25C253.787 154.849 253.819 155.458 253.783 156.064C253.814 156.672 253.774 157.281 253.663 157.879Z" fill="white"/>
<path d="M250.604 160.7C250.483 160.228 250.406 159.746 250.376 159.259C250.279 158.782 250.226 158.297 250.217 157.81C250.439 158.253 250.573 158.735 250.609 159.229C250.705 159.714 250.704 160.214 250.604 160.7Z" fill="white"/>
<path d="M253.762 164.294C252.848 164.303 251.938 164.168 251.066 163.895C251.523 163.854 251.984 163.885 252.431 163.989C252.888 164.022 253.336 164.125 253.762 164.294Z" fill="white"/>
<path d="M253.232 169.076C253.686 168.142 254.265 167.273 254.955 166.496C254.763 166.981 254.505 167.437 254.188 167.85C253.925 168.3 253.604 168.712 253.232 169.076Z" fill="white"/>
<path d="M231.535 138.236L215.519 116.452C216.468 115.723 217.357 114.917 218.176 114.045C221.591 110.395 223.662 105.694 224.05 100.714C224.438 95.7337 223.119 90.77 220.31 86.6363C217.5 82.5036 213.368 79.4463 208.59 77.9665C203.811 76.4866 198.672 76.6721 194.013 78.4925C189.354 80.313 185.453 83.6601 182.951 87.9852C180.447 92.31 179.491 97.3556 180.238 102.295C180.984 107.234 183.391 111.773 187.061 115.167C190.731 118.562 195.448 120.61 200.437 120.976C201.223 121.034 202.013 121.048 202.801 121.019C206.007 120.92 209.153 120.123 212.017 118.68L228.197 140.688C228.524 141.127 229.013 141.42 229.556 141.5C230.098 141.58 230.65 141.443 231.091 141.118C231.531 140.792 231.825 140.308 231.908 139.768C231.991 139.229 231.857 138.677 231.535 138.236ZM202.68 116.891C202.04 116.912 201.399 116.901 200.76 116.857C196.18 116.527 191.901 114.456 188.807 111.069C185.712 107.682 184.037 103.239 184.127 98.6559C184.218 94.0718 186.066 89.6975 189.291 86.435C192.517 83.1721 196.873 81.2695 201.462 81.1194C202.109 81.0978 202.758 81.1107 203.404 81.1581C207.976 81.4993 212.244 83.577 215.329 86.964C218.414 90.3511 220.082 94.7893 219.989 99.3666C219.896 103.944 218.05 108.311 214.831 111.571C211.611 114.831 207.263 116.735 202.68 116.891Z" fill="#1D1D1D"/>
<path d="M225.174 126.39L223.275 132.87C223.275 132.87 233.214 136.478 238.598 136.409C243.641 136.349 245.084 135.777 246.858 131.713C248.632 127.65 250.648 122.98 251.079 120.276C251.079 120.276 253.926 107.896 243.064 109.001L242.763 118.68C242.763 118.68 241.561 122.649 241.471 122.881C240.661 125.031 239.61 128.157 238.593 128.536C237.577 128.914 225.174 126.39 225.174 126.39Z" fill="#8B8B8B"/>
<path d="M240.773 131.58C239.973 130.641 239.346 129.568 238.921 128.411C239.288 128.901 239.613 129.421 239.89 129.967C240.228 130.479 240.524 131.019 240.773 131.58Z" fill="#1D1D1D"/>
<path d="M241.789 130.561C241.27 130.293 240.785 129.965 240.346 129.581C239.869 129.252 239.434 128.865 239.054 128.428C239.572 128.697 240.057 129.026 240.497 129.409C240.974 129.737 241.408 130.124 241.789 130.561Z" fill="#1D1D1D"/>
<path d="M245.166 112.905C244.85 113.94 244.467 114.952 244.02 115.937C243.639 116.948 243.192 117.933 242.681 118.886C242.993 117.851 243.374 116.839 243.822 115.855C244.203 114.842 244.652 113.857 245.166 112.905Z" fill="#1D1D1D"/>
<path d="M250.648 122.12C250.62 122.29 250.572 122.455 250.505 122.615C250.385 122.967 250.235 123.41 250.075 123.931C249.679 125.04 249.124 126.57 248.469 128.231C247.814 129.89 247.177 131.399 246.652 132.461C246.397 132.995 246.182 133.42 246.023 133.709C245.952 133.861 245.864 134.006 245.76 134.139C245.806 133.973 245.87 133.813 245.949 133.661C246.1 133.321 246.285 132.891 246.509 132.371C246.983 131.292 247.608 129.791 248.267 128.123C248.925 126.454 249.489 124.976 249.929 123.823C250.144 123.277 250.325 122.834 250.45 122.533C250.503 122.39 250.569 122.252 250.648 122.12Z" fill="#1D1D1D"/>
<path d="M234.675 128.252C234.675 128.312 232.521 127.968 229.843 127.487C227.164 127.004 225.036 126.566 225.049 126.51C225.062 126.454 227.202 126.794 229.881 127.276C232.56 127.757 234.688 128.196 234.675 128.252Z" fill="#1D1D1D"/>
<path d="M245.945 122.344C245.815 121.181 245.83 120.007 245.993 118.848C246.09 119.426 246.117 120.014 246.075 120.598C246.103 121.183 246.059 121.769 245.945 122.344Z" fill="white"/>
<path d="M242.073 134.246C242.232 133.795 242.424 133.357 242.647 132.935C242.805 132.483 242.994 132.043 243.215 131.618C243.199 132.108 243.071 132.587 242.845 133.02C242.681 133.481 242.418 133.899 242.073 134.246Z" fill="white"/>
<path d="M236.814 133.911C236.224 132.918 235.665 131.907 235.14 130.879C235.552 131.296 235.891 131.778 236.143 132.307C236.456 132.8 236.683 133.342 236.814 133.911Z" fill="white"/>
<path d="M229.545 130.562C229.109 130.85 228.635 131.077 228.137 131.236C227.665 131.46 227.166 131.619 226.651 131.709C227.088 131.421 227.561 131.194 228.059 131.034C228.531 130.81 229.031 130.651 229.545 130.562Z" fill="white"/>
<path d="M249.937 115.369C249.89 115.408 249.411 114.939 248.723 114.449C248.034 113.959 247.405 113.705 247.431 113.645C247.946 113.735 248.431 113.951 248.843 114.272C249.294 114.541 249.67 114.918 249.937 115.369Z" fill="white"/>
<path d="M246.836 126.059C245.734 126.455 244.557 126.602 243.391 126.489C243.958 126.366 244.534 126.287 245.113 126.252C245.682 126.146 246.258 126.081 246.836 126.059Z" fill="white"/>
<path d="M245.816 92.9101C246.106 92.3828 246.569 91.969 247.127 91.7395C247.684 91.51 248.303 91.4767 248.883 91.6465C249.455 91.8342 249.975 92.1567 250.397 92.5876C250.819 93.0176 251.131 93.5423 251.307 94.119C251.647 95.2785 251.669 96.5079 251.372 97.6793C251.182 98.5393 250.941 99.5324 251.501 100.194C252.06 100.857 253.017 100.797 253.633 101.33C253.785 101.463 253.907 101.626 253.993 101.809C254.08 101.991 254.127 102.19 254.134 102.391C254.14 102.594 254.105 102.794 254.03 102.982C253.956 103.17 253.843 103.34 253.7 103.483C253.557 103.625 253.386 103.737 253.197 103.81C253.009 103.884 252.807 103.919 252.606 103.912C252.403 103.905 252.205 103.856 252.022 103.769C251.839 103.682 251.677 103.559 251.544 103.407C251.544 104.004 251.871 104.551 252.056 105.127C252.242 105.703 252.267 106.417 251.811 106.799C251.63 106.93 251.417 107.01 251.194 107.031C250.972 107.052 250.747 107.014 250.545 106.92C250.14 106.728 249.774 106.464 249.464 106.141C249.675 106.759 249.675 107.429 249.464 108.046C249.35 108.351 249.159 108.621 248.91 108.83C248.661 109.04 248.362 109.182 248.043 109.242C247.637 109.271 247.232 109.18 246.879 108.979C246.526 108.777 246.241 108.475 246.061 108.111C245.716 107.375 245.586 106.557 245.687 105.75C245.777 104.494 246.117 103.265 246.255 102.018C246.476 100.768 246.315 99.4804 245.79 98.3243" fill="#121212"/>
<path d="M253.116 100.242C253.116 100.242 253.064 100.272 252.952 100.242C252.872 100.228 252.796 100.197 252.73 100.149C252.664 100.101 252.611 100.039 252.573 99.9665C252.512 99.847 252.497 99.7088 252.53 99.5791C252.562 99.4486 252.64 99.3343 252.75 99.2566C252.891 99.1491 253.067 99.0954 253.245 99.1056C253.422 99.1158 253.591 99.1892 253.719 99.3129C253.869 99.4588 253.976 99.644 254.027 99.8479C254.079 100.052 254.071 100.265 254.007 100.466C253.951 100.693 253.83 100.899 253.658 101.059C253.469 101.228 253.228 101.326 252.974 101.338C252.713 101.355 252.453 101.298 252.224 101.175C251.988 101.041 251.79 100.849 251.652 100.616C251.379 100.129 251.282 99.5655 251.376 99.016C251.535 97.9112 252.069 96.9863 252.056 96.0581C252.069 95.2382 251.844 94.4319 251.41 93.7357C251.118 93.2639 250.738 92.8518 250.291 92.5234C249.972 92.2913 249.769 92.2051 249.782 92.1838C249.795 92.1616 249.834 92.1838 249.934 92.2393C250.074 92.2998 250.21 92.3715 250.338 92.4543C250.818 92.7665 251.227 93.1752 251.539 93.6538C252.01 94.3688 252.259 95.2066 252.254 96.0623C252.254 97.0469 251.733 98.0016 251.587 99.0459C251.501 99.5458 251.587 100.059 251.832 100.504C251.943 100.704 252.107 100.869 252.307 100.982C252.506 101.094 252.732 101.149 252.961 101.14C253.163 101.128 253.356 101.052 253.511 100.921C253.666 100.791 253.775 100.615 253.822 100.418C253.881 100.248 253.892 100.065 253.853 99.8905C253.814 99.7148 253.728 99.5535 253.603 99.4247C253.5 99.3206 253.364 99.2566 253.22 99.243C253.075 99.2302 252.929 99.2686 252.81 99.3513C252.718 99.4119 252.65 99.5032 252.618 99.6081C252.586 99.7131 252.591 99.8265 252.634 99.9281C252.664 99.9921 252.707 100.05 252.762 100.097C252.816 100.143 252.879 100.178 252.948 100.199C253.056 100.242 253.111 100.228 253.116 100.242Z" fill="#121212"/>
<path d="M243.15 109.241L243.727 96.1176L238.507 92.1699L233.77 94.488C233.77 94.488 233.611 100.435 233.77 103.015C233.93 105.595 236.535 105.87 236.535 105.87C236.535 105.87 236.474 107.379 236.415 108.971C236.397 109.426 236.473 109.88 236.637 110.306C236.801 110.732 237.049 111.12 237.368 111.447C237.687 111.773 238.068 112.032 238.49 112.208C238.911 112.382 239.364 112.47 239.821 112.466C240.684 112.455 241.509 112.115 242.128 111.515C242.747 110.915 243.112 110.102 243.15 109.241Z" fill="#CACACA"/>
<path d="M234.283 98.8222C234.283 98.8879 234.302 98.9519 234.338 99.0065C234.375 99.0611 234.426 99.1038 234.487 99.1285C234.548 99.1533 234.614 99.1601 234.679 99.1473C234.743 99.1345 234.802 99.1029 234.848 99.0569C234.895 99.0108 234.927 98.9511 234.939 98.8871C234.952 98.8231 234.946 98.7565 234.92 98.696C234.895 98.6354 234.853 98.5834 234.798 98.5475C234.744 98.5108 234.68 98.4912 234.614 98.4912C234.526 98.4929 234.442 98.5279 234.381 98.5893C234.319 98.6516 234.284 98.7352 234.283 98.8222Z" fill="#1D1D1D"/>
<path d="M233.96 98.4699C234.003 98.5125 234.244 98.3069 234.601 98.289C234.959 98.2719 235.226 98.44 235.26 98.3922C235.295 98.3453 235.235 98.2933 235.118 98.2122C234.962 98.1081 234.776 98.0587 234.589 98.0706C234.401 98.0817 234.223 98.1542 234.08 98.2762C233.972 98.3581 233.938 98.4443 233.96 98.4699Z" fill="#1D1D1D"/>
<path d="M238.112 98.8222C238.112 98.8879 238.131 98.9519 238.167 99.0065C238.204 99.0611 238.255 99.1038 238.316 99.1285C238.377 99.1533 238.443 99.1601 238.508 99.1473C238.572 99.1345 238.631 99.1029 238.677 99.0569C238.724 99.0108 238.755 98.9511 238.768 98.8871C238.781 98.8231 238.775 98.7565 238.749 98.696C238.724 98.6354 238.682 98.5834 238.627 98.5475C238.573 98.5108 238.509 98.4912 238.443 98.4912C238.355 98.4912 238.271 98.5262 238.208 98.5885C238.147 98.6508 238.112 98.7344 238.112 98.8222Z" fill="#1D1D1D"/>
<path d="M237.904 98.4699C237.948 98.5125 238.193 98.3069 238.546 98.289C238.899 98.2719 239.17 98.44 239.209 98.3922C239.248 98.3453 239.183 98.2933 239.063 98.2122C238.906 98.1081 238.72 98.0587 238.533 98.0706C238.346 98.0817 238.167 98.1542 238.024 98.2762C237.917 98.3581 237.883 98.4443 237.904 98.4699Z" fill="#1D1D1D"/>
<path d="M237.796 101.803C237.253 102.079 236.674 102.278 236.074 102.391C236.205 102.571 236.392 102.701 236.607 102.762C236.821 102.822 237.048 102.81 237.254 102.728C237.353 102.705 237.445 102.664 237.526 102.605C237.608 102.545 237.677 102.47 237.727 102.383C237.778 102.297 237.811 102.2 237.823 102.1C237.835 102.001 237.825 101.899 237.796 101.803Z" fill="white"/>
<path d="M236.522 105.87C237.75 105.817 238.938 105.416 239.946 104.713C239.946 104.713 239.17 106.61 236.578 106.502L236.522 105.87Z" fill="#878787"/>
<path d="M251.242 103.535C250.916 103.548 250.592 103.474 250.304 103.32C249.877 103.094 249.524 102.753 249.283 102.336C248.985 101.812 248.731 101.266 248.52 100.702C248.038 99.5024 247.659 98.3882 247.427 97.5759L247.319 97.2185C247.319 97.0811 247.275 96.9565 247.254 96.8661C245.842 91.4868 241.108 90.4852 240.169 90.4852C239.231 90.4852 237.409 89.9349 234.847 92.5917C234.462 92.9918 234.136 93.4432 233.878 93.9337C233.309 94.6393 232.917 95.4712 232.736 96.3585C232.618 96.7791 232.598 97.2202 232.676 97.6485C232.723 97.6485 232.732 97.163 232.93 96.4148C233.051 95.9754 233.218 95.5496 233.43 95.1461C233.206 96.14 233.297 97.1784 233.692 98.1177L234.61 97.8635L237.9 96.7458C237.599 95.7314 238.043 94.467 238.288 93.8774L238.313 93.8561C238.497 94.9285 239.018 95.914 239.8 96.6716C240.581 97.4292 241.584 97.9189 242.664 98.0699L243.27 106.52C247.646 105.586 247.543 99.743 247.517 98.5562C247.715 99.2226 247.973 99.9921 248.296 100.797C248.509 101.375 248.778 101.933 249.097 102.46C249.367 102.905 249.76 103.261 250.23 103.484C250.548 103.633 250.903 103.685 251.25 103.634C251.379 103.623 251.501 103.577 251.604 103.501C251.483 103.505 251.362 103.517 251.242 103.535Z" fill="#121212"/>
<path d="M236.621 101.48C236.43 101.435 236.235 101.411 236.04 101.406C235.949 101.406 235.858 101.406 235.841 101.325C235.828 101.226 235.845 101.127 235.889 101.037L236.134 100.302C236.303 99.7769 236.449 99.3 236.565 98.9519C236.634 98.7676 236.678 98.5748 236.694 98.3794C236.589 98.5432 236.503 98.7173 236.436 98.8998C236.316 99.2394 236.156 99.7129 236.005 100.237L235.773 100.976C235.72 101.092 235.707 101.223 235.738 101.347C235.752 101.378 235.772 101.406 235.799 101.429C235.824 101.451 235.856 101.467 235.889 101.476C235.94 101.482 235.993 101.482 236.044 101.476C236.235 101.501 236.429 101.503 236.621 101.48Z" fill="#1D1D1D"/>
<path d="M244.003 101.355C243.959 100.92 244.006 100.481 244.14 100.065C244.209 99.8615 244.331 99.6789 244.493 99.5382C244.656 99.3974 244.855 99.3035 245.066 99.2652C245.317 99.2541 245.563 99.336 245.757 99.4947C245.951 99.6533 246.079 99.8777 246.117 100.125C246.146 100.372 246.1 100.621 245.987 100.841C245.873 101.062 245.697 101.244 245.48 101.364C245.259 101.479 245.014 101.542 244.766 101.55C244.516 101.558 244.269 101.508 244.041 101.407" fill="#CACACA"/>
<path d="M244.752 100.981C244.752 100.951 244.895 101.016 245.075 100.959C245.189 100.921 245.288 100.847 245.357 100.749C245.427 100.651 245.464 100.534 245.463 100.413C245.473 100.353 245.471 100.291 245.455 100.232C245.439 100.173 245.411 100.117 245.372 100.07C245.292 100.006 245.19 99.9748 245.088 99.9834C244.895 99.9834 244.76 100.052 244.748 100.023C244.735 99.9919 244.834 99.9015 245.066 99.8332C245.14 99.8153 245.217 99.8136 245.291 99.8281C245.366 99.8426 245.436 99.8742 245.497 99.9194C245.565 99.9834 245.616 100.064 245.647 100.151C245.677 100.24 245.687 100.334 245.674 100.426C245.664 100.604 245.596 100.773 245.48 100.908C245.383 101.02 245.248 101.092 245.101 101.11C244.851 101.136 244.735 100.999 244.752 100.981Z" fill="#878787"/>
<path d="M245.528 101.334C245.528 101.334 245.721 101.467 245.721 101.811C245.712 102.012 245.626 102.202 245.48 102.34C245.387 102.425 245.277 102.487 245.157 102.524C245.037 102.561 244.911 102.572 244.787 102.555C244.662 102.531 244.544 102.481 244.441 102.407C244.338 102.333 244.254 102.236 244.192 102.125C244.144 102.036 244.115 101.938 244.104 101.836C244.095 101.735 244.106 101.633 244.137 101.537C244.244 101.205 244.464 101.107 244.473 101.141C244.481 101.175 244.334 101.291 244.283 101.571C244.257 101.703 244.274 101.84 244.329 101.963C244.385 102.086 244.479 102.188 244.596 102.257C244.713 102.324 244.848 102.354 244.983 102.341C245.117 102.328 245.244 102.274 245.347 102.186C245.471 102.084 245.55 101.94 245.571 101.781C245.576 101.631 245.561 101.48 245.528 101.334Z" fill="#1D1D1D"/>
<path d="M244.011 99.5578C243.915 99.6465 243.803 99.7156 243.68 99.76C243.35 99.9042 242.993 99.9767 242.634 99.975C242.095 99.9724 241.566 99.8393 241.091 99.5876C240.519 99.2762 240.028 98.8343 239.658 98.2976C239.022 97.3071 238.63 96.1801 238.512 95.0086C238.452 94.5786 238.422 94.2084 238.404 93.9635C238.383 93.8338 238.383 93.7016 238.404 93.5728C238.515 94.0394 238.601 94.5112 238.663 94.9873C238.822 96.1203 239.221 97.2064 239.834 98.1731C240.181 98.6833 240.639 99.1082 241.173 99.4161C241.619 99.6584 242.113 99.7967 242.621 99.8206C243.097 99.8248 243.569 99.7361 244.011 99.5578Z" fill="#121212"/>
<path d="M246.91 95.8604C246.845 95.8604 246.651 95.1164 246.147 94.3076C245.643 93.4996 245.049 92.9877 245.092 92.9365C245.614 93.2326 246.042 93.6694 246.328 94.1958C246.676 94.6847 246.878 95.2614 246.91 95.8604Z" fill="#1D1D1D"/>
<path d="M223.469 132.208H221.949C220.566 132.075 219.795 132.053 219.407 131.687C218.891 131.193 219.601 130.711 219.601 130.711C219.601 130.711 218.603 130.368 218.697 129.761C218.757 129.331 219.231 129.301 219.231 129.301C219.231 129.301 218.369 128.957 218.176 128.587C217.939 128.089 218.559 127.822 218.559 127.822C217.358 127.082 217.469 126.347 217.745 126.274C218.021 126.201 218.96 126.635 218.96 126.635C219.752 126.858 221.914 127.516 221.113 126.325C220.312 125.134 220.148 123.922 220.329 123.56C220.369 123.465 220.441 123.388 220.532 123.342C220.624 123.295 220.729 123.283 220.829 123.308C220.929 123.332 221.017 123.391 221.077 123.475C221.137 123.558 221.165 123.66 221.156 123.762C221.28 124.231 221.469 124.68 221.72 125.096C221.91 125.43 222.153 125.732 222.439 125.99C222.779 126.291 223.081 126.532 223.34 126.734L224.692 128.024L223.469 132.208Z" fill="#CACACA"/>
<path d="M214.007 117.059C214.119 116.732 214.39 116.5 214.683 116.654C214.741 116.723 214.781 116.805 214.798 116.893C214.814 116.982 214.807 117.072 214.778 117.158L213.839 120.206L214.726 118.056C214.838 117.729 215.135 117.531 215.338 117.708C215.388 117.779 215.421 117.861 215.433 117.946C215.446 118.032 215.439 118.12 215.411 118.203L214.601 120.735L215.26 119.152C215.398 118.792 215.557 118.693 215.743 118.775C215.927 118.856 215.932 119.118 215.889 119.264L215.333 121.131C215.454 121.492 215.867 122.623 215.467 123.26C215.467 123.29 215.509 123.397 215.505 123.431L215.695 123.646L214.472 124.769C214.472 124.769 213.322 121.866 213.102 120.994C212.967 120.491 212.991 119.959 213.172 119.471L214.007 117.059Z" fill="#CACACA"/>
</svg>
