<svg width="250" height="250" viewBox="0 0 250 250" fill="none" xmlns="http://www.w3.org/2000/svg">
<path d="M230.906 150.462C230.906 187.97 190.845 187.468 141.427 187.468C92.0091 187.468 22.1216 195.513 22.1216 158.006C22.1216 120.498 92.0091 51.64 141.427 51.64C190.845 51.64 230.906 112.955 230.906 150.462Z" fill="#B9B9B9"/>
<path d="M229.2 188.643C229.2 172.23 184.619 177.589 129.626 177.589C74.6321 177.589 21.6021 177.099 21.6021 188.989C21.6021 202.722 52.9066 206.395 107.9 206.395C162.894 206.395 229.2 206.395 229.2 188.643Z" fill="#F5F5F5"/>
<path d="M230.052 128.648C227.242 131.544 225.674 134.915 225.664 134.931C225.644 134.939 229.245 134.089 232.224 131.025C235.209 127.967 236.149 124.149 236.14 124.17C236.124 124.18 232.872 125.765 230.052 128.648Z" fill="#494949"/>
<path d="M202.237 148C203.356 147.613 204.464 147.199 205.561 146.759C207.756 145.88 209.905 144.891 212.005 143.805C216.205 141.632 220.205 139.053 223.943 136.087C224.965 135.276 225.967 134.437 226.952 133.573C227.989 132.662 228.98 131.666 230.039 130.779C230.135 130.698 230.249 130.826 230.166 130.923C228.59 132.756 226.688 134.301 224.846 135.809C222.99 137.329 221.068 138.754 219.087 140.083C215.127 142.741 210.929 145.012 206.54 146.842C205.34 147.342 204.126 147.809 202.899 148.243C201.61 148.7 200.298 149.203 198.953 149.463C198.733 149.506 198.653 149.205 198.862 149.124C199.964 148.689 201.122 148.385 202.237 148Z" fill="#494949"/>
<path d="M229.776 130.143C229.834 130.094 229.907 130.172 229.849 130.226C228.677 131.303 227.558 132.483 226.54 133.72C226.28 134.037 226.029 134.361 225.781 134.689C225.91 134.433 226.143 133.989 226.472 133.429C227.486 132.259 228.558 131.156 229.776 130.143Z" fill="#494949"/>
<path d="M227.195 134.069C228.423 133.331 229.587 132.457 230.603 131.391C230.675 131.315 230.763 131.42 230.697 131.498C229.778 132.579 228.7 133.469 227.529 134.204C227.43 134.266 227.33 134.329 227.229 134.391C226.282 134.785 225.663 134.93 225.663 134.932C225.663 134.932 225.677 134.903 225.702 134.85C226.209 134.606 226.715 134.358 227.195 134.069Z" fill="#494949"/>
<path d="M222.875 130.439C222.501 134.394 222.153 137.78 222.053 137.744C222.148 137.814 225.617 135.334 225.965 131.253C226.323 127.212 225.924 123.975 226.036 123.997C225.923 124.008 223.26 126.521 222.875 130.439Z" fill="#494949"/>
<path d="M223.502 131.826C223.521 131.755 223.624 131.781 223.608 131.856C223.28 133.359 222.98 134.927 222.495 136.396C222.372 136.772 222.242 137.143 222.094 137.507C222.138 137.253 222.219 136.805 222.3 136.204C222.795 134.782 223.099 133.301 223.502 131.826Z" fill="#494949"/>
<path d="M223.298 136.335C224.169 135.137 224.671 133.807 224.879 132.407C224.894 132.308 225.025 132.346 225.017 132.443C224.896 133.803 224.481 135.096 223.685 136.268C223.618 136.367 223.548 136.466 223.476 136.566C222.71 137.35 222.047 137.742 222.053 137.744C222.053 137.744 222.057 137.716 222.066 137.665C222.536 137.243 222.958 136.803 223.298 136.335Z" fill="#494949"/>
<path d="M222.053 137.744C222.053 137.744 222.081 137.582 222.132 137.288C222.503 136.746 222.815 136.185 223.055 135.621C223.644 134.234 223.901 132.76 224.25 131.341C224.266 131.273 224.353 131.296 224.348 131.367C224.238 132.852 223.896 134.308 223.312 135.699C223.053 136.317 222.749 136.943 222.352 137.539C222.165 137.674 222.053 137.744 222.053 137.744Z" fill="#494949"/>
<path d="M229.23 138.764C225.193 138.575 222.098 137.679 222.093 137.804C222.13 137.686 225.27 135.141 229.196 135.267C233.154 135.415 236.518 135.513 236.508 135.398C236.551 135.518 233.301 138.975 229.23 138.764Z" fill="#494949"/>
<path d="M228.052 137.844C228.126 137.836 228.13 137.72 228.053 137.724C226.506 137.809 224.945 137.743 223.454 137.791C223.071 137.803 222.694 137.816 222.319 137.843C222.56 137.883 222.989 137.949 223.565 138.048C225.024 137.97 226.509 138.013 228.052 137.844Z" fill="#494949"/>
<path d="M223.759 136.994C225.108 136.455 226.463 136.236 227.851 136.258C227.949 136.259 227.944 136.112 227.849 136.104C226.522 135.997 225.227 136.141 223.933 136.619C223.824 136.66 223.714 136.702 223.602 136.746C222.667 137.292 222.093 137.808 222.093 137.804C222.093 137.804 222.119 137.809 222.168 137.817C222.703 137.491 223.232 137.204 223.759 136.994Z" fill="#494949"/>
<path d="M222.093 137.804C222.093 137.804 222.246 137.832 222.528 137.876C223.139 137.682 223.746 137.534 224.339 137.444C225.791 137.222 227.254 137.269 228.724 137.114C228.794 137.106 228.793 137.008 228.723 137.003C227.253 136.89 225.795 136.942 224.345 137.158C223.701 137.254 223.041 137.373 222.377 137.574C222.194 137.717 222.093 137.804 222.093 137.804Z" fill="#494949"/>
<path d="M216.886 135.022C216.126 138.907 215.443 142.232 215.348 142.185C215.436 142.265 219.134 140.187 219.879 136.177C220.631 132.206 220.549 128.951 220.658 128.986C220.544 128.983 217.654 131.173 216.886 135.022Z" fill="#494949"/>
<path d="M217.374 136.47C217.4 136.401 217.499 136.438 217.476 136.511C217.002 137.967 216.549 139.491 215.921 140.895C215.761 141.255 215.595 141.609 215.412 141.954C215.481 141.708 215.606 141.271 215.746 140.683C216.379 139.326 216.828 137.889 217.374 136.47Z" fill="#494949"/>
<path d="M216.726 140.924C217.712 139.831 218.342 138.566 218.686 137.2C218.71 137.103 218.838 137.155 218.82 137.251C218.566 138.587 218.026 139.825 217.118 140.9C217.042 140.991 216.963 141.082 216.881 141.173C216.041 141.866 215.342 142.182 215.348 142.185C215.348 142.185 215.355 142.157 215.369 142.107C215.878 141.741 216.342 141.351 216.726 140.924Z" fill="#494949"/>
<path d="M215.348 142.185C215.347 142.185 215.391 142.028 215.472 141.741C215.895 141.244 216.26 140.722 216.555 140.188C217.278 138.876 217.679 137.441 218.165 136.071C218.188 136.005 218.272 136.038 218.26 136.108C218.005 137.57 217.521 138.977 216.803 140.293C216.484 140.878 216.121 141.466 215.666 142.014C215.466 142.128 215.348 142.185 215.348 142.185Z" fill="#494949"/>
<path d="M222.388 143.998C218.392 143.359 215.399 142.125 215.381 142.249C215.43 142.135 218.808 139.957 222.697 140.522C226.618 141.114 229.95 141.593 229.951 141.478C229.983 141.601 226.418 144.663 222.388 143.998Z" fill="#494949"/>
<path d="M221.308 142.953C221.382 142.953 221.397 142.838 221.32 142.834C219.773 142.746 218.226 142.506 216.737 142.388C216.355 142.357 215.979 142.328 215.602 142.313C215.839 142.379 216.259 142.492 216.822 142.655C218.283 142.74 219.756 142.948 221.308 142.953Z" fill="#494949"/>
<path d="M217.12 141.629C218.516 141.244 219.884 141.178 221.263 141.355C221.361 141.368 221.37 141.221 221.276 141.203C219.966 140.948 218.664 140.945 217.33 141.277C217.217 141.305 217.103 141.334 216.988 141.366C216.004 141.804 215.38 142.253 215.381 142.249C215.381 142.249 215.407 142.257 215.454 142.271C216.02 142.006 216.574 141.78 217.12 141.629Z" fill="#494949"/>
<path d="M215.381 142.249C215.381 142.249 215.531 142.294 215.806 142.37C216.434 142.245 217.053 142.165 217.652 142.141C219.119 142.083 220.569 142.294 222.047 142.304C222.117 142.304 222.126 142.207 222.057 142.194C220.606 141.918 219.151 141.806 217.686 141.859C217.035 141.882 216.366 141.927 215.686 142.053C215.49 142.174 215.381 142.249 215.381 142.249Z" fill="#494949"/>
<path d="M210.137 139.084C208.974 142.854 207.942 146.078 207.852 146.02C207.932 146.11 211.839 144.474 212.997 140.579C214.159 136.724 214.412 133.485 214.518 133.532C214.405 133.515 211.305 135.352 210.137 139.084Z" fill="#494949"/>
<path d="M210.471 140.578C210.504 140.513 210.599 140.562 210.568 140.631C209.944 142.022 209.333 143.483 208.559 144.805C208.361 145.144 208.158 145.476 207.939 145.798C208.034 145.561 208.205 145.142 208.406 144.574C209.181 143.3 209.778 141.924 210.471 140.578Z" fill="#494949"/>
<path d="M209.359 144.927C210.457 143.956 211.217 142.773 211.702 141.457C211.737 141.363 211.858 141.43 211.83 141.523C211.438 142.82 210.77 143.987 209.752 144.95C209.667 145.031 209.578 145.112 209.487 145.193C208.577 145.784 207.846 146.017 207.852 146.02C207.852 146.02 207.862 145.994 207.881 145.946C208.428 145.641 208.931 145.306 209.359 144.927Z" fill="#494949"/>
<path d="M207.852 146.02C207.852 146.02 207.912 145.869 208.022 145.594C208.496 145.149 208.915 144.673 209.265 144.176C210.124 142.957 210.674 141.579 211.301 140.275C211.331 140.212 211.411 140.255 211.391 140.323C210.985 141.745 210.356 143.086 209.502 144.31C209.122 144.854 208.698 145.396 208.187 145.888C207.976 145.977 207.852 146.02 207.852 146.02Z" fill="#494949"/>
<path d="M214.679 148.638C210.766 147.539 207.908 145.968 207.878 146.088C207.939 145.981 211.538 144.208 215.35 145.223C219.191 146.267 222.454 147.133 222.467 147.019C222.487 147.145 218.625 149.767 214.679 148.638Z" fill="#494949"/>
<path d="M213.712 147.475C213.786 147.484 213.813 147.372 213.737 147.358C212.205 147.091 210.688 146.673 209.216 146.383C208.838 146.308 208.465 146.236 208.092 146.177C208.321 146.27 208.728 146.431 209.273 146.658C210.72 146.913 212.167 147.29 213.712 147.475Z" fill="#494949"/>
<path d="M209.677 145.674C211.109 145.454 212.48 145.547 213.835 145.883C213.931 145.907 213.955 145.762 213.864 145.733C212.586 145.328 211.289 145.174 209.924 145.348C209.809 145.363 209.692 145.379 209.574 145.397C208.547 145.718 207.877 146.092 207.878 146.088C207.878 146.088 207.903 146.099 207.95 146.118C208.541 145.921 209.118 145.76 209.677 145.674Z" fill="#494949"/>
<path d="M207.878 146.088C207.878 146.088 208.023 146.15 208.29 146.257C208.929 146.205 209.555 146.198 210.154 146.244C211.623 146.356 213.046 146.734 214.516 146.916C214.587 146.924 214.606 146.829 214.538 146.808C213.122 146.365 211.684 146.085 210.218 145.968C209.567 145.915 208.895 145.882 208.203 145.928C207.995 146.026 207.878 146.088 207.878 146.088Z" fill="#494949"/>
<path d="M203.33 142.2C201.789 145.819 200.428 148.91 200.343 148.843C200.415 148.941 204.49 147.745 206.036 144.001C207.584 140.297 208.159 137.106 208.259 137.165C208.148 137.136 204.874 138.618 203.33 142.2Z" fill="#494949"/>
<path d="M203.513 143.722C203.552 143.661 203.643 143.72 203.605 143.785C202.841 145.098 202.082 146.484 201.174 147.713C200.942 148.028 200.705 148.336 200.453 148.631C200.572 148.406 200.785 148.009 201.045 147.466C201.949 146.285 202.685 144.984 203.513 143.722Z" fill="#494949"/>
<path d="M201.961 147.922C203.157 147.078 204.036 145.986 204.654 144.731C204.698 144.642 204.812 144.721 204.775 144.811C204.253 146.057 203.468 147.143 202.352 147.988C202.258 148.059 202.162 148.131 202.063 148.201C201.092 148.688 200.337 148.839 200.342 148.843C200.342 148.843 200.355 148.818 200.379 148.772C200.957 148.529 201.495 148.252 201.961 147.922Z" fill="#494949"/>
<path d="M200.342 148.843C200.341 148.842 200.418 148.699 200.556 148.437C201.076 148.047 201.543 147.62 201.943 147.165C202.926 146.048 203.614 144.738 204.372 143.511C204.408 143.453 204.484 143.503 204.458 143.569C203.908 144.937 203.145 146.201 202.167 147.324C201.732 147.823 201.253 148.315 200.692 148.747C200.471 148.813 200.342 148.843 200.342 148.843Z" fill="#494949"/>
<path d="M206.905 152.197C203.106 150.674 200.405 148.797 200.363 148.913C200.435 148.813 204.215 147.447 207.918 148.877C211.648 150.338 214.814 151.56 214.839 151.448C214.846 151.574 210.733 153.753 206.905 152.197Z" fill="#494949"/>
<path d="M206.055 150.933C206.129 150.95 206.167 150.842 206.092 150.82C204.589 150.386 203.114 149.803 201.671 149.353C201.301 149.237 200.935 149.124 200.567 149.024C200.787 149.142 201.178 149.347 201.7 149.632C203.122 150.045 204.53 150.58 206.055 150.933Z" fill="#494949"/>
<path d="M202.205 148.699C203.659 148.638 205.02 148.882 206.339 149.365C206.432 149.4 206.471 149.258 206.383 149.219C205.148 148.676 203.868 148.38 202.485 148.403C202.368 148.405 202.249 148.408 202.13 148.412C201.07 148.618 200.361 148.916 200.363 148.912C200.363 148.912 200.386 148.926 200.431 148.95C201.043 148.819 201.636 148.723 202.205 148.699Z" fill="#494949"/>
<path d="M200.363 148.913C200.363 148.913 200.501 148.99 200.757 149.126C201.402 149.145 202.029 149.207 202.624 149.319C204.082 149.593 205.466 150.125 206.915 150.467C206.985 150.484 207.013 150.391 206.948 150.362C205.578 149.766 204.169 149.329 202.716 149.051C202.07 148.927 201.401 148.82 200.704 148.79C200.486 148.864 200.363 148.913 200.363 148.913Z" fill="#494949"/>
<path d="M171.902 97.76C170.498 101.56 170.419 105.284 170.416 105.304C170.401 105.319 173.35 103.065 174.842 99.041C176.341 95.021 175.666 91.1465 175.666 91.1695C175.656 91.185 173.321 93.9675 171.902 97.76Z" fill="#F5F5F5"/>
<path d="M154.259 126.86C155.126 126.048 155.972 125.214 156.798 124.362C158.451 122.658 160.017 120.872 161.5 119.017C164.464 115.308 167.084 111.31 169.307 107.065C169.915 105.905 170.494 104.726 171.046 103.532C171.628 102.274 172.134 100.957 172.745 99.712C172.8 99.5985 172.956 99.669 172.919 99.792C172.215 102.113 171.099 104.306 170.021 106.44C168.936 108.59 167.751 110.682 166.476 112.709C163.924 116.763 161.001 120.561 157.725 124.035C156.829 124.985 155.907 125.91 154.96 126.81C153.965 127.756 152.97 128.754 151.845 129.544C151.66 129.674 151.467 129.432 151.625 129.271C152.459 128.423 153.395 127.67 154.259 126.86Z" fill="#F5F5F5"/>
<path d="M172.251 99.2395C172.285 99.171 172.383 99.212 172.351 99.285C171.713 100.75 171.165 102.288 170.732 103.836C170.621 104.233 170.522 104.632 170.427 105.033C170.442 104.747 170.477 104.245 170.552 103.599C171.008 102.112 171.545 100.665 172.251 99.2395Z" fill="#F5F5F5"/>
<path d="M171.47 103.886C172.295 102.707 173.007 101.431 173.508 100.04C173.543 99.941 173.666 100.002 173.637 100.099C173.231 101.465 172.604 102.72 171.829 103.873C171.763 103.971 171.697 104.069 171.63 104.167C170.923 104.916 170.416 105.302 170.416 105.303C170.416 105.303 170.417 105.272 170.419 105.213C170.784 104.782 171.147 104.347 171.47 103.886Z" fill="#F5F5F5"/>
<path d="M166.064 102.342C167.312 106.109 168.353 109.346 168.248 109.355C168.363 109.38 170.536 105.69 169.215 101.818C167.919 97.9775 166.253 95.1835 166.365 95.1575C166.265 95.214 164.841 98.6035 166.064 102.342Z" fill="#F5F5F5"/>
<path d="M167.194 103.352C167.183 103.279 167.287 103.261 167.303 103.336C167.607 104.844 167.963 106.4 168.11 107.941C168.148 108.336 168.178 108.728 168.19 109.121C168.128 108.871 168.022 108.429 167.855 107.846C167.736 106.344 167.419 104.866 167.194 103.352Z" fill="#F5F5F5"/>
<path d="M168.819 107.556C169.134 106.103 169.059 104.682 168.686 103.317C168.66 103.22 168.795 103.201 168.826 103.294C169.262 104.586 169.402 105.938 169.146 107.336C169.124 107.453 169.101 107.573 169.075 107.693C168.69 108.725 168.241 109.355 168.248 109.354C168.248 109.354 168.241 109.327 168.228 109.276C168.488 108.699 168.696 108.123 168.819 107.556Z" fill="#F5F5F5"/>
<path d="M168.248 109.354C168.248 109.354 168.208 109.195 168.137 108.905C168.258 108.257 168.317 107.617 168.31 107.003C168.291 105.494 167.934 104.041 167.682 102.601C167.67 102.532 167.758 102.518 167.782 102.585C168.278 103.987 168.551 105.457 168.576 106.968C168.588 107.639 168.562 108.336 168.439 109.043C168.322 109.244 168.248 109.354 168.248 109.354Z" fill="#F5F5F5"/>
<path d="M175.216 107.341C171.452 108.826 168.264 109.277 168.309 109.393C168.295 109.27 170.143 105.656 173.78 104.159C177.457 102.67 180.57 101.379 180.515 101.278C180.603 101.37 179.022 105.864 175.216 107.341Z" fill="#F5F5F5"/>
<path d="M173.77 106.984C173.834 106.946 173.791 106.839 173.722 106.874C172.343 107.587 170.89 108.167 169.546 108.823C169.202 108.991 168.862 109.158 168.53 109.336C168.767 109.273 169.185 109.158 169.751 109.012C171.053 108.343 172.428 107.772 173.77 106.984Z" fill="#F5F5F5"/>
<path d="M169.505 107.969C170.522 106.923 171.671 106.167 172.949 105.617C173.039 105.578 172.975 105.446 172.885 105.478C171.63 105.925 170.504 106.587 169.514 107.555C169.43 107.637 169.346 107.721 169.262 107.807C168.627 108.689 168.31 109.397 168.308 109.393C168.308 109.393 168.334 109.387 168.382 109.375C168.74 108.857 169.108 108.378 169.505 107.969Z" fill="#F5F5F5"/>
<path d="M168.308 109.393C168.308 109.393 168.459 109.356 168.734 109.281C169.215 108.853 169.711 108.468 170.216 108.143C171.454 107.344 172.809 106.787 174.09 106.041C174.152 106.006 174.111 105.916 174.045 105.94C172.657 106.441 171.345 107.087 170.107 107.879C169.557 108.231 169.001 108.611 168.475 109.067C168.365 109.272 168.308 109.393 168.308 109.393Z" fill="#F5F5F5"/>
<path d="M162.432 108.988C163.298 112.851 164.011 116.169 163.904 116.166C164.017 116.203 166.562 112.786 165.631 108.815C164.723 104.877 163.339 101.937 163.453 101.924C163.348 101.969 161.587 105.157 162.432 108.988Z" fill="#F5F5F5"/>
<path d="M163.459 110.111C163.455 110.038 163.561 110.031 163.569 110.107C163.721 111.632 163.919 113.211 163.91 114.752C163.908 115.146 163.898 115.538 163.87 115.928C163.834 115.674 163.773 115.225 163.665 114.629C163.698 113.13 163.53 111.632 163.459 110.111Z" fill="#F5F5F5"/>
<path d="M164.657 114.448C165.119 113.044 165.186 111.63 164.952 110.24C164.936 110.142 165.073 110.137 165.095 110.232C165.4 111.557 165.404 112.91 165.006 114.266C164.973 114.38 164.937 114.496 164.899 114.612C164.41 115.591 163.898 116.166 163.905 116.166C163.905 116.166 163.9 116.138 163.893 116.087C164.211 115.543 164.477 114.996 164.657 114.448Z" fill="#F5F5F5"/>
<path d="M163.904 116.166C163.903 116.166 163.88 116.004 163.838 115.71C164.025 115.082 164.149 114.454 164.204 113.845C164.338 112.35 164.127 110.874 164.021 109.422C164.016 109.353 164.106 109.348 164.122 109.417C164.477 110.858 164.6 112.342 164.473 113.84C164.416 114.506 164.32 115.192 164.125 115.88C163.989 116.065 163.904 116.166 163.904 116.166Z" fill="#F5F5F5"/>
<path d="M171.067 114.933C167.159 115.989 163.928 116.091 163.961 116.211C163.96 116.087 166.171 112.709 169.953 111.63C173.773 110.561 177.011 109.631 176.966 109.526C177.044 109.625 175.017 113.886 171.067 114.933Z" fill="#F5F5F5"/>
<path d="M169.659 114.421C169.728 114.39 169.695 114.28 169.623 114.307C168.174 114.861 166.664 115.277 165.255 115.78C164.894 115.909 164.538 116.037 164.188 116.177C164.431 116.141 164.86 116.072 165.44 115.989C166.809 115.469 168.24 115.054 169.659 114.421Z" fill="#F5F5F5"/>
<path d="M165.301 114.931C166.422 114.006 167.646 113.384 168.977 112.98C169.072 112.951 169.021 112.813 168.928 112.835C167.629 113.14 166.438 113.672 165.352 114.522C165.26 114.594 165.168 114.668 165.075 114.744C164.352 115.548 163.963 116.215 163.961 116.211C163.961 116.211 163.988 116.207 164.037 116.2C164.447 115.726 164.863 115.292 165.301 114.931Z" fill="#F5F5F5"/>
<path d="M163.961 116.211C163.961 116.211 164.116 116.19 164.398 116.146C164.922 115.774 165.456 115.448 165.993 115.181C167.311 114.525 168.721 114.122 170.075 113.525C170.139 113.496 170.108 113.403 170.04 113.42C168.603 113.763 167.228 114.258 165.911 114.908C165.326 115.196 164.732 115.512 164.161 115.905C164.03 116.097 163.961 116.211 163.961 116.211Z" fill="#F5F5F5"/>
<path d="M157.896 115.471C158.348 119.393 158.701 122.763 158.595 122.747C158.705 122.796 161.618 119.698 161.111 115.663C160.624 111.663 159.554 108.599 159.669 108.599C159.559 108.63 157.464 111.581 157.896 115.471Z" fill="#F5F5F5"/>
<path d="M158.802 116.699C158.806 116.626 158.913 116.632 158.912 116.708C158.901 118.234 158.929 119.821 158.753 121.347C158.709 121.738 158.656 122.125 158.586 122.508C158.577 122.253 158.565 121.8 158.521 121.198C158.717 119.715 158.711 118.213 158.802 116.699Z" fill="#F5F5F5"/>
<path d="M159.533 121.13C160.145 119.792 160.365 118.399 160.28 116.996C160.274 116.897 160.411 116.908 160.423 117.004C160.586 118.351 160.444 119.691 159.901 120.989C159.856 121.098 159.807 121.209 159.757 121.32C159.162 122.234 158.588 122.746 158.594 122.747C158.594 122.747 158.593 122.719 158.591 122.667C158.969 122.164 159.294 121.652 159.533 121.13Z" fill="#F5F5F5"/>
<path d="M158.595 122.748C158.595 122.748 158.589 122.585 158.579 122.288C158.834 121.687 159.026 121.08 159.146 120.482C159.441 119.016 159.389 117.53 159.438 116.081C159.44 116.012 159.531 116.018 159.54 116.088C159.74 117.554 159.704 119.038 159.416 120.507C159.288 121.16 159.118 121.83 158.848 122.488C158.691 122.657 158.595 122.748 158.595 122.748Z" fill="#F5F5F5"/>
<path d="M165.887 122.337C161.869 122.939 158.626 122.676 158.647 122.798C158.66 122.675 161.236 119.578 165.127 118.941C169.057 118.318 172.387 117.771 172.353 117.661C172.421 117.768 169.945 121.749 165.887 122.337Z" fill="#F5F5F5"/>
<path d="M164.535 121.671C164.606 121.648 164.586 121.535 164.511 121.554C163.004 121.938 161.45 122.179 159.988 122.519C159.613 122.605 159.243 122.692 158.878 122.792C159.125 122.783 159.562 122.763 160.15 122.747C161.574 122.385 163.049 122.136 164.535 121.671Z" fill="#F5F5F5"/>
<path d="M160.124 121.681C161.344 120.892 162.634 120.415 164.007 120.166C164.105 120.149 164.069 120.006 163.974 120.017C162.644 120.171 161.397 120.563 160.219 121.282C160.119 121.343 160.019 121.406 159.918 121.47C159.108 122.185 158.647 122.802 158.646 122.798C158.646 122.798 158.673 122.797 158.724 122.796C159.185 122.373 159.648 121.989 160.124 121.681Z" fill="#F5F5F5"/>
<path d="M158.647 122.798C158.647 122.798 158.804 122.795 159.091 122.783C159.654 122.473 160.223 122.21 160.79 122.006C162.177 121.506 163.629 121.267 165.046 120.829C165.114 120.808 165.092 120.713 165.022 120.722C163.55 120.898 162.123 121.232 160.737 121.727C160.121 121.947 159.494 122.192 158.88 122.518C158.728 122.693 158.647 122.798 158.647 122.798Z" fill="#F5F5F5"/>
<path d="M152.927 121.112C152.973 125.052 152.971 128.435 152.867 128.408C152.972 128.468 156.215 125.704 156.124 121.647C156.05 117.627 155.293 114.475 155.408 114.487C155.295 114.507 152.899 117.205 152.927 121.112Z" fill="#F5F5F5"/>
<path d="M153.707 122.428C153.719 122.356 153.825 122.372 153.816 122.448C153.646 123.961 153.509 125.539 153.173 127.035C153.087 127.418 152.995 127.796 152.884 128.17C152.902 127.915 152.937 127.464 152.956 126.862C153.307 125.412 153.457 123.92 153.707 122.428Z" fill="#F5F5F5"/>
<path d="M153.976 126.903C154.73 125.64 155.094 124.282 155.155 122.881C155.159 122.781 155.295 122.807 155.297 122.904C155.321 124.258 155.04 125.572 154.36 126.802C154.303 126.906 154.243 127.011 154.181 127.115C153.49 127.959 152.86 128.407 152.867 128.408C152.867 128.408 152.868 128.38 152.872 128.328C153.303 127.87 153.682 127.396 153.976 126.903Z" fill="#F5F5F5"/>
<path d="M152.867 128.408C152.866 128.408 152.878 128.246 152.899 127.95C153.218 127.38 153.473 126.798 153.656 126.218C154.105 124.794 154.208 123.315 154.407 121.883C154.417 121.814 154.507 121.83 154.509 121.9C154.557 123.376 154.367 124.845 153.924 126.273C153.727 126.907 153.487 127.553 153.148 128.179C152.973 128.329 152.867 128.408 152.867 128.408Z" fill="#F5F5F5"/>
<path d="M160.212 128.78C156.128 128.947 152.906 128.34 152.914 128.464C152.94 128.343 155.845 125.543 159.803 125.329C163.799 125.134 167.183 124.951 167.161 124.839C167.218 124.951 164.336 128.63 160.212 128.78Z" fill="#F5F5F5"/>
<path d="M158.928 127.975C159.002 127.96 158.993 127.846 158.916 127.856C157.368 128.076 155.786 128.149 154.286 128.33C153.902 128.375 153.522 128.422 153.146 128.482C153.394 128.5 153.835 128.527 154.426 128.573C155.89 128.367 157.392 128.278 158.928 127.975Z" fill="#F5F5F5"/>
<path d="M154.512 127.514C155.816 126.861 157.157 126.525 158.557 126.426C158.656 126.419 158.635 126.274 158.539 126.274C157.192 126.284 155.903 126.54 154.648 127.128C154.542 127.177 154.435 127.229 154.328 127.282C153.442 127.905 152.914 128.469 152.914 128.464C152.914 128.464 152.941 128.467 152.992 128.471C153.498 128.1 154.002 127.769 154.512 127.514Z" fill="#F5F5F5"/>
<path d="M152.914 128.464C152.914 128.464 153.072 128.477 153.36 128.496C153.958 128.249 154.555 128.049 155.143 127.907C156.585 127.558 158.064 127.476 159.526 127.194C159.596 127.181 159.585 127.084 159.514 127.085C158.023 127.102 156.56 127.281 155.12 127.624C154.48 127.776 153.826 127.952 153.176 128.21C153.007 128.368 152.914 128.464 152.914 128.464Z" fill="#F5F5F5"/>
<path d="M31.3893 125.438C34.2098 128.947 35.6043 132.853 35.6138 132.872C35.6353 132.883 31.7258 131.562 28.7338 127.848C25.7353 124.14 25.0848 119.804 25.0923 119.829C25.1088 119.842 28.5558 121.942 31.3893 125.438Z" fill="#F5F5F5"/>
<path d="M60.2709 149.835C59.0689 149.288 57.8814 148.712 56.7084 148.109C54.3624 146.903 52.0794 145.58 49.8604 144.154C45.4229 141.301 41.2484 138.02 37.4054 134.336C36.3544 133.328 35.3279 132.292 34.3244 131.229C33.2669 130.109 32.2689 128.9 31.1854 127.804C31.0864 127.704 30.9469 127.835 31.0294 127.951C32.5894 130.151 34.5414 132.065 36.4309 133.932C38.3344 135.814 40.3214 137.597 42.3829 139.28C46.5054 142.646 50.9309 145.606 55.6139 148.098C56.8944 148.78 58.1939 149.425 59.5114 150.036C60.8954 150.678 62.2989 151.374 63.7649 151.804C64.0054 151.874 64.1244 151.549 63.9009 151.436C62.7219 150.839 61.4684 150.38 60.2709 149.835Z" fill="#F5F5F5"/>
<path d="M31.5418 127.126C31.4818 127.066 31.3928 127.145 31.4523 127.21C32.6418 128.529 33.7623 129.956 34.7648 131.436C35.0218 131.815 35.2668 132.201 35.5078 132.591C35.3913 132.293 35.1778 131.776 34.8708 131.12C33.8658 129.715 32.7898 128.378 31.5418 127.126Z" fill="#F5F5F5"/>
<path d="M34.0023 131.754C32.7153 130.806 31.5138 129.713 30.4958 128.424C30.4238 128.332 30.3153 128.44 30.3803 128.532C31.2893 129.829 32.3943 130.929 33.6183 131.869C33.7213 131.948 33.8263 132.028 33.9313 132.108C34.9418 132.644 35.6138 132.871 35.6138 132.872C35.6138 132.872 35.6018 132.838 35.5788 132.777C35.0423 132.453 34.5053 132.125 34.0023 131.754Z" fill="#F5F5F5"/>
<path d="M39.17 128.179C39.178 132.608 39.217 136.402 39.3315 136.372C39.2185 136.44 35.6235 133.323 35.6565 128.758C35.6735 124.235 36.4495 120.684 36.323 120.697C36.4485 120.722 39.1455 123.79 39.17 128.179Z" fill="#F5F5F5"/>
<path d="M38.3316 129.653C38.3176 129.572 38.2011 129.59 38.2116 129.675C38.4206 131.377 38.5926 133.149 38.9801 134.83C39.0786 135.26 39.1846 135.685 39.3111 136.105C39.2881 135.819 39.2446 135.313 39.2161 134.637C38.8121 133.008 38.6271 131.332 38.3316 129.653Z" fill="#F5F5F5"/>
<path d="M38.095 134.678C37.251 133.256 36.8305 131.728 36.7435 130.153C36.7375 130.041 36.5875 130.069 36.587 130.178C36.581 131.7 36.9095 133.179 37.672 134.563C37.7365 134.68 37.803 134.798 37.873 134.915C38.643 135.866 39.3385 136.371 39.3315 136.372C39.3315 136.372 39.3295 136.341 39.325 136.283C38.8465 135.766 38.424 135.233 38.095 134.678Z" fill="#F5F5F5"/>
<path d="M39.3317 136.372C39.3327 136.372 39.3177 136.19 39.2907 135.858C38.9347 135.217 38.6462 134.563 38.4382 133.911C37.9267 132.31 37.7927 130.647 37.5522 129.035C37.5407 128.958 37.4422 128.975 37.4407 129.054C37.4102 130.714 37.6402 132.365 38.1452 133.97C38.3692 134.683 38.6412 135.41 39.0207 136.113C39.2147 136.283 39.3317 136.372 39.3317 136.372Z" fill="#F5F5F5"/>
<path d="M31.2619 136.751C35.7609 136.965 39.2879 136.295 39.2809 136.435C39.2524 136.299 36.0284 133.146 31.6594 132.873C27.2519 132.622 23.5079 132.378 23.5304 132.251C23.4699 132.38 26.7209 136.558 31.2619 136.751Z" fill="#F5F5F5"/>
<path d="M32.6633 135.853C32.5818 135.836 32.5898 135.708 32.6748 135.72C34.3828 135.977 36.1223 136.068 37.7723 136.278C38.1953 136.331 38.6128 136.385 39.0263 136.454C38.7538 136.473 38.2713 136.501 37.6223 136.55C36.0113 136.312 34.3583 136.204 32.6633 135.853Z" fill="#F5F5F5"/>
<path d="M37.5148 135.361C36.0728 134.621 34.5923 134.236 33.0493 134.114C32.9398 134.106 32.9608 133.943 33.0668 133.944C34.5508 133.965 35.9728 134.26 37.3598 134.927C37.4768 134.983 37.5953 135.041 37.7138 135.102C38.6953 135.806 39.2798 136.44 39.2803 136.435C39.2803 136.435 39.2508 136.438 39.1953 136.442C38.6358 136.023 38.0783 135.65 37.5148 135.361Z" fill="#F5F5F5"/>
<path d="M39.2807 136.435C39.2807 136.435 39.1077 136.45 38.7912 136.47C38.1327 136.19 37.4737 135.962 36.8257 135.8C35.2362 135.401 33.6087 135.3 31.9932 134.973C31.9157 134.958 31.9267 134.849 32.0052 134.85C33.6482 134.88 35.2607 135.09 36.8482 135.482C37.5537 135.656 38.2742 135.857 38.9902 136.15C39.1777 136.327 39.2807 136.435 39.2807 136.435Z" fill="#F5F5F5"/>
<path d="M45.3462 133.894C45.7902 138.285 46.2062 142.047 46.3172 142.006C46.2107 142.085 42.3196 139.391 41.9056 134.861C41.4791 130.375 41.9051 126.771 41.7801 126.798C41.9071 126.808 44.8892 129.542 45.3462 133.894Z" fill="#F5F5F5"/>
<path d="M44.6561 135.449C44.6341 135.371 44.5201 135.401 44.5386 135.484C44.9146 137.149 45.2606 138.889 45.8131 140.513C45.9541 140.93 46.1021 141.34 46.2691 141.742C46.2176 141.461 46.1241 140.964 46.0291 140.296C45.4661 138.724 45.1161 137.082 44.6561 135.449Z" fill="#F5F5F5"/>
<path d="M44.9167 140.461C43.9352 139.145 43.3657 137.675 43.1242 136.123C43.1072 136.013 42.9607 136.058 42.9707 136.165C43.1147 137.675 43.5872 139.105 44.4842 140.394C44.5597 140.503 44.6382 140.612 44.7192 140.721C45.5807 141.579 46.3237 142.003 46.3172 142.006C46.3172 142.006 46.3117 141.975 46.3017 141.917C45.7742 141.457 45.2997 140.975 44.9167 140.461Z" fill="#F5F5F5"/>
<path d="M46.3172 142.006C46.3182 142.005 46.2847 141.826 46.2252 141.5C45.8072 140.904 45.4547 140.286 45.1827 139.662C44.5147 138.13 44.2172 136.496 43.8192 134.924C43.8002 134.849 43.7037 134.877 43.7097 134.955C43.8422 136.604 44.2342 138.217 44.8962 139.753C45.1897 140.436 45.5332 141.127 45.9812 141.783C46.1917 141.929 46.3172 142.006 46.3172 142.006Z" fill="#F5F5F5"/>
<path d="M38.3166 143.278C42.8176 142.989 46.2666 141.934 46.2731 142.073C46.2311 141.942 42.7056 139.169 38.3311 139.389C33.9191 139.634 30.1721 139.816 30.1821 139.688C30.1341 139.821 33.7761 143.593 38.3166 143.278Z" fill="#F5F5F5"/>
<path d="M39.6237 142.232C39.5407 142.225 39.5362 142.096 39.6222 142.099C41.3482 142.164 43.0897 142.06 44.7542 142.085C45.1812 142.09 45.6022 142.098 46.0217 142.121C45.7522 142.17 45.2737 142.251 44.6322 142.372C43.0037 142.314 41.3462 142.39 39.6237 142.232Z" fill="#F5F5F5"/>
<path d="M44.4074 141.203C42.8979 140.63 41.3854 140.413 39.8374 140.464C39.7274 140.468 39.7324 140.304 39.8384 140.294C41.3179 140.149 42.7628 140.282 44.2103 140.79C44.3323 140.833 44.4559 140.878 44.5804 140.925C45.6279 141.514 46.2738 142.079 46.2733 142.074C46.2733 142.074 46.2438 142.08 46.1893 142.09C45.5898 141.736 44.9974 141.427 44.4074 141.203Z" fill="#F5F5F5"/>
<path d="M46.2729 142.073C46.2729 142.073 46.1019 142.107 45.7884 142.162C45.1044 141.957 44.4254 141.805 43.7634 141.716C42.1404 141.497 40.5099 141.578 38.8694 141.434C38.7909 141.427 38.7909 141.318 38.8694 141.311C40.5079 141.157 42.1349 141.186 43.7544 141.398C44.4744 141.493 45.2124 141.612 45.9544 141.823C46.1599 141.978 46.2729 142.073 46.2729 142.073Z" fill="#F5F5F5"/>
<path d="M52.4194 139.111C53.3224 143.417 54.1364 147.104 54.2429 147.049C54.1444 147.141 49.9764 144.915 49.0919 140.47C48.1979 136.069 48.2499 132.448 48.1279 132.489C48.2549 132.483 51.5069 134.846 52.4194 139.111Z" fill="#F5F5F5"/>
<path d="M51.8947 140.735C51.8647 140.659 51.7537 140.703 51.7812 140.783C52.3307 142.392 52.8592 144.078 53.5822 145.627C53.7667 146.024 53.9577 146.414 54.1672 146.794C54.0862 146.521 53.9402 146.038 53.7747 145.386C53.0462 143.89 52.5242 142.301 51.8947 140.735Z" fill="#F5F5F5"/>
<path d="M52.6818 145.678C51.5638 144.484 50.8418 143.092 50.4378 141.58C50.4093 141.472 50.2678 141.534 50.2893 141.64C50.5908 143.121 51.2118 144.486 52.2428 145.661C52.3298 145.76 52.4193 145.86 52.5118 145.959C53.4618 146.711 54.2488 147.046 54.2423 147.049C54.2423 147.049 54.2338 147.019 54.2178 146.963C53.6423 146.568 53.1183 146.144 52.6818 145.678Z" fill="#F5F5F5"/>
<path d="M54.2431 147.049C54.2441 147.049 54.1921 146.875 54.0981 146.558C53.6176 146.014 53.2011 145.442 52.8636 144.854C52.0356 143.411 51.5676 141.823 51.0056 140.31C50.9786 140.237 50.8851 140.276 50.9001 140.353C51.2051 141.974 51.7651 143.529 52.5876 144.977C52.9526 145.621 53.3681 146.267 53.8846 146.866C54.1096 146.988 54.2431 147.049 54.2431 147.049Z" fill="#F5F5F5"/>
<path d="M46.3952 149.238C50.8517 148.429 54.1842 146.984 54.2057 147.122C54.1492 146.996 50.3377 144.651 46.0022 145.377C41.6317 146.133 37.9217 146.752 37.9182 146.624C37.8837 146.761 41.9007 150.076 46.3952 149.238Z" fill="#F5F5F5"/>
<path d="M47.5885 148.048C47.505 148.05 47.487 147.923 47.573 147.916C49.3005 147.78 51.0265 147.476 52.6905 147.308C53.117 147.265 53.5385 147.224 53.959 147.197C53.695 147.277 53.2265 147.413 52.599 147.607C50.967 147.738 49.322 148.005 47.5885 148.048Z" fill="#F5F5F5"/>
<path d="M52.251 146.473C50.6845 146.078 49.1535 146.038 47.6155 146.269C47.506 146.285 47.494 146.122 47.5985 146.099C49.058 145.783 50.513 145.749 52.0105 146.086C52.137 146.114 52.265 146.144 52.394 146.176C53.501 146.64 54.206 147.126 54.2055 147.121C54.2055 147.121 54.1765 147.131 54.1235 147.147C53.487 146.866 52.863 146.627 52.251 146.473Z" fill="#F5F5F5"/>
<path d="M54.2055 147.121C54.2055 147.121 54.0385 147.174 53.7315 147.265C53.027 147.141 52.3335 147.068 51.6635 147.056C50.0215 147.026 48.4035 147.296 46.7535 147.343C46.6745 147.345 46.663 147.237 46.7405 147.22C48.3575 146.877 49.9825 146.717 51.621 146.741C52.3495 146.752 53.098 146.785 53.8615 146.909C54.082 147.04 54.2055 147.121 54.2055 147.121Z" fill="#F5F5F5"/>
<path d="M59.6537 143.283C60.9927 147.462 62.1857 151.035 62.2862 150.969C62.1962 151.071 57.7972 149.316 56.4657 144.999C55.1287 140.726 54.8187 137.124 54.7012 137.178C54.8267 137.158 58.3082 139.146 59.6537 143.283Z" fill="#F5F5F5"/>
<path d="M59.2939 144.954C59.2559 144.882 59.1499 144.938 59.1854 145.014C59.8979 146.552 60.5979 148.169 61.4799 149.628C61.7049 150.002 61.9364 150.369 62.1849 150.723C62.0759 150.461 61.8804 149.997 61.6484 149.368C60.7664 147.962 60.0824 146.441 59.2939 144.954Z" fill="#F5F5F5"/>
<path d="M60.5837 149.778C59.3432 148.715 58.4797 147.411 57.9232 145.953C57.8837 145.85 57.7492 145.926 57.7812 146.029C58.2327 147.467 58.9922 148.755 60.1432 149.81C60.2402 149.899 60.3402 149.988 60.4427 150.076C61.4697 150.719 62.2922 150.966 62.2862 150.969C62.2862 150.969 62.2747 150.94 62.2527 150.887C61.6357 150.557 61.0682 150.193 60.5837 149.778Z" fill="#F5F5F5"/>
<path d="M62.2864 150.97C62.2874 150.969 62.2174 150.802 62.0909 150.497C61.5539 150.01 61.0789 149.487 60.6814 148.94C59.7059 147.597 59.0764 146.071 58.3619 144.629C58.3279 144.56 58.2384 144.609 58.2609 144.684C58.7299 146.261 59.4474 147.744 60.4179 149.093C60.8484 149.692 61.3304 150.288 61.9084 150.827C62.1464 150.923 62.2864 150.97 62.2864 150.97Z" fill="#F5F5F5"/>
<path d="M54.6583 154.003C59.0313 152.711 62.2213 150.911 62.2563 151.045C62.1863 150.927 58.1313 149.014 53.8748 150.211C49.5853 151.441 45.9463 152.465 45.9298 152.339C45.9088 152.479 50.2493 155.328 54.6583 154.003Z" fill="#F5F5F5"/>
<path d="M55.7306 152.691C55.6476 152.702 55.6161 152.578 55.7016 152.562C57.4146 152.237 59.1106 151.746 60.7591 151.397C61.1816 151.307 61.5991 151.22 62.0176 151.148C61.7616 151.256 61.3061 151.443 60.6981 151.704C59.0776 152.013 57.4596 152.458 55.7306 152.691Z" fill="#F5F5F5"/>
<path d="M60.2343 150.616C58.6263 150.395 57.0913 150.523 55.5778 150.921C55.4703 150.949 55.4418 150.788 55.5438 150.754C56.9703 150.28 58.4218 150.087 59.9543 150.257C60.0838 150.272 60.2148 150.287 60.3473 150.305C61.5028 150.645 62.2578 151.05 62.2568 151.046C62.2568 151.046 62.2288 151.058 62.1773 151.081C61.5113 150.87 60.8623 150.702 60.2343 150.616Z" fill="#F5F5F5"/>
<path d="M62.2562 151.045C62.2562 151.045 62.0942 151.116 61.7962 151.24C61.0782 151.194 60.3762 151.197 59.7052 151.259C58.0592 151.409 56.4687 151.854 54.8242 152.082C54.7457 152.093 54.7232 151.987 54.7992 151.962C56.3807 151.444 57.9892 151.107 59.6307 150.952C60.3602 150.882 61.1132 150.834 61.8902 150.873C62.1247 150.978 62.2562 151.045 62.2562 151.045Z" fill="#F5F5F5"/>
<path d="M120.572 91.431C121.762 95.301 121.635 99.0215 121.636 99.041C121.65 99.057 118.833 96.6411 117.567 92.5426C116.294 88.4471 117.183 84.62 117.181 84.643C117.19 84.659 119.366 87.5675 120.572 91.431Z" fill="#494949"/>
<path d="M136.562 121.462C135.742 120.602 134.944 119.723 134.167 118.826C132.612 117.032 131.148 115.162 129.772 113.227C127.02 109.359 124.628 105.222 122.644 100.862C122.102 99.6696 121.589 98.4611 121.105 97.2386C120.594 95.9506 120.162 94.6081 119.622 93.3311C119.572 93.2146 119.413 93.2761 119.444 93.4006C120.017 95.7566 121.01 98.0071 121.967 100.197C122.931 102.404 123.997 104.558 125.157 106.652C127.478 110.842 130.185 114.796 133.261 118.447C134.102 119.445 134.97 120.42 135.865 121.372C136.805 122.372 137.744 123.424 138.822 124.276C138.999 124.416 139.205 124.185 139.056 124.016C138.271 123.123 137.38 122.318 136.562 121.462Z" fill="#494949"/>
<path d="M120.142 92.8875C120.112 92.817 120.012 92.8525 120.039 92.927C120.594 94.425 121.057 95.99 121.403 97.559C121.491 97.961 121.568 98.365 121.64 98.7705C121.642 98.484 121.634 97.9815 121.595 97.332C121.222 95.824 120.767 94.35 120.142 92.8875Z" fill="#494949"/>
<path d="M120.664 97.5675C119.906 96.3445 119.266 95.031 118.844 93.615C118.814 93.5145 118.688 93.5675 118.712 93.6665C119.041 95.0515 119.597 96.3395 120.306 97.534C120.366 97.6345 120.427 97.7365 120.488 97.8385C121.153 98.625 121.637 99.04 121.636 99.041C121.636 99.041 121.637 99.009 121.639 98.95C121.298 98.4995 120.96 98.0455 120.664 97.5675Z" fill="#494949"/>
<path d="M126.143 96.3326C124.689 100.021 123.471 103.192 123.576 103.206C123.459 103.224 121.495 99.4196 123.028 95.6316C124.533 91.8736 126.35 89.1796 126.24 89.1481C126.336 89.2101 127.569 92.6721 126.143 96.3326Z" fill="#494949"/>
<path d="M124.958 97.277C124.973 97.205 124.87 97.1805 124.851 97.255C124.464 98.742 124.023 100.275 123.791 101.804C123.731 102.195 123.679 102.585 123.646 102.976C123.721 102.731 123.852 102.295 124.051 101.723C124.252 100.231 124.651 98.774 124.958 97.277Z" fill="#494949"/>
<path d="M123.105 101.379C122.871 99.9121 123.025 98.4986 123.472 97.1581C123.504 97.0631 123.37 97.0361 123.333 97.1266C122.827 98.3906 122.612 99.7321 122.791 101.141C122.806 101.26 122.823 101.38 122.842 101.502C123.169 102.553 123.581 103.207 123.575 103.206C123.575 103.206 123.584 103.179 123.599 103.129C123.372 102.538 123.196 101.952 123.105 101.379Z" fill="#494949"/>
<path d="M123.575 103.206C123.575 103.206 123.624 103.049 123.711 102.764C123.626 102.111 123.602 101.469 123.643 100.856C123.745 99.3516 124.182 97.9226 124.513 96.5001C124.529 96.4321 124.441 96.4126 124.414 96.4781C123.842 97.8486 123.489 99.3006 123.38 100.807C123.331 101.476 123.318 102.172 123.402 102.885C123.508 103.092 123.575 103.206 123.575 103.206Z" fill="#494949"/>
<path d="M116.735 100.803C120.409 102.496 123.565 103.127 123.513 103.241C123.534 103.119 121.891 99.4081 118.344 97.7096C114.759 96.0161 111.724 94.5521 111.784 94.4546C111.692 94.5411 113.02 99.1131 116.735 100.803Z" fill="#494949"/>
<path d="M118.197 100.528C118.135 100.487 118.184 100.382 118.251 100.422C119.587 101.211 121.005 101.872 122.309 102.602C122.643 102.789 122.973 102.975 123.294 103.171C123.061 103.095 122.65 102.956 122.094 102.779C120.832 102.037 119.493 101.391 118.197 100.528Z" fill="#494949"/>
<path d="M122.397 101.752C121.441 100.651 120.336 99.8321 119.092 99.2111C119.004 99.1671 119.075 99.0386 119.163 99.0756C120.391 99.5926 121.478 100.317 122.412 101.339C122.491 101.425 122.57 101.514 122.649 101.604C123.233 102.521 123.511 103.245 123.513 103.241C123.513 103.241 123.488 103.234 123.44 103.218C123.112 102.681 122.771 102.182 122.397 101.752Z" fill="#494949"/>
<path d="M123.513 103.241C123.513 103.241 123.364 103.195 123.094 103.105C122.638 102.65 122.165 102.239 121.679 101.885C120.488 101.018 119.166 100.386 117.93 99.5696C117.871 99.5306 117.915 99.4436 117.98 99.4716C119.338 100.05 120.61 100.768 121.802 101.629C122.331 102.011 122.865 102.421 123.364 102.906C123.463 103.117 123.513 103.241 123.513 103.241Z" fill="#494949"/>
<path d="M129.398 103.169C128.32 106.973 127.426 110.244 127.532 110.246C127.417 110.277 125.067 106.723 126.216 102.814C127.34 98.9375 128.883 96.082 128.77 96.0625C128.873 96.1135 130.453 99.3935 129.398 103.169Z" fill="#494949"/>
<path d="M128.311 104.231C128.319 104.158 128.214 104.145 128.202 104.22C127.966 105.732 127.68 107.297 127.604 108.835C127.584 109.229 127.572 109.62 127.579 110.011C127.629 109.76 127.715 109.314 127.856 108.727C127.906 107.229 128.156 105.744 128.311 104.231Z" fill="#494949"/>
<path d="M126.876 108.489C126.493 107.063 126.504 105.648 126.814 104.275C126.836 104.177 126.7 104.165 126.673 104.259C126.295 105.563 126.216 106.913 126.538 108.288C126.565 108.403 126.594 108.521 126.626 108.639C127.059 109.643 127.538 110.247 127.532 110.246C127.532 110.246 127.538 110.219 127.548 110.168C127.261 109.607 127.025 109.046 126.876 108.489Z" fill="#494949"/>
<path d="M127.532 110.247C127.533 110.247 127.564 110.086 127.622 109.795C127.471 109.157 127.381 108.525 127.361 107.914C127.31 106.415 127.601 104.954 127.788 103.512C127.797 103.443 127.708 103.434 127.687 103.501C127.254 104.918 127.048 106.392 127.093 107.894C127.112 108.561 127.17 109.251 127.326 109.948C127.452 110.141 127.532 110.247 127.532 110.247Z" fill="#494949"/>
<path d="M120.454 108.611C124.295 109.886 127.513 110.17 127.473 110.288C127.481 110.165 125.462 106.67 121.748 105.379C117.996 104.097 114.817 102.987 114.868 102.883C114.785 102.978 116.572 107.344 120.454 108.611Z" fill="#494949"/>
<path d="M121.887 108.181C121.82 108.147 121.859 108.038 121.929 108.07C123.344 108.705 124.828 109.205 126.205 109.786C126.558 109.935 126.906 110.083 127.248 110.243C127.007 110.193 126.582 110.1 126.009 109.984C124.672 109.387 123.268 108.892 121.887 108.181Z" fill="#494949"/>
<path d="M126.207 108.935C125.14 107.949 123.953 107.259 122.647 106.781C122.555 106.747 122.613 106.612 122.704 106.639C123.983 107.017 125.142 107.615 126.179 108.525C126.266 108.601 126.354 108.68 126.442 108.761C127.119 109.605 127.471 110.292 127.472 110.288C127.472 110.288 127.446 110.283 127.397 110.273C127.015 109.777 126.624 109.321 126.207 108.935Z" fill="#494949"/>
<path d="M127.473 110.288C127.473 110.288 127.319 110.259 127.04 110.199C126.538 109.798 126.024 109.442 125.502 109.145C124.224 108.416 122.84 107.935 121.522 107.263C121.459 107.231 121.495 107.14 121.563 107.16C122.977 107.584 124.321 108.156 125.599 108.878C126.167 109.199 126.742 109.547 127.29 109.973C127.41 110.171 127.473 110.288 127.473 110.288Z" fill="#494949"/>
<path d="M133.564 109.893C132.896 113.78 132.358 117.123 132.464 117.113C132.352 117.156 129.618 113.9 130.347 109.903C131.054 105.94 132.291 102.943 132.176 102.937C132.284 102.974 134.211 106.036 133.564 109.893Z" fill="#494949"/>
<path d="M132.592 111.067C132.592 110.994 132.486 110.993 132.482 111.069C132.409 112.593 132.292 114.174 132.384 115.706C132.406 116.099 132.437 116.488 132.486 116.874C132.509 116.62 132.546 116.169 132.623 115.571C132.51 114.081 132.6 112.583 132.592 111.067Z" fill="#494949"/>
<path d="M131.618 115.446C131.081 114.077 130.939 112.675 131.101 111.28C131.113 111.181 130.975 111.185 130.958 111.28C130.721 112.614 130.788 113.959 131.258 115.285C131.298 115.396 131.34 115.509 131.384 115.623C131.927 116.569 132.471 117.113 132.465 117.113C132.465 117.113 132.468 117.085 132.472 117.033C132.123 116.51 131.827 115.981 131.618 115.446Z" fill="#494949"/>
<path d="M132.464 117.113C132.464 117.113 132.479 116.95 132.505 116.655C132.284 116.04 132.126 115.424 132.039 114.821C131.826 113.341 131.96 111.862 131.991 110.414C131.993 110.344 131.902 110.345 131.889 110.414C131.608 111.866 131.562 113.348 131.768 114.831C131.86 115.489 131.992 116.167 132.225 116.839C132.373 117.017 132.464 117.113 132.464 117.113Z" fill="#494949"/>
<path d="M125.212 116.291C129.188 117.119 132.437 117.039 132.41 117.161C132.404 117.037 130.005 113.802 126.158 112.946C122.272 112.102 118.98 111.368 119.02 111.26C118.946 111.363 121.196 115.475 125.212 116.291Z" fill="#494949"/>
<path d="M126.598 115.703C126.528 115.676 126.554 115.564 126.628 115.588C128.111 116.056 129.648 116.384 131.088 116.806C131.457 116.913 131.821 117.021 132.18 117.141C131.934 117.118 131.499 117.074 130.913 117.024C129.512 116.583 128.055 116.251 126.598 115.703Z" fill="#494949"/>
<path d="M130.997 115.963C129.824 115.107 128.563 114.557 127.207 114.232C127.111 114.209 127.155 114.069 127.249 114.085C128.567 114.314 129.79 114.775 130.925 115.56C131.02 115.626 131.117 115.694 131.214 115.764C131.982 116.523 132.408 117.165 132.41 117.161C132.41 117.161 132.383 117.159 132.333 117.155C131.896 116.706 131.456 116.297 130.997 115.963Z" fill="#494949"/>
<path d="M132.41 117.161C132.41 117.161 132.254 117.149 131.968 117.121C131.423 116.78 130.87 116.485 130.316 116.25C128.96 115.672 127.524 115.352 126.135 114.835C126.069 114.811 126.095 114.717 126.165 114.729C127.624 114.988 129.028 115.403 130.384 115.975C130.987 116.229 131.599 116.509 132.193 116.869C132.335 117.052 132.41 117.161 132.41 117.161Z" fill="#494949"/>
<path d="M138.209 115.801C137.945 119.73 137.76 123.106 137.865 123.085C137.757 123.139 134.675 120.197 134.99 116.155C135.286 112.148 136.215 109.046 136.1 109.052C136.212 109.078 138.453 111.905 138.209 115.801Z" fill="#494949"/>
<path d="M137.359 117.071C137.351 116.998 137.245 117.009 137.249 117.085C137.335 118.604 137.385 120.186 137.637 121.697C137.701 122.084 137.773 122.467 137.863 122.846C137.859 122.591 137.849 122.14 137.863 121.538C137.593 120.07 137.525 118.574 137.359 117.071Z" fill="#494949"/>
<path d="M136.842 121.52C136.161 120.218 135.872 118.842 135.889 117.441C135.891 117.341 135.753 117.36 135.746 117.456C135.647 118.805 135.855 120.132 136.465 121.398C136.516 121.505 136.57 121.613 136.626 121.721C137.269 122.602 137.872 123.084 137.866 123.085C137.866 123.085 137.866 123.057 137.865 123.005C137.461 122.522 137.108 122.029 136.842 121.52Z" fill="#494949"/>
<path d="M137.866 123.085C137.867 123.085 137.864 122.922 137.859 122.626C137.573 122.039 137.35 121.444 137.199 120.855C136.83 119.409 136.81 117.927 136.69 116.487C136.685 116.418 136.594 116.428 136.588 116.498C136.458 117.968 136.566 119.444 136.929 120.893C137.09 121.537 137.294 122.195 137.598 122.839C137.764 122.999 137.866 123.085 137.866 123.085Z" fill="#494949"/>
<path d="M130.517 123.04C134.582 123.438 137.831 123.015 137.816 123.138C137.797 123.015 135.053 120.058 131.116 119.621C127.14 119.2 123.775 118.826 123.803 118.715C123.739 118.825 126.411 122.658 130.517 123.04Z" fill="#494949"/>
<path d="M131.843 122.309C131.77 122.291 131.785 122.177 131.861 122.192C133.394 122.499 134.967 122.661 136.454 122.926C136.835 122.993 137.211 123.061 137.583 123.142C137.335 123.146 136.894 123.148 136.302 123.161C134.852 122.872 133.358 122.698 131.843 122.309Z" fill="#494949"/>
<path d="M136.275 122.099C135.01 121.374 133.691 120.963 132.3 120.784C132.201 120.772 132.23 120.628 132.326 120.634C133.67 120.72 134.941 121.048 136.161 121.706C136.264 121.761 136.368 121.819 136.472 121.878C137.321 122.55 137.816 123.141 137.817 123.137C137.817 123.137 137.789 123.138 137.739 123.139C137.254 122.741 136.77 122.382 136.275 122.099Z" fill="#494949"/>
<path d="M137.816 123.138C137.816 123.138 137.658 123.142 137.369 123.145C136.786 122.865 136.201 122.631 135.622 122.456C134.203 122.027 132.732 121.862 131.289 121.498C131.22 121.48 131.236 121.384 131.307 121.389C132.794 121.491 134.244 121.752 135.661 122.175C136.291 122.363 136.934 122.576 137.568 122.87C137.729 123.037 137.816 123.138 137.816 123.138Z" fill="#494949"/>
<path d="M176.907 149.491C182.244 152.771 189.138 152.624 194.986 150.406C200.834 148.189 205.809 144.13 210.39 139.838C211.937 138.389 213.489 136.854 214.353 134.909C215.216 132.963 215.249 130.496 213.897 128.859C210.78 125.086 204.232 128.637 199.997 126.22C199.532 123.463 201.621 120.837 204.081 119.556C206.542 118.274 209.362 117.944 212.022 117.172C214.683 116.4 217.411 114.973 218.54 112.419C219.668 109.864 218.206 106.154 215.442 106.009C213.682 105.916 211.641 107.135 210.326 105.949C209.304 105.027 209.669 103.23 210.654 102.267C211.638 101.304 213.018 100.913 214.287 100.393C219.008 98.4576 222.742 94.2186 224.098 89.2551C224.919 86.2476 224.506 82.3406 221.723 80.9911C218.459 79.4086 214.946 82.4656 212.586 85.2401C209.301 89.1021 206.015 92.9646 202.729 96.8266C201.246 98.5701 198.39 100.311 197.07 98.4386C196.009 96.9336 197.456 94.6861 196.637 93.0341C195.815 91.3751 193.317 91.5271 191.809 92.5866C188.745 94.7406 187.978 98.9506 187.822 102.72C187.666 106.489 187.788 110.535 185.724 113.678C183.66 116.821 178.327 117.956 176.389 114.732C175.633 113.474 175.595 111.923 175.239 110.496C174.883 109.069 173.944 107.556 172.493 107.438C170.824 107.304 169.649 109.028 168.964 110.571C162.958 124.094 166.303 139.254 176.907 149.491Z" fill="#727272"/>
<path d="M175.714 145.784C189.85 125.072 199.343 111.164 213.479 90.451" stroke="#151515" stroke-width="0.5" stroke-miterlimit="10"/>
<path d="M195.128 117.339C195.128 117.339 192.287 109.019 192.048 100.803" stroke="#151515" stroke-width="0.5" stroke-miterlimit="10"/>
<path d="M185.375 132.287C185.375 132.287 189.859 138.215 204.562 135.387" stroke="#151515" stroke-width="0.5" stroke-miterlimit="10"/>
<path d="M200.339 109.899C200.339 109.899 203.351 113.656 210.988 111.205" stroke="#151515" stroke-width="0.5" stroke-miterlimit="10"/>
<path d="M180.267 139.113C180.267 139.113 170.397 127.771 172.818 119.134" stroke="#151515" stroke-width="0.5" stroke-miterlimit="10"/>
<path fill-rule="evenodd" clip-rule="evenodd" d="M208.31 143.997C208.31 143.997 212.858 149.167 213.914 155.323C213.914 155.323 204.25 151.138 208.31 143.997Z" fill="#1C1C1C"/>
<path fill-rule="evenodd" clip-rule="evenodd" d="M208.148 144.819L211.639 149.66L210.258 148.514L210.747 149.907L211.479 150.4L211.968 151.22V152.123H211.639L212.449 152.612V153.108L212.289 153.353H211.236L210.503 152.533L209.286 151.63L208.066 150.314V149.003L207.663 147.528L208.148 144.819Z" fill="#535353"/>
<path fill-rule="evenodd" clip-rule="evenodd" d="M216.411 177.763C216.425 177.762 216.439 177.762 216.453 177.761C218.562 177.643 219.996 175.546 219.375 173.505L214.719 158.203L193.347 149.171L173.616 149.908L75.0089 150.277L50.7134 154.154L46.6104 177.763H216.411V177.763Z" fill="#101010"/>
<path fill-rule="evenodd" clip-rule="evenodd" d="M154.904 115.506L150.743 116.509L148.734 117.8C148.734 117.8 160.285 120.17 172.156 137.341L188.964 135.308C188.964 135.308 178.468 123.076 154.904 115.506Z" fill="#D0D0D0"/>
<path fill-rule="evenodd" clip-rule="evenodd" d="M51.3574 129.566L50.3669 129.007C48.5564 128.911 42.3214 143.609 44.9669 145.794C44.9669 145.794 53.5489 137.136 51.3574 129.566Z" fill="#1B1B1B"/>
<path fill-rule="evenodd" clip-rule="evenodd" d="M225.162 171.359L224.931 174.608C224.849 175.763 224.067 176.746 222.969 177.076L222.968 177.077C220.109 177.934 217.16 176.069 216.65 173.099C215.604 167 211.928 157.683 199.226 157.828C181.326 157.274 182.172 176.463 182.172 176.463H82.2452C82.2452 176.463 83.3202 156.983 62.6897 157.828C45.3907 158.478 47.7902 178.679 47.7902 178.679L45.2307 177.942C45.2307 177.942 44.2372 171.705 43.3567 165.798C42.6927 161.34 42.8767 156.811 43.7482 152.39C43.8742 151.751 43.9537 151.088 43.9537 150.433C43.9537 150.433 48.1522 127.903 56.1927 119.411C57.2622 117.368 51.3717 117.034 52.4837 115.501C53.6597 115.345 121.335 106.616 154.906 115.507L150.745 116.507C150.745 116.507 165.581 122.181 172.706 136.213L189.143 134.369C198.104 136.412 207.57 138.187 214.573 143.13C218.191 145.679 221.144 149.073 223.039 153.789C223.056 153.832 223.073 153.875 223.09 153.918C223.628 155.288 223.872 156.759 223.853 158.233L223.698 169.881L225.162 171.359Z" fill="#464646"/>
<path fill-rule="evenodd" clip-rule="evenodd" d="M225.503 168.675L224.969 174.606C224.865 175.766 224.072 176.745 222.968 177.079L222.967 177.079C220.106 177.935 217.158 176.068 216.648 173.097C215.602 167 211.927 157.684 199.227 157.83C181.326 157.276 182.171 176.461 182.171 176.461L82.2449 176.463C82.2449 176.463 83.3204 156.986 62.6889 157.83C45.3914 158.481 47.7899 178.681 47.7899 178.681L43.5164 177.604C43.5164 177.604 42.5879 171.623 41.7134 165.908C42.7649 165.591 45.4729 165.361 45.7139 165.316C48.6449 155.927 56.3349 151.095 64.3994 150.596C78.7914 149.704 85.1384 164.659 86.6389 172.877C112.868 172.745 151.007 172.616 175.912 172.491C180.939 143.587 209.616 145.485 220.408 165.365C220.408 165.365 221.612 165.458 222.948 165.579C224.5 165.72 225.644 167.107 225.503 168.675Z" fill="#252525"/>
<path fill-rule="evenodd" clip-rule="evenodd" d="M69.2328 119.034C63.7828 119.509 62.3073 131.77 61.4678 137.074H112.324L114.544 115.97C107.378 116.062 75.7103 116.537 69.2328 119.034ZM167.763 137.074C165.208 132.385 150.522 116.891 128.879 116.109C125.097 115.972 121.331 115.929 117.659 115.954L116.193 137.074H167.763Z" fill="#D0D0D0"/>
<path fill-rule="evenodd" clip-rule="evenodd" d="M163.779 131.613C163.779 131.613 161.588 135.674 164.512 138.998C164.512 138.998 174.741 134.937 163.779 131.613Z" fill="#252525"/>
<path fill-rule="evenodd" clip-rule="evenodd" d="M223.039 153.789C219.756 155.784 213.929 151.127 212.455 148.626C210.837 145.899 210.864 142.963 214.573 143.129C218.191 145.678 221.144 149.072 223.039 153.789Z" fill="white"/>
<path fill-rule="evenodd" clip-rule="evenodd" d="M116.748 142.874L116.746 142.221C116.743 141.619 117.108 141.129 117.562 141.126L127.264 141.072C127.718 141.069 128.088 141.556 128.091 142.157L128.094 142.81L116.748 142.874Z" fill="#252525"/>
<path fill-rule="evenodd" clip-rule="evenodd" d="M78.8121 143.143L78.8096 142.491C78.8071 141.889 79.1731 141.398 79.6261 141.396L89.3276 141.342C89.7816 141.34 90.1516 141.825 90.1541 142.428L90.1571 143.08L78.8121 143.143Z" fill="#1B1B1B"/>
<path fill-rule="evenodd" clip-rule="evenodd" d="M189.265 183.914C194.633 189.286 203.293 189.242 208.608 183.816C213.923 178.39 213.88 169.638 208.513 164.266C203.144 158.894 194.484 158.937 189.169 164.363C183.854 169.789 183.898 178.542 189.265 183.914ZM205.969 181.175C202.097 185.127 195.789 185.159 191.879 181.246C187.969 177.333 187.938 170.957 191.809 167.006C195.68 163.054 201.988 163.022 205.898 166.935C209.809 170.847 209.84 177.223 205.969 181.175Z" fill="#1F1E24"/>
<path fill-rule="evenodd" clip-rule="evenodd" d="M198.833 162.664C205.075 162.632 210.162 167.723 210.193 174.033C210.224 180.343 205.188 185.484 198.944 185.515C192.702 185.547 187.615 180.456 187.584 174.146C187.553 167.837 192.59 162.695 198.833 162.664Z" fill="white"/>
<path fill-rule="evenodd" clip-rule="evenodd" d="M198.839 164.023C193.338 164.051 188.901 168.58 188.928 174.14C188.956 179.7 193.437 184.184 198.937 184.156C204.438 184.129 208.875 179.6 208.848 174.04C208.821 168.48 204.339 163.996 198.839 164.023Z" fill="#1F1E24"/>
<path fill-rule="evenodd" clip-rule="evenodd" d="M200.885 176.794C202.231 175.42 202.22 173.202 200.86 171.841C199.5 170.48 197.306 170.491 195.96 171.866C194.613 173.241 194.624 175.458 195.984 176.819C197.344 178.18 199.538 178.168 200.885 176.794Z" fill="#464646"/>
<path fill-rule="evenodd" clip-rule="evenodd" d="M197.764 185.134L197.134 177.517L191.409 182.511L190.398 181.499L195.282 175.663L187.74 175.103L187.733 173.664L195.269 173.028L190.328 167.242L191.329 166.22L197.103 171.156L197.657 163.533L199.08 163.526L199.71 171.143L205.435 166.149L206.446 167.161L201.562 172.997L209.104 173.558L209.111 174.996L201.575 175.632L206.516 181.418L205.515 182.44L199.741 177.504L199.187 185.127L197.764 185.134ZM197.757 175.977L199.104 175.97L200.051 175.003L200.045 173.64L199.088 172.683L197.741 172.689L196.793 173.657L196.8 175.018L197.757 175.977Z" fill="white"/>
<path fill-rule="evenodd" clip-rule="evenodd" d="M54.8272 183.914C60.1952 189.286 68.8552 189.242 74.1702 183.816C79.4852 178.39 79.4422 169.638 74.0742 164.266C68.7062 158.894 60.0462 158.937 54.7312 164.363C49.4162 169.789 49.4592 178.542 54.8272 183.914ZM71.5307 181.175C67.6592 185.127 61.3512 185.159 57.4412 181.246C53.5312 177.333 53.5002 170.957 57.3712 167.006C61.2427 163.054 67.5507 163.022 71.4607 166.935C75.3707 170.847 75.4017 177.223 71.5307 181.175Z" fill="#1F1E24"/>
<path fill-rule="evenodd" clip-rule="evenodd" d="M64.3946 162.664C70.6371 162.632 75.7241 167.723 75.7551 174.033C75.7861 180.343 70.7501 185.484 64.5061 185.515C58.2636 185.547 53.1766 180.456 53.1461 174.146C53.1151 167.837 58.1516 162.695 64.3946 162.664Z" fill="white"/>
<path fill-rule="evenodd" clip-rule="evenodd" d="M64.4013 164.023C58.9003 164.051 54.4633 168.58 54.4908 174.14C54.5183 179.7 58.9993 184.184 64.4998 184.156C70.0008 184.129 74.4378 179.6 74.4103 174.04C74.3833 168.48 69.9018 163.996 64.4013 164.023Z" fill="#1F1E24"/>
<path fill-rule="evenodd" clip-rule="evenodd" d="M66.447 176.794C67.793 175.42 67.7825 173.202 66.4225 171.841C65.062 170.48 62.8685 170.491 61.522 171.866C60.1755 173.241 60.186 175.458 61.546 176.819C62.906 178.18 65.1 178.168 66.447 176.794Z" fill="#191919"/>
<path fill-rule="evenodd" clip-rule="evenodd" d="M63.3264 185.134L62.6969 177.517L56.9714 182.511L55.9604 181.499L60.8444 175.663L53.3024 175.103L53.2949 173.664L60.8309 173.028L55.8904 167.242L56.8909 166.22L62.6654 171.156L63.2194 163.533L64.6424 163.526L65.2719 171.143L70.9974 166.149L72.0084 167.161L67.1244 172.997L74.6664 173.558L74.6739 174.996L67.1379 175.632L72.0789 181.418L71.0779 182.44L65.3039 177.504L64.7494 185.127L63.3264 185.134ZM63.3199 175.977L64.6669 175.97L65.6144 175.003L65.6079 173.64L64.6509 172.683L63.3034 172.689L62.3554 173.657L62.3619 175.018L63.3199 175.977Z" fill="white"/>
<path d="M65.7839 184.419C68.4894 180.135 68.6024 174.441 67.0839 169.535C65.5654 164.629 62.5974 160.377 59.4374 156.441C58.3704 155.111 57.2374 153.775 55.7649 152.992C54.2924 152.209 52.3904 152.093 51.0829 153.149C48.0694 155.583 50.5939 161.115 48.5904 164.522C46.4479 164.805 44.4909 162.987 43.5834 160.91C42.6759 158.833 42.5139 156.494 42.0054 154.271C41.4974 152.048 40.4859 149.745 38.5524 148.721C36.6189 147.697 33.7084 148.768 33.5054 151.044C33.3759 152.493 34.2494 154.221 33.2914 155.263C32.5469 156.073 31.1719 155.706 30.4619 154.859C29.7514 154.012 29.4954 152.859 29.1354 151.793C27.7979 147.827 24.6499 144.592 20.8654 143.293C18.5724 142.506 15.5444 142.705 14.4119 144.952C13.0839 147.588 15.3269 150.597 17.3894 152.645C20.2609 155.497 23.1324 158.348 26.0039 161.199C27.2999 162.486 28.5494 164.906 27.0614 165.927C25.8654 166.748 24.1794 165.473 22.8779 166.088C21.5709 166.706 21.6064 168.773 22.3744 170.055C23.9354 172.662 27.1579 173.448 30.0609 173.714C32.9634 173.979 36.0889 174.025 38.4459 175.843C40.8029 177.66 41.5029 182.102 38.9519 183.584C37.9564 184.162 36.7594 184.136 35.6464 184.378C34.5339 184.62 33.3354 185.34 33.1969 186.533C33.0384 187.905 34.3299 188.937 35.4979 189.559C45.7324 195.006 57.5379 192.796 65.7839 184.419Z" fill="#242424"/>
<path d="M62.885 185.269C47.3705 172.852 36.953 164.514 21.4385 152.097" stroke="#151515" stroke-width="0.5" stroke-miterlimit="10"/>
<path d="M41.5782 168.216C41.5782 168.216 35.0657 170.258 28.7202 170.157" stroke="#151515" stroke-width="0.5" stroke-miterlimit="10"/>
<path d="M52.7896 176.808C52.7896 176.808 57.5106 173.323 55.8116 161.088" stroke="#151515" stroke-width="0.5" stroke-miterlimit="10"/>
<path d="M36.0098 163.646C36.0098 163.646 39.0068 161.298 37.3673 154.908" stroke="#151515" stroke-width="0.5" stroke-miterlimit="10"/>
<path d="M57.888 181.27C57.888 181.27 48.8135 189.002 42.23 186.69" stroke="#151515" stroke-width="0.5" stroke-miterlimit="10"/>
<path d="M115.601 184.54L65.771 194.763C62.6765 195.398 59.631 193.359 59.0025 190.231L36.3875 77.6316C35.7595 74.5041 37.777 71.4255 40.8715 70.7905L90.7005 60.5671C93.795 59.9321 96.841 61.9715 97.469 65.099L120.085 177.699C120.713 180.827 118.695 183.905 115.601 184.54Z" fill="white"/>
<path d="M88.9219 59.6731L42.0454 69.2911C37.5699 70.2096 34.6304 74.4486 35.4924 78.7411L57.6554 189.09C58.5174 193.382 62.8599 196.127 67.3354 195.209L114.212 185.591C118.687 184.673 121.627 180.434 120.765 176.142L98.6014 65.7926C97.7399 61.5001 93.3974 58.7546 88.9219 59.6731ZM118.737 176.557C119.384 179.782 117.184 182.956 113.821 183.645L66.9449 193.263C63.5824 193.953 60.3314 191.898 59.6839 188.673L37.5204 78.3246C36.8729 75.0996 39.0734 71.9256 42.4364 71.2361L53.2314 69.0211C54.2079 68.8206 55.1524 69.4176 55.3404 70.3541L55.3624 70.4641C55.6604 71.9476 57.1554 72.8926 58.7024 72.5751L75.9774 69.0306C77.5239 68.7131 78.5364 67.2536 78.2384 65.7701C78.2309 65.7331 78.2199 65.6976 78.2104 65.6616L78.2164 65.6601C78.0284 64.7236 78.6674 63.8016 79.6439 63.6011L89.3129 61.6171C92.6754 60.9271 95.9264 62.9821 96.5739 66.2071L118.737 176.557Z" fill="#252525"/>
<mask id="mask0_44_3545" style="mask-type:luminance" maskUnits="userSpaceOnUse" x="42" y="88" width="73" height="79">
<path d="M114.464 154.987L55.467 166.76L42.002 100.28L100.915 88.0901L114.464 154.987Z" fill="white"/>
</mask>
<g mask="url(#mask0_44_3545)">
<path d="M119.015 177.453L60.102 189.642L42.002 100.28L100.915 88.0901L119.015 177.453Z" fill="#F5F5F5"/>
</g>
<mask id="mask1_44_3545" style="mask-type:luminance" maskUnits="userSpaceOnUse" x="42" y="88" width="73" height="79">
<path d="M114.464 154.987L55.467 166.76L42.002 100.28L100.915 88.0901L114.464 154.987Z" fill="white"/>
</mask>
<g mask="url(#mask1_44_3545)">
<path d="M66.4391 132.074L48.6106 135.763L45.1436 118.644L62.9721 114.955L66.4391 132.074Z" fill="#EAEAEA"/>
</g>
<mask id="mask2_44_3545" style="mask-type:luminance" maskUnits="userSpaceOnUse" x="42" y="88" width="73" height="79">
<path d="M114.464 154.987L55.467 166.76L42.002 100.28L100.915 88.0901L114.464 154.987Z" fill="white"/>
</mask>
<g mask="url(#mask2_44_3545)">
<path d="M84.5802 165.004L62.8342 169.503L57.1797 141.584L78.9252 137.085L84.5802 165.004Z" fill="#6F6F6F"/>
</g>
<mask id="mask3_44_3545" style="mask-type:luminance" maskUnits="userSpaceOnUse" x="42" y="88" width="73" height="79">
<path d="M114.464 154.987L55.467 166.76L42.002 100.28L100.915 88.0901L114.464 154.987Z" fill="white"/>
</mask>
<g mask="url(#mask3_44_3545)">
<path d="M79.6466 123.977C83.699 123.977 86.9841 120.657 86.9841 116.561C86.9841 112.465 83.699 109.145 79.6466 109.145C75.5942 109.145 72.3091 112.465 72.3091 116.561C72.3091 120.657 75.5942 123.977 79.6466 123.977Z" fill="#EAEAEA"/>
</g>
<mask id="mask4_44_3545" style="mask-type:luminance" maskUnits="userSpaceOnUse" x="42" y="88" width="73" height="79">
<path d="M114.464 154.987L55.467 166.76L42.002 100.28L100.915 88.0901L114.464 154.987Z" fill="white"/>
</mask>
<g mask="url(#mask4_44_3545)">
<path d="M70.1121 101.162C73.6169 101.162 76.4581 98.2902 76.4581 94.7481C76.4581 91.206 73.6169 88.3346 70.1121 88.3346C66.6073 88.3346 63.7661 91.206 63.7661 94.7481C63.7661 98.2902 66.6073 101.162 70.1121 101.162Z" fill="#6F6F6F"/>
</g>
<mask id="mask5_44_3545" style="mask-type:luminance" maskUnits="userSpaceOnUse" x="42" y="88" width="73" height="79">
<path d="M114.464 154.987L55.467 166.76L42.002 100.28L100.915 88.0901L114.464 154.987Z" fill="white"/>
</mask>
<g mask="url(#mask5_44_3545)">
<path d="M111.058 138.168L89.7852 142.57L87.1362 129.492L108.409 125.091L111.058 138.168Z" fill="#EAEAEA"/>
</g>
<mask id="mask6_44_3545" style="mask-type:luminance" maskUnits="userSpaceOnUse" x="42" y="88" width="73" height="79">
<path d="M114.464 154.987L55.467 166.76L42.002 100.28L100.915 88.0901L114.464 154.987Z" fill="white"/>
</mask>
<g mask="url(#mask6_44_3545)">
<path d="M103.181 97.8776L88.4452 100.927L86.4512 91.0826L101.187 88.0341L103.181 97.8776Z" fill="#EAEAEA"/>
</g>
<mask id="mask7_44_3545" style="mask-type:luminance" maskUnits="userSpaceOnUse" x="42" y="88" width="73" height="79">
<path d="M114.464 154.987L55.467 166.76L42.002 100.28L100.915 88.0901L114.464 154.987Z" fill="white"/>
</mask>
<g mask="url(#mask7_44_3545)">
<path d="M56.7051 107.62L41.9696 110.669L38.7881 94.9601L53.5236 91.9111L56.7051 107.62Z" fill="#6F6F6F"/>
</g>
<mask id="mask8_44_3545" style="mask-type:luminance" maskUnits="userSpaceOnUse" x="42" y="88" width="73" height="79">
<path d="M114.464 154.987L55.467 166.76L42.002 100.28L100.915 88.0901L114.464 154.987Z" fill="white"/>
</mask>
<g mask="url(#mask8_44_3545)">
<path d="M107.164 118.945L98.0563 120.83L95.5483 108.449L104.657 106.564L107.164 118.945Z" fill="#6F6F6F"/>
</g>
<mask id="mask9_44_3545" style="mask-type:luminance" maskUnits="userSpaceOnUse" x="42" y="88" width="73" height="79">
<path d="M114.464 154.987L55.467 166.76L42.002 100.28L100.915 88.0901L114.464 154.987Z" fill="white"/>
</mask>
<g mask="url(#mask9_44_3545)">
<path d="M114.737 156.331L94.1451 160.592L91.8276 149.149L112.42 144.888L114.737 156.331Z" fill="#6F6F6F"/>
</g>
<path fill-rule="evenodd" clip-rule="evenodd" d="M101.175 181.242L79.6066 185.704C77.4166 186.157 75.2781 184.73 74.8301 182.517L74.7711 182.226C74.3226 180.013 75.7346 177.852 77.9241 177.398L99.4921 172.936C101.682 172.483 103.821 173.91 104.269 176.123L104.328 176.414C104.776 178.627 103.365 180.789 101.175 181.242Z" fill="#464646"/>
<path d="M88.1572 181.068C87.8856 181.121 87.6395 181.102 87.4191 181.012C87.1986 180.921 87.0142 180.774 86.8659 180.569C86.7175 180.364 86.616 180.117 86.5611 179.828C86.5053 179.533 86.5101 179.263 86.5756 179.017C86.6421 178.769 86.7607 178.563 86.9315 178.398C87.1033 178.231 87.32 178.123 87.5816 178.072C87.7853 178.033 87.976 178.035 88.1538 178.079C88.3316 178.123 88.4855 178.203 88.6156 178.318C88.7458 178.434 88.8406 178.58 88.9001 178.756L88.4549 178.843C88.3959 178.717 88.2983 178.615 88.1621 178.535C88.0268 178.454 87.8611 178.433 87.665 178.471C87.4914 178.505 87.3479 178.579 87.2343 178.695C87.1217 178.81 87.0444 178.956 87.0025 179.133C86.9616 179.31 86.9619 179.507 87.0034 179.726C87.0458 179.95 87.118 180.138 87.2199 180.291C87.3231 180.443 87.4481 180.553 87.595 180.619C87.7432 180.686 87.9053 180.702 88.0814 180.668C88.197 180.646 88.2982 180.605 88.3849 180.547C88.4716 180.488 88.5404 180.415 88.5915 180.327C88.6426 180.239 88.6719 180.139 88.6796 180.028L89.1247 179.942C89.132 180.118 89.099 180.284 89.0256 180.44C88.9533 180.595 88.8437 180.729 88.6967 180.841C88.5508 180.951 88.371 181.027 88.1572 181.068ZM90.8011 180.564C90.6175 180.6 90.4444 180.597 90.2816 180.557C90.1186 180.516 89.9806 180.437 89.8675 180.322C89.7542 180.206 89.6797 180.053 89.6439 179.865C89.6124 179.699 89.6196 179.558 89.6654 179.442C89.711 179.325 89.7829 179.226 89.8811 179.146C89.9793 179.065 90.0917 178.998 90.2182 178.943C90.3458 178.887 90.4752 178.838 90.6064 178.794C90.7781 178.737 90.9176 178.693 91.0249 178.66C91.1331 178.626 91.2097 178.59 91.2545 178.551C91.3006 178.512 91.3168 178.457 91.3032 178.385L91.3003 178.37C91.265 178.184 91.1867 178.049 91.0653 177.965C90.9451 177.882 90.7826 177.86 90.5776 177.899C90.3651 177.94 90.2073 178.019 90.1043 178.136C90.0012 178.252 89.9352 178.368 89.9062 178.483L89.455 178.414C89.4971 178.223 89.5717 178.067 89.6788 177.944C89.787 177.82 89.9122 177.724 90.0544 177.656C90.1977 177.587 90.3423 177.538 90.4881 177.51C90.5812 177.492 90.6902 177.482 90.8152 177.482C90.9412 177.479 91.0673 177.501 91.1933 177.547C91.3206 177.593 91.435 177.677 91.5364 177.8C91.6379 177.922 91.7104 178.099 91.7541 178.329L92.1161 180.239L91.6709 180.325L91.5965 179.933L91.5739 179.937C91.5556 180.006 91.5181 180.083 91.4613 180.168C91.4045 180.254 91.3224 180.333 91.2149 180.406C91.1075 180.479 90.9696 180.532 90.8011 180.564ZM90.7932 180.151C90.9692 180.117 91.111 180.054 91.2186 179.961C91.3275 179.868 91.4023 179.761 91.4432 179.64C91.4853 179.518 91.4949 179.397 91.472 179.276L91.3948 178.868C91.3802 178.895 91.3426 178.923 91.2821 178.955C91.2226 178.984 91.1526 179.014 91.0722 179.044C90.9929 179.073 90.9152 179.099 90.8391 179.125C90.7641 179.148 90.7033 179.168 90.6567 179.183C90.5439 179.221 90.4404 179.266 90.3462 179.32C90.2531 179.372 90.1821 179.437 90.1331 179.516C90.0851 179.593 90.0719 179.688 90.0933 179.801C90.1227 179.956 90.2021 180.062 90.3315 180.119C90.462 180.175 90.6159 180.185 90.7932 180.151ZM92.9285 180.082L92.3791 177.183L92.8091 177.099L92.8921 177.537L92.9223 177.531C92.9479 177.378 93.0214 177.243 93.1428 177.127C93.2642 177.011 93.4116 176.936 93.5852 176.902C93.6178 176.896 93.6588 176.889 93.7081 176.88C93.7574 176.872 93.7948 176.867 93.8205 176.864L93.9063 177.317C93.8905 177.317 93.8549 177.318 93.7994 177.321C93.7449 177.322 93.6881 177.328 93.629 177.34C93.4882 177.367 93.368 177.421 93.2686 177.502C93.1701 177.581 93.0986 177.678 93.0541 177.794C93.0105 177.908 93.0011 178.03 93.0259 178.161L93.3737 179.996L92.9285 180.082Z" fill="white"/>
<path fill-rule="evenodd" clip-rule="evenodd" d="M56.0203 91.6041L46.7453 93.5291L44.8408 84.1546L54.1158 82.2301L56.0203 91.6041Z" fill="#464646"/>
<path d="M57.3955 83.3106L82.548 78.0901" stroke="#6F6F6F" stroke-miterlimit="10" stroke-linecap="round"/>
<path d="M58.0044 86.3076L78.2754 82.1001" stroke="#6F6F6F" stroke-miterlimit="10" stroke-linecap="round"/>
<path d="M58.6133 89.3045L69.1213 87.1235" stroke="#6F6F6F" stroke-miterlimit="10" stroke-linecap="round"/>
<path d="M65.1772 169.748L107.111 161.585" stroke="#6F6F6F" stroke-miterlimit="10" stroke-linecap="round"/>
<path d="M69.6084 171.945L101.888 165.661" stroke="#6F6F6F" stroke-miterlimit="10" stroke-linecap="round"/>
<path d="M79.2026 173.742L96.8016 170.315" stroke="#6F6F6F" stroke-miterlimit="10" stroke-linecap="round"/>
<path d="M108.862 105.88C109.667 105.88 109.668 104.63 108.862 104.63C108.058 104.63 108.056 105.88 108.862 105.88Z" fill="white"/>
<path d="M108.862 109.063C109.264 109.063 109.265 108.438 108.862 108.438C108.46 108.438 108.459 109.063 108.862 109.063Z" fill="white"/>
<path d="M197.829 84.9861C198.633 84.9861 198.634 83.7361 197.829 83.7361C197.025 83.7361 197.023 84.9861 197.829 84.9861Z" fill="white"/>
<path d="M199.993 87.4001C200.395 87.4001 200.396 86.7751 199.993 86.7751C199.591 86.7751 199.59 87.4001 199.993 87.4001Z" fill="white"/>
<path d="M34.5742 136.218C35.3787 136.218 35.3797 134.968 34.5742 134.968C33.7697 134.968 33.7682 136.218 34.5742 136.218Z" fill="white"/>
<path d="M37.6338 138.1C38.4383 138.1 38.4393 136.85 37.6338 136.85C36.8298 136.85 36.8283 138.1 37.6338 138.1Z" fill="white"/>
<path d="M34.574 139.401C34.976 139.401 34.977 138.776 34.574 138.776C34.1715 138.776 34.171 139.401 34.574 139.401Z" fill="white"/>
<path d="M107.798 66.8186C108.603 66.8186 108.604 65.5686 107.798 65.5686C106.994 65.5686 106.993 66.8186 107.798 66.8186Z" fill="white"/>
<path d="M105.854 69.8596C106.659 69.8596 106.66 68.6096 105.854 68.6096C105.05 68.6096 105.049 69.8596 105.854 69.8596Z" fill="white"/>
<path d="M104.34 66.4126C104.742 66.4126 104.743 65.7876 104.34 65.7876C103.938 65.7876 103.937 66.4126 104.34 66.4126Z" fill="white"/>
<path d="M160.749 78.4301C161.553 78.4301 161.554 77.1801 160.749 77.1801C159.944 77.1801 159.943 78.4301 160.749 78.4301Z" fill="white"/>
<path d="M162.633 81.509C163.438 81.509 163.439 80.259 162.633 80.259C161.829 80.259 161.827 81.509 162.633 81.509Z" fill="white"/>
<path d="M159.182 81.2345C159.584 81.2345 159.585 80.6095 159.182 80.6095C158.78 80.6095 158.779 81.2345 159.182 81.2345Z" fill="white"/>
<path d="M223.682 143.346C224.487 143.346 224.488 142.096 223.682 142.096C222.878 142.096 222.876 143.346 223.682 143.346Z" fill="white"/>
<path d="M220.178 142.596C220.982 142.596 220.983 141.346 220.178 141.346C219.374 141.346 219.372 142.596 220.178 142.596Z" fill="white"/>
<path d="M222.535 139.736C222.937 139.736 222.938 139.111 222.535 139.111C222.133 139.111 222.132 139.736 222.535 139.736Z" fill="white"/>
<path d="M179.947 184.95C180.751 184.95 180.752 183.7 179.947 183.7C179.142 183.7 179.141 184.95 179.947 184.95Z" fill="white"/>
<path d="M182.304 182.09C182.706 182.09 182.707 181.465 182.304 181.465C181.902 181.465 181.901 182.09 182.304 182.09Z" fill="white"/>
<path d="M71.7822 198.27C72.5867 198.27 72.5877 197.02 71.7822 197.02C70.9777 197.02 70.9762 198.27 71.7822 198.27Z" fill="white"/>
<path d="M68.4654 198.95C68.8674 198.95 68.8684 198.325 68.4654 198.325C68.0634 198.325 68.0624 198.95 68.4654 198.95Z" fill="white"/>
</svg>
